<svg xmlns="http://www.w3.org/2000/svg" width="456.491" height="534.918" viewBox="0 0 456.491 534.918">
  <g id="Group_519" data-name="Group 519" transform="translate(-0.01 -662.907)">
    <g id="Group_518" data-name="Group 518" transform="translate(-490 450)">
      <path id="Path_146695" data-name="Path 146695" d="M393.788,887.867C272.465,781.574,190.184,757.574,137.42,761.374c-52.728,3.8-76.251,35.379-80.02,40.968a2.409,2.409,0,0,0-.389,1.468l1.907,205.18c.693,74.51,32.265,143.95,80.661,187.25,48.367,43.28,113.514,60.44,181.561,30.52,70.079-30.81,134.066-80.89,161.919-162.24,9.793-28.61,10.328-52.82,5.364-73.33s-15.451-37.375-27.8-51.233-26.549-24.7-38.914-33.159c-4.845-3.315-9.4-6.258-13.454-8.879q-1.682-1.088-3.246-2.1A108.547,108.547,0,0,1,393.788,887.867Z" transform="translate(454 -495)" fill="none" stroke="#4f4f4f" stroke-width="2"/>
      <circle id="Ellipse_4880" data-name="Ellipse 4880" cx="5.072" cy="5.072" r="5.072" transform="translate(540.882 212.907)" fill="rgba(37,53,106,0.35)"/>
      <circle id="Ellipse_4881" data-name="Ellipse 4881" cx="5.072" cy="5.072" r="5.072" transform="translate(557.788 212.907)" fill="rgba(37,53,106,0.35)"/>
      <circle id="Ellipse_4882" data-name="Ellipse 4882" cx="5.072" cy="5.072" r="5.072" transform="translate(574.695 212.907)" fill="rgba(37,53,106,0.35)"/>
      <circle id="Ellipse_4883" data-name="Ellipse 4883" cx="5.072" cy="5.072" r="5.072" transform="translate(591.602 212.907)" fill="rgba(37,53,106,0.35)"/>
      <circle id="Ellipse_4884" data-name="Ellipse 4884" cx="5.072" cy="5.072" r="5.072" transform="translate(608.509 212.907)" fill="rgba(37,53,106,0.35)"/>
      <circle id="Ellipse_4885" data-name="Ellipse 4885" cx="5.072" cy="5.072" r="5.072" transform="translate(659.229 212.907)" fill="rgba(37,53,106,0.35)"/>
      <circle id="Ellipse_4886" data-name="Ellipse 4886" cx="5.072" cy="5.072" r="5.072" transform="translate(676.136 212.907)" fill="rgba(37,53,106,0.35)"/>
      <circle id="Ellipse_4887" data-name="Ellipse 4887" cx="5.072" cy="5.072" r="5.072" transform="translate(693.042 212.907)" fill="rgba(37,53,106,0.35)"/>
      <circle id="Ellipse_4888" data-name="Ellipse 4888" cx="5.072" cy="5.072" r="5.072" transform="translate(709.949 212.907)" fill="rgba(37,53,106,0.35)"/>
      <circle id="Ellipse_4889" data-name="Ellipse 4889" cx="5.072" cy="5.072" r="5.072" transform="translate(726.855 212.907)" fill="rgba(37,53,106,0.35)"/>
      <circle id="Ellipse_4890" data-name="Ellipse 4890" cx="5.072" cy="5.072" r="5.072" transform="translate(743.763 212.907)" fill="rgba(37,53,106,0.35)"/>
      <circle id="Ellipse_4891" data-name="Ellipse 4891" cx="5.072" cy="5.072" r="5.072" transform="translate(760.67 212.907)" fill="rgba(37,53,106,0.35)"/>
      <circle id="Ellipse_4892" data-name="Ellipse 4892" cx="5.072" cy="5.072" r="5.072" transform="translate(777.576 212.907)" fill="rgba(37,53,106,0.35)"/>
      <circle id="Ellipse_4893" data-name="Ellipse 4893" cx="5.072" cy="5.072" r="5.072" transform="translate(794.483 212.907)" fill="rgba(37,53,106,0.35)"/>
      <circle id="Ellipse_4894" data-name="Ellipse 4894" cx="5.072" cy="5.072" r="5.072" transform="translate(811.39 212.907)" fill="rgba(37,53,106,0.35)"/>
      <circle id="Ellipse_4895" data-name="Ellipse 4895" cx="5.072" cy="5.072" r="5.072" transform="translate(828.297 212.907)" fill="rgba(37,53,106,0.35)"/>
      <circle id="Ellipse_4896" data-name="Ellipse 4896" cx="5.072" cy="5.072" r="5.072" transform="translate(845.203 212.907)" fill="rgba(37,53,106,0.35)"/>
      <circle id="Ellipse_4897" data-name="Ellipse 4897" cx="5.072" cy="5.072" r="5.072" transform="translate(862.11 212.907)" fill="rgba(37,53,106,0.35)"/>
      <circle id="Ellipse_4898" data-name="Ellipse 4898" cx="5.072" cy="5.072" r="5.072" transform="translate(523.975 229.813)" fill="rgba(37,53,106,0.35)"/>
      <circle id="Ellipse_4899" data-name="Ellipse 4899" cx="5.072" cy="5.072" r="5.072" transform="translate(540.882 229.813)" fill="rgba(37,53,106,0.35)"/>
      <circle id="Ellipse_4900" data-name="Ellipse 4900" cx="5.072" cy="5.072" r="5.072" transform="translate(557.788 229.813)" fill="rgba(37,53,106,0.35)"/>
      <circle id="Ellipse_4901" data-name="Ellipse 4901" cx="5.072" cy="5.072" r="5.072" transform="translate(574.695 229.813)" fill="rgba(37,53,106,0.35)"/>
      <circle id="Ellipse_4902" data-name="Ellipse 4902" cx="5.072" cy="5.072" r="5.072" transform="translate(591.602 229.813)" fill="rgba(37,53,106,0.35)"/>
      <circle id="Ellipse_4903" data-name="Ellipse 4903" cx="5.072" cy="5.072" r="5.072" transform="translate(608.509 229.813)" fill="rgba(37,53,106,0.35)"/>
      <circle id="Ellipse_4904" data-name="Ellipse 4904" cx="5.072" cy="5.072" r="5.072" transform="translate(625.415 229.813)" fill="rgba(37,53,106,0.35)"/>
      <circle id="Ellipse_4905" data-name="Ellipse 4905" cx="5.072" cy="5.072" r="5.072" transform="translate(642.322 229.813)" fill="rgba(37,53,106,0.35)"/>
      <circle id="Ellipse_4906" data-name="Ellipse 4906" cx="5.072" cy="5.072" r="5.072" transform="translate(659.229 229.813)" fill="rgba(37,53,106,0.35)"/>
      <circle id="Ellipse_4907" data-name="Ellipse 4907" cx="5.072" cy="5.072" r="5.072" transform="translate(693.042 229.813)" fill="rgba(37,53,106,0.35)"/>
      <circle id="Ellipse_4908" data-name="Ellipse 4908" cx="5.072" cy="5.072" r="5.072" transform="translate(709.949 229.813)" fill="rgba(37,53,106,0.35)"/>
      <circle id="Ellipse_4909" data-name="Ellipse 4909" cx="5.072" cy="5.072" r="5.072" transform="translate(726.855 229.813)" fill="rgba(37,53,106,0.35)"/>
      <circle id="Ellipse_4910" data-name="Ellipse 4910" cx="5.072" cy="5.072" r="5.072" transform="translate(743.763 229.813)" fill="rgba(37,53,106,0.35)"/>
      <circle id="Ellipse_4911" data-name="Ellipse 4911" cx="5.072" cy="5.072" r="5.072" transform="translate(760.67 229.813)" fill="rgba(37,53,106,0.35)"/>
      <circle id="Ellipse_4912" data-name="Ellipse 4912" cx="5.072" cy="5.072" r="5.072" transform="translate(777.576 229.813)" fill="rgba(37,53,106,0.35)"/>
      <circle id="Ellipse_4913" data-name="Ellipse 4913" cx="5.072" cy="5.072" r="5.072" transform="translate(794.483 229.813)" fill="rgba(37,53,106,0.35)"/>
      <circle id="Ellipse_4914" data-name="Ellipse 4914" cx="5.072" cy="5.072" r="5.072" transform="translate(811.39 229.813)" fill="rgba(37,53,106,0.35)"/>
      <circle id="Ellipse_4915" data-name="Ellipse 4915" cx="5.072" cy="5.072" r="5.072" transform="translate(828.297 229.813)" fill="rgba(37,53,106,0.35)"/>
      <circle id="Ellipse_4916" data-name="Ellipse 4916" cx="5.072" cy="5.072" r="5.072" transform="translate(845.203 229.813)" fill="rgba(37,53,106,0.35)"/>
      <circle id="Ellipse_4917" data-name="Ellipse 4917" cx="5.072" cy="5.072" r="5.072" transform="translate(862.11 229.813)" fill="rgba(37,53,106,0.35)"/>
      <circle id="Ellipse_4918" data-name="Ellipse 4918" cx="5.072" cy="5.072" r="5.072" transform="translate(523.975 246.72)" fill="rgba(37,53,106,0.35)"/>
      <circle id="Ellipse_4919" data-name="Ellipse 4919" cx="5.072" cy="5.072" r="5.072" transform="translate(540.882 246.72)" fill="rgba(37,53,106,0.35)"/>
      <circle id="Ellipse_4920" data-name="Ellipse 4920" cx="5.072" cy="5.072" r="5.072" transform="translate(557.788 246.72)" fill="rgba(37,53,106,0.35)"/>
      <circle id="Ellipse_4921" data-name="Ellipse 4921" cx="5.072" cy="5.072" r="5.072" transform="translate(574.695 246.72)" fill="rgba(37,53,106,0.35)"/>
      <circle id="Ellipse_4922" data-name="Ellipse 4922" cx="5.072" cy="5.072" r="5.072" transform="translate(591.602 246.72)" fill="rgba(37,53,106,0.35)"/>
      <circle id="Ellipse_4923" data-name="Ellipse 4923" cx="5.072" cy="5.072" r="5.072" transform="translate(608.509 246.72)" fill="rgba(37,53,106,0.35)"/>
      <circle id="Ellipse_4924" data-name="Ellipse 4924" cx="5.072" cy="5.072" r="5.072" transform="translate(625.415 246.72)" fill="rgba(37,53,106,0.35)"/>
      <circle id="Ellipse_4925" data-name="Ellipse 4925" cx="5.072" cy="5.072" r="5.072" transform="translate(642.322 246.72)" fill="rgba(37,53,106,0.35)"/>
      <circle id="Ellipse_4926" data-name="Ellipse 4926" cx="5.072" cy="5.072" r="5.072" transform="translate(659.229 246.72)" fill="rgba(37,53,106,0.35)"/>
      <circle id="Ellipse_4927" data-name="Ellipse 4927" cx="5.072" cy="5.072" r="5.072" transform="translate(676.136 246.72)" fill="rgba(37,53,106,0.35)"/>
      <circle id="Ellipse_4928" data-name="Ellipse 4928" cx="5.072" cy="5.072" r="5.072" transform="translate(693.042 246.72)" fill="rgba(37,53,106,0.35)"/>
      <circle id="Ellipse_4929" data-name="Ellipse 4929" cx="5.072" cy="5.072" r="5.072" transform="translate(726.855 246.72)" fill="rgba(37,53,106,0.35)"/>
      <circle id="Ellipse_4930" data-name="Ellipse 4930" cx="5.072" cy="5.072" r="5.072" transform="translate(743.763 246.72)" fill="rgba(37,53,106,0.35)"/>
      <circle id="Ellipse_4931" data-name="Ellipse 4931" cx="5.072" cy="5.072" r="5.072" transform="translate(760.67 246.72)" fill="rgba(37,53,106,0.35)"/>
      <circle id="Ellipse_4932" data-name="Ellipse 4932" cx="5.072" cy="5.072" r="5.072" transform="translate(777.576 246.72)" fill="rgba(37,53,106,0.35)"/>
      <circle id="Ellipse_4933" data-name="Ellipse 4933" cx="5.072" cy="5.072" r="5.072" transform="translate(794.483 246.72)" fill="rgba(37,53,106,0.35)"/>
      <circle id="Ellipse_4934" data-name="Ellipse 4934" cx="5.072" cy="5.072" r="5.072" transform="translate(811.39 246.72)" fill="rgba(37,53,106,0.35)"/>
      <circle id="Ellipse_4935" data-name="Ellipse 4935" cx="5.072" cy="5.072" r="5.072" transform="translate(828.297 246.72)" fill="rgba(37,53,106,0.35)"/>
      <circle id="Ellipse_4936" data-name="Ellipse 4936" cx="5.072" cy="5.072" r="5.072" transform="translate(845.203 246.72)" fill="rgba(37,53,106,0.35)"/>
      <circle id="Ellipse_4937" data-name="Ellipse 4937" cx="5.072" cy="5.072" r="5.072" transform="translate(862.11 246.72)" fill="rgba(37,53,106,0.35)"/>
      <circle id="Ellipse_4938" data-name="Ellipse 4938" cx="5.072" cy="5.072" r="5.072" transform="translate(523.975 263.627)" fill="rgba(37,53,106,0.35)"/>
      <circle id="Ellipse_4939" data-name="Ellipse 4939" cx="5.072" cy="5.072" r="5.072" transform="translate(540.882 263.627)" fill="rgba(37,53,106,0.35)"/>
      <circle id="Ellipse_4940" data-name="Ellipse 4940" cx="5.072" cy="5.072" r="5.072" transform="translate(557.788 263.627)" fill="rgba(37,53,106,0.35)"/>
      <circle id="Ellipse_4941" data-name="Ellipse 4941" cx="5.072" cy="5.072" r="5.072" transform="translate(574.695 263.627)" fill="rgba(37,53,106,0.35)"/>
      <circle id="Ellipse_4942" data-name="Ellipse 4942" cx="5.072" cy="5.072" r="5.072" transform="translate(591.602 263.627)" fill="rgba(37,53,106,0.35)"/>
      <circle id="Ellipse_4943" data-name="Ellipse 4943" cx="5.072" cy="5.072" r="5.072" transform="translate(608.509 263.627)" fill="rgba(37,53,106,0.35)"/>
      <circle id="Ellipse_4944" data-name="Ellipse 4944" cx="5.072" cy="5.072" r="5.072" transform="translate(625.415 263.627)" fill="rgba(37,53,106,0.35)"/>
      <circle id="Ellipse_4945" data-name="Ellipse 4945" cx="5.072" cy="5.072" r="5.072" transform="translate(642.322 263.627)" fill="rgba(37,53,106,0.35)"/>
      <circle id="Ellipse_4946" data-name="Ellipse 4946" cx="5.072" cy="5.072" r="5.072" transform="translate(659.229 263.627)" fill="rgba(37,53,106,0.35)"/>
      <circle id="Ellipse_4947" data-name="Ellipse 4947" cx="5.072" cy="5.072" r="5.072" transform="translate(676.136 263.627)" fill="rgba(37,53,106,0.35)"/>
      <circle id="Ellipse_4948" data-name="Ellipse 4948" cx="5.072" cy="5.072" r="5.072" transform="translate(693.042 263.627)" fill="rgba(37,53,106,0.35)"/>
      <circle id="Ellipse_4949" data-name="Ellipse 4949" cx="5.072" cy="5.072" r="5.072" transform="translate(709.949 263.627)" fill="rgba(37,53,106,0.35)"/>
      <circle id="Ellipse_4950" data-name="Ellipse 4950" cx="5.072" cy="5.072" r="5.072" transform="translate(743.763 263.627)" fill="rgba(37,53,106,0.35)"/>
      <circle id="Ellipse_4951" data-name="Ellipse 4951" cx="5.072" cy="5.072" r="5.072" transform="translate(760.67 263.627)" fill="rgba(37,53,106,0.35)"/>
      <circle id="Ellipse_4952" data-name="Ellipse 4952" cx="5.072" cy="5.072" r="5.072" transform="translate(777.576 263.627)" fill="rgba(37,53,106,0.35)"/>
      <circle id="Ellipse_4953" data-name="Ellipse 4953" cx="5.072" cy="5.072" r="5.072" transform="translate(794.483 263.627)" fill="rgba(37,53,106,0.35)"/>
      <circle id="Ellipse_4954" data-name="Ellipse 4954" cx="5.072" cy="5.072" r="5.072" transform="translate(811.39 263.627)" fill="rgba(37,53,106,0.35)"/>
      <circle id="Ellipse_4955" data-name="Ellipse 4955" cx="5.072" cy="5.072" r="5.072" transform="translate(828.297 263.627)" fill="rgba(37,53,106,0.35)"/>
      <circle id="Ellipse_4956" data-name="Ellipse 4956" cx="5.072" cy="5.072" r="5.072" transform="translate(845.203 263.627)" fill="rgba(37,53,106,0.35)"/>
      <circle id="Ellipse_4957" data-name="Ellipse 4957" cx="5.072" cy="5.072" r="5.072" transform="translate(862.11 263.627)" fill="rgba(37,53,106,0.35)"/>
      <circle id="Ellipse_4958" data-name="Ellipse 4958" cx="5.072" cy="5.072" r="5.072" transform="translate(523.975 280.534)" fill="rgba(37,53,106,0.35)"/>
      <circle id="Ellipse_4959" data-name="Ellipse 4959" cx="5.072" cy="5.072" r="5.072" transform="translate(540.882 280.534)" fill="rgba(37,53,106,0.35)"/>
      <circle id="Ellipse_4960" data-name="Ellipse 4960" cx="5.072" cy="5.072" r="5.072" transform="translate(557.788 280.534)" fill="rgba(37,53,106,0.35)"/>
      <circle id="Ellipse_4961" data-name="Ellipse 4961" cx="5.072" cy="5.072" r="5.072" transform="translate(574.695 280.534)" fill="rgba(37,53,106,0.35)"/>
      <circle id="Ellipse_4962" data-name="Ellipse 4962" cx="5.072" cy="5.072" r="5.072" transform="translate(591.602 280.534)" fill="rgba(37,53,106,0.35)"/>
      <circle id="Ellipse_4963" data-name="Ellipse 4963" cx="5.072" cy="5.072" r="5.072" transform="translate(608.509 280.534)" fill="rgba(37,53,106,0.35)"/>
      <circle id="Ellipse_4964" data-name="Ellipse 4964" cx="5.072" cy="5.072" r="5.072" transform="translate(625.415 280.534)" fill="rgba(37,53,106,0.35)"/>
      <circle id="Ellipse_4965" data-name="Ellipse 4965" cx="5.072" cy="5.072" r="5.072" transform="translate(642.322 280.534)" fill="rgba(37,53,106,0.35)"/>
      <circle id="Ellipse_4966" data-name="Ellipse 4966" cx="5.072" cy="5.072" r="5.072" transform="translate(659.229 280.534)" fill="rgba(37,53,106,0.35)"/>
      <circle id="Ellipse_4967" data-name="Ellipse 4967" cx="5.072" cy="5.072" r="5.072" transform="translate(676.136 280.534)" fill="rgba(37,53,106,0.35)"/>
      <circle id="Ellipse_4968" data-name="Ellipse 4968" cx="5.072" cy="5.072" r="5.072" transform="translate(693.042 280.534)" fill="rgba(37,53,106,0.35)"/>
      <circle id="Ellipse_4969" data-name="Ellipse 4969" cx="5.072" cy="5.072" r="5.072" transform="translate(709.949 280.534)" fill="rgba(37,53,106,0.35)"/>
      <circle id="Ellipse_4970" data-name="Ellipse 4970" cx="5.072" cy="5.072" r="5.072" transform="translate(726.855 280.534)" fill="rgba(37,53,106,0.35)"/>
      <circle id="Ellipse_4971" data-name="Ellipse 4971" cx="5.072" cy="5.072" r="5.072" transform="translate(743.763 280.534)" fill="rgba(37,53,106,0.35)"/>
      <circle id="Ellipse_4972" data-name="Ellipse 4972" cx="5.072" cy="5.072" r="5.072" transform="translate(777.576 280.534)" fill="rgba(37,53,106,0.35)"/>
      <circle id="Ellipse_4973" data-name="Ellipse 4973" cx="5.072" cy="5.072" r="5.072" transform="translate(794.483 280.534)" fill="rgba(37,53,106,0.35)"/>
      <circle id="Ellipse_4974" data-name="Ellipse 4974" cx="5.072" cy="5.072" r="5.072" transform="translate(811.39 280.534)" fill="rgba(37,53,106,0.35)"/>
      <circle id="Ellipse_4975" data-name="Ellipse 4975" cx="5.072" cy="5.072" r="5.072" transform="translate(828.297 280.534)" fill="rgba(37,53,106,0.35)"/>
      <circle id="Ellipse_4976" data-name="Ellipse 4976" cx="5.072" cy="5.072" r="5.072" transform="translate(845.203 280.534)" fill="rgba(37,53,106,0.35)"/>
      <circle id="Ellipse_4977" data-name="Ellipse 4977" cx="5.072" cy="5.072" r="5.072" transform="translate(862.11 280.534)" fill="rgba(37,53,106,0.35)"/>
      <circle id="Ellipse_4978" data-name="Ellipse 4978" cx="5.072" cy="5.072" r="5.072" transform="translate(523.975 297.441)" fill="rgba(37,53,106,0.35)"/>
      <circle id="Ellipse_4979" data-name="Ellipse 4979" cx="5.072" cy="5.072" r="5.072" transform="translate(540.882 297.441)" fill="rgba(37,53,106,0.35)"/>
      <circle id="Ellipse_4980" data-name="Ellipse 4980" cx="5.072" cy="5.072" r="5.072" transform="translate(557.788 297.441)" fill="rgba(37,53,106,0.35)"/>
      <circle id="Ellipse_4981" data-name="Ellipse 4981" cx="5.072" cy="5.072" r="5.072" transform="translate(574.695 297.441)" fill="rgba(37,53,106,0.35)"/>
      <circle id="Ellipse_4982" data-name="Ellipse 4982" cx="5.072" cy="5.072" r="5.072" transform="translate(591.602 297.441)" fill="rgba(37,53,106,0.35)"/>
      <circle id="Ellipse_4983" data-name="Ellipse 4983" cx="5.072" cy="5.072" r="5.072" transform="translate(608.509 297.441)" fill="rgba(37,53,106,0.35)"/>
      <circle id="Ellipse_4984" data-name="Ellipse 4984" cx="5.072" cy="5.072" r="5.072" transform="translate(625.415 297.441)" fill="rgba(37,53,106,0.35)"/>
      <circle id="Ellipse_4985" data-name="Ellipse 4985" cx="5.072" cy="5.072" r="5.072" transform="translate(642.322 297.441)" fill="rgba(37,53,106,0.35)"/>
      <circle id="Ellipse_4986" data-name="Ellipse 4986" cx="5.072" cy="5.072" r="5.072" transform="translate(659.229 297.441)" fill="rgba(37,53,106,0.35)"/>
      <circle id="Ellipse_4987" data-name="Ellipse 4987" cx="5.072" cy="5.072" r="5.072" transform="translate(676.136 297.441)" fill="rgba(37,53,106,0.35)"/>
      <circle id="Ellipse_4988" data-name="Ellipse 4988" cx="5.072" cy="5.072" r="5.072" transform="translate(693.042 297.441)" fill="rgba(37,53,106,0.35)"/>
      <circle id="Ellipse_4989" data-name="Ellipse 4989" cx="5.072" cy="5.072" r="5.072" transform="translate(709.949 297.441)" fill="rgba(37,53,106,0.35)"/>
      <circle id="Ellipse_4990" data-name="Ellipse 4990" cx="5.072" cy="5.072" r="5.072" transform="translate(726.855 297.441)" fill="rgba(37,53,106,0.35)"/>
      <circle id="Ellipse_4991" data-name="Ellipse 4991" cx="5.072" cy="5.072" r="5.072" transform="translate(743.763 297.441)" fill="rgba(37,53,106,0.35)"/>
      <circle id="Ellipse_4992" data-name="Ellipse 4992" cx="5.072" cy="5.072" r="5.072" transform="translate(760.67 297.441)" fill="rgba(37,53,106,0.35)"/>
      <circle id="Ellipse_4993" data-name="Ellipse 4993" cx="5.072" cy="5.072" r="5.072" transform="translate(794.483 297.441)" fill="rgba(37,53,106,0.35)"/>
      <circle id="Ellipse_4994" data-name="Ellipse 4994" cx="5.072" cy="5.072" r="5.072" transform="translate(811.39 297.441)" fill="rgba(37,53,106,0.35)"/>
      <circle id="Ellipse_4995" data-name="Ellipse 4995" cx="5.072" cy="5.072" r="5.072" transform="translate(828.297 297.441)" fill="rgba(37,53,106,0.35)"/>
      <circle id="Ellipse_4996" data-name="Ellipse 4996" cx="5.072" cy="5.072" r="5.072" transform="translate(845.203 297.441)" fill="rgba(37,53,106,0.35)"/>
      <circle id="Ellipse_4997" data-name="Ellipse 4997" cx="5.072" cy="5.072" r="5.072" transform="translate(862.11 297.441)" fill="rgba(37,53,106,0.35)"/>
      <circle id="Ellipse_4998" data-name="Ellipse 4998" cx="5.072" cy="5.072" r="5.072" transform="translate(523.975 314.347)" fill="rgba(37,53,106,0.35)"/>
      <circle id="Ellipse_4999" data-name="Ellipse 4999" cx="5.072" cy="5.072" r="5.072" transform="translate(540.882 314.347)" fill="rgba(37,53,106,0.35)"/>
      <circle id="Ellipse_5000" data-name="Ellipse 5000" cx="5.072" cy="5.072" r="5.072" transform="translate(557.788 314.347)" fill="rgba(37,53,106,0.35)"/>
      <circle id="Ellipse_5001" data-name="Ellipse 5001" cx="5.072" cy="5.072" r="5.072" transform="translate(574.695 314.347)" fill="rgba(37,53,106,0.35)"/>
      <circle id="Ellipse_5002" data-name="Ellipse 5002" cx="5.072" cy="5.072" r="5.072" transform="translate(591.602 314.347)" fill="rgba(37,53,106,0.35)"/>
      <circle id="Ellipse_5003" data-name="Ellipse 5003" cx="5.072" cy="5.072" r="5.072" transform="translate(608.509 314.347)" fill="rgba(37,53,106,0.35)"/>
      <circle id="Ellipse_5004" data-name="Ellipse 5004" cx="5.072" cy="5.072" r="5.072" transform="translate(625.415 314.347)" fill="rgba(37,53,106,0.35)"/>
      <circle id="Ellipse_5005" data-name="Ellipse 5005" cx="5.072" cy="5.072" r="5.072" transform="translate(642.322 314.347)" fill="rgba(37,53,106,0.35)"/>
      <circle id="Ellipse_5006" data-name="Ellipse 5006" cx="5.072" cy="5.072" r="5.072" transform="translate(659.229 314.347)" fill="rgba(37,53,106,0.35)"/>
      <circle id="Ellipse_5007" data-name="Ellipse 5007" cx="5.072" cy="5.072" r="5.072" transform="translate(676.136 314.347)" fill="rgba(37,53,106,0.35)"/>
      <circle id="Ellipse_5008" data-name="Ellipse 5008" cx="5.072" cy="5.072" r="5.072" transform="translate(693.042 314.347)" fill="rgba(37,53,106,0.35)"/>
      <circle id="Ellipse_5009" data-name="Ellipse 5009" cx="5.072" cy="5.072" r="5.072" transform="translate(709.949 314.347)" fill="rgba(37,53,106,0.35)"/>
      <circle id="Ellipse_5010" data-name="Ellipse 5010" cx="5.072" cy="5.072" r="5.072" transform="translate(726.855 314.347)" fill="rgba(37,53,106,0.35)"/>
      <circle id="Ellipse_5011" data-name="Ellipse 5011" cx="5.072" cy="5.072" r="5.072" transform="translate(743.763 314.347)" fill="rgba(37,53,106,0.35)"/>
      <circle id="Ellipse_5012" data-name="Ellipse 5012" cx="5.072" cy="5.072" r="5.072" transform="translate(760.67 314.347)" fill="rgba(37,53,106,0.35)"/>
      <circle id="Ellipse_5013" data-name="Ellipse 5013" cx="5.072" cy="5.072" r="5.072" transform="translate(777.576 314.347)" fill="rgba(37,53,106,0.35)"/>
      <circle id="Ellipse_5014" data-name="Ellipse 5014" cx="5.072" cy="5.072" r="5.072" transform="translate(811.39 314.347)" fill="rgba(37,53,106,0.35)"/>
      <circle id="Ellipse_5015" data-name="Ellipse 5015" cx="5.072" cy="5.072" r="5.072" transform="translate(828.297 314.347)" fill="rgba(37,53,106,0.35)"/>
      <circle id="Ellipse_5016" data-name="Ellipse 5016" cx="5.072" cy="5.072" r="5.072" transform="translate(845.203 314.347)" fill="rgba(37,53,106,0.35)"/>
      <circle id="Ellipse_5017" data-name="Ellipse 5017" cx="5.072" cy="5.072" r="5.072" transform="translate(862.11 314.347)" fill="rgba(37,53,106,0.35)"/>
      <circle id="Ellipse_5018" data-name="Ellipse 5018" cx="5.072" cy="5.072" r="5.072" transform="translate(523.975 331.254)" fill="rgba(37,53,106,0.35)"/>
      <circle id="Ellipse_5019" data-name="Ellipse 5019" cx="5.072" cy="5.072" r="5.072" transform="translate(540.882 331.254)" fill="rgba(37,53,106,0.35)"/>
      <circle id="Ellipse_5020" data-name="Ellipse 5020" cx="5.072" cy="5.072" r="5.072" transform="translate(557.788 331.254)" fill="rgba(37,53,106,0.35)"/>
      <circle id="Ellipse_5021" data-name="Ellipse 5021" cx="5.072" cy="5.072" r="5.072" transform="translate(574.695 331.254)" fill="rgba(37,53,106,0.35)"/>
      <circle id="Ellipse_5022" data-name="Ellipse 5022" cx="5.072" cy="5.072" r="5.072" transform="translate(591.602 331.254)" fill="rgba(37,53,106,0.35)"/>
      <circle id="Ellipse_5023" data-name="Ellipse 5023" cx="5.072" cy="5.072" r="5.072" transform="translate(608.509 331.254)" fill="rgba(37,53,106,0.35)"/>
      <circle id="Ellipse_5024" data-name="Ellipse 5024" cx="5.072" cy="5.072" r="5.072" transform="translate(625.415 331.254)" fill="rgba(37,53,106,0.35)"/>
      <circle id="Ellipse_5025" data-name="Ellipse 5025" cx="5.072" cy="5.072" r="5.072" transform="translate(642.322 331.254)" fill="rgba(37,53,106,0.35)"/>
      <circle id="Ellipse_5026" data-name="Ellipse 5026" cx="5.072" cy="5.072" r="5.072" transform="translate(659.229 331.254)" fill="rgba(37,53,106,0.35)"/>
      <circle id="Ellipse_5027" data-name="Ellipse 5027" cx="5.072" cy="5.072" r="5.072" transform="translate(676.136 331.254)" fill="rgba(37,53,106,0.35)"/>
      <circle id="Ellipse_5028" data-name="Ellipse 5028" cx="5.072" cy="5.072" r="5.072" transform="translate(693.042 331.254)" fill="rgba(37,53,106,0.35)"/>
      <circle id="Ellipse_5029" data-name="Ellipse 5029" cx="5.072" cy="5.072" r="5.072" transform="translate(709.949 331.254)" fill="rgba(37,53,106,0.35)"/>
      <circle id="Ellipse_5030" data-name="Ellipse 5030" cx="5.072" cy="5.072" r="5.072" transform="translate(726.855 331.254)" fill="rgba(37,53,106,0.35)"/>
      <circle id="Ellipse_5031" data-name="Ellipse 5031" cx="5.072" cy="5.072" r="5.072" transform="translate(743.763 331.254)" fill="rgba(37,53,106,0.35)"/>
      <circle id="Ellipse_5032" data-name="Ellipse 5032" cx="5.072" cy="5.072" r="5.072" transform="translate(760.67 331.254)" fill="rgba(37,53,106,0.35)"/>
      <circle id="Ellipse_5033" data-name="Ellipse 5033" cx="5.072" cy="5.072" r="5.072" transform="translate(777.576 331.254)" fill="rgba(37,53,106,0.35)"/>
      <circle id="Ellipse_5034" data-name="Ellipse 5034" cx="5.072" cy="5.072" r="5.072" transform="translate(794.483 331.254)" fill="rgba(37,53,106,0.35)"/>
      <circle id="Ellipse_5035" data-name="Ellipse 5035" cx="5.072" cy="5.072" r="5.072" transform="translate(811.39 331.254)" fill="rgba(37,53,106,0.35)"/>
      <circle id="Ellipse_5036" data-name="Ellipse 5036" cx="5.072" cy="5.072" r="5.072" transform="translate(845.203 331.254)" fill="rgba(37,53,106,0.35)"/>
      <circle id="Ellipse_5037" data-name="Ellipse 5037" cx="5.072" cy="5.072" r="5.072" transform="translate(862.11 331.254)" fill="rgba(37,53,106,0.35)"/>
      <circle id="Ellipse_5038" data-name="Ellipse 5038" cx="5.072" cy="5.072" r="5.072" transform="translate(523.975 348.161)" fill="rgba(37,53,106,0.35)"/>
      <circle id="Ellipse_5039" data-name="Ellipse 5039" cx="5.072" cy="5.072" r="5.072" transform="translate(540.882 348.161)" fill="rgba(37,53,106,0.35)"/>
      <circle id="Ellipse_5040" data-name="Ellipse 5040" cx="5.072" cy="5.072" r="5.072" transform="translate(557.788 348.161)" fill="rgba(37,53,106,0.35)"/>
      <circle id="Ellipse_5041" data-name="Ellipse 5041" cx="5.072" cy="5.072" r="5.072" transform="translate(574.695 348.161)" fill="rgba(37,53,106,0.35)"/>
      <circle id="Ellipse_5042" data-name="Ellipse 5042" cx="5.072" cy="5.072" r="5.072" transform="translate(591.602 348.161)" fill="rgba(37,53,106,0.35)"/>
      <circle id="Ellipse_5043" data-name="Ellipse 5043" cx="5.072" cy="5.072" r="5.072" transform="translate(608.509 348.161)" fill="rgba(37,53,106,0.35)"/>
      <circle id="Ellipse_5044" data-name="Ellipse 5044" cx="5.072" cy="5.072" r="5.072" transform="translate(625.415 348.161)" fill="rgba(37,53,106,0.35)"/>
      <circle id="Ellipse_5045" data-name="Ellipse 5045" cx="5.072" cy="5.072" r="5.072" transform="translate(642.322 348.161)" fill="rgba(37,53,106,0.35)"/>
      <circle id="Ellipse_5046" data-name="Ellipse 5046" cx="5.072" cy="5.072" r="5.072" transform="translate(659.229 348.161)" fill="rgba(37,53,106,0.35)"/>
      <circle id="Ellipse_5047" data-name="Ellipse 5047" cx="5.072" cy="5.072" r="5.072" transform="translate(676.136 348.161)" fill="rgba(37,53,106,0.35)"/>
      <circle id="Ellipse_5048" data-name="Ellipse 5048" cx="5.072" cy="5.072" r="5.072" transform="translate(693.042 348.161)" fill="rgba(37,53,106,0.35)"/>
      <circle id="Ellipse_5049" data-name="Ellipse 5049" cx="5.072" cy="5.072" r="5.072" transform="translate(709.949 348.161)" fill="rgba(37,53,106,0.35)"/>
      <circle id="Ellipse_5050" data-name="Ellipse 5050" cx="5.072" cy="5.072" r="5.072" transform="translate(726.855 348.161)" fill="rgba(37,53,106,0.35)"/>
      <circle id="Ellipse_5051" data-name="Ellipse 5051" cx="5.072" cy="5.072" r="5.072" transform="translate(743.763 348.161)" fill="rgba(37,53,106,0.35)"/>
      <circle id="Ellipse_5052" data-name="Ellipse 5052" cx="5.072" cy="5.072" r="5.072" transform="translate(760.67 348.161)" fill="rgba(37,53,106,0.35)"/>
      <circle id="Ellipse_5053" data-name="Ellipse 5053" cx="5.072" cy="5.072" r="5.072" transform="translate(777.576 348.161)" fill="rgba(37,53,106,0.35)"/>
      <circle id="Ellipse_5054" data-name="Ellipse 5054" cx="5.072" cy="5.072" r="5.072" transform="translate(794.483 348.161)" fill="rgba(37,53,106,0.35)"/>
      <circle id="Ellipse_5055" data-name="Ellipse 5055" cx="5.072" cy="5.072" r="5.072" transform="translate(811.39 348.161)" fill="rgba(37,53,106,0.35)"/>
      <circle id="Ellipse_5056" data-name="Ellipse 5056" cx="5.072" cy="5.072" r="5.072" transform="translate(828.297 348.161)" fill="rgba(37,53,106,0.35)"/>
      <circle id="Ellipse_5057" data-name="Ellipse 5057" cx="5.072" cy="5.072" r="5.072" transform="translate(862.11 348.161)" fill="rgba(37,53,106,0.35)"/>
      <circle id="Ellipse_5058" data-name="Ellipse 5058" cx="5.072" cy="5.072" r="5.072" transform="translate(523.975 365.068)" fill="rgba(37,53,106,0.35)"/>
      <circle id="Ellipse_5059" data-name="Ellipse 5059" cx="5.072" cy="5.072" r="5.072" transform="translate(540.882 365.068)" fill="rgba(37,53,106,0.35)"/>
      <circle id="Ellipse_5060" data-name="Ellipse 5060" cx="5.072" cy="5.072" r="5.072" transform="translate(557.788 365.068)" fill="rgba(37,53,106,0.35)"/>
      <circle id="Ellipse_5061" data-name="Ellipse 5061" cx="5.072" cy="5.072" r="5.072" transform="translate(574.695 365.068)" fill="rgba(37,53,106,0.35)"/>
      <circle id="Ellipse_5062" data-name="Ellipse 5062" cx="5.072" cy="5.072" r="5.072" transform="translate(591.602 365.068)" fill="rgba(37,53,106,0.35)"/>
      <circle id="Ellipse_5063" data-name="Ellipse 5063" cx="5.072" cy="5.072" r="5.072" transform="translate(608.509 365.068)" fill="rgba(37,53,106,0.35)"/>
      <circle id="Ellipse_5064" data-name="Ellipse 5064" cx="5.072" cy="5.072" r="5.072" transform="translate(625.415 365.068)" fill="rgba(37,53,106,0.35)"/>
      <circle id="Ellipse_5065" data-name="Ellipse 5065" cx="5.072" cy="5.072" r="5.072" transform="translate(642.322 365.068)" fill="rgba(37,53,106,0.35)"/>
      <circle id="Ellipse_5066" data-name="Ellipse 5066" cx="5.072" cy="5.072" r="5.072" transform="translate(659.229 365.068)" fill="rgba(37,53,106,0.35)"/>
      <circle id="Ellipse_5067" data-name="Ellipse 5067" cx="5.072" cy="5.072" r="5.072" transform="translate(676.136 365.068)" fill="rgba(37,53,106,0.35)"/>
      <circle id="Ellipse_5068" data-name="Ellipse 5068" cx="5.072" cy="5.072" r="5.072" transform="translate(693.042 365.068)" fill="rgba(37,53,106,0.35)"/>
      <circle id="Ellipse_5069" data-name="Ellipse 5069" cx="5.072" cy="5.072" r="5.072" transform="translate(709.949 365.068)" fill="rgba(37,53,106,0.35)"/>
      <circle id="Ellipse_5070" data-name="Ellipse 5070" cx="5.072" cy="5.072" r="5.072" transform="translate(726.855 365.068)" fill="rgba(37,53,106,0.35)"/>
      <circle id="Ellipse_5071" data-name="Ellipse 5071" cx="5.072" cy="5.072" r="5.072" transform="translate(743.763 365.068)" fill="rgba(37,53,106,0.35)"/>
      <circle id="Ellipse_5072" data-name="Ellipse 5072" cx="5.072" cy="5.072" r="5.072" transform="translate(760.67 365.068)" fill="rgba(37,53,106,0.35)"/>
      <circle id="Ellipse_5073" data-name="Ellipse 5073" cx="5.072" cy="5.072" r="5.072" transform="translate(777.576 365.068)" fill="rgba(37,53,106,0.35)"/>
      <circle id="Ellipse_5074" data-name="Ellipse 5074" cx="5.072" cy="5.072" r="5.072" transform="translate(794.483 365.068)" fill="rgba(37,53,106,0.35)"/>
      <circle id="Ellipse_5075" data-name="Ellipse 5075" cx="5.072" cy="5.072" r="5.072" transform="translate(811.39 365.068)" fill="rgba(37,53,106,0.35)"/>
      <circle id="Ellipse_5076" data-name="Ellipse 5076" cx="5.072" cy="5.072" r="5.072" transform="translate(828.297 365.068)" fill="rgba(37,53,106,0.35)"/>
      <circle id="Ellipse_5077" data-name="Ellipse 5077" cx="5.072" cy="5.072" r="5.072" transform="translate(845.203 365.068)" fill="rgba(37,53,106,0.35)"/>
      <circle id="Ellipse_5078" data-name="Ellipse 5078" cx="5.072" cy="5.072" r="5.072" transform="translate(862.11 365.068)" fill="rgba(37,53,106,0.35)"/>
      <circle id="Ellipse_5079" data-name="Ellipse 5079" cx="5.072" cy="5.072" r="5.072" transform="translate(523.975 381.975)" fill="rgba(37,53,106,0.35)"/>
      <circle id="Ellipse_5080" data-name="Ellipse 5080" cx="5.072" cy="5.072" r="5.072" transform="translate(540.882 381.975)" fill="rgba(37,53,106,0.35)"/>
      <circle id="Ellipse_5081" data-name="Ellipse 5081" cx="5.072" cy="5.072" r="5.072" transform="translate(557.788 381.975)" fill="rgba(37,53,106,0.35)"/>
      <circle id="Ellipse_5082" data-name="Ellipse 5082" cx="5.072" cy="5.072" r="5.072" transform="translate(574.695 381.975)" fill="rgba(37,53,106,0.35)"/>
      <circle id="Ellipse_5083" data-name="Ellipse 5083" cx="5.072" cy="5.072" r="5.072" transform="translate(591.602 381.975)" fill="rgba(37,53,106,0.35)"/>
      <circle id="Ellipse_5084" data-name="Ellipse 5084" cx="5.072" cy="5.072" r="5.072" transform="translate(608.509 381.975)" fill="rgba(37,53,106,0.35)"/>
      <circle id="Ellipse_5085" data-name="Ellipse 5085" cx="5.072" cy="5.072" r="5.072" transform="translate(625.415 381.975)" fill="rgba(37,53,106,0.35)"/>
      <circle id="Ellipse_5086" data-name="Ellipse 5086" cx="5.072" cy="5.072" r="5.072" transform="translate(642.322 381.975)" fill="rgba(37,53,106,0.35)"/>
      <circle id="Ellipse_5087" data-name="Ellipse 5087" cx="5.072" cy="5.072" r="5.072" transform="translate(659.229 381.975)" fill="rgba(37,53,106,0.35)"/>
      <circle id="Ellipse_5088" data-name="Ellipse 5088" cx="5.072" cy="5.072" r="5.072" transform="translate(676.136 381.975)" fill="rgba(37,53,106,0.35)"/>
      <circle id="Ellipse_5089" data-name="Ellipse 5089" cx="5.072" cy="5.072" r="5.072" transform="translate(693.042 381.975)" fill="rgba(37,53,106,0.35)"/>
      <circle id="Ellipse_5090" data-name="Ellipse 5090" cx="5.072" cy="5.072" r="5.072" transform="translate(709.949 381.975)" fill="rgba(37,53,106,0.35)"/>
      <circle id="Ellipse_5091" data-name="Ellipse 5091" cx="5.072" cy="5.072" r="5.072" transform="translate(726.855 381.975)" fill="rgba(37,53,106,0.35)"/>
      <circle id="Ellipse_5092" data-name="Ellipse 5092" cx="5.072" cy="5.072" r="5.072" transform="translate(743.763 381.975)" fill="rgba(37,53,106,0.35)"/>
      <circle id="Ellipse_5093" data-name="Ellipse 5093" cx="5.072" cy="5.072" r="5.072" transform="translate(760.67 381.975)" fill="rgba(37,53,106,0.35)"/>
      <circle id="Ellipse_5094" data-name="Ellipse 5094" cx="5.072" cy="5.072" r="5.072" transform="translate(777.576 381.975)" fill="rgba(37,53,106,0.35)"/>
      <circle id="Ellipse_5095" data-name="Ellipse 5095" cx="5.072" cy="5.072" r="5.072" transform="translate(794.483 381.975)" fill="rgba(37,53,106,0.35)"/>
      <circle id="Ellipse_5096" data-name="Ellipse 5096" cx="5.072" cy="5.072" r="5.072" transform="translate(811.39 381.975)" fill="rgba(37,53,106,0.35)"/>
      <circle id="Ellipse_5097" data-name="Ellipse 5097" cx="5.072" cy="5.072" r="5.072" transform="translate(828.297 381.975)" fill="rgba(37,53,106,0.35)"/>
      <circle id="Ellipse_5098" data-name="Ellipse 5098" cx="5.072" cy="5.072" r="5.072" transform="translate(845.203 381.975)" fill="rgba(37,53,106,0.35)"/>
      <circle id="Ellipse_5099" data-name="Ellipse 5099" cx="5.072" cy="5.072" r="5.072" transform="translate(523.975 398.881)" fill="rgba(37,53,106,0.35)"/>
      <circle id="Ellipse_5100" data-name="Ellipse 5100" cx="5.072" cy="5.072" r="5.072" transform="translate(540.882 398.881)" fill="rgba(37,53,106,0.35)"/>
      <circle id="Ellipse_5101" data-name="Ellipse 5101" cx="5.072" cy="5.072" r="5.072" transform="translate(557.788 398.881)" fill="rgba(37,53,106,0.35)"/>
      <circle id="Ellipse_5102" data-name="Ellipse 5102" cx="5.072" cy="5.072" r="5.072" transform="translate(574.695 398.881)" fill="rgba(37,53,106,0.35)"/>
      <circle id="Ellipse_5103" data-name="Ellipse 5103" cx="5.072" cy="5.072" r="5.072" transform="translate(591.602 398.881)" fill="rgba(37,53,106,0.35)"/>
      <circle id="Ellipse_5104" data-name="Ellipse 5104" cx="5.072" cy="5.072" r="5.072" transform="translate(608.509 398.881)" fill="rgba(37,53,106,0.35)"/>
      <circle id="Ellipse_5105" data-name="Ellipse 5105" cx="5.072" cy="5.072" r="5.072" transform="translate(625.415 398.881)" fill="rgba(37,53,106,0.35)"/>
      <circle id="Ellipse_5106" data-name="Ellipse 5106" cx="5.072" cy="5.072" r="5.072" transform="translate(642.322 398.881)" fill="rgba(37,53,106,0.35)"/>
      <circle id="Ellipse_5107" data-name="Ellipse 5107" cx="5.072" cy="5.072" r="5.072" transform="translate(659.229 398.881)" fill="rgba(37,53,106,0.35)"/>
      <circle id="Ellipse_5108" data-name="Ellipse 5108" cx="5.072" cy="5.072" r="5.072" transform="translate(676.136 398.881)" fill="rgba(37,53,106,0.35)"/>
      <circle id="Ellipse_5109" data-name="Ellipse 5109" cx="5.072" cy="5.072" r="5.072" transform="translate(693.042 398.881)" fill="rgba(37,53,106,0.35)"/>
      <circle id="Ellipse_5110" data-name="Ellipse 5110" cx="5.072" cy="5.072" r="5.072" transform="translate(709.949 398.881)" fill="rgba(37,53,106,0.35)"/>
      <circle id="Ellipse_5111" data-name="Ellipse 5111" cx="5.072" cy="5.072" r="5.072" transform="translate(726.855 398.881)" fill="rgba(37,53,106,0.35)"/>
      <circle id="Ellipse_5112" data-name="Ellipse 5112" cx="5.072" cy="5.072" r="5.072" transform="translate(743.763 398.881)" fill="rgba(37,53,106,0.35)"/>
      <circle id="Ellipse_5113" data-name="Ellipse 5113" cx="5.072" cy="5.072" r="5.072" transform="translate(760.67 398.881)" fill="rgba(37,53,106,0.35)"/>
      <circle id="Ellipse_5114" data-name="Ellipse 5114" cx="5.072" cy="5.072" r="5.072" transform="translate(777.576 398.881)" fill="rgba(37,53,106,0.35)"/>
      <circle id="Ellipse_5115" data-name="Ellipse 5115" cx="5.072" cy="5.072" r="5.072" transform="translate(794.483 398.881)" fill="rgba(37,53,106,0.35)"/>
      <circle id="Ellipse_5116" data-name="Ellipse 5116" cx="5.072" cy="5.072" r="5.072" transform="translate(811.39 398.881)" fill="rgba(37,53,106,0.35)"/>
      <circle id="Ellipse_5117" data-name="Ellipse 5117" cx="5.072" cy="5.072" r="5.072" transform="translate(828.297 398.881)" fill="rgba(37,53,106,0.35)"/>
      <circle id="Ellipse_5118" data-name="Ellipse 5118" cx="5.072" cy="5.072" r="5.072" transform="translate(845.203 398.881)" fill="rgba(37,53,106,0.35)"/>
      <circle id="Ellipse_5119" data-name="Ellipse 5119" cx="5.072" cy="5.072" r="5.072" transform="translate(523.975 415.788)" fill="rgba(37,53,106,0.35)"/>
      <circle id="Ellipse_5120" data-name="Ellipse 5120" cx="5.072" cy="5.072" r="5.072" transform="translate(540.882 415.788)" fill="rgba(37,53,106,0.35)"/>
      <circle id="Ellipse_5121" data-name="Ellipse 5121" cx="5.072" cy="5.072" r="5.072" transform="translate(557.788 415.788)" fill="rgba(37,53,106,0.35)"/>
      <circle id="Ellipse_5122" data-name="Ellipse 5122" cx="5.072" cy="5.072" r="5.072" transform="translate(574.695 415.788)" fill="rgba(37,53,106,0.35)"/>
      <circle id="Ellipse_5123" data-name="Ellipse 5123" cx="5.072" cy="5.072" r="5.072" transform="translate(591.602 415.788)" fill="rgba(37,53,106,0.35)"/>
      <circle id="Ellipse_5124" data-name="Ellipse 5124" cx="5.072" cy="5.072" r="5.072" transform="translate(608.509 415.788)" fill="rgba(37,53,106,0.35)"/>
      <circle id="Ellipse_5125" data-name="Ellipse 5125" cx="5.072" cy="5.072" r="5.072" transform="translate(625.415 415.788)" fill="rgba(37,53,106,0.35)"/>
      <circle id="Ellipse_5126" data-name="Ellipse 5126" cx="5.072" cy="5.072" r="5.072" transform="translate(642.322 415.788)" fill="rgba(37,53,106,0.35)"/>
      <circle id="Ellipse_5127" data-name="Ellipse 5127" cx="5.072" cy="5.072" r="5.072" transform="translate(659.229 415.788)" fill="rgba(37,53,106,0.35)"/>
      <circle id="Ellipse_5128" data-name="Ellipse 5128" cx="5.072" cy="5.072" r="5.072" transform="translate(676.136 415.788)" fill="rgba(37,53,106,0.35)"/>
      <circle id="Ellipse_5129" data-name="Ellipse 5129" cx="5.072" cy="5.072" r="5.072" transform="translate(693.042 415.788)" fill="rgba(37,53,106,0.35)"/>
      <circle id="Ellipse_5130" data-name="Ellipse 5130" cx="5.072" cy="5.072" r="5.072" transform="translate(709.949 415.788)" fill="rgba(37,53,106,0.35)"/>
      <circle id="Ellipse_5131" data-name="Ellipse 5131" cx="5.072" cy="5.072" r="5.072" transform="translate(726.855 415.788)" fill="rgba(37,53,106,0.35)"/>
      <circle id="Ellipse_5132" data-name="Ellipse 5132" cx="5.072" cy="5.072" r="5.072" transform="translate(743.763 415.788)" fill="rgba(37,53,106,0.35)"/>
      <circle id="Ellipse_5133" data-name="Ellipse 5133" cx="5.072" cy="5.072" r="5.072" transform="translate(760.67 415.788)" fill="rgba(37,53,106,0.35)"/>
      <circle id="Ellipse_5134" data-name="Ellipse 5134" cx="5.072" cy="5.072" r="5.072" transform="translate(777.576 415.788)" fill="rgba(37,53,106,0.35)"/>
      <circle id="Ellipse_5135" data-name="Ellipse 5135" cx="5.072" cy="5.072" r="5.072" transform="translate(794.483 415.788)" fill="rgba(37,53,106,0.35)"/>
      <circle id="Ellipse_5136" data-name="Ellipse 5136" cx="5.072" cy="5.072" r="5.072" transform="translate(811.39 415.788)" fill="rgba(37,53,106,0.35)"/>
      <circle id="Ellipse_5137" data-name="Ellipse 5137" cx="5.072" cy="5.072" r="5.072" transform="translate(828.297 415.788)" fill="rgba(37,53,106,0.35)"/>
      <circle id="Ellipse_5138" data-name="Ellipse 5138" cx="5.072" cy="5.072" r="5.072" transform="translate(845.203 415.788)" fill="rgba(37,53,106,0.35)"/>
      <circle id="Ellipse_5139" data-name="Ellipse 5139" cx="5.072" cy="5.072" r="5.072" transform="translate(862.11 415.788)" fill="rgba(37,53,106,0.35)"/>
      <circle id="Ellipse_5140" data-name="Ellipse 5140" cx="5.072" cy="5.072" r="5.072" transform="translate(523.975 432.695)" fill="rgba(37,53,106,0.35)"/>
      <circle id="Ellipse_5141" data-name="Ellipse 5141" cx="5.072" cy="5.072" r="5.072" transform="translate(540.882 432.695)" fill="rgba(37,53,106,0.35)"/>
      <circle id="Ellipse_5142" data-name="Ellipse 5142" cx="5.072" cy="5.072" r="5.072" transform="translate(557.788 432.695)" fill="rgba(37,53,106,0.35)"/>
      <circle id="Ellipse_5143" data-name="Ellipse 5143" cx="5.072" cy="5.072" r="5.072" transform="translate(574.695 432.695)" fill="rgba(37,53,106,0.35)"/>
      <circle id="Ellipse_5144" data-name="Ellipse 5144" cx="5.072" cy="5.072" r="5.072" transform="translate(591.602 432.695)" fill="rgba(37,53,106,0.35)"/>
      <circle id="Ellipse_5145" data-name="Ellipse 5145" cx="5.072" cy="5.072" r="5.072" transform="translate(608.509 432.695)" fill="rgba(37,53,106,0.35)"/>
      <circle id="Ellipse_5146" data-name="Ellipse 5146" cx="5.072" cy="5.072" r="5.072" transform="translate(625.415 432.695)" fill="rgba(37,53,106,0.35)"/>
      <circle id="Ellipse_5147" data-name="Ellipse 5147" cx="5.072" cy="5.072" r="5.072" transform="translate(642.322 432.695)" fill="rgba(37,53,106,0.35)"/>
      <circle id="Ellipse_5148" data-name="Ellipse 5148" cx="5.072" cy="5.072" r="5.072" transform="translate(659.229 432.695)" fill="rgba(37,53,106,0.35)"/>
      <circle id="Ellipse_5149" data-name="Ellipse 5149" cx="5.072" cy="5.072" r="5.072" transform="translate(676.136 432.695)" fill="rgba(37,53,106,0.35)"/>
      <circle id="Ellipse_5150" data-name="Ellipse 5150" cx="5.072" cy="5.072" r="5.072" transform="translate(693.042 432.695)" fill="rgba(37,53,106,0.35)"/>
      <circle id="Ellipse_5151" data-name="Ellipse 5151" cx="5.072" cy="5.072" r="5.072" transform="translate(709.949 432.695)" fill="rgba(37,53,106,0.35)"/>
      <circle id="Ellipse_5152" data-name="Ellipse 5152" cx="5.072" cy="5.072" r="5.072" transform="translate(726.855 432.695)" fill="rgba(37,53,106,0.35)"/>
      <circle id="Ellipse_5153" data-name="Ellipse 5153" cx="5.072" cy="5.072" r="5.072" transform="translate(743.763 432.695)" fill="rgba(37,53,106,0.35)"/>
      <circle id="Ellipse_5154" data-name="Ellipse 5154" cx="5.072" cy="5.072" r="5.072" transform="translate(760.67 432.695)" fill="rgba(37,53,106,0.35)"/>
      <circle id="Ellipse_5155" data-name="Ellipse 5155" cx="5.072" cy="5.072" r="5.072" transform="translate(777.576 432.695)" fill="rgba(37,53,106,0.35)"/>
      <circle id="Ellipse_5156" data-name="Ellipse 5156" cx="5.072" cy="5.072" r="5.072" transform="translate(794.483 432.695)" fill="rgba(37,53,106,0.35)"/>
      <circle id="Ellipse_5157" data-name="Ellipse 5157" cx="5.072" cy="5.072" r="5.072" transform="translate(811.39 432.695)" fill="rgba(37,53,106,0.35)"/>
      <circle id="Ellipse_5158" data-name="Ellipse 5158" cx="5.072" cy="5.072" r="5.072" transform="translate(828.297 432.695)" fill="rgba(37,53,106,0.35)"/>
      <circle id="Ellipse_5159" data-name="Ellipse 5159" cx="5.072" cy="5.072" r="5.072" transform="translate(845.203 432.695)" fill="rgba(37,53,106,0.35)"/>
      <circle id="Ellipse_5160" data-name="Ellipse 5160" cx="5.072" cy="5.072" r="5.072" transform="translate(523.975 449.602)" fill="rgba(37,53,106,0.35)"/>
      <circle id="Ellipse_5161" data-name="Ellipse 5161" cx="5.072" cy="5.072" r="5.072" transform="translate(540.882 449.602)" fill="rgba(37,53,106,0.35)"/>
      <circle id="Ellipse_5162" data-name="Ellipse 5162" cx="5.072" cy="5.072" r="5.072" transform="translate(557.788 449.602)" fill="rgba(37,53,106,0.35)"/>
      <circle id="Ellipse_5163" data-name="Ellipse 5163" cx="5.072" cy="5.072" r="5.072" transform="translate(574.695 449.602)" fill="rgba(37,53,106,0.35)"/>
      <circle id="Ellipse_5164" data-name="Ellipse 5164" cx="5.072" cy="5.072" r="5.072" transform="translate(591.602 449.602)" fill="rgba(37,53,106,0.35)"/>
      <circle id="Ellipse_5165" data-name="Ellipse 5165" cx="5.072" cy="5.072" r="5.072" transform="translate(608.509 449.602)" fill="rgba(37,53,106,0.35)"/>
      <circle id="Ellipse_5166" data-name="Ellipse 5166" cx="5.072" cy="5.072" r="5.072" transform="translate(625.415 449.602)" fill="rgba(37,53,106,0.35)"/>
      <circle id="Ellipse_5167" data-name="Ellipse 5167" cx="5.072" cy="5.072" r="5.072" transform="translate(642.322 449.602)" fill="rgba(37,53,106,0.35)"/>
      <circle id="Ellipse_5168" data-name="Ellipse 5168" cx="5.072" cy="5.072" r="5.072" transform="translate(659.229 449.602)" fill="rgba(37,53,106,0.35)"/>
      <circle id="Ellipse_5169" data-name="Ellipse 5169" cx="5.072" cy="5.072" r="5.072" transform="translate(676.136 449.602)" fill="rgba(37,53,106,0.35)"/>
      <circle id="Ellipse_5170" data-name="Ellipse 5170" cx="5.072" cy="5.072" r="5.072" transform="translate(693.042 449.602)" fill="rgba(37,53,106,0.35)"/>
      <circle id="Ellipse_5171" data-name="Ellipse 5171" cx="5.072" cy="5.072" r="5.072" transform="translate(709.949 449.602)" fill="rgba(37,53,106,0.35)"/>
      <circle id="Ellipse_5172" data-name="Ellipse 5172" cx="5.072" cy="5.072" r="5.072" transform="translate(726.855 449.602)" fill="rgba(37,53,106,0.35)"/>
      <circle id="Ellipse_5173" data-name="Ellipse 5173" cx="5.072" cy="5.072" r="5.072" transform="translate(743.763 449.602)" fill="rgba(37,53,106,0.35)"/>
      <circle id="Ellipse_5174" data-name="Ellipse 5174" cx="5.072" cy="5.072" r="5.072" transform="translate(760.67 449.602)" fill="rgba(37,53,106,0.35)"/>
      <circle id="Ellipse_5175" data-name="Ellipse 5175" cx="5.072" cy="5.072" r="5.072" transform="translate(777.576 449.602)" fill="rgba(37,53,106,0.35)"/>
      <circle id="Ellipse_5176" data-name="Ellipse 5176" cx="5.072" cy="5.072" r="5.072" transform="translate(794.483 449.602)" fill="rgba(37,53,106,0.35)"/>
      <circle id="Ellipse_5177" data-name="Ellipse 5177" cx="5.072" cy="5.072" r="5.072" transform="translate(811.39 449.602)" fill="rgba(37,53,106,0.35)"/>
      <circle id="Ellipse_5178" data-name="Ellipse 5178" cx="5.072" cy="5.072" r="5.072" transform="translate(828.297 449.602)" fill="rgba(37,53,106,0.35)"/>
      <circle id="Ellipse_5179" data-name="Ellipse 5179" cx="5.072" cy="5.072" r="5.072" transform="translate(845.203 449.602)" fill="rgba(37,53,106,0.35)"/>
      <path id="Path_146696" data-name="Path 146696" d="M374.447,887.115C131.628,674.377,44.3,790.327,36.571,801.783a3.4,3.4,0,0,0-.56,2.036L37.918,1009c1.39,149.54,126.719,278.87,263.625,218.68,70.229-30.88,134.487-81.13,162.462-162.84C503.4,949.785,394.11,904.342,374.447,887.115Z" transform="translate(454 -495)" fill="#6fcf97"/>
    </g>
  </g>
</svg>
