<?xml version="1.0" standalone="no"?>
<!DOCTYPE svg PUBLIC "-//W3C//DTD SVG 20010904//EN"
 "http://www.w3.org/TR/2001/REC-SVG-20010904/DTD/svg10.dtd">
<svg version="1.0" xmlns="http://www.w3.org/2000/svg"
 width="1826.000000pt" height="482.000000pt" viewBox="0 0 1826.000000 482.000000"
 preserveAspectRatio="xMidYMid meet">

<g transform="translate(0.000000,482.000000) scale(0.100000,-0.100000)"
fill="#000000" stroke="none">
<path d="M4651 4763 c21 -62 40 -95 73 -127 12 -12 34 -40 49 -63 15 -24 31
-43 36 -43 5 0 15 -17 22 -37 15 -49 45 -90 69 -98 12 -4 24 -21 30 -45 6 -22
14 -42 19 -44 5 -3 11 -19 14 -36 4 -17 22 -65 42 -107 31 -67 51 -91 165
-203 72 -70 130 -132 130 -138 0 -28 88 -35 440 -34 460 2 528 9 517 52 -6 24
-2 28 75 83 37 26 79 63 94 82 15 19 43 52 63 73 51 54 110 140 117 171 3 14
12 40 20 58 8 17 14 37 14 45 0 7 11 25 25 40 14 16 29 48 34 73 5 25 14 52
21 60 7 8 10 24 7 35 -6 23 12 90 25 90 4 0 8 12 8 26 0 14 4 23 8 20 5 -3 9
7 9 22 1 15 3 44 6 65 l6 37 -1078 0 -1078 0 18 -57z m1569 -31 c0 -20 -37
-42 -57 -35 -18 6 -16 23 2 23 8 0 15 4 15 9 0 5 8 12 18 14 9 3 18 5 20 6 1
0 2 -7 2 -17z m-1050 -2 c0 -5 -7 -10 -15 -10 -8 0 -15 5 -15 10 0 6 7 10 15
10 8 0 15 -4 15 -10z m0 -69 c13 -25 13 -101 0 -101 -15 0 -50 42 -51 62 -1
10 -2 24 -3 31 -1 11 17 24 36 26 4 1 12 -8 18 -18z m25 -141 c19 0 26 -42 10
-60 -14 -16 -22 -40 -8 -27 14 15 73 -83 78 -133 2 -14 7 -35 10 -47 4 -13 3
-23 -2 -23 -22 0 -58 45 -55 68 2 15 -5 32 -17 43 -12 11 -21 32 -21 48 0 15
-3 31 -7 35 -4 3 -8 12 -10 19 -1 7 -5 24 -9 39 -7 29 5 73 13 51 3 -7 11 -13
18 -13z m-160 -218 c6 -16 -2 -32 -15 -32 -14 0 -43 48 -35 59 7 13 42 -6 50
-27z"/>
<path d="M15712 4702 c-12 -2 -27 -12 -33 -23 -7 -13 -11 -247 -13 -707 -2
-503 -5 -693 -14 -709 -16 -30 -87 -43 -230 -43 -64 0 -134 -5 -155 -11 -67
-18 -66 -10 -72 -460 -3 -222 -7 -522 -10 -665 l-6 -262 27 -21 c18 -14 41
-21 70 -21 43 0 120 -13 186 -32 31 -9 42 -8 64 7 26 17 53 17 433 10 223 -4
456 -7 516 -6 121 3 138 10 149 61 3 17 6 330 6 696 1 599 0 668 -15 691 -33
49 -16 53 229 53 121 0 226 4 232 8 7 4 14 47 18 102 8 143 10 1299 2 1308 -4
4 -220 10 -479 14 -260 4 -564 8 -677 10 -113 2 -215 2 -228 0z m1258 -158
c25 -25 29 -111 29 -616 -1 -417 -4 -531 -14 -545 -12 -16 -39 -18 -312 -21
-500 -5 -871 -4 -882 2 -10 6 -12 169 -14 796 0 367 2 378 86 389 85 12 1095
7 1107 -5z m-475 -1484 c9 -8 21 -25 26 -38 11 -28 20 -125 19 -197 -1 -27 -1
-72 0 -100 0 -27 1 -189 1 -360 1 -170 4 -341 8 -379 7 -61 5 -71 -13 -87 -11
-11 -22 -20 -25 -20 -3 -1 -204 -3 -446 -6 -242 -3 -504 -5 -582 -6 -102 -1
-146 2 -155 11 -14 14 -16 102 -19 723 -1 228 2 422 6 433 17 40 41 42 613 41
464 0 552 -2 567 -15z"/>
<path d="M16275 4481 c-34 -6 -51 -29 -65 -87 -7 -30 -17 -57 -22 -60 -4 -3
-8 -14 -8 -24 0 -11 -11 -52 -24 -92 -13 -40 -31 -100 -41 -133 -10 -33 -25
-85 -35 -115 -20 -61 -60 -196 -84 -281 -20 -72 -48 -106 -95 -119 -34 -9 -39
-15 -44 -46 -7 -44 5 -79 34 -95 24 -12 299 -8 330 5 37 16 52 102 23 130 -8
9 -25 16 -37 16 -47 0 -60 28 -40 85 19 55 48 82 102 95 45 10 119 8 153 -5
26 -10 48 -50 55 -100 7 -54 -4 -71 -57 -85 -33 -9 -39 -15 -45 -46 -8 -47 13
-80 57 -88 18 -3 122 -6 230 -7 223 -2 242 3 253 65 9 43 -8 74 -43 82 -58 13
-64 17 -79 52 -14 33 -72 240 -143 507 -73 273 -89 328 -100 339 -10 10 -225
16 -275 7z m63 -388 c21 -29 52 -113 52 -139 0 -39 -132 -55 -147 -18 -7 18
24 128 45 162 19 29 26 28 50 -5z"/>
<path d="M15930 3017 c-3 -3 -103 -8 -222 -11 -119 -3 -224 -9 -232 -12 -20
-8 -29 -54 -17 -86 5 -14 29 -37 54 -51 25 -15 47 -36 51 -49 7 -29 16 -238
20 -483 2 -185 2 -190 -20 -209 -12 -11 -39 -25 -60 -31 -44 -12 -52 -31 -34
-76 20 -48 52 -52 401 -46 300 4 317 5 379 28 36 13 75 31 86 39 34 24 64 95
76 179 10 74 10 81 -14 133 -18 37 -46 72 -92 114 -36 32 -66 64 -66 71 0 6
13 22 29 35 57 44 98 176 80 257 -16 77 -59 128 -137 164 -58 27 -81 31 -172
35 -58 2 -107 2 -110 -1z m97 -197 c40 -24 49 -42 55 -108 9 -90 -44 -139
-149 -141 -64 -1 -83 23 -83 102 0 78 13 123 42 147 30 25 94 26 135 0z m12
-402 c10 -7 31 -28 47 -47 26 -31 28 -40 29 -118 l0 -84 -37 -35 c-36 -33 -40
-34 -118 -34 -77 0 -81 1 -90 26 -11 29 -13 158 -3 229 5 38 12 51 37 67 34
21 102 19 135 -4z"/>
<path d="M3010 3797 c0 -27 33 -49 202 -134 260 -130 576 -262 667 -278 19 -3
42 -10 52 -15 23 -13 89 -13 89 0 0 6 -5 10 -11 10 -15 0 -39 26 -31 34 3 4
-4 9 -16 13 -12 3 -22 9 -22 14 0 11 -288 152 -395 194 -100 40 -370 133 -435
151 -100 27 -100 27 -100 11z"/>
<path d="M9330 3573 c-53 -13 -71 -13 -98 -3 -25 9 -37 9 -45 1 -6 -6 -39 -11
-72 -11 -34 0 -65 -3 -68 -7 -4 -3 -60 -8 -124 -10 -327 -10 -411 -14 -448
-18 -22 -2 -92 -7 -155 -10 -354 -15 -503 -25 -510 -32 -3 -3 85 -2 195 1 422
13 517 15 755 21 583 15 569 16 568 -23 0 -9 7 -44 17 -77 9 -33 20 -107 25
-165 5 -58 14 -147 21 -198 16 -112 16 -112 -86 -105 -42 3 -80 1 -90 -5 -16
-8 -9 -12 37 -21 38 -8 64 -21 83 -41 32 -33 59 -38 73 -13 7 12 17 14 41 10
27 -6 32 -3 37 18 8 34 -1 55 -26 55 -11 0 -20 7 -20 15 0 8 6 15 14 15 19 0
26 23 17 57 -5 18 -14 28 -26 28 -26 0 -31 25 -6 32 35 9 26 93 -10 93 -25 0
-24 16 1 23 34 9 24 87 -11 87 -10 0 -19 7 -19 15 0 8 9 15 20 15 16 0 20 7
20 34 0 49 -8 65 -31 59 -13 -4 -19 0 -19 12 0 12 6 16 20 12 18 -5 20 0 19
46 -1 60 -10 100 -24 103 -6 1 -39 -5 -75 -13z m75 -33 c-3 -5 -10 -10 -16
-10 -5 0 -9 5 -9 10 0 6 7 10 16 10 8 0 12 -4 9 -10z"/>
<path d="M7535 3479 c-24 -5 -18 -7 28 -8 32 0 56 3 53 8 -7 10 -39 10 -81 0z"/>
<path d="M7703 3483 c15 -2 37 -2 50 0 12 2 0 4 -28 4 -27 0 -38 -2 -22 -4z"/>
<path d="M5288 3474 c-6 -6 -102 -9 -578 -19 -151 -3 -354 -11 -450 -17 -96
-6 -190 -11 -207 -10 -46 1 -41 -10 13 -32 44 -18 56 -18 417 -2 205 9 460 16
567 16 107 0 281 4 385 9 209 11 382 17 697 27 114 4 206 10 203 14 -2 3 -59
5 -127 3 -68 -2 -213 -3 -323 -2 -110 1 -259 3 -332 3 -72 1 -129 4 -126 9 5
8 -131 10 -139 1z"/>
<path d="M7088 3473 c6 -2 18 -2 25 0 6 3 1 5 -13 5 -14 0 -19 -2 -12 -5z"/>
<path d="M6354 3459 c-3 -5 9 -9 25 -9 17 0 31 2 31 4 0 8 -51 13 -56 5z"/>
<path d="M6440 3459 c0 -11 277 -10 345 1 34 5 -14 8 -147 7 -109 0 -198 -4
-198 -8z"/>
<path d="M4074 3335 c11 -8 22 -12 25 -9 6 6 -19 24 -34 24 -5 -1 -1 -7 9 -15z"/>
<path d="M3042 3085 c-18 -13 -65 -36 -105 -51 -40 -15 -117 -45 -172 -66 -55
-22 -259 -100 -453 -173 -195 -74 -422 -162 -505 -196 -84 -33 -162 -65 -174
-70 -26 -10 -74 -100 -110 -204 -59 -173 -55 -506 9 -692 l22 -63 -27 -97
c-20 -75 -27 -131 -31 -237 -5 -123 -8 -141 -26 -158 -11 -10 -20 -22 -20 -26
0 -4 16 -31 35 -59 50 -75 98 -95 240 -98 84 -2 121 -7 155 -22 37 -17 77 -21
235 -27 104 -4 221 -12 260 -18 38 -6 83 -12 98 -13 15 -2 34 -8 41 -14 7 -6
16 -8 20 -4 4 4 11 1 16 -7 15 -23 12 -28 -15 -26 -14 0 -25 6 -25 13 0 6 -5
15 -11 19 -8 4 -9 0 -4 -15 4 -12 2 -21 -4 -21 -6 0 -11 5 -11 10 0 16 -46 12
-60 -5 -7 -9 -29 -23 -49 -32 -20 -10 -44 -25 -54 -34 -20 -18 -116 -51 -159
-55 -16 -1 -35 -7 -43 -14 -8 -6 -23 -9 -36 -5 -15 5 -20 3 -17 -6 5 -15 -32
-49 -52 -49 -6 0 -31 -12 -55 -26 -36 -21 -48 -23 -65 -14 -16 9 -21 8 -26 -4
-3 -8 -3 -20 1 -26 3 -5 -1 -10 -9 -10 -9 0 -16 7 -16 15 0 30 -16 14 -27 -27
-8 -29 -8 -45 -1 -49 7 -4 6 -9 -2 -14 -7 -4 -16 -2 -20 5 -5 8 -9 7 -13 -4
-4 -9 -14 -16 -24 -16 -10 0 -29 -9 -43 -20 -14 -11 -31 -20 -37 -20 -7 0 -13
-4 -13 -10 0 -5 -7 -10 -15 -10 -14 0 -19 -11 -16 -36 1 -6 -10 -10 -25 -8
-19 2 -28 -3 -31 -17 -5 -19 -23 -27 -73 -32 -14 -1 -31 -8 -38 -15 -12 -11
-34 -16 -54 -13 -5 0 -8 -3 -8 -7 0 -5 -18 -17 -40 -27 -22 -10 -40 -22 -40
-26 0 -6 -20 -16 -50 -24 -3 -1 -23 -10 -45 -19 -22 -10 -51 -20 -65 -23 -14
-2 -26 -8 -28 -14 -2 -5 -15 -9 -28 -9 -13 0 -24 -4 -24 -10 0 -5 7 -10 15
-10 11 0 14 -7 9 -25 l-6 -25 771 0 c610 0 771 3 771 13 0 6 -5 41 -10 77 -8
53 -24 286 -22 325 3 67 27 186 43 212 11 18 18 37 15 41 -3 5 6 14 19 20 23
11 26 42 4 42 -5 0 -9 5 -9 10 0 6 15 10 33 10 18 0 38 5 45 12 17 17 15 -3
-3 -38 -15 -28 -14 -29 16 -42 17 -7 63 -15 103 -16 109 -6 121 -9 124 -32 3
-20 -1 -21 -60 -17 -34 3 -69 8 -78 13 -14 7 -67 13 -97 11 -7 -1 -13 -7 -13
-15 0 -8 -12 -28 -26 -45 -17 -21 -23 -37 -19 -51 3 -11 6 -59 6 -108 0 -150
9 -210 31 -216 18 -4 19 -1 13 27 -4 18 -6 57 -5 87 2 30 2 66 1 80 -4 52 -2
115 4 147 l6 32 99 0 c54 -1 104 3 111 7 7 4 32 7 56 5 49 -2 55 7 16 30 l-26
17 24 12 c13 7 36 23 52 36 25 21 37 23 125 22 53 0 108 4 122 9 14 5 43 8 65
7 63 -5 117 -4 155 1 92 13 501 21 519 11 6 -4 18 -3 25 3 9 7 81 11 207 11
107 0 275 1 374 1 419 1 468 0 547 -16 43 -9 91 -14 106 -10 16 3 39 2 52 -3
23 -9 23 -10 5 -15 -11 -4 -34 -8 -51 -9 -18 -1 -30 -7 -28 -13 5 -13 54 -16
54 -3 0 7 4 7 13 0 13 -11 151 -11 163 1 4 4 13 2 21 -4 10 -9 13 -8 13 4 0
11 5 14 16 10 8 -3 13 -11 10 -18 -4 -10 2 -10 22 1 32 16 62 18 62 4 0 -5 14
-10 30 -10 27 0 30 -3 30 -31 0 -18 4 -28 10 -24 6 4 10 14 9 23 -1 10 -1 22
0 28 1 14 51 25 51 11 0 -5 10 -7 23 -4 20 5 20 5 5 -7 -20 -15 -25 -41 -5
-29 6 4 4 -5 -5 -19 -17 -26 -17 -27 1 -33 10 -3 25 -3 34 1 9 3 23 -2 33 -14
18 -21 54 -19 54 4 0 10 10 7 37 -9 21 -12 56 -22 79 -23 23 -1 47 -4 52 -8 6
-3 13 -2 16 2 10 16 108 -9 113 -29 5 -16 7 -16 20 -4 8 8 22 15 31 16 9 0 30
2 45 3 15 1 33 -4 39 -11 6 -7 17 -13 25 -13 8 0 11 -5 7 -12 -5 -8 -2 -9 12
-3 10 4 27 8 37 9 9 0 17 3 17 7 0 4 17 11 38 17 20 6 57 18 82 27 24 9 55 15
67 12 12 -2 24 1 26 7 3 8 10 8 25 -1 16 -10 23 -9 32 2 7 8 27 15 45 15 19 0
35 5 37 12 6 16 50 21 60 6 5 -10 8 -8 8 5 0 10 8 17 20 17 21 0 28 26 8 32
-16 6 12 67 34 74 10 3 18 9 18 13 0 5 15 14 33 21 17 8 39 19 47 26 8 7 42
19 75 28 33 8 67 24 77 36 9 11 19 20 23 20 25 0 141 69 162 96 23 31 127 113
276 218 37 27 120 98 185 160 117 111 194 172 244 194 56 24 350 226 360 248
13 27 4 54 -16 54 -8 0 -44 -20 -79 -44 -113 -75 -228 -140 -306 -172 -67 -27
-77 -35 -98 -75 -12 -24 -23 -54 -23 -66 0 -29 -11 -32 -124 -25 -83 4 -101 3
-110 -10 -7 -9 -54 -43 -106 -75 -52 -33 -214 -138 -360 -234 -146 -97 -296
-193 -334 -214 -74 -41 -73 -42 -102 22 -8 18 -22 34 -32 34 -9 1 -30 2 -47 3
-16 2 -38 6 -49 11 -12 5 -26 3 -39 -4 -14 -10 -22 -10 -27 -1 -4 6 -38 12
-77 14 -38 2 -78 8 -89 13 -10 6 -42 9 -70 8 -45 -3 -51 -1 -47 15 3 10 0 21
-6 24 -6 4 -9 1 -6 -6 3 -8 -2 -22 -11 -33 -13 -17 -15 -17 -10 -2 5 14 2 16
-13 8 -22 -12 -41 3 -41 32 0 16 -5 19 -32 14 -18 -3 -27 -3 -20 0 6 2 12 21
13 41 1 33 2 35 9 12 8 -24 8 -24 9 -2 1 24 21 31 21 7 0 -9 6 -12 15 -9 8 4
15 15 15 25 0 10 5 19 11 19 6 0 9 6 6 13 -3 8 9 12 42 13 25 1 61 5 80 9 27
6 37 4 48 -11 12 -16 13 -16 13 9 0 25 2 26 25 15 14 -6 25 -15 25 -20 0 -14
40 -9 46 7 3 8 -2 22 -11 31 -24 24 -2 34 52 25 34 -7 43 -5 48 8 4 9 9 11 13
5 10 -14 112 -17 128 -3 8 6 14 24 14 40 0 30 34 96 60 116 8 7 41 13 73 13
44 0 57 3 57 15 0 16 -32 18 -310 17 -510 -2 -831 5 -858 20 -20 10 -25 10
-32 -3 -7 -12 -25 -15 -82 -13 -40 1 -494 5 -1008 8 -514 3 -1032 9 -1150 13
-118 3 -278 7 -355 7 -77 1 -146 5 -153 9 -15 10 -16 49 0 65 9 9 8 12 -3 16
-8 3 -174 7 -369 10 -195 3 -368 7 -385 10 -16 2 -84 7 -150 11 -66 4 -173 13
-239 21 -129 16 -165 13 -192 -17 -9 -10 -22 -19 -27 -19 -6 0 -18 -7 -28 -16
-21 -19 -39 -11 -39 17 0 12 7 19 20 19 11 0 20 6 20 14 0 25 -12 46 -26 46
-19 0 -56 38 -49 50 3 5 12 7 20 3 17 -6 21 12 5 22 -6 4 -10 22 -8 40 1 18
-2 39 -8 47 -8 12 -10 265 -1 316 2 12 9 28 15 34 7 7 12 18 12 25 0 7 11 13
23 13 26 0 67 30 67 50 0 7 7 10 15 6 8 -3 20 3 27 13 11 16 47 27 118 36 95
13 150 17 295 20 94 2 285 4 425 4 298 -1 272 -2 380 10 47 5 99 16 116 25 26
13 178 36 225 34 40 -3 92 3 86 9 -10 10 -37 11 -195 12 l-143 1 3 53 3 52
239 120 c177 89 247 119 275 119 27 0 75 -22 186 -86 83 -47 188 -105 235
-128 47 -23 93 -50 102 -60 9 -10 22 -20 29 -22 9 -3 9 -9 1 -24 -9 -15 -11
-16 -12 -3 0 18 -62 34 -68 18 -2 -4 -10 -5 -18 -2 -8 3 -14 -1 -14 -11 0 -10
-10 -17 -27 -17 -16 -1 -35 -2 -45 -3 -18 -1 -37 -16 -22 -17 15 -1 467 -1
497 0 40 1 33 21 -9 21 -45 0 -36 15 25 42 125 53 22 47 2016 123 215 8 426
17 470 20 44 3 190 10 325 15 135 6 342 17 460 26 162 11 228 12 267 4 53 -11
73 -8 73 12 0 12 -47 11 -895 -21 -509 -20 -911 -34 -1440 -51 -573 -19 -1626
-32 -1670 -21 -66 16 -386 176 -451 225 -78 58 -475 266 -505 265 -13 0 -39
-11 -57 -24z m-1472 -996 c0 -5 -4 -9 -10 -9 -5 0 -10 7 -10 16 0 8 5 12 10 9
6 -3 10 -10 10 -16z m3 -141 c-2 -5 -8 -8 -14 -8 -11 0 -12 33 -2 44 8 8 23
-25 16 -36z m17 -108 c0 -11 -4 -20 -10 -20 -5 0 -10 2 -10 4 0 2 -3 11 -6 20
-4 11 -1 16 10 16 9 0 16 -8 16 -20z m4852 -612 c-9 -9 -12 -7 -12 12 0 19 3
21 12 12 9 -9 9 -15 0 -24z m-4344 1 c2 -4 20 -5 41 -2 23 3 41 1 45 -6 4 -6
12 -11 17 -11 6 0 7 5 4 10 -4 7 2 9 17 5 12 -3 44 -7 69 -8 26 -1 45 -4 44
-7 -2 -3 0 -12 5 -20 7 -11 11 -11 23 -1 19 15 30 0 29 -40 -1 -25 4 -29 36
-35 34 -7 35 -8 13 -16 -13 -4 -37 -4 -55 0 -17 5 -47 7 -65 4 -21 -3 -36 0
-41 8 -5 8 -15 10 -26 5 -44 -18 -153 -23 -163 -6 -5 7 -23 10 -53 6 -36 -4
-48 -2 -62 14 -10 11 -18 25 -20 33 -1 7 -5 19 -10 26 -11 18 -3 24 41 28 20
2 41 10 45 19 7 11 17 13 36 9 15 -4 28 -10 30 -15z m4302 12 c0 -12 -20 -25
-27 -18 -7 7 6 27 18 27 5 0 9 -4 9 -9z m137 -7 c-3 -3 -12 -4 -19 -1 -8 3 -5
6 6 6 11 1 17 -2 13 -5z m-4087 -74 c0 -21 -5 -30 -16 -30 -8 0 -12 5 -9 10 3
6 1 10 -4 10 -6 0 -3 9 7 19 23 25 22 26 22 -9z m3712 -12 c-8 -8 -9 -4 -5 13
4 13 8 18 11 10 2 -7 -1 -18 -6 -23z m-3665 6 c-3 -3 -12 -4 -19 -1 -8 3 -5 6
6 6 11 1 17 -2 13 -5z m3513 -38 c0 -8 -5 -18 -12 -22 -7 -5 -9 -2 -5 9 3 9 1
18 -6 21 -7 2 -4 5 6 5 9 1 17 -5 17 -13z m-3513 -2 c-3 -3 -12 -4 -19 -1 -8
3 -5 6 6 6 11 1 17 -2 13 -5z m3643 -5 c0 -6 -6 -9 -14 -6 -7 3 -18 1 -23 -4
-7 -7 -12 -6 -15 3 -4 9 4 14 23 15 16 1 29 -3 29 -8z m-3603 -15 c-3 -3 -12
-4 -19 -1 -8 3 -5 6 6 6 11 1 17 -2 13 -5z m43 -278 c0 -3 -4 -8 -10 -11 -5
-3 -10 -1 -10 4 0 6 5 11 10 11 6 0 10 -2 10 -4z m60 -6 c0 -5 -5 -10 -11 -10
-5 0 -7 5 -4 10 3 6 8 10 11 10 2 0 4 -4 4 -10z m-35 -10 c3 -5 1 -10 -4 -10
-6 0 -11 5 -11 10 0 6 2 10 4 10 3 0 8 -4 11 -10z m170 0 c8 -13 -10 -21 -60
-26 -33 -3 -45 0 -45 9 0 8 2 16 5 19 10 9 94 8 100 -2z m-115 -25 c0 -8 -5
-15 -11 -15 -5 0 -8 4 -5 9 4 5 0 12 -6 14 -8 3 -6 6 5 6 9 1 17 -6 17 -14z
m-56 -9 c-10 -8 -21 -12 -24 -10 -5 6 21 24 34 24 6 0 1 -6 -10 -14z m-162
-28 c-7 -7 -12 -8 -12 -2 0 14 12 26 19 19 2 -3 -1 -11 -7 -17z m135 -20 c-3
-8 -6 -5 -6 6 -1 11 2 17 5 13 3 -3 4 -12 1 -19z m23 -18 c0 -5 -5 -10 -11
-10 -5 0 -7 5 -4 10 3 6 8 10 11 10 2 0 4 -4 4 -10z m2859 7 c-2 -1 -12 -9
-21 -16 -15 -12 -18 -11 -18 3 0 10 8 16 22 16 12 0 19 -1 17 -3z m-3559 -197
c0 -5 -4 -10 -10 -10 -5 0 -10 5 -10 10 0 6 5 10 10 10 6 0 10 -4 10 -10z"/>
<path d="M2290 1124 c0 -8 5 -12 10 -9 6 4 8 11 5 16 -9 14 -15 11 -15 -7z"/>
<path d="M7060 2470 l-225 -6 320 -3 c176 -1 331 -4 345 -6 53 -6 281 -8 287
-2 3 4 -23 8 -58 9 -35 0 -75 2 -89 4 -66 6 -378 8 -580 4z"/>
<path d="M5495 2460 l-390 -5 490 -5 c270 -3 560 -3 645 0 337 12 -124 18
-745 10z"/>
<path d="M6743 2463 c9 -2 23 -2 30 0 6 3 -1 5 -18 5 -16 0 -22 -2 -12 -5z"/>
<path d="M3775 2450 c-14 -6 -1 -8 43 -8 34 0 62 4 62 9 0 11 -78 11 -105 -1z"/>
<path d="M4628 2453 c6 -2 18 -2 25 0 6 3 1 5 -13 5 -14 0 -19 -2 -12 -5z"/>
<path d="M4703 2453 c8 -8 167 -7 175 1 3 3 -37 6 -88 6 -51 0 -90 -3 -87 -7z"/>
<path d="M8375 2373 c-11 -3 -28 -12 -39 -22 -35 -31 -60 -101 -36 -101 19 0
159 105 150 113 -10 8 -55 14 -75 10z"/>
<path d="M6610 1220 c0 -5 5 -10 10 -10 6 0 10 5 10 10 0 6 -4 10 -10 10 -5 0
-10 -4 -10 -10z"/>
<path d="M6300 1140 c0 -16 5 -30 10 -30 6 0 10 14 10 30 0 17 -4 30 -10 30
-5 0 -10 -13 -10 -30z"/>
<path d="M6390 1140 c-9 -6 -10 -10 -3 -10 6 0 15 5 18 10 8 12 4 12 -15 0z"/>
<path d="M6260 1070 c0 -5 5 -10 10 -10 6 0 10 5 10 10 0 6 -4 10 -10 10 -5 0
-10 -4 -10 -10z"/>
<path d="M6265 1040 c3 -5 8 -10 11 -10 2 0 4 5 4 10 0 6 -5 10 -11 10 -5 0
-7 -4 -4 -10z"/>
<path d="M7505 806 c-22 -16 -14 -46 14 -46 49 0 69 30 32 50 -25 13 -23 13
-46 -4z"/>
<path d="M2710 729 c0 -5 5 -7 10 -4 6 3 10 8 10 11 0 2 -4 4 -10 4 -5 0 -10
-5 -10 -11z"/>
<path d="M5285 690 c-3 -5 -1 -10 4 -10 6 0 11 5 11 10 0 6 -2 10 -4 10 -3 0
-8 -4 -11 -10z"/>
<path d="M4893 677 c5 -17 21 -18 40 -5 15 12 14 13 -13 14 -17 1 -29 -3 -27
-9z"/>
<path d="M4965 681 c-3 -5 -1 -12 5 -16 5 -3 10 1 10 9 0 18 -6 21 -15 7z"/>
<path d="M5002 673 c5 -7 14 -10 19 -7 16 10 9 23 -10 21 -15 -1 -17 -4 -9
-14z"/>
<path d="M5105 680 c3 -5 8 -10 11 -10 2 0 4 5 4 10 0 6 -5 10 -11 10 -5 0 -7
-4 -4 -10z"/>
<path d="M5145 680 c-4 -6 15 -10 49 -10 31 0 56 5 56 10 0 6 -22 10 -49 10
-28 0 -53 -4 -56 -10z"/>
<path d="M3958 675 c-2 -2 -72 -5 -155 -6 -119 0 -155 -4 -164 -15 -6 -8 -9
-18 -5 -21 4 -4 11 -2 15 6 5 7 21 11 37 10 16 -2 34 0 41 4 6 4 14 3 18 -3 4
-6 12 -7 22 -1 18 10 103 3 119 -10 6 -5 13 -6 16 -3 6 5 213 14 306 13 32 0
52 4 48 9 -3 6 -65 10 -141 10 -74 1 -139 3 -144 6 -4 3 -10 3 -13 1z"/>
<path d="M4304 665 c-18 -14 -18 -14 9 -15 15 0 27 4 27 9 0 18 -17 20 -36 6z"/>
<path d="M4425 670 c-88 -11 -9 -18 170 -14 105 2 205 4 223 4 21 -1 31 3 27
10 -4 6 -22 8 -43 5 -44 -7 -24 -6 -197 -2 -77 1 -158 0 -180 -3z"/>
<path d="M9498 673 c-33 -9 -18 -31 32 -48 28 -9 50 -20 50 -24 0 -4 11 -21
25 -37 14 -16 25 -32 25 -35 0 -17 116 -29 138 -15 5 3 60 8 123 11 63 4 121
9 129 12 8 3 80 9 160 13 470 27 990 86 990 113 0 8 -362 4 -655 -8 -49 -2
-211 -6 -360 -10 -148 -3 -277 -8 -286 -11 -20 -6 -111 14 -119 25 -6 10 -226
22 -252 14z"/>
<path d="M3397 663 c-3 -2 -55 -6 -117 -8 -71 -2 -117 -8 -124 -15 -8 -10 -1
-11 32 -7 28 3 40 2 35 -5 -3 -6 -2 -8 4 -5 6 4 52 9 104 13 93 6 129 16 90
27 -11 2 -22 3 -24 0z"/>
<path d="M3493 662 c-18 -2 -33 -8 -33 -14 0 -6 2 -9 5 -6 3 3 25 2 48 -3 46
-8 109 1 114 16 3 10 -68 13 -134 7z"/>
<path d="M12920 590 c-19 -5 -114 -23 -210 -40 -167 -30 -827 -158 -1145 -221
-82 -17 -154 -34 -158 -39 -5 -4 -3 -33 4 -64 15 -68 8 -77 -63 -95 -69 -16
-124 -14 -174 9 -58 27 -101 35 -116 22 -7 -5 -28 -13 -45 -17 -25 -5 -33 -12
-33 -29 0 -31 19 -46 57 -46 17 0 55 -5 84 -11 l52 -11 -29 -24 -29 -23 160 0
160 0 -43 21 c-23 11 -41 25 -39 31 3 10 44 34 143 85 45 23 74 31 119 32 81
2 82 2 60 -14 -18 -13 -18 -15 -2 -39 9 -15 17 -44 17 -66 0 -33 -4 -40 -22
-44 -13 -3 179 -4 425 -3 409 1 449 2 458 18 5 9 32 21 62 27 136 28 368 70
417 75 188 19 323 58 335 97 4 11 4 23 1 26 -3 3 4 19 15 34 44 63 44 139 -1
187 -25 26 -81 29 -179 8 -78 -17 -96 -11 -97 31 -1 17 -12 46 -24 62 -19 28
-26 31 -73 30 -29 -1 -68 -5 -87 -9z m110 -290 c0 -5 -4 -10 -10 -10 -5 0 -10
5 -10 10 0 6 5 10 10 10 6 0 10 -4 10 -10z m-386 -18 c3 -5 -5 -21 -18 -36
l-22 -29 4 37 c4 33 23 48 36 28z m116 -22 c0 -5 -7 -10 -16 -10 -8 0 -12 5
-9 10 3 6 10 10 16 10 5 0 9 -4 9 -10z m-65 -20 c-3 -5 -10 -10 -16 -10 -5 0
-9 5 -9 10 0 6 7 10 16 10 8 0 12 -4 9 -10z"/>
<path d="M11035 510 c-38 -4 -120 -13 -181 -19 -61 -7 -115 -11 -120 -10 -5 1
-31 -1 -59 -5 -83 -12 -106 -15 -225 -26 -250 -23 -289 -32 -290 -66 0 -31
-38 -44 -147 -51 -110 -6 -111 -6 -147 22 -32 25 -41 27 -83 20 -27 -5 -59 -9
-73 -10 -26 -2 -39 -28 -21 -40 6 -3 60 -12 121 -20 112 -13 149 -27 131 -49
-7 -9 -1 -18 22 -32 28 -17 50 -19 197 -18 93 0 217 8 285 17 66 9 137 19 158
22 21 2 41 6 46 9 4 3 39 10 77 16 135 20 132 19 142 49 8 23 33 41 126 89
120 63 165 92 166 105 0 8 -23 7 -125 -3z"/>
<path d="M15356 492 c-3 -3 -6 -22 -6 -43 0 -42 34 -109 71 -137 24 -19 83
-52 94 -52 22 0 -44 149 -88 197 -28 30 -60 46 -71 35z"/>
<path d="M10318 453 c7 -3 16 -2 19 1 4 3 -2 6 -13 5 -11 0 -14 -3 -6 -6z"/>
<path d="M11085 293 c-11 -3 -28 -14 -38 -24 -10 -10 -45 -27 -77 -36 -35 -11
-60 -24 -60 -32 0 -7 6 -11 13 -9 6 3 39 2 72 -2 57 -7 63 -5 130 32 39 22 79
48 90 59 19 19 19 19 -45 18 -36 -1 -74 -4 -85 -6z"/>
<path d="M2725 190 c-10 -16 -18 -136 -11 -164 l6 -26 118 0 c116 0 169 11
120 23 -12 4 -49 7 -80 7 -54 0 -88 16 -88 41 0 5 -6 9 -14 9 -20 0 -26 22
-17 62 7 28 5 37 -10 46 -11 7 -20 8 -24 2z"/>
<path d="M4208 93 c7 -3 16 -2 19 1 4 3 -2 6 -13 5 -11 0 -14 -3 -6 -6z"/>
<path d="M5096 22 c-3 -2 -265 -6 -583 -9 -318 -3 -580 -7 -582 -9 -9 -8 1344
-2 1364 6 14 6 5 9 -35 10 -30 1 -79 3 -107 5 -29 1 -55 0 -57 -3z"/>
<path d="M5320 10 c0 -5 7 -7 15 -4 8 4 15 8 15 10 0 2 -7 4 -15 4 -8 0 -15
-4 -15 -10z"/>
<path d="M3898 3 c7 -3 16 -2 19 1 4 3 -2 6 -13 5 -11 0 -14 -3 -6 -6z"/>
</g>
</svg>
