<?xml version="1.0" standalone="no"?>
<!DOCTYPE svg PUBLIC "-//W3C//DTD SVG 20010904//EN"
 "http://www.w3.org/TR/2001/REC-SVG-20010904/DTD/svg10.dtd">
<svg version="1.0" xmlns="http://www.w3.org/2000/svg"
 width="486.000000pt" height="116.000000pt" viewBox="0 0 486.000000 116.000000"
 preserveAspectRatio="xMidYMid meet">

<g transform="translate(0.000000,116.000000) scale(0.100000,-0.100000)"
fill="#000000" stroke="none">
<path d="M50 540 l0 -310 215 0 215 0 0 75 0 75 -135 0 -135 0 0 45 0 45 95 0
95 0 0 70 0 70 -95 0 -95 0 0 50 0 50 125 0 125 0 0 70 0 70 -205 0 -205 0 0
-310z"/>
<path d="M560 541 l0 -311 133 0 c151 0 231 16 292 58 56 39 92 96 112 175 14
58 14 78 4 134 -20 108 -67 174 -155 221 -48 25 -60 27 -218 30 l-168 4 0
-311z m307 141 c41 -29 63 -79 63 -144 0 -97 -60 -158 -157 -158 l-53 0 0 166
0 166 58 -4 c39 -3 69 -11 89 -26z"/>
<path d="M1190 639 c0 -240 6 -270 62 -334 49 -55 111 -80 198 -80 112 1 187
42 233 129 20 38 22 57 25 269 l3 227 -80 0 -81 0 0 -177 c0 -189 -8 -241 -42
-273 -32 -30 -93 -27 -122 5 -32 35 -36 62 -36 266 l0 179 -80 0 -80 0 0 -211z"/>
<path d="M1780 780 l0 -70 75 0 75 0 0 -240 0 -240 85 0 85 0 0 240 0 240 80
0 80 0 0 70 0 70 -240 0 -240 0 0 -70z"/>
<path d="M2330 540 l0 -310 215 0 215 0 0 75 0 75 -135 0 -135 0 0 45 0 45
100 0 100 0 0 70 0 70 -100 0 -100 0 0 50 0 50 125 0 125 0 0 70 0 70 -205 0
-205 0 0 -310z"/>
<path d="M2850 540 l0 -310 80 0 80 0 0 93 c0 79 3 97 19 111 22 20 19 23 95
-106 l57 -98 100 0 c77 0 99 3 93 12 -4 7 -54 86 -112 176 -57 90 -101 169
-99 175 3 7 51 67 106 135 l101 122 -104 0 -104 0 -74 -102 -73 -102 -3 102
-3 102 -79 0 -80 0 0 -310z"/>
<path d="M3440 540 l0 -310 85 0 85 0 0 310 0 310 -85 0 -85 0 0 -310z"/>
<path d="M3690 780 l0 -70 75 0 75 0 0 -240 0 -240 85 0 85 0 0 240 0 240 80
0 80 0 0 70 0 70 -240 0 -240 0 0 -70z"/>
<path d="M4233 448 c-46 -12 -73 -51 -73 -105 0 -85 81 -129 162 -87 l31 16
-21 21 c-17 17 -24 18 -36 8 -23 -19 -59 -9 -75 20 -13 24 -13 29 3 54 16 24
22 26 60 21 31 -5 46 -3 55 7 23 29 -51 60 -106 45z"/>
<path d="M4442 448 c-84 -23 -96 -160 -17 -196 49 -23 94 -15 131 22 83 83 3
207 -114 174z m76 -60 c17 -17 15 -64 -4 -82 -33 -34 -84 -8 -84 43 0 34 17
51 50 51 14 0 31 -5 38 -12z"/>
<path d="M4620 345 c0 -105 0 -105 24 -105 23 0 25 4 28 53 l3 52 18 -32 c10
-18 25 -33 35 -33 10 0 27 15 37 33 l20 32 3 -52 c3 -49 5 -53 28 -53 24 0 24
0 24 105 l0 105 -28 0 c-24 0 -32 -7 -52 -50 -13 -27 -26 -50 -30 -50 -4 0
-17 23 -30 50 -20 43 -28 50 -52 50 l-28 0 0 -105z"/>
<path d="M4084 275 c-4 -9 -2 -21 4 -27 16 -16 47 -5 47 17 0 26 -42 34 -51
10z"/>
</g>
</svg>
