<svg xmlns="http://www.w3.org/2000/svg" xmlns:xlink="http://www.w3.org/1999/xlink" width="227.223" height="51.2" viewBox="0 0 227.223 51.2">
  <defs>
    <linearGradient id="linear-gradient" x1="1.02" y1="0.344" x2="-0.174" y2="0.424" gradientUnits="objectBoundingBox">
      <stop offset="0" stop-color="#2fbc18"/>
      <stop offset="1" stop-color="#185e0c"/>
    </linearGradient>
  </defs>
  <g id="Group_341" data-name="Group 341" transform="translate(-2035.329 1208)">
    <g id="Group_340" data-name="Group 340" transform="translate(55 104)">
      <path id="Path_146693" data-name="Path 146693" d="M1.155-10.056H6.645v1.873H3.056v1.818H6.645v1.839H3.056V-1.88H6.645V0H1.155Zm7.563-.253h1.866V0H8.719Zm11.713,7.13h-6a2,2,0,0,0,.694,1.261,2.177,2.177,0,0,0,1.439.468,2.488,2.488,0,0,0,1.8-.731l1.572.738A3.711,3.711,0,0,1,18.531-.208a4.4,4.4,0,0,1-1.948.4,3.851,3.851,0,0,1-2.851-1.1,3.757,3.757,0,0,1-1.1-2.765,3.884,3.884,0,0,1,1.1-2.827A3.685,3.685,0,0,1,16.48-7.629,3.821,3.821,0,0,1,19.337-6.5a4.064,4.064,0,0,1,1.1,2.97Zm-1.866-1.47a1.872,1.872,0,0,0-.729-1.012,2.114,2.114,0,0,0-1.263-.39,2.234,2.234,0,0,0-1.369.438,2.438,2.438,0,0,0-.685.964Zm9.566-2.789H30V0H28.131V-.786a3.659,3.659,0,0,1-1.1.749,3.067,3.067,0,0,1-1.191.229A3.31,3.31,0,0,1,23.352-.926,3.9,3.9,0,0,1,22.3-3.705a4,4,0,0,1,1.017-2.823,3.241,3.241,0,0,1,2.472-1.1,3.141,3.141,0,0,1,1.256.253,3.428,3.428,0,0,1,1.086.759ZM26.169-5.906a1.886,1.886,0,0,0-1.438.612,2.2,2.2,0,0,0-.572,1.569,2.228,2.228,0,0,0,.582,1.586,1.887,1.887,0,0,0,1.434.622,1.923,1.923,0,0,0,1.458-.612,2.236,2.236,0,0,0,.579-1.6A2.172,2.172,0,0,0,27.634-5.3,1.947,1.947,0,0,0,26.169-5.906Zm5.977-1.531h1.6V-6.5a2,2,0,0,1,.69-.841,1.666,1.666,0,0,1,.943-.287,1.745,1.745,0,0,1,.759.191l-.581,1.606A1.283,1.283,0,0,0,35.018-6a.855.855,0,0,0-.728.533,4.879,4.879,0,0,0-.3,2.092L34-3.008V0H32.147Zm5.615,0h1.866v.762a4.477,4.477,0,0,1,1.15-.744,2.78,2.78,0,0,1,1.055-.209,2.553,2.553,0,0,1,1.877.772,2.653,2.653,0,0,1,.648,1.941V0H42.513V-3.257a8.24,8.24,0,0,0-.119-1.768,1.211,1.211,0,0,0-.416-.666,1.165,1.165,0,0,0-.733-.229,1.374,1.374,0,0,0-.972.379,2.023,2.023,0,0,0-.563,1.048,8.455,8.455,0,0,0-.082,1.509V0H37.762ZM47.591-10.5a1.141,1.141,0,0,1,.842.355,1.181,1.181,0,0,1,.351.861,1.167,1.167,0,0,1-.348.851,1.128,1.128,0,0,1-.832.352,1.144,1.144,0,0,1-.849-.359,1.2,1.2,0,0,1-.351-.872,1.148,1.148,0,0,1,.348-.841A1.141,1.141,0,0,1,47.591-10.5Zm-.933,3.063h1.866V0H46.658Zm4.262,0h1.866v.762a4.477,4.477,0,0,1,1.15-.744,2.78,2.78,0,0,1,1.055-.209,2.553,2.553,0,0,1,1.877.772,2.653,2.653,0,0,1,.648,1.941V0H55.671V-3.257a8.24,8.24,0,0,0-.119-1.768,1.211,1.211,0,0,0-.416-.666A1.165,1.165,0,0,0,54.4-5.92a1.374,1.374,0,0,0-.972.379,2.023,2.023,0,0,0-.563,1.048,8.455,8.455,0,0,0-.082,1.509V0H50.92Zm14.6,0h1.859v6.371a4.215,4.215,0,0,1-.759,2.775,3.8,3.8,0,0,1-3.069,1.2,5.376,5.376,0,0,1-1.839-.273,3.306,3.306,0,0,1-1.258-.8A3.274,3.274,0,0,1,59.693.547H61.75a1.7,1.7,0,0,0,.7.475,2.914,2.914,0,0,0,1.019.161A2.685,2.685,0,0,0,64.683.95a1.4,1.4,0,0,0,.646-.6,3.047,3.047,0,0,0,.188-1.271,3.091,3.091,0,0,1-1.032.708A3.281,3.281,0,0,1,63.261,0a3.363,3.363,0,0,1-2.529-1.08A3.8,3.8,0,0,1,59.7-3.814a3.8,3.8,0,0,1,1.094-2.844,3.263,3.263,0,0,1,2.365-.971,3.146,3.146,0,0,1,1.213.236,3.844,3.844,0,0,1,1.145.776ZM63.582-5.886a1.943,1.943,0,0,0-1.456.591,2.048,2.048,0,0,0-.574,1.487,2.077,2.077,0,0,0,.588,1.524,1.99,1.99,0,0,0,1.477.595,1.91,1.91,0,0,0,1.432-.581,2.1,2.1,0,0,0,.564-1.524A2.071,2.071,0,0,0,65.045-5.3,1.955,1.955,0,0,0,63.582-5.886ZM79.133-6.4,77.978-5.243a1.954,1.954,0,0,0-1.278-.7.8.8,0,0,0-.492.133.4.4,0,0,0-.178.332.408.408,0,0,0,.113.277,2.1,2.1,0,0,0,.557.345l.684.342a4.028,4.028,0,0,1,1.483,1.087,2.147,2.147,0,0,1,.4,1.3,2.145,2.145,0,0,1-.728,1.654A2.787,2.787,0,0,1,76.59.191a3.1,3.1,0,0,1-2.6-1.271l1.148-1.251a2.653,2.653,0,0,0,.769.619,1.7,1.7,0,0,0,.783.236.934.934,0,0,0,.595-.178.515.515,0,0,0,.226-.41q0-.431-.813-.841L76.07-3.22q-1.8-.909-1.8-2.276A1.975,1.975,0,0,1,74.946-7a2.47,2.47,0,0,1,1.74-.625,3.021,3.021,0,0,1,1.364.318A3.017,3.017,0,0,1,79.133-6.4Zm5.8-1.23a3.942,3.942,0,0,1,1.979.526,3.8,3.8,0,0,1,1.446,1.429,3.839,3.839,0,0,1,.52,1.948,3.906,3.906,0,0,1-.523,1.969A3.773,3.773,0,0,1,86.929-.325a3.936,3.936,0,0,1-1.989.516A3.71,3.71,0,0,1,82.208-.947a3.776,3.776,0,0,1-1.131-2.765,3.763,3.763,0,0,1,1.278-2.905A3.734,3.734,0,0,1,84.932-7.629Zm.031,1.757a1.921,1.921,0,0,0-1.448.6,2.149,2.149,0,0,0-.579,1.548,2.188,2.188,0,0,0,.572,1.572,1.912,1.912,0,0,0,1.448.6,1.934,1.934,0,0,0,1.459-.608A2.172,2.172,0,0,0,87-3.719a2.158,2.158,0,0,0-.572-1.555A1.934,1.934,0,0,0,84.963-5.872ZM90.9-10.309h1.866V0H90.9Zm4.255,2.871h1.887v3.582A4.96,4.96,0,0,0,97.181-2.4a1.268,1.268,0,0,0,.463.632,1.323,1.323,0,0,0,.785.226,1.37,1.37,0,0,0,.792-.222A1.3,1.3,0,0,0,99.7-2.42a5.006,5.006,0,0,0,.117-1.374V-7.437h1.866v3.151a7.73,7.73,0,0,1-.308,2.666,2.908,2.908,0,0,1-1.107,1.343,3.39,3.39,0,0,1-1.859.468,3.3,3.3,0,0,1-1.979-.547A2.889,2.889,0,0,1,95.37-1.88a9.239,9.239,0,0,1-.219-2.461Zm9.334-2.741h1.866v2.741h1.107v1.606h-1.107V0h-1.866V-5.831h-.957V-7.437h.957Zm5.4-.321a1.141,1.141,0,0,1,.842.355,1.181,1.181,0,0,1,.351.861,1.167,1.167,0,0,1-.348.851,1.128,1.128,0,0,1-.832.352,1.144,1.144,0,0,1-.849-.359,1.2,1.2,0,0,1-.351-.872,1.148,1.148,0,0,1,.348-.841A1.141,1.141,0,0,1,109.884-10.5Zm-.933,3.063h1.866V0h-1.866Zm7.755-.191a3.942,3.942,0,0,1,1.979.526,3.8,3.8,0,0,1,1.446,1.429,3.839,3.839,0,0,1,.52,1.948,3.906,3.906,0,0,1-.523,1.969A3.773,3.773,0,0,1,118.7-.325a3.936,3.936,0,0,1-1.989.516,3.71,3.71,0,0,1-2.731-1.138,3.776,3.776,0,0,1-1.131-2.765,3.763,3.763,0,0,1,1.278-2.905A3.734,3.734,0,0,1,116.706-7.629Zm.031,1.757a1.921,1.921,0,0,0-1.448.6,2.149,2.149,0,0,0-.579,1.548,2.188,2.188,0,0,0,.572,1.572,1.912,1.912,0,0,0,1.448.6,1.934,1.934,0,0,0,1.459-.608,2.172,2.172,0,0,0,.582-1.565,2.158,2.158,0,0,0-.572-1.555A1.934,1.934,0,0,0,116.737-5.872Zm6.138-1.565h1.866v.762a4.477,4.477,0,0,1,1.15-.744,2.78,2.78,0,0,1,1.055-.209,2.553,2.553,0,0,1,1.877.772,2.653,2.653,0,0,1,.648,1.941V0h-1.846V-3.257a8.24,8.24,0,0,0-.119-1.768,1.211,1.211,0,0,0-.416-.666,1.165,1.165,0,0,0-.733-.229,1.374,1.374,0,0,0-.972.379,2.023,2.023,0,0,0-.563,1.048,8.455,8.455,0,0,0-.082,1.509V0h-1.866ZM136.529-6.4l-1.155,1.155a1.954,1.954,0,0,0-1.278-.7.8.8,0,0,0-.492.133.4.4,0,0,0-.178.332.408.408,0,0,0,.113.277,2.1,2.1,0,0,0,.557.345l.684.342a4.028,4.028,0,0,1,1.483,1.087,2.147,2.147,0,0,1,.4,1.3,2.145,2.145,0,0,1-.728,1.654,2.787,2.787,0,0,1-1.952.663,3.1,3.1,0,0,1-2.6-1.271l1.148-1.251a2.653,2.653,0,0,0,.769.619,1.7,1.7,0,0,0,.783.236.934.934,0,0,0,.595-.178.515.515,0,0,0,.226-.41q0-.431-.813-.841l-.629-.314q-1.8-.909-1.8-2.276A1.975,1.975,0,0,1,132.342-7a2.47,2.47,0,0,1,1.74-.625,3.021,3.021,0,0,1,1.364.318A3.017,3.017,0,0,1,136.529-6.4Z" transform="translate(2069 -1264)" fill="#070707"/>
      <path id="Path_146692" data-name="Path 146692" d="M-53.266-9.082H-70.4a5.7,5.7,0,0,0,1.982,3.6A6.22,6.22,0,0,0-64.3-4.141a7.109,7.109,0,0,0,5.137-2.09l4.492,2.109A10.6,10.6,0,0,1-58.7-.6,12.583,12.583,0,0,1-64.262.547a11,11,0,0,1-8.145-3.154,10.734,10.734,0,0,1-3.145-7.9,11.1,11.1,0,0,1,3.135-8.076A10.528,10.528,0,0,1-64.555-21.8a10.918,10.918,0,0,1,8.164,3.213A11.611,11.611,0,0,1-53.247-10.1Zm-5.332-4.2a5.35,5.35,0,0,0-2.084-2.891,6.041,6.041,0,0,0-3.61-1.113,6.382,6.382,0,0,0-3.913,1.25,6.966,6.966,0,0,0-1.956,2.754Zm22.412-16.172h5.332V0h-5.332V-2.246A10.453,10.453,0,0,1-39.317-.107a8.763,8.763,0,0,1-3.4.654,9.457,9.457,0,0,1-7.121-3.193,11.14,11.14,0,0,1-3-7.939,11.415,11.415,0,0,1,2.907-8.066A9.261,9.261,0,0,1-42.878-21.8a8.975,8.975,0,0,1,3.589.723,9.8,9.8,0,0,1,3.1,2.168Zm-5.605,12.578A5.387,5.387,0,0,0-45.9-15.127a6.3,6.3,0,0,0-1.635,4.482A6.366,6.366,0,0,0-45.87-6.113a5.393,5.393,0,0,0,4.1,1.777,5.493,5.493,0,0,0,4.166-1.748,6.39,6.39,0,0,0,1.655-4.58,6.206,6.206,0,0,0-1.655-4.492A5.562,5.562,0,0,0-41.791-16.875ZM-28.4-21.25h5.391v10.234a14.17,14.17,0,0,0,.411,4.15A3.622,3.622,0,0,0-21.28-5.059a3.781,3.781,0,0,0,2.242.645,3.916,3.916,0,0,0,2.262-.635A3.724,3.724,0,0,0-15.4-6.914a14.3,14.3,0,0,0,.333-3.926V-21.25h5.332v9q0,5.566-.879,7.617A8.308,8.308,0,0,1-13.774-.791,9.685,9.685,0,0,1-19.087.547a9.423,9.423,0,0,1-5.654-1.562,8.255,8.255,0,0,1-3.037-4.355A26.4,26.4,0,0,1-28.4-12.4Zm21.748-7.832h5.332v7.832H1.841v4.59H-1.323V0H-6.655V-16.66H-9.39v-4.59h2.734Zm29.717,20H5.933a5.7,5.7,0,0,0,1.982,3.6,6.22,6.22,0,0,0,4.111,1.338,7.109,7.109,0,0,0,5.137-2.09l4.492,2.109A10.6,10.6,0,0,1,17.632-.6,12.583,12.583,0,0,1,12.065.547,11,11,0,0,1,3.921-2.607a10.734,10.734,0,0,1-3.145-7.9,11.1,11.1,0,0,1,3.135-8.076A10.528,10.528,0,0,1,11.772-21.8a10.918,10.918,0,0,1,8.164,3.213A11.611,11.611,0,0,1,23.081-10.1Zm-5.332-4.2a5.35,5.35,0,0,0-2.084-2.891,6.041,6.041,0,0,0-3.61-1.113,6.382,6.382,0,0,0-3.913,1.25,6.966,6.966,0,0,0-1.956,2.754ZM24.5-29.453h5.332v16.964l7.852-8.761h6.7L35.223-11.065,45.471,0H38.853L29.829-9.794V0H24.5ZM46.821-30a3.26,3.26,0,0,1,2.405,1.016,3.373,3.373,0,0,1,1,2.461,3.334,3.334,0,0,1-.993,2.432,3.222,3.222,0,0,1-2.376,1.006,3.267,3.267,0,0,1-2.425-1.025,3.429,3.429,0,0,1-1-2.49,3.279,3.279,0,0,1,.993-2.4A3.26,3.26,0,0,1,46.821-30Zm-2.666,8.75h5.332V0H44.155Zm7.9-7.832h5.332v7.832h3.164v4.59H57.388V0H52.055V-16.66H49.321v-4.59h2.734Z" transform="translate(2147 -1280)" fill="#070707"/>
      <circle id="Ellipse_4" data-name="Ellipse 4" cx="5" cy="5" r="5" transform="translate(2188 -1312)" fill="#62d84e"/>
      <g id="Group_338" data-name="Group 338" transform="translate(-3 -5.788)">
        <g id="Group_337" data-name="Group 337" transform="translate(1983.329 -1304)">
          <path id="Path_146685" data-name="Path 146685" d="M45.44,36.7c-3.992,4.326-5.878,6.727-11.241,9.082A24.649,24.649,0,0,1,17.176,46.8,24.259,24.259,0,0,1,3.661,36.557,23.675,23.675,0,0,1,8.783,5.514,24.6,24.6,0,0,1,39.8,5.5c.143.11.534.441.915.785A21.935,21.935,0,0,1,43.659,9.27c-.1-.13,1.688,1.684,1.8,1.834a28.093,28.093,0,0,1,2.177,3.5l-3.974,3.434-.887.756-.533-.5-4.464-5.049s-1.308-1.428-1.8-1.869a17.489,17.489,0,0,0-22.713-.547A16.841,16.841,0,0,0,9.621,32.911,17.256,17.256,0,0,0,19.233,40.2a17.539,17.539,0,0,0,12.109-.727c2.072-.91,5.161-3.74,7.684-6.2,1.675-1.634,2.986-3.023,2.986-3.023s1.108-1.982,2.7-1.256.73,7.71.73,7.71Z" transform="translate(86.671 48.988) rotate(180)" fill="url(#linear-gradient)"/>
          <path id="Path_146685-2" data-name="Path 146685" d="M1712.9,6020.424c-4.634,3.473-3.915,3.3-9.278,5.651a24.649,24.649,0,0,1-17.024,1.022,24.259,24.259,0,0,1-13.514-10.245,23.675,23.675,0,0,1,5.122-31.043,24.6,24.6,0,0,1,31.018-.016c.143.11.534.441.915.785a19.711,19.711,0,0,1,4.724,5.673l2.061,3.96-5.141,5.515s-1.727-4.018-2.912-5.994-1.284-2.754-4.7-5.179a15.69,15.69,0,0,0-10.025-3.345,17.457,17.457,0,0,0-11.46,3.917,16.841,16.841,0,0,0-3.643,22.081,17.256,17.256,0,0,0,9.612,7.288,17.539,17.539,0,0,0,12.109-.727,35.823,35.823,0,0,0,7.78-5.212l1.507,2.4,2.848,3.475Z" transform="translate(-1669.423 -5980.294)" fill="#62d84e"/>
          <ellipse id="Ellipse_2" data-name="Ellipse 2" cx="3.172" cy="3.402" rx="3.172" ry="3.402" transform="translate(35.597 24.136)" fill="#2db017"/>
          <ellipse id="Ellipse_5" data-name="Ellipse 5" cx="3.172" cy="3.402" rx="3.172" ry="3.402" transform="translate(44.054 19.6)" fill="#62d84e"/>
        </g>
      </g>
    </g>
  </g>
</svg>
