<svg width="100%" height="37" viewBox="0 0 37 37" fill="none" xmlns="http://www.w3.org/2000/svg">
<path d="M0 18.2671C0.00555801 13.4241 1.9319 8.78103 5.35642 5.35651C8.78094 1.93198 13.424 0.00564563 18.267 8.76235e-05C22.2958 -0.0124441 26.2137 1.31955 29.4 3.78509L25.157 9.30009C23.1848 7.77497 20.7601 6.95149 18.267 6.96009C16.1809 6.96018 14.1355 7.53733 12.357 8.6277C10.5785 9.71808 9.13633 11.2792 8.18998 13.1383C7.24362 14.9974 6.82999 17.082 6.99483 19.1616C7.15967 21.2412 7.89657 23.2347 9.124 24.9215C10.3514 26.6083 12.0215 27.9227 13.9496 28.7192C15.8776 29.5158 17.9884 29.7635 20.0485 29.4349C22.1086 29.1064 24.0376 28.2143 25.6222 26.8575C27.2068 25.5007 28.3852 23.732 29.027 21.7471H18.267V14.7871H36.534V18.2661C36.5341 20.6649 36.0616 23.0403 35.1437 25.2566C34.2258 27.4729 32.8803 29.4867 31.1841 31.183C29.4879 32.8792 27.4742 34.2248 25.2579 35.1429C23.0417 36.061 20.6664 36.5335 18.2675 36.5336C15.8686 36.5337 13.4933 36.0612 11.277 35.1433C9.0607 34.2253 7.04693 32.8799 5.35063 31.1837C1.92481 27.758 0.000132608 23.1118 0 18.2671Z" fill="black"/>
</svg>
