<svg width="100%" height="20" viewBox="0 0 378 150" fill="none" xmlns="http://www.w3.org/2000/svg">
<g clip-path="url(#clip0_24_10)">
<path d="M178.777 22.0518V59.9454H202.15C207.718 59.9454 212.32 58.0789 215.958 54.3351C219.701 50.6019 221.568 46.1476 221.568 40.9933C221.568 35.839 219.701 31.5438 215.958 27.8C212.31 23.9608 207.707 22.0412 202.15 22.0412H178.777V22.0518ZM178.777 73.2978V117.258H164.821V8.71002H201.843C211.249 8.71002 219.224 11.8493 225.81 18.1065C232.501 24.3638 235.831 31.9998 235.831 40.9933C235.831 49.9868 232.501 57.8773 225.81 64.0286C219.341 70.201 211.344 73.2766 201.843 73.2766H178.777V73.2978ZM249.936 94.4983C249.936 98.1466 251.473 101.169 254.57 103.598C257.656 106.016 261.272 107.236 265.419 107.236C271.294 107.236 276.511 105.061 281.114 100.724C285.716 96.3755 288.018 91.2742 288.018 85.4199C283.67 81.9731 277.593 80.2657 269.809 80.2657C264.146 80.2657 259.416 81.6338 255.63 84.3594C251.844 87.085 249.936 90.4576 249.936 94.4983ZM267.996 40.5373C278.314 40.5373 286.459 43.2841 292.429 48.799C298.4 54.3139 301.369 61.8544 301.369 71.4524V117.237H288.018V106.928H287.413C281.644 115.412 273.966 119.655 264.358 119.655C256.161 119.655 249.299 117.237 243.795 112.39C238.281 107.533 235.524 101.477 235.524 94.1907C235.524 86.5123 238.419 80.4035 244.241 75.8644C250.063 71.3146 257.826 69.045 267.529 69.045C275.822 69.045 282.652 70.5616 288.007 73.5948V70.4131C288.007 65.5664 286.088 61.4514 282.249 58.0682C278.399 54.6745 273.913 52.9882 268.749 52.9882C260.954 52.9882 254.793 56.2653 250.243 62.8407L237.941 55.1093C244.729 45.4052 254.74 40.5585 267.996 40.5585M378 42.9659L331.413 149.976H317.001L334.297 112.538L303.649 42.9659H318.825L340.978 96.3225H341.275L362.824 42.9659H378Z" fill="#5F6368"/>
<path d="M122.37 63.8058C122.37 59.4151 121.998 55.1729 121.299 51.1216H62.4203V75.1432H96.1332C94.6909 82.97 90.3111 89.6303 83.6724 94.0953V109.696H103.8C115.582 98.8359 122.37 82.7898 122.37 63.8164" fill="#4285F4"/>
<path d="M62.4203 124.756C79.2714 124.756 93.4502 119.23 103.801 109.696L83.6725 94.0953C78.0731 97.8602 70.8618 100.066 62.4203 100.066C46.1418 100.066 32.3237 89.1001 27.3712 74.3265H6.64929V90.3939C16.9254 110.767 38.0397 124.767 62.4309 124.767" fill="#34A853"/>
<path d="M27.3818 74.3159C26.1198 70.551 25.4199 66.5315 25.4199 62.3847C25.4199 58.2379 26.1092 54.2184 27.3818 50.4535V34.386H6.64925C2.3967 42.8069 0 52.3094 0 62.3847C0 72.46 2.3967 81.9731 6.64925 90.3833L27.3818 74.3159Z" fill="#FABB05"/>
<path d="M62.4203 24.7032C71.6147 24.7032 79.8653 27.8636 86.3661 34.0573C92.8669 40.2509 104.182 16.2611 104.182 16.2611C93.3653 6.20708 79.2608 0.0240479 62.4203 0.0240479C38.0397 0.0240479 16.9254 14.0128 6.64929 34.386L27.3818 50.4534C32.3237 35.6799 46.1418 24.7138 62.4309 24.7138" fill="#E94235"/>
</g>
<defs>
<clipPath id="clip0_24_10">
<rect width="378" height="150" fill="white"/>
</clipPath>
</defs>
</svg>
