<svg width="100%" height="auto" viewBox="0 0 638 677" fill="none" xmlns="http://www.w3.org/2000/svg">
<mask id="mask0_119_22" style="mask-type:alpha" maskUnits="userSpaceOnUse" x="0" y="93" width="638" height="490">
<rect x="638" y="583" width="638" height="490" transform="rotate(-180 638 583)" fill="#C4C4C4"/>
</mask>
<g mask="url(#mask0_119_22)">
<rect x="636.354" y="782.363" width="0.893916" height="690.87" transform="rotate(-165 636.354 782.363)" fill="black"/>
<rect x="631.417" y="781.041" width="0.893916" height="690.87" transform="rotate(-165 631.417 781.041)" fill="black"/>
<rect x="601.815" y="773.108" width="0.893916" height="690.87" transform="rotate(-165 601.815 773.108)" fill="black"/>
<rect x="626.483" y="779.718" width="0.893916" height="690.87" transform="rotate(-165 626.483 779.718)" fill="black"/>
<rect x="596.881" y="771.786" width="0.893916" height="690.87" transform="rotate(-165 596.881 771.786)" fill="black"/>
<rect x="621.55" y="778.396" width="0.893916" height="690.87" transform="rotate(-165 621.55 778.396)" fill="black"/>
<rect x="591.948" y="770.464" width="0.893916" height="690.87" transform="rotate(-165 591.948 770.464)" fill="black"/>
<rect x="616.617" y="777.074" width="0.893916" height="690.87" transform="rotate(-165 616.617 777.074)" fill="black"/>
<rect x="587.015" y="769.142" width="0.893916" height="690.87" transform="rotate(-165 587.015 769.142)" fill="black"/>
<rect x="611.683" y="775.752" width="0.893916" height="690.87" transform="rotate(-165 611.683 775.752)" fill="black"/>
<rect x="582.077" y="767.82" width="0.893916" height="690.87" transform="rotate(-165 582.077 767.82)" fill="black"/>
<rect x="606.748" y="774.43" width="0.893916" height="690.87" transform="rotate(-165 606.748 774.43)" fill="black"/>
<rect x="577.144" y="766.498" width="0.893916" height="690.87" transform="rotate(-165 577.144 766.498)" fill="black"/>
<rect x="572.21" y="765.176" width="0.893916" height="690.87" transform="rotate(-165 572.21 765.176)" fill="black"/>
<rect x="542.606" y="757.243" width="0.893916" height="690.87" transform="rotate(-165 542.606 757.243)" fill="black"/>
<rect x="567.277" y="763.854" width="0.893916" height="690.87" transform="rotate(-165 567.277 763.854)" fill="black"/>
<rect x="537.671" y="755.921" width="0.893916" height="690.87" transform="rotate(-165 537.671 755.921)" fill="black"/>
<rect x="562.342" y="762.532" width="0.893916" height="690.87" transform="rotate(-165 562.342 762.532)" fill="black"/>
<rect x="532.738" y="754.599" width="0.893916" height="690.87" transform="rotate(-165 532.738 754.599)" fill="black"/>
<rect x="557.408" y="761.209" width="0.893916" height="690.87" transform="rotate(-165 557.408 761.209)" fill="black"/>
<rect x="527.804" y="753.277" width="0.893916" height="690.87" transform="rotate(-165 527.804 753.277)" fill="black"/>
<rect x="552.475" y="759.887" width="0.893916" height="690.87" transform="rotate(-165 552.475 759.887)" fill="black"/>
<rect x="522.871" y="751.955" width="0.893916" height="690.87" transform="rotate(-165 522.871 751.955)" fill="black"/>
<rect x="547.54" y="758.565" width="0.893916" height="690.87" transform="rotate(-165 547.54 758.565)" fill="black"/>
<rect x="517.936" y="750.633" width="0.893916" height="690.87" transform="rotate(-165 517.936 750.633)" fill="black"/>
<rect x="513.002" y="749.311" width="0.893916" height="690.87" transform="rotate(-165 513.002 749.311)" fill="black"/>
<rect x="483.398" y="741.378" width="0.893916" height="690.87" transform="rotate(-165 483.398 741.378)" fill="black"/>
<rect x="508.067" y="747.989" width="0.893916" height="690.87" transform="rotate(-165 508.067 747.989)" fill="black"/>
<rect x="478.465" y="740.056" width="0.893916" height="690.87" transform="rotate(-165 478.465 740.056)" fill="black"/>
<rect x="503.134" y="746.667" width="0.893916" height="690.87" transform="rotate(-165 503.134 746.667)" fill="black"/>
<rect x="473.531" y="738.734" width="0.893916" height="690.87" transform="rotate(-165 473.531 738.734)" fill="black"/>
<rect x="498.2" y="745.344" width="0.893916" height="690.87" transform="rotate(-165 498.2 745.344)" fill="black"/>
<rect x="468.594" y="737.412" width="0.893916" height="690.87" transform="rotate(-165 468.594 737.412)" fill="black"/>
<rect x="493.265" y="744.022" width="0.893916" height="690.87" transform="rotate(-165 493.265 744.022)" fill="black"/>
<rect x="463.661" y="736.09" width="0.893916" height="690.87" transform="rotate(-165 463.661 736.09)" fill="black"/>
<rect x="488.332" y="742.7" width="0.893916" height="690.87" transform="rotate(-165 488.332 742.7)" fill="black"/>
<rect x="458.727" y="734.768" width="0.893916" height="690.87" transform="rotate(-165 458.727 734.768)" fill="black"/>
<rect x="453.794" y="733.446" width="0.893916" height="690.87" transform="rotate(-165 453.794 733.446)" fill="black"/>
<rect x="424.188" y="725.514" width="0.893916" height="690.87" transform="rotate(-165 424.188 725.514)" fill="black"/>
<rect x="448.859" y="732.124" width="0.893916" height="690.87" transform="rotate(-165 448.859 732.124)" fill="black"/>
<rect x="419.254" y="724.192" width="0.893916" height="690.87" transform="rotate(-165 419.254 724.192)" fill="black"/>
<rect x="443.925" y="730.802" width="0.893916" height="690.87" transform="rotate(-165 443.925 730.802)" fill="black"/>
<rect x="414.321" y="722.869" width="0.893916" height="690.87" transform="rotate(-165 414.321 722.869)" fill="black"/>
<rect x="438.992" y="729.48" width="0.893916" height="690.87" transform="rotate(-165 438.992 729.48)" fill="black"/>
<rect x="409.388" y="721.547" width="0.893916" height="690.87" transform="rotate(-165 409.388 721.547)" fill="black"/>
<rect x="434.059" y="728.158" width="0.893916" height="690.87" transform="rotate(-165 434.059 728.158)" fill="black"/>
<rect x="404.455" y="720.225" width="0.893916" height="690.87" transform="rotate(-165 404.455 720.225)" fill="black"/>
<rect x="429.123" y="726.836" width="0.893916" height="690.87" transform="rotate(-165 429.123 726.836)" fill="black"/>
<rect x="399.519" y="718.903" width="0.893916" height="690.87" transform="rotate(-165 399.519 718.903)" fill="black"/>
<rect x="394.586" y="717.581" width="0.893916" height="690.87" transform="rotate(-165 394.586 717.581)" fill="black"/>
<rect x="364.982" y="709.649" width="0.893916" height="690.87" transform="rotate(-165 364.982 709.649)" fill="black"/>
<rect x="389.65" y="716.259" width="0.893916" height="690.87" transform="rotate(-165 389.65 716.259)" fill="black"/>
<rect x="360.048" y="708.327" width="0.893916" height="690.87" transform="rotate(-165 360.048 708.327)" fill="black"/>
<rect x="384.717" y="714.937" width="0.893916" height="690.87" transform="rotate(-165 384.717 714.937)" fill="black"/>
<rect x="355.111" y="707.005" width="0.893916" height="690.87" transform="rotate(-165 355.111 707.005)" fill="black"/>
<rect x="379.781" y="713.615" width="0.893916" height="690.87" transform="rotate(-165 379.781 713.615)" fill="black"/>
<rect x="350.177" y="705.682" width="0.893916" height="690.87" transform="rotate(-165 350.177 705.682)" fill="black"/>
<rect x="374.848" y="712.293" width="0.893916" height="690.87" transform="rotate(-165 374.848 712.293)" fill="black"/>
<rect x="345.244" y="704.36" width="0.893916" height="690.87" transform="rotate(-165 345.244 704.36)" fill="black"/>
<rect x="369.915" y="710.971" width="0.893916" height="690.87" transform="rotate(-165 369.915 710.971)" fill="black"/>
<rect x="340.311" y="703.038" width="0.893916" height="690.87" transform="rotate(-165 340.311 703.038)" fill="black"/>
<rect x="335.375" y="701.716" width="0.893916" height="690.87" transform="rotate(-165 335.375 701.716)" fill="black"/>
<rect x="305.771" y="693.784" width="0.893916" height="690.87" transform="rotate(-165 305.771 693.784)" fill="black"/>
<rect x="330.442" y="700.394" width="0.893916" height="690.87" transform="rotate(-165 330.442 700.394)" fill="black"/>
<rect x="300.838" y="692.462" width="0.893916" height="690.87" transform="rotate(-165 300.838 692.462)" fill="black"/>
<rect x="325.509" y="699.072" width="0.893916" height="690.87" transform="rotate(-165 325.509 699.072)" fill="black"/>
<rect x="295.905" y="691.14" width="0.893916" height="690.87" transform="rotate(-165 295.905 691.14)" fill="black"/>
<rect x="320.575" y="697.75" width="0.893916" height="690.87" transform="rotate(-165 320.575 697.75)" fill="black"/>
<rect x="290.971" y="689.818" width="0.893916" height="690.87" transform="rotate(-165 290.971 689.818)" fill="black"/>
<rect x="315.642" y="696.428" width="0.893916" height="690.87" transform="rotate(-165 315.642 696.428)" fill="black"/>
<rect x="286.036" y="688.495" width="0.893916" height="690.87" transform="rotate(-165 286.036 688.495)" fill="black"/>
<rect x="310.705" y="695.106" width="0.893916" height="690.87" transform="rotate(-165 310.705 695.106)" fill="black"/>
<rect x="281.103" y="687.174" width="0.893916" height="690.87" transform="rotate(-165 281.103 687.174)" fill="black"/>
<rect x="276.169" y="685.851" width="0.893916" height="690.87" transform="rotate(-165 276.169 685.851)" fill="black"/>
<rect x="246.565" y="677.919" width="0.893916" height="690.87" transform="rotate(-165 246.565 677.919)" fill="black"/>
<rect x="271.234" y="684.529" width="0.893916" height="690.87" transform="rotate(-165 271.234 684.529)" fill="black"/>
<rect x="241.63" y="676.597" width="0.893916" height="690.87" transform="rotate(-165 241.63 676.597)" fill="black"/>
<rect x="266.298" y="683.207" width="0.893916" height="690.87" transform="rotate(-165 266.298 683.207)" fill="black"/>
<rect x="236.696" y="675.275" width="0.893916" height="690.87" transform="rotate(-165 236.696 675.275)" fill="black"/>
<rect x="261.365" y="681.885" width="0.893916" height="690.87" transform="rotate(-165 261.365 681.885)" fill="black"/>
<rect x="231.761" y="673.953" width="0.893916" height="690.87" transform="rotate(-165 231.761 673.953)" fill="black"/>
<rect x="256.432" y="680.563" width="0.893916" height="690.87" transform="rotate(-165 256.432 680.563)" fill="black"/>
<rect x="226.828" y="672.63" width="0.893916" height="690.87" transform="rotate(-165 226.828 672.63)" fill="black"/>
<rect x="251.499" y="679.241" width="0.893916" height="690.87" transform="rotate(-165 251.499 679.241)" fill="black"/>
<rect x="221.894" y="671.309" width="0.893916" height="690.87" transform="rotate(-165 221.894 671.309)" fill="black"/>
<rect x="217.599" y="670.158" width="0.893916" height="690.87" transform="rotate(-165 217.599 670.158)" fill="black"/>
<rect x="187.997" y="662.226" width="0.893916" height="690.87" transform="rotate(-165 187.997 662.226)" fill="black"/>
<rect x="212.666" y="668.836" width="0.893916" height="690.87" transform="rotate(-165 212.666 668.836)" fill="black"/>
<rect x="183.059" y="660.903" width="0.893916" height="690.87" transform="rotate(-165 183.059 660.903)" fill="black"/>
<rect x="207.732" y="667.514" width="0.893916" height="690.87" transform="rotate(-165 207.732 667.514)" fill="black"/>
<rect x="178.126" y="659.582" width="0.893916" height="690.87" transform="rotate(-165 178.126 659.582)" fill="black"/>
<rect x="202.797" y="666.192" width="0.893916" height="690.87" transform="rotate(-165 202.797 666.192)" fill="black"/>
<rect x="173.193" y="658.259" width="0.893916" height="690.87" transform="rotate(-165 173.193 658.259)" fill="black"/>
<rect x="197.864" y="664.87" width="0.893916" height="690.87" transform="rotate(-165 197.864 664.87)" fill="black"/>
<rect x="168.259" y="656.937" width="0.893916" height="690.87" transform="rotate(-165 168.259 656.937)" fill="black"/>
<rect x="192.93" y="663.548" width="0.893916" height="690.87" transform="rotate(-165 192.93 663.548)" fill="black"/>
<rect x="163.326" y="655.615" width="0.893916" height="690.87" transform="rotate(-165 163.326 655.615)" fill="black"/>
<rect x="158.391" y="654.293" width="0.893916" height="690.87" transform="rotate(-165 158.391 654.293)" fill="black"/>
<rect x="128.786" y="646.361" width="0.893916" height="690.87" transform="rotate(-165 128.786 646.361)" fill="black"/>
<rect x="153.457" y="652.971" width="0.893916" height="690.87" transform="rotate(-165 153.457 652.971)" fill="black"/>
<rect x="123.853" y="645.039" width="0.893916" height="690.87" transform="rotate(-165 123.853 645.039)" fill="black"/>
<rect x="148.524" y="651.649" width="0.893916" height="690.87" transform="rotate(-165 148.524 651.649)" fill="black"/>
<rect x="118.92" y="643.717" width="0.893916" height="690.87" transform="rotate(-165 118.92 643.717)" fill="black"/>
<rect x="143.591" y="650.327" width="0.893916" height="690.87" transform="rotate(-165 143.591 650.327)" fill="black"/>
<rect x="113.984" y="642.395" width="0.893916" height="690.87" transform="rotate(-165 113.984 642.395)" fill="black"/>
<rect x="138.657" y="649.005" width="0.893916" height="690.87" transform="rotate(-165 138.657 649.005)" fill="black"/>
<rect x="109.051" y="641.073" width="0.893916" height="690.87" transform="rotate(-165 109.051 641.073)" fill="black"/>
<rect x="133.72" y="647.683" width="0.893916" height="690.87" transform="rotate(-165 133.72 647.683)" fill="black"/>
<rect x="104.118" y="639.751" width="0.893916" height="690.87" transform="rotate(-165 104.118 639.751)" fill="black"/>
<rect x="99.1824" y="638.428" width="0.893916" height="690.87" transform="rotate(-165 99.1824 638.428)" fill="black"/>
<rect x="69.5803" y="630.496" width="0.893916" height="690.87" transform="rotate(-165 69.5803 630.496)" fill="black"/>
<rect x="94.249" y="637.106" width="0.893916" height="690.87" transform="rotate(-165 94.249 637.106)" fill="black"/>
<rect x="64.645" y="629.174" width="0.893916" height="690.87" transform="rotate(-165 64.645 629.174)" fill="black"/>
<rect x="89.3137" y="635.784" width="0.893916" height="690.87" transform="rotate(-165 89.3137 635.784)" fill="black"/>
<rect x="59.7095" y="627.852" width="0.893916" height="690.87" transform="rotate(-165 59.7095 627.852)" fill="black"/>
<rect x="84.3804" y="634.462" width="0.893916" height="690.87" transform="rotate(-165 84.3804 634.462)" fill="black"/>
<rect x="54.7761" y="626.53" width="0.893916" height="690.87" transform="rotate(-165 54.7761 626.53)" fill="black"/>
<rect x="79.447" y="633.14" width="0.893916" height="690.87" transform="rotate(-165 79.447 633.14)" fill="black"/>
<rect x="49.8428" y="625.208" width="0.893916" height="690.87" transform="rotate(-165 49.8428 625.208)" fill="black"/>
<rect x="74.5137" y="631.818" width="0.893916" height="690.87" transform="rotate(-165 74.5137 631.818)" fill="black"/>
<rect x="44.9075" y="623.886" width="0.893916" height="690.87" transform="rotate(-165 44.9075 623.886)" fill="black"/>
<rect x="39.9741" y="622.563" width="0.893916" height="690.87" transform="rotate(-165 39.9741 622.563)" fill="black"/>
<rect x="10.3699" y="614.631" width="0.893916" height="690.87" transform="rotate(-165 10.3699 614.631)" fill="black"/>
<rect x="35.0408" y="621.242" width="0.893916" height="690.87" transform="rotate(-165 35.0408 621.242)" fill="black"/>
<rect x="5.43677" y="613.309" width="0.893916" height="690.87" transform="rotate(-165 5.43677 613.309)" fill="black"/>
<rect x="30.1074" y="619.919" width="0.893916" height="690.87" transform="rotate(-165 30.1074 619.919)" fill="black"/>
<rect x="0.501221" y="611.987" width="0.893916" height="690.87" transform="rotate(-165 0.501221 611.987)" fill="black"/>
<rect x="25.1741" y="618.597" width="0.893916" height="690.87" transform="rotate(-165 25.1741 618.597)" fill="black"/>
<rect x="-4.43213" y="610.665" width="0.893916" height="690.87" transform="rotate(-165 -4.43213 610.665)" fill="black"/>
<rect x="20.2366" y="617.275" width="0.893916" height="690.87" transform="rotate(-165 20.2366 617.275)" fill="black"/>
<rect x="-9.36548" y="609.343" width="0.893916" height="690.87" transform="rotate(-165 -9.36548 609.343)" fill="black"/>
<rect x="15.3032" y="615.953" width="0.893916" height="690.87" transform="rotate(-165 15.3032 615.953)" fill="black"/>
<rect x="-14.2986" y="608.021" width="0.893916" height="690.87" transform="rotate(-165 -14.2986 608.021)" fill="black"/>
<rect x="-19.2319" y="606.699" width="0.893916" height="690.87" transform="rotate(-165 -19.2319 606.699)" fill="black"/>
<rect x="-48.8384" y="598.766" width="0.893916" height="690.87" transform="rotate(-165 -48.8384 598.766)" fill="black"/>
<rect x="-24.1697" y="605.377" width="0.893916" height="690.87" transform="rotate(-165 -24.1697 605.377)" fill="black"/>
<rect x="-53.7715" y="597.444" width="0.893916" height="690.87" transform="rotate(-165 -53.7715 597.444)" fill="black"/>
<rect x="-29.103" y="604.054" width="0.893916" height="690.87" transform="rotate(-165 -29.103 604.054)" fill="black"/>
<rect x="-58.707" y="596.122" width="0.893916" height="690.87" transform="rotate(-165 -58.707 596.122)" fill="black"/>
<rect x="-34.0361" y="602.733" width="0.893916" height="690.87" transform="rotate(-165 -34.0361 602.733)" fill="black"/>
<rect x="-63.6404" y="594.8" width="0.893916" height="690.87" transform="rotate(-165 -63.6404 594.8)" fill="black"/>
<rect x="-38.9695" y="601.41" width="0.893916" height="690.87" transform="rotate(-165 -38.9695 601.41)" fill="black"/>
<rect x="-68.5757" y="593.478" width="0.893916" height="690.87" transform="rotate(-165 -68.5757 593.478)" fill="black"/>
<rect x="-43.9028" y="600.088" width="0.893916" height="690.87" transform="rotate(-165 -43.9028 600.088)" fill="black"/>
<rect x="-73.509" y="592.156" width="0.893916" height="690.87" transform="rotate(-165 -73.509 592.156)" fill="black"/>
<rect x="-78.4424" y="590.834" width="0.893916" height="690.87" transform="rotate(-165 -78.4424 590.834)" fill="black"/>
<rect x="-108.047" y="582.901" width="0.893916" height="690.87" transform="rotate(-165 -108.047 582.901)" fill="black"/>
<rect x="-83.3757" y="589.512" width="0.893916" height="690.87" transform="rotate(-165 -83.3757 589.512)" fill="black"/>
<rect x="-112.98" y="581.579" width="0.893916" height="690.87" transform="rotate(-165 -112.98 581.579)" fill="black"/>
<rect x="-88.3091" y="588.19" width="0.893916" height="690.87" transform="rotate(-165 -88.3091 588.19)" fill="black"/>
<rect x="-117.915" y="580.257" width="0.893916" height="690.87" transform="rotate(-165 -117.915 580.257)" fill="black"/>
<rect x="-93.2466" y="586.868" width="0.893916" height="690.87" transform="rotate(-165 -93.2466 586.868)" fill="black"/>
<rect x="-122.849" y="578.935" width="0.893916" height="690.87" transform="rotate(-165 -122.849 578.935)" fill="black"/>
<rect x="-98.1799" y="585.545" width="0.893916" height="690.87" transform="rotate(-165 -98.1799 585.545)" fill="black"/>
<rect x="-127.782" y="577.613" width="0.893916" height="690.87" transform="rotate(-165 -127.782 577.613)" fill="black"/>
<rect x="-103.113" y="584.224" width="0.893916" height="690.87" transform="rotate(-165 -103.113 584.224)" fill="black"/>
<rect x="-132.715" y="576.291" width="0.893916" height="690.87" transform="rotate(-165 -132.715 576.291)" fill="black"/>
<rect x="-137.653" y="574.969" width="0.893916" height="690.87" transform="rotate(-165 -137.653 574.969)" fill="black"/>
<rect x="-167.255" y="567.037" width="0.893916" height="690.87" transform="rotate(-165 -167.255 567.037)" fill="black"/>
<rect x="-142.586" y="573.647" width="0.893916" height="690.87" transform="rotate(-165 -142.586 573.647)" fill="black"/>
<rect x="-172.188" y="565.714" width="0.893916" height="690.87" transform="rotate(-165 -172.188 565.714)" fill="black"/>
<rect x="-147.52" y="572.325" width="0.893916" height="690.87" transform="rotate(-165 -147.52 572.325)" fill="black"/>
<rect x="-177.124" y="564.393" width="0.893916" height="690.87" transform="rotate(-165 -177.124 564.393)" fill="black"/>
<rect x="-152.453" y="571.003" width="0.893916" height="690.87" transform="rotate(-165 -152.453 571.003)" fill="black"/>
<rect x="-157.386" y="569.681" width="0.893916" height="690.87" transform="rotate(-165 -157.386 569.681)" fill="black"/>
<rect x="-162.322" y="568.359" width="0.893916" height="690.87" transform="rotate(-165 -162.322 568.359)" fill="black"/>
</g>
<rect x="338.5" y="294.5" width="258" height="258" rx="9.5" fill="white" stroke="black"/>
<rect x="364.5" y="505.5" width="94" height="21" stroke="black"/>
<path d="M379.84 517.052V515.696H375.676V512.972H380.188V511.604H374.2V521H375.676V517.052H379.84ZM388.911 512.936V511.604H382.899V521H388.959V519.656H384.375V516.884H388.503V515.552H384.375V512.936H388.911ZM390.656 521H392.168L393.032 518.792H397.64L398.492 521H400.028L396.224 511.604H394.484L390.656 521ZM395.336 513.02L397.124 517.484H393.56L395.336 513.02ZM400.416 512.972H403.392V521H404.868V512.972H407.856V511.604H400.416V512.972ZM416.022 511.604V517.412C416.022 518.792 415.206 519.728 413.85 519.728C412.554 519.728 411.666 518.816 411.666 517.364V511.604H410.19V517.424C410.19 518.516 410.502 519.416 411.114 520.1C411.726 520.784 412.638 521.12 413.826 521.12C415.014 521.12 415.926 520.784 416.55 520.1C417.186 519.416 417.498 518.492 417.498 517.352V511.604H416.022ZM420.79 521H422.266V517.436H424.054L426.094 521H427.762L425.53 517.184C426.79 516.764 427.522 515.804 427.522 514.496C427.522 513.668 427.258 512.984 426.742 512.432C426.226 511.88 425.41 511.604 424.318 511.604H420.79V521ZM422.266 512.972H424.162C425.698 512.972 426.022 513.812 426.022 514.532C426.022 515.396 425.47 516.104 424.162 516.104H422.266V512.972ZM436.427 512.936V511.604H430.415V521H436.475V519.656H431.891V516.884H436.019V515.552H431.891V512.936H436.427ZM447.364 516.308C447.364 515.12 446.848 513.692 445.684 512.696C444.928 512.036 443.74 511.604 442.348 511.604H439.372V521H442.372C444.04 521 445.408 520.376 446.176 519.464C446.956 518.54 447.364 517.424 447.364 516.308ZM445.816 516.308C445.816 517.124 445.54 517.904 445 518.564C444.46 519.2 443.5 519.632 442.312 519.632H440.848V512.972H442.324C443.512 512.972 444.472 513.428 445 514.1C445.54 514.76 445.816 515.54 445.816 516.308Z" fill="black"/>
<path d="M491.105 417.415L491.96 418.825L494.6 417.235V427H496.445V415.255H494.69L491.105 417.415ZM506.809 423.7C506.809 422.38 506.134 421.465 504.784 420.94V420.925C505.969 420.355 506.554 419.455 506.554 418.24C506.554 417.355 506.194 416.62 505.489 416.005C504.784 415.39 503.824 415.09 502.624 415.09C500.629 415.09 499.234 416.17 498.694 417.73L500.299 418.465C500.779 417.34 501.544 416.77 502.594 416.77C503.914 416.77 504.679 417.475 504.679 418.435C504.679 418.915 504.484 419.335 504.079 419.68C503.689 420.025 503.194 420.19 502.594 420.19H501.439V421.855H502.699C503.344 421.855 503.869 422.035 504.274 422.395C504.694 422.74 504.904 423.175 504.904 423.67C504.904 424.15 504.694 424.57 504.259 424.93C503.824 425.275 503.299 425.455 502.669 425.455C501.484 425.455 500.629 424.87 500.119 423.715L498.529 424.495C499.234 426.25 500.599 427.135 502.639 427.135C503.854 427.135 504.844 426.805 505.624 426.145C506.419 425.47 506.809 424.66 506.809 423.7ZM518.226 427.135C519.711 427.135 521.031 426.655 521.916 425.935C522.801 425.215 523.371 424.42 523.656 423.595L521.976 422.83C521.691 423.595 521.196 424.225 520.506 424.705C519.831 425.17 519.081 425.41 518.271 425.41C517.191 425.41 516.246 425.005 515.451 424.21C514.656 423.4 514.266 422.365 514.266 421.105C514.266 419.83 514.671 418.81 515.466 418.015C516.261 417.22 517.206 416.815 518.271 416.815C520.116 416.815 521.346 417.865 521.931 419.38L523.596 418.615C523.341 417.775 522.771 416.98 521.931 416.275C521.091 415.555 519.786 415.09 518.301 415.09C516.666 415.09 515.271 415.675 514.086 416.83C512.901 417.985 512.316 419.425 512.316 421.165C512.316 423.01 513.036 424.585 514.161 425.59C515.286 426.565 516.726 427.135 518.226 427.135ZM525.305 427H527.09V414.79H525.305V427ZM534.055 421.57C534.055 422.02 533.8 422.245 533.305 422.245H532.315C530.905 422.245 528.985 422.83 528.985 424.69V424.78C528.985 425.47 529.24 426.04 529.75 426.475C530.26 426.91 530.905 427.135 531.685 427.135C532.765 427.135 533.545 426.73 534.04 425.905V427H535.795V421.9C535.795 421.345 535.705 420.865 535.525 420.46C535.03 419.365 534.025 418.825 532.525 418.825C530.89 418.825 529.75 419.5 529.12 420.865L530.485 421.645C530.89 420.79 531.565 420.37 532.48 420.37C533.485 420.37 534.055 420.91 534.055 421.57ZM534.04 423.76C534.04 424.96 533.26 425.71 532.045 425.71C531.28 425.71 530.77 425.275 530.77 424.615C530.77 424.27 530.935 424 531.25 423.805C531.58 423.61 531.94 423.505 532.315 423.505H534.04V423.76ZM540.703 427.135C541.603 427.135 542.338 426.91 542.893 426.445C543.448 425.98 543.733 425.38 543.733 424.645C543.733 423.4 542.773 422.53 540.958 422.125C539.923 421.9 539.473 421.63 539.473 421.105C539.473 420.67 540.043 420.325 540.598 420.325C541.363 420.325 541.918 420.685 542.278 421.405L543.658 420.625C543.103 419.425 542.098 418.825 540.658 418.825C539.878 418.825 539.203 419.05 538.618 419.515C538.033 419.98 537.748 420.565 537.748 421.285C537.748 421.855 537.943 422.335 538.318 422.74C538.753 423.205 539.428 423.52 540.313 423.7C541.408 423.925 541.963 424.285 541.963 424.75C541.963 425.29 541.378 425.635 540.703 425.635C539.848 425.635 539.218 425.2 538.783 424.345L537.388 425.125C538.003 426.46 539.113 427.135 540.703 427.135ZM548.233 427.135C549.133 427.135 549.868 426.91 550.423 426.445C550.978 425.98 551.263 425.38 551.263 424.645C551.263 423.4 550.303 422.53 548.488 422.125C547.453 421.9 547.003 421.63 547.003 421.105C547.003 420.67 547.573 420.325 548.128 420.325C548.893 420.325 549.448 420.685 549.808 421.405L551.188 420.625C550.633 419.425 549.628 418.825 548.188 418.825C547.408 418.825 546.733 419.05 546.148 419.515C545.563 419.98 545.278 420.565 545.278 421.285C545.278 421.855 545.473 422.335 545.848 422.74C546.283 423.205 546.958 423.52 547.843 423.7C548.938 423.925 549.493 424.285 549.493 424.75C549.493 425.29 548.908 425.635 548.233 425.635C547.378 425.635 546.748 425.2 546.312 424.345L544.918 425.125C545.533 426.46 546.642 427.135 548.233 427.135ZM560.532 423.52C560.547 423.385 560.562 423.205 560.562 422.965C560.562 421.72 560.217 420.73 559.527 419.965C558.837 419.2 557.877 418.825 556.662 418.825C555.507 418.825 554.547 419.23 553.782 420.04C553.017 420.85 552.627 421.825 552.627 422.98C552.627 424.165 553.032 425.17 553.827 425.965C554.637 426.76 555.642 427.15 556.827 427.15C558.267 427.15 559.572 426.46 560.247 425.215L558.957 424.36C558.522 425.185 557.802 425.605 556.797 425.605C556.182 425.605 555.642 425.41 555.177 425.02C554.712 424.615 554.472 424.12 554.457 423.52H560.532ZM556.662 420.355C557.802 420.355 558.687 421.045 558.747 422.17H554.547C554.712 421.075 555.567 420.355 556.662 420.355ZM564.99 427.135C565.89 427.135 566.625 426.91 567.18 426.445C567.735 425.98 568.02 425.38 568.02 424.645C568.02 423.4 567.06 422.53 565.245 422.125C564.21 421.9 563.76 421.63 563.76 421.105C563.76 420.67 564.33 420.325 564.885 420.325C565.65 420.325 566.205 420.685 566.565 421.405L567.945 420.625C567.39 419.425 566.385 418.825 564.945 418.825C564.165 418.825 563.49 419.05 562.905 419.515C562.32 419.98 562.035 420.565 562.035 421.285C562.035 421.855 562.23 422.335 562.605 422.74C563.04 423.205 563.715 423.52 564.6 423.7C565.695 423.925 566.25 424.285 566.25 424.75C566.25 425.29 565.665 425.635 564.99 425.635C564.135 425.635 563.505 425.2 563.07 424.345L561.675 425.125C562.29 426.46 563.4 427.135 564.99 427.135Z" fill="black"/>
<path d="M475 422.87L478.47 426L484.778 418" stroke="black" stroke-width="2" stroke-linecap="round"/>
<path d="M394.345 428H396.175V416.255H393.76L389.845 425.24H389.83L385.855 416.255H383.5V428H385.315V419.48H385.345L389.14 428H390.505L394.315 419.435H394.345V428ZM398.934 418.22C399.399 418.685 400.119 418.685 400.584 418.22C401.049 417.755 401.049 417.035 400.584 416.57C400.119 416.09 399.399 416.09 398.934 416.57C398.469 417.035 398.469 417.755 398.934 418.22ZM400.659 419.99H398.874V428H400.659V419.99ZM402.494 423.98C402.494 425.09 402.869 426.065 403.619 426.89C404.369 427.715 405.314 428.12 406.439 428.12C406.859 428.12 407.339 428.015 407.879 427.79C408.434 427.565 408.839 427.22 409.124 426.755V428H410.864V415.79H409.079V421.13C408.809 420.695 408.419 420.38 407.894 420.17C407.384 419.945 406.919 419.84 406.484 419.84C405.299 419.84 404.324 420.26 403.589 421.1C402.854 421.94 402.494 422.9 402.494 423.98ZM406.709 421.445C407.414 421.445 407.984 421.685 408.434 422.18C408.884 422.675 409.109 423.275 409.109 423.98C409.109 424.685 408.884 425.285 408.434 425.78C407.999 426.26 407.414 426.5 406.709 426.5C406.004 426.5 405.419 426.26 404.969 425.78C404.534 425.285 404.309 424.685 404.309 423.98C404.309 423.275 404.534 422.675 404.969 422.18C405.419 421.685 406.004 421.445 406.709 421.445Z" fill="black"/>
<path d="M364 423.87L367.47 427L373.778 419" stroke="black" stroke-width="2" stroke-linecap="round"/>
<path d="M366.4 387H369.352V368.208H366.4V387ZM372.214 370.944H378.166V387H381.118V370.944H387.094V368.208H372.214V370.944ZM409.815 387L406.743 383.448C408.015 381.768 408.903 379.896 409.383 377.856L406.767 377.232C406.359 378.744 405.759 380.112 404.943 381.384L401.703 377.616L402.903 376.92C404.847 375.792 405.831 374.352 405.831 372.6C405.831 371.328 405.303 370.248 404.271 369.336C403.239 368.4 402.015 367.944 400.623 367.944C399.159 367.944 397.935 368.424 396.951 369.36C395.967 370.296 395.487 371.424 395.487 372.72C395.487 373.8 395.943 374.856 396.855 375.912L397.935 377.16C395.415 378.768 394.191 380.28 394.191 382.296C394.191 383.904 394.743 385.128 395.847 385.968C396.975 386.808 398.367 387.216 400.047 387.216C401.799 387.216 403.455 386.592 404.967 385.32L406.407 387H409.815ZM399.111 374.616C397.983 373.296 398.031 372.024 398.967 371.136C399.423 370.68 399.999 370.44 400.695 370.44C402.063 370.44 403.095 371.496 403.095 372.72C403.095 373.608 402.687 374.28 401.895 374.76L400.143 375.816L399.111 374.616ZM400.071 384.6C399.015 384.6 397.119 384.192 397.119 381.912C397.119 380.904 397.911 379.92 399.471 378.96L403.239 383.304C402.207 384.168 401.151 384.6 400.071 384.6ZM416.464 370.944H422.416V387H425.368V370.944H431.344V368.208H416.464V370.944ZM443.071 381.432C443.095 381.216 443.119 380.928 443.119 380.544C443.119 378.552 442.567 376.968 441.463 375.744C440.359 374.52 438.823 373.92 436.879 373.92C435.031 373.92 433.495 374.568 432.271 375.864C431.047 377.16 430.423 378.72 430.423 380.568C430.423 382.464 431.071 384.072 432.343 385.344C433.639 386.616 435.247 387.24 437.143 387.24C439.447 387.24 441.535 386.136 442.615 384.144L440.551 382.776C439.855 384.096 438.703 384.768 437.095 384.768C436.111 384.768 435.247 384.456 434.503 383.832C433.759 383.184 433.375 382.392 433.351 381.432H443.071ZM436.879 376.368C438.703 376.368 440.119 377.472 440.215 379.272H433.495C433.759 377.52 435.127 376.368 436.879 376.368ZM451.861 387.216C453.421 387.216 454.693 386.832 455.677 386.064C456.661 385.296 457.357 384.384 457.717 383.352L455.221 382.248C454.621 383.832 453.517 384.624 451.909 384.624C450.829 384.624 449.917 384.24 449.197 383.472C448.477 382.704 448.117 381.72 448.117 380.52C448.117 379.344 448.477 378.384 449.197 377.64C449.941 376.896 450.829 376.512 451.885 376.512C453.517 376.512 454.621 377.304 455.173 378.864L457.621 377.76C456.853 375.48 454.741 373.92 451.861 373.92C449.965 373.92 448.381 374.568 447.109 375.888C445.837 377.208 445.189 378.768 445.189 380.568C445.189 382.464 445.837 384.048 447.109 385.32C448.381 386.592 449.965 387.216 451.861 387.216ZM471.963 387V379.104C471.963 376.032 470.307 373.92 467.163 373.92C465.531 373.92 464.235 374.592 463.251 375.912V374.184H460.467V387H463.323V379.872C463.323 377.928 464.475 376.632 466.275 376.632C468.171 376.632 469.107 377.904 469.107 379.824V387H471.963ZM481.558 373.92C479.686 373.92 478.078 374.568 476.758 375.84C475.438 377.112 474.766 378.696 474.766 380.568C474.766 382.44 475.414 384.024 476.734 385.296C478.054 386.568 479.662 387.216 481.534 387.216C483.43 387.216 485.014 386.568 486.31 385.296C487.63 384 488.278 382.416 488.278 380.52C488.278 378.648 487.63 377.088 486.31 375.816C484.99 374.544 483.406 373.92 481.558 373.92ZM478.75 377.688C479.47 376.896 480.406 376.512 481.534 376.512C482.662 376.512 483.598 376.896 484.294 377.688C485.014 378.48 485.374 379.44 485.374 380.568C485.374 381.696 485.014 382.656 484.318 383.448C483.622 384.24 482.686 384.624 481.558 384.624C480.43 384.624 479.494 384.216 478.774 383.424C478.054 382.608 477.694 381.648 477.694 380.52C477.694 379.392 478.054 378.456 478.75 377.688ZM491.264 387H494.12V367.464H491.264V387ZM503.847 373.92C501.975 373.92 500.367 374.568 499.047 375.84C497.727 377.112 497.055 378.696 497.055 380.568C497.055 382.44 497.703 384.024 499.023 385.296C500.343 386.568 501.951 387.216 503.823 387.216C505.719 387.216 507.303 386.568 508.599 385.296C509.919 384 510.567 382.416 510.567 380.52C510.567 378.648 509.919 377.088 508.599 375.816C507.279 374.544 505.695 373.92 503.847 373.92ZM501.039 377.688C501.759 376.896 502.695 376.512 503.823 376.512C504.951 376.512 505.887 376.896 506.583 377.688C507.303 378.48 507.663 379.44 507.663 380.568C507.663 381.696 507.303 382.656 506.607 383.448C505.911 384.24 504.975 384.624 503.847 384.624C502.719 384.624 501.783 384.216 501.063 383.424C500.343 382.608 499.983 381.648 499.983 380.52C499.983 379.392 500.343 378.456 501.039 377.688ZM518.905 387.096C519.577 387.096 520.321 386.928 521.161 386.568C522.001 386.208 522.649 385.68 523.105 384.936V386.952C523.105 389.52 521.449 390.864 519.217 390.864C517.417 390.864 516.073 389.952 515.185 388.152L512.809 389.52C513.985 392.112 516.145 393.408 519.265 393.408C521.281 393.408 522.889 392.808 524.113 391.632C525.337 390.456 525.961 388.848 525.961 386.832V374.184H523.177V376.128C522.721 375.408 522.073 374.88 521.257 374.52C520.441 374.16 519.697 373.968 519.001 373.968C517.105 373.968 515.569 374.64 514.393 375.984C513.241 377.328 512.665 378.84 512.665 380.544C512.665 382.32 513.241 383.856 514.417 385.152C515.593 386.448 517.105 387.096 518.905 387.096ZM523.153 380.496C523.153 381.624 522.793 382.584 522.073 383.376C521.377 384.144 520.465 384.528 519.337 384.528C518.209 384.528 517.297 384.144 516.577 383.376C515.881 382.584 515.521 381.624 515.521 380.496C515.521 379.368 515.881 378.408 516.577 377.664C517.273 376.896 518.209 376.512 519.337 376.512C520.465 376.512 521.401 376.896 522.097 377.664C522.793 378.432 523.153 379.368 523.153 380.496ZM531.523 374.184H528.259L533.971 385.56L530.443 393.312H533.491L542.299 374.184H539.203L535.507 382.584L531.523 374.184Z" fill="black"/>
<rect x="364.5" y="313.5" width="54" height="21" fill="black" stroke="black"/>
<path d="M381.84 325.052V323.696H377.676V320.972H382.188V319.604H376.2V329H377.676V325.052H381.84ZM384.899 329H386.375V325.436H388.163L390.203 329H391.871L389.639 325.184C390.899 324.764 391.631 323.804 391.631 322.496C391.631 321.668 391.367 320.984 390.851 320.432C390.335 319.88 389.519 319.604 388.427 319.604H384.899V329ZM386.375 320.972H388.271C389.807 320.972 390.131 321.812 390.131 322.532C390.131 323.396 389.579 324.104 388.271 324.104H386.375V320.972ZM400.536 320.936V319.604H394.524V329H400.584V327.656H396V324.884H400.128V323.552H396V320.936H400.536ZM409.493 320.936V319.604H403.481V329H409.541V327.656H404.957V324.884H409.085V323.552H404.957V320.936H409.493Z" fill="white"/>
<rect x="338.5" y="0.5" width="258" height="258" rx="9.5" fill="white" stroke="black"/>
<rect x="364.5" y="211.5" width="94" height="21" stroke="black"/>
<path d="M373.24 218.972H376.216V227H377.692V218.972H380.68V217.604H373.24V218.972ZM383.122 227H384.598V223.436H386.386L388.426 227H390.094L387.862 223.184C389.122 222.764 389.854 221.804 389.854 220.496C389.854 219.668 389.59 218.984 389.074 218.432C388.558 217.88 387.742 217.604 386.65 217.604H383.122V227ZM384.598 218.972H386.494C388.03 218.972 388.354 219.812 388.354 220.532C388.354 221.396 387.802 222.104 386.494 222.104H384.598V218.972ZM398.759 218.936V217.604H392.747V227H398.807V225.656H394.223V222.884H398.351V221.552H394.223V218.936H398.759ZM408.004 227H409.54V217.604H408.076V224.528L403.444 217.604H401.704V227H403.156V219.764L408.004 227ZM420.926 222.308C420.926 221.12 420.41 219.692 419.246 218.696C418.49 218.036 417.302 217.604 415.91 217.604H412.934V227H415.934C417.602 227 418.97 226.376 419.738 225.464C420.518 224.54 420.926 223.424 420.926 222.308ZM419.378 222.308C419.378 223.124 419.102 223.904 418.562 224.564C418.022 225.2 417.062 225.632 415.874 225.632H414.41V218.972H415.886C417.074 218.972 418.034 219.428 418.562 220.1C419.102 220.76 419.378 221.54 419.378 222.308ZM423.696 227H425.172V217.604H423.696V227ZM434.863 227H436.399V217.604H434.935V224.528L430.303 217.604H428.563V227H430.015V219.764L434.863 227ZM448.194 220.256C447.93 219.476 447.426 218.828 446.682 218.288C445.938 217.748 445.026 217.472 443.958 217.472C442.65 217.472 441.534 217.94 440.586 218.864C439.638 219.788 439.17 220.94 439.17 222.32C439.17 223.7 439.614 224.852 440.502 225.752C441.39 226.652 442.542 227.108 443.946 227.108C445.278 227.108 446.334 226.7 447.126 225.884C447.93 225.056 448.326 224.036 448.326 222.812V222.296H443.358V223.64H446.73C446.502 224.876 445.518 225.752 443.934 225.752C442.998 225.752 442.23 225.416 441.618 224.756C441.006 224.096 440.706 223.268 440.706 222.284C440.706 221.3 441.018 220.484 441.63 219.824C442.254 219.164 443.022 218.84 443.946 218.84C445.434 218.84 446.394 219.656 446.886 220.856L448.194 220.256Z" fill="black"/>
<path d="M491.72 165H499.985V163.335H494.33L497.06 161.07C498.095 160.215 498.83 159.48 499.265 158.865C499.7 158.235 499.925 157.485 499.925 156.63C499.925 155.58 499.55 154.725 498.8 154.08C498.05 153.42 497.09 153.09 495.935 153.09C494.93 153.09 494.06 153.345 493.325 153.87C492.605 154.395 492.125 155.085 491.885 155.94L493.535 156.63C494 155.4 494.795 154.785 495.92 154.785C497.225 154.785 498.02 155.64 498.02 156.765C498.02 157.29 497.87 157.755 497.57 158.175C497.27 158.58 496.715 159.135 495.92 159.81L491.72 163.395V165ZM501.653 159.12C501.653 160.845 502.103 162.27 503.018 163.425C503.933 164.565 505.118 165.135 506.573 165.135C508.028 165.135 509.228 164.565 510.143 163.41C511.058 162.255 511.523 160.815 511.523 159.09C511.523 157.38 511.073 155.955 510.158 154.815C509.243 153.66 508.058 153.09 506.603 153.09C505.148 153.09 503.963 153.675 503.033 154.83C502.118 155.985 501.653 157.41 501.653 159.12ZM509.618 159.12C509.618 160.335 509.348 161.37 508.793 162.195C508.238 163.02 507.518 163.44 506.603 163.44C505.688 163.44 504.953 163.02 504.398 162.18C503.843 161.34 503.573 160.305 503.573 159.09C503.573 157.875 503.843 156.855 504.383 156.03C504.938 155.205 505.658 154.785 506.573 154.785C507.488 154.785 508.223 155.205 508.778 156.045C509.333 156.885 509.618 157.905 509.618 159.12ZM522.899 165.135C524.384 165.135 525.704 164.655 526.589 163.935C527.474 163.215 528.044 162.42 528.329 161.595L526.649 160.83C526.364 161.595 525.869 162.225 525.179 162.705C524.504 163.17 523.754 163.41 522.944 163.41C521.864 163.41 520.919 163.005 520.124 162.21C519.329 161.4 518.939 160.365 518.939 159.105C518.939 157.83 519.344 156.81 520.139 156.015C520.934 155.22 521.879 154.815 522.944 154.815C524.789 154.815 526.019 155.865 526.604 157.38L528.269 156.615C528.014 155.775 527.444 154.98 526.604 154.275C525.764 153.555 524.459 153.09 522.974 153.09C521.339 153.09 519.944 153.675 518.759 154.83C517.574 155.985 516.989 157.425 516.989 159.165C516.989 161.01 517.709 162.585 518.834 163.59C519.959 164.565 521.399 165.135 522.899 165.135ZM529.978 165H531.763V152.79H529.978V165ZM538.728 159.57C538.728 160.02 538.473 160.245 537.978 160.245H536.988C535.578 160.245 533.658 160.83 533.658 162.69V162.78C533.658 163.47 533.913 164.04 534.423 164.475C534.933 164.91 535.578 165.135 536.358 165.135C537.438 165.135 538.218 164.73 538.713 163.905V165H540.468V159.9C540.468 159.345 540.378 158.865 540.198 158.46C539.703 157.365 538.698 156.825 537.198 156.825C535.563 156.825 534.423 157.5 533.793 158.865L535.158 159.645C535.563 158.79 536.238 158.37 537.153 158.37C538.158 158.37 538.728 158.91 538.728 159.57ZM538.713 161.76C538.713 162.96 537.933 163.71 536.718 163.71C535.953 163.71 535.443 163.275 535.443 162.615C535.443 162.27 535.608 162 535.923 161.805C536.253 161.61 536.613 161.505 536.988 161.505H538.713V161.76ZM545.376 165.135C546.276 165.135 547.011 164.91 547.566 164.445C548.121 163.98 548.406 163.38 548.406 162.645C548.406 161.4 547.446 160.53 545.631 160.125C544.596 159.9 544.146 159.63 544.146 159.105C544.146 158.67 544.716 158.325 545.271 158.325C546.036 158.325 546.591 158.685 546.951 159.405L548.331 158.625C547.776 157.425 546.771 156.825 545.331 156.825C544.551 156.825 543.876 157.05 543.291 157.515C542.706 157.98 542.421 158.565 542.421 159.285C542.421 159.855 542.616 160.335 542.991 160.74C543.426 161.205 544.101 161.52 544.986 161.7C546.081 161.925 546.636 162.285 546.636 162.75C546.636 163.29 546.051 163.635 545.376 163.635C544.521 163.635 543.891 163.2 543.456 162.345L542.061 163.125C542.676 164.46 543.786 165.135 545.376 165.135ZM552.905 165.135C553.805 165.135 554.54 164.91 555.095 164.445C555.65 163.98 555.935 163.38 555.935 162.645C555.935 161.4 554.975 160.53 553.16 160.125C552.125 159.9 551.675 159.63 551.675 159.105C551.675 158.67 552.245 158.325 552.8 158.325C553.565 158.325 554.12 158.685 554.48 159.405L555.86 158.625C555.305 157.425 554.3 156.825 552.86 156.825C552.08 156.825 551.405 157.05 550.82 157.515C550.235 157.98 549.95 158.565 549.95 159.285C549.95 159.855 550.145 160.335 550.52 160.74C550.955 161.205 551.63 161.52 552.515 161.7C553.61 161.925 554.165 162.285 554.165 162.75C554.165 163.29 553.58 163.635 552.905 163.635C552.05 163.635 551.42 163.2 550.985 162.345L549.59 163.125C550.205 164.46 551.315 165.135 552.905 165.135ZM565.205 161.52C565.22 161.385 565.235 161.205 565.235 160.965C565.235 159.72 564.89 158.73 564.2 157.965C563.51 157.2 562.55 156.825 561.335 156.825C560.18 156.825 559.22 157.23 558.455 158.04C557.69 158.85 557.3 159.825 557.3 160.98C557.3 162.165 557.705 163.17 558.5 163.965C559.31 164.76 560.315 165.15 561.5 165.15C562.94 165.15 564.245 164.46 564.92 163.215L563.63 162.36C563.195 163.185 562.475 163.605 561.47 163.605C560.855 163.605 560.315 163.41 559.85 163.02C559.385 162.615 559.145 162.12 559.13 161.52H565.205ZM561.335 158.355C562.475 158.355 563.36 159.045 563.42 160.17H559.22C559.385 159.075 560.24 158.355 561.335 158.355ZM569.663 165.135C570.563 165.135 571.298 164.91 571.853 164.445C572.408 163.98 572.693 163.38 572.693 162.645C572.693 161.4 571.733 160.53 569.918 160.125C568.883 159.9 568.433 159.63 568.433 159.105C568.433 158.67 569.003 158.325 569.558 158.325C570.323 158.325 570.878 158.685 571.238 159.405L572.618 158.625C572.063 157.425 571.058 156.825 569.618 156.825C568.838 156.825 568.163 157.05 567.578 157.515C566.993 157.98 566.708 158.565 566.708 159.285C566.708 159.855 566.903 160.335 567.278 160.74C567.713 161.205 568.388 161.52 569.273 161.7C570.368 161.925 570.923 162.285 570.923 162.75C570.923 163.29 570.338 163.635 569.663 163.635C568.808 163.635 568.178 163.2 567.743 162.345L566.348 163.125C566.963 164.46 568.073 165.135 569.663 165.135Z" fill="black"/>
<path d="M475 160.87L478.47 164L484.778 156" stroke="black" stroke-width="2" stroke-linecap="round"/>
<path d="M391.765 156.9C391.765 155.895 391.42 155.025 390.73 154.32C390.055 153.615 389.02 153.255 387.655 153.255H383.5V165H385.345V160.65H387.43C388.795 160.65 389.845 160.29 390.61 159.585C391.375 158.865 391.765 157.965 391.765 156.9ZM387.49 154.965C388.36 154.965 388.975 155.16 389.335 155.55C389.71 155.94 389.89 156.405 389.89 156.945C389.89 158.025 389.125 158.955 387.49 158.955H385.345V154.965H387.49ZM397.819 156.96C397.714 156.93 397.579 156.915 397.384 156.915C396.409 156.915 395.674 157.365 395.179 158.265V156.99H393.439V165H395.224V160.935C395.224 159.54 395.944 158.745 397.309 158.745C397.504 158.745 397.669 158.76 397.819 158.79V156.96ZM402.842 156.825C401.672 156.825 400.667 157.23 399.842 158.025C399.017 158.82 398.597 159.81 398.597 160.98C398.597 162.15 399.002 163.14 399.827 163.935C400.652 164.73 401.657 165.135 402.827 165.135C404.012 165.135 405.002 164.73 405.812 163.935C406.637 163.125 407.042 162.135 407.042 160.95C407.042 159.78 406.637 158.805 405.812 158.01C404.987 157.215 403.997 156.825 402.842 156.825ZM401.087 159.18C401.537 158.685 402.122 158.445 402.827 158.445C403.532 158.445 404.117 158.685 404.552 159.18C405.002 159.675 405.227 160.275 405.227 160.98C405.227 161.685 405.002 162.285 404.567 162.78C404.132 163.275 403.547 163.515 402.842 163.515C402.137 163.515 401.552 163.26 401.102 162.765C400.652 162.255 400.427 161.655 400.427 160.95C400.427 160.245 400.652 159.66 401.087 159.18Z" fill="black"/>
<path d="M364 160.87L367.47 164L373.778 156" stroke="black" stroke-width="2" stroke-linecap="round"/>
<path d="M379.624 80.04C379.624 78.432 379.072 77.04 377.968 75.912C376.888 74.784 375.232 74.208 373.048 74.208H366.4V93H369.352V86.04H372.688C374.872 86.04 376.552 85.464 377.776 84.336C379 83.184 379.624 81.744 379.624 80.04ZM372.784 76.944C374.176 76.944 375.16 77.256 375.736 77.88C376.336 78.504 376.624 79.248 376.624 80.112C376.624 81.84 375.4 83.328 372.784 83.328H369.352V76.944H372.784ZM389.311 80.136C389.143 80.088 388.927 80.064 388.615 80.064C387.055 80.064 385.879 80.784 385.087 82.224V80.184H382.303V93H385.159V86.496C385.159 84.264 386.311 82.992 388.495 82.992C388.807 82.992 389.071 83.016 389.311 83.064V80.136ZM397.347 79.92C395.475 79.92 393.867 80.568 392.547 81.84C391.227 83.112 390.555 84.696 390.555 86.568C390.555 88.44 391.203 90.024 392.523 91.296C393.843 92.568 395.451 93.216 397.323 93.216C399.219 93.216 400.803 92.568 402.099 91.296C403.419 90 404.067 88.416 404.067 86.52C404.067 84.648 403.419 83.088 402.099 81.816C400.779 80.544 399.195 79.92 397.347 79.92ZM394.539 83.688C395.259 82.896 396.195 82.512 397.323 82.512C398.451 82.512 399.387 82.896 400.083 83.688C400.803 84.48 401.163 85.44 401.163 86.568C401.163 87.696 400.803 88.656 400.107 89.448C399.411 90.24 398.475 90.624 397.347 90.624C396.219 90.624 395.283 90.216 394.563 89.424C393.843 88.608 393.483 87.648 393.483 86.52C393.483 85.392 393.843 84.456 394.539 83.688ZM412.405 93.096C413.077 93.096 413.821 92.928 414.661 92.568C415.501 92.208 416.149 91.68 416.605 90.936V92.952C416.605 95.52 414.949 96.864 412.717 96.864C410.917 96.864 409.573 95.952 408.685 94.152L406.309 95.52C407.485 98.112 409.645 99.408 412.765 99.408C414.781 99.408 416.389 98.808 417.613 97.632C418.837 96.456 419.461 94.848 419.461 92.832V80.184H416.677V82.128C416.221 81.408 415.573 80.88 414.757 80.52C413.941 80.16 413.197 79.968 412.501 79.968C410.605 79.968 409.069 80.64 407.893 81.984C406.741 83.328 406.165 84.84 406.165 86.544C406.165 88.32 406.741 89.856 407.917 91.152C409.093 92.448 410.605 93.096 412.405 93.096ZM416.653 86.496C416.653 87.624 416.293 88.584 415.573 89.376C414.877 90.144 413.965 90.528 412.837 90.528C411.709 90.528 410.797 90.144 410.077 89.376C409.381 88.584 409.021 87.624 409.021 86.496C409.021 85.368 409.381 84.408 410.077 83.664C410.773 82.896 411.709 82.512 412.837 82.512C413.965 82.512 414.901 82.896 415.597 83.664C416.293 84.432 416.653 85.368 416.653 86.496ZM430.303 80.136C430.135 80.088 429.919 80.064 429.607 80.064C428.047 80.064 426.871 80.784 426.079 82.224V80.184H423.295V93H426.151V86.496C426.151 84.264 427.303 82.992 429.487 82.992C429.799 82.992 430.063 83.016 430.303 83.064V80.136ZM439.803 84.312C439.803 85.032 439.395 85.392 438.603 85.392H437.019C434.763 85.392 431.691 86.328 431.691 89.304V89.448C431.691 90.552 432.099 91.464 432.915 92.16C433.73 92.856 434.763 93.216 436.011 93.216C437.739 93.216 438.987 92.568 439.779 91.248V93H442.587V84.84C442.587 83.952 442.443 83.184 442.155 82.536C441.363 80.784 439.755 79.92 437.355 79.92C434.739 79.92 432.915 81 431.907 83.184L434.09 84.432C434.739 83.064 435.819 82.392 437.283 82.392C438.891 82.392 439.803 83.256 439.803 84.312ZM439.779 87.816C439.779 89.736 438.531 90.936 436.587 90.936C435.363 90.936 434.547 90.24 434.547 89.184C434.547 88.632 434.811 88.2 435.315 87.888C435.843 87.576 436.419 87.408 437.019 87.408H439.779V87.816ZM457.543 93V85.848C457.543 83.904 458.623 82.608 460.375 82.608C462.271 82.608 463.111 83.832 463.111 85.776V93H465.967V85.08C465.967 82.008 464.407 79.896 461.311 79.896C459.415 79.896 458.167 80.568 456.847 82.008C456.055 80.592 454.735 79.896 452.887 79.896C451.351 79.896 450.079 80.568 449.071 81.912V80.184H446.287V93H449.143V85.872C449.143 83.928 450.223 82.608 451.951 82.608C453.847 82.608 454.711 83.88 454.711 85.8V93H457.543ZM480.91 93V85.848C480.91 83.904 481.99 82.608 483.742 82.608C485.638 82.608 486.478 83.832 486.478 85.776V93H489.334V85.08C489.334 82.008 487.774 79.896 484.678 79.896C482.782 79.896 481.534 80.568 480.214 82.008C479.422 80.592 478.102 79.896 476.254 79.896C474.718 79.896 473.446 80.568 472.438 81.912V80.184H469.654V93H472.51V85.872C472.51 83.928 473.59 82.608 475.318 82.608C477.214 82.608 478.078 83.88 478.078 85.8V93H480.91ZM493.118 77.352C493.862 78.096 495.014 78.096 495.758 77.352C496.502 76.608 496.502 75.456 495.758 74.712C495.014 73.944 493.862 73.944 493.118 74.712C492.374 75.456 492.374 76.608 493.118 77.352ZM495.878 80.184H493.022V93H495.878V80.184ZM511.197 93V85.104C511.197 82.032 509.541 79.92 506.397 79.92C504.765 79.92 503.469 80.592 502.485 81.912V80.184H499.701V93H502.557V85.872C502.557 83.928 503.709 82.632 505.509 82.632C507.405 82.632 508.341 83.904 508.341 85.824V93H511.197ZM520.241 93.096C520.913 93.096 521.657 92.928 522.497 92.568C523.337 92.208 523.985 91.68 524.441 90.936V92.952C524.441 95.52 522.785 96.864 520.553 96.864C518.753 96.864 517.409 95.952 516.521 94.152L514.145 95.52C515.321 98.112 517.481 99.408 520.601 99.408C522.617 99.408 524.225 98.808 525.449 97.632C526.673 96.456 527.297 94.848 527.297 92.832V80.184H524.513V82.128C524.057 81.408 523.409 80.88 522.593 80.52C521.777 80.16 521.033 79.968 520.337 79.968C518.441 79.968 516.905 80.64 515.729 81.984C514.577 83.328 514.001 84.84 514.001 86.544C514.001 88.32 514.577 89.856 515.753 91.152C516.929 92.448 518.441 93.096 520.241 93.096ZM524.489 86.496C524.489 87.624 524.129 88.584 523.409 89.376C522.713 90.144 521.801 90.528 520.673 90.528C519.545 90.528 518.633 90.144 517.913 89.376C517.217 88.584 516.857 87.624 516.857 86.496C516.857 85.368 517.217 84.408 517.913 83.664C518.609 82.896 519.545 82.512 520.673 82.512C521.801 82.512 522.737 82.896 523.433 83.664C524.129 84.432 524.489 85.368 524.489 86.496ZM552.315 93L549.243 89.448C550.515 87.768 551.403 85.896 551.883 83.856L549.267 83.232C548.859 84.744 548.259 86.112 547.443 87.384L544.203 83.616L545.403 82.92C547.347 81.792 548.331 80.352 548.331 78.6C548.331 77.328 547.803 76.248 546.771 75.336C545.739 74.4 544.515 73.944 543.123 73.944C541.659 73.944 540.435 74.424 539.451 75.36C538.467 76.296 537.987 77.424 537.987 78.72C537.987 79.8 538.443 80.856 539.355 81.912L540.435 83.16C537.915 84.768 536.691 86.28 536.691 88.296C536.691 89.904 537.243 91.128 538.347 91.968C539.475 92.808 540.867 93.216 542.547 93.216C544.299 93.216 545.955 92.592 547.467 91.32L548.907 93H552.315ZM541.611 80.616C540.483 79.296 540.531 78.024 541.467 77.136C541.923 76.68 542.499 76.44 543.195 76.44C544.563 76.44 545.595 77.496 545.595 78.72C545.595 79.608 545.187 80.28 544.395 80.76L542.643 81.816L541.611 80.616ZM542.571 90.6C541.515 90.6 539.619 90.192 539.619 87.912C539.619 86.904 540.411 85.92 541.971 84.96L545.739 89.304C544.707 90.168 543.651 90.6 542.571 90.6ZM374.608 127.216C376.984 127.216 379.096 126.448 380.512 125.296C381.928 124.144 382.84 122.872 383.296 121.552L380.608 120.328C380.152 121.552 379.36 122.56 378.256 123.328C377.176 124.072 375.976 124.456 374.68 124.456C372.952 124.456 371.44 123.808 370.168 122.536C368.896 121.24 368.272 119.584 368.272 117.568C368.272 115.528 368.92 113.896 370.192 112.624C371.464 111.352 372.976 110.704 374.68 110.704C377.632 110.704 379.6 112.384 380.536 114.808L383.2 113.584C382.792 112.24 381.88 110.968 380.536 109.84C379.192 108.688 377.104 107.944 374.728 107.944C372.112 107.944 369.88 108.88 367.984 110.728C366.088 112.576 365.152 114.88 365.152 117.664C365.152 120.616 366.304 123.136 368.104 124.744C369.904 126.304 372.208 127.216 374.608 127.216ZM391.84 113.92C389.968 113.92 388.36 114.568 387.04 115.84C385.72 117.112 385.048 118.696 385.048 120.568C385.048 122.44 385.696 124.024 387.016 125.296C388.336 126.568 389.944 127.216 391.816 127.216C393.712 127.216 395.296 126.568 396.592 125.296C397.912 124 398.56 122.416 398.56 120.52C398.56 118.648 397.912 117.088 396.592 115.816C395.272 114.544 393.688 113.92 391.84 113.92ZM389.032 117.688C389.752 116.896 390.688 116.512 391.816 116.512C392.944 116.512 393.88 116.896 394.576 117.688C395.296 118.48 395.656 119.44 395.656 120.568C395.656 121.696 395.296 122.656 394.6 123.448C393.904 124.24 392.968 124.624 391.84 124.624C390.712 124.624 389.776 124.216 389.056 123.424C388.336 122.608 387.976 121.648 387.976 120.52C387.976 119.392 388.336 118.456 389.032 117.688ZM400.657 120.568C400.657 122.344 401.257 123.904 402.457 125.224C403.657 126.544 405.169 127.192 406.969 127.192C407.641 127.192 408.409 127.024 409.273 126.664C410.161 126.304 410.809 125.752 411.265 125.008V127H414.049V107.464H411.193V116.008C410.761 115.312 410.137 114.808 409.297 114.472C408.481 114.112 407.737 113.944 407.041 113.944C405.145 113.944 403.585 114.616 402.409 115.96C401.233 117.304 400.657 118.84 400.657 120.568ZM407.401 116.512C408.529 116.512 409.441 116.896 410.161 117.688C410.881 118.48 411.241 119.44 411.241 120.568C411.241 121.696 410.881 122.656 410.161 123.448C409.465 124.216 408.529 124.6 407.401 124.6C406.273 124.6 405.337 124.216 404.617 123.448C403.921 122.656 403.561 121.696 403.561 120.568C403.561 119.44 403.921 118.48 404.617 117.688C405.337 116.896 406.273 116.512 407.401 116.512ZM417.977 111.352C418.721 112.096 419.873 112.096 420.617 111.352C421.361 110.608 421.361 109.456 420.617 108.712C419.873 107.944 418.721 107.944 417.977 108.712C417.233 109.456 417.233 110.608 417.977 111.352ZM420.737 114.184H417.881V127H420.737V114.184ZM436.057 127V119.104C436.057 116.032 434.401 113.92 431.257 113.92C429.625 113.92 428.329 114.592 427.345 115.912V114.184H424.561V127H427.417V119.872C427.417 117.928 428.569 116.632 430.369 116.632C432.265 116.632 433.201 117.904 433.201 119.824V127H436.057ZM445.1 127.096C445.772 127.096 446.516 126.928 447.356 126.568C448.196 126.208 448.844 125.68 449.3 124.936V126.952C449.3 129.52 447.644 130.864 445.412 130.864C443.612 130.864 442.268 129.952 441.38 128.152L439.004 129.52C440.18 132.112 442.34 133.408 445.46 133.408C447.476 133.408 449.084 132.808 450.308 131.632C451.532 130.456 452.156 128.848 452.156 126.832V114.184H449.372V116.128C448.916 115.408 448.268 114.88 447.452 114.52C446.636 114.16 445.892 113.968 445.196 113.968C443.3 113.968 441.764 114.64 440.588 115.984C439.436 117.328 438.86 118.84 438.86 120.544C438.86 122.32 439.436 123.856 440.612 125.152C441.788 126.448 443.3 127.096 445.1 127.096ZM449.348 120.496C449.348 121.624 448.988 122.584 448.268 123.376C447.572 124.144 446.66 124.528 445.532 124.528C444.404 124.528 443.492 124.144 442.772 123.376C442.076 122.584 441.716 121.624 441.716 120.496C441.716 119.368 442.076 118.408 442.772 117.664C443.468 116.896 444.404 116.512 445.532 116.512C446.66 116.512 447.596 116.896 448.292 117.664C448.988 118.432 449.348 119.368 449.348 120.496Z" fill="black"/>
<rect x="364.5" y="19.5" width="44" height="21" fill="black" stroke="black"/>
<path d="M379.812 28.52C379.812 27.716 379.536 27.02 378.984 26.456C378.444 25.892 377.616 25.604 376.524 25.604H373.2V35H374.676V31.52H376.344C377.436 31.52 378.276 31.232 378.888 30.668C379.5 30.092 379.812 29.372 379.812 28.52ZM376.392 26.972C377.088 26.972 377.58 27.128 377.868 27.44C378.168 27.752 378.312 28.124 378.312 28.556C378.312 29.42 377.7 30.164 376.392 30.164H374.676V26.972H376.392ZM382.391 35H383.867V31.436H385.655L387.695 35H389.363L387.131 31.184C388.391 30.764 389.123 29.804 389.123 28.496C389.123 27.668 388.859 26.984 388.343 26.432C387.827 25.88 387.011 25.604 385.919 25.604H382.391V35ZM383.867 26.972H385.763C387.299 26.972 387.623 27.812 387.623 28.532C387.623 29.396 387.071 30.104 385.763 30.104H383.867V26.972ZM391.334 30.32C391.334 31.7 391.802 32.84 392.726 33.752C393.65 34.652 394.79 35.108 396.134 35.108C397.478 35.108 398.618 34.652 399.566 33.728C400.514 32.804 400.982 31.652 400.982 30.284C400.982 28.916 400.514 27.776 399.578 26.852C398.654 25.928 397.514 25.472 396.17 25.472C394.838 25.472 393.698 25.94 392.75 26.876C391.802 27.812 391.334 28.964 391.334 30.32ZM396.158 33.74C395.234 33.74 394.466 33.404 393.83 32.732C393.194 32.06 392.882 31.244 392.882 30.284C392.882 29.324 393.194 28.508 393.83 27.848C394.466 27.176 395.234 26.84 396.158 26.84C397.07 26.84 397.838 27.176 398.474 27.848C399.11 28.508 399.434 29.324 399.434 30.284C399.434 31.244 399.11 32.06 398.474 32.732C397.838 33.404 397.07 33.74 396.158 33.74Z" fill="white"/>
<rect x="37.5" y="418.5" width="258" height="258" rx="9.5" fill="white" stroke="black"/>
<rect x="63.5" y="629.5" width="84" height="21" stroke="black"/>
<path d="M79.812 638.52C79.812 637.716 79.536 637.02 78.984 636.456C78.444 635.892 77.616 635.604 76.524 635.604H73.2V645H74.676V641.52H76.344C77.436 641.52 78.276 641.232 78.888 640.668C79.5 640.092 79.812 639.372 79.812 638.52ZM76.392 636.972C77.088 636.972 77.58 637.128 77.868 637.44C78.168 637.752 78.312 638.124 78.312 638.556C78.312 639.42 77.7 640.164 76.392 640.164H74.676V636.972H76.392ZM81.7674 640.32C81.7674 641.7 82.2354 642.84 83.1594 643.752C84.0834 644.652 85.2234 645.108 86.5674 645.108C87.9114 645.108 89.0514 644.652 89.9994 643.728C90.9474 642.804 91.4154 641.652 91.4154 640.284C91.4154 638.916 90.9474 637.776 90.0114 636.852C89.0874 635.928 87.9474 635.472 86.6034 635.472C85.2714 635.472 84.1314 635.94 83.1834 636.876C82.2354 637.812 81.7674 638.964 81.7674 640.32ZM86.5914 643.74C85.6674 643.74 84.8994 643.404 84.2634 642.732C83.6274 642.06 83.3154 641.244 83.3154 640.284C83.3154 639.324 83.6274 638.508 84.2634 637.848C84.8994 637.176 85.6674 636.84 86.5914 636.84C87.5034 636.84 88.2714 637.176 88.9074 637.848C89.5434 638.508 89.8674 639.324 89.8674 640.284C89.8674 641.244 89.5434 642.06 88.9074 642.732C88.2714 643.404 87.5034 643.74 86.5914 643.74ZM100.808 638.52C100.808 637.716 100.532 637.02 99.9801 636.456C99.4401 635.892 98.6121 635.604 97.5201 635.604H94.1961V645H95.6721V641.52H97.3401C98.4321 641.52 99.2721 641.232 99.8841 640.668C100.496 640.092 100.808 639.372 100.808 638.52ZM97.3881 636.972C98.0841 636.972 98.5761 637.128 98.8641 637.44C99.1641 637.752 99.3081 638.124 99.3081 638.556C99.3081 639.42 98.6961 640.164 97.3881 640.164H95.6721V636.972H97.3881ZM109.112 635.604V641.412C109.112 642.792 108.296 643.728 106.94 643.728C105.644 643.728 104.756 642.816 104.756 641.364V635.604H103.28V641.424C103.28 642.516 103.592 643.416 104.204 644.1C104.816 644.784 105.728 645.12 106.916 645.12C108.104 645.12 109.016 644.784 109.64 644.1C110.276 643.416 110.588 642.492 110.588 641.352V635.604H109.112ZM115.356 643.632V635.604H113.88V645H119.592V643.632H115.356ZM127.993 636.936V635.604H121.981V645H128.041V643.656H123.457V640.884H127.585V639.552H123.457V636.936H127.993ZM130.938 645H132.414V641.436H134.202L136.242 645H137.91L135.678 641.184C136.938 640.764 137.67 639.804 137.67 638.496C137.67 637.668 137.406 636.984 136.89 636.432C136.374 635.88 135.558 635.604 134.466 635.604H130.938V645ZM132.414 636.972H134.31C135.846 636.972 136.17 637.812 136.17 638.532C136.17 639.396 135.618 640.104 134.31 640.104H132.414V636.972Z" fill="black"/>
<path d="M198.88 580.7C198.88 579.38 198.205 578.465 196.855 577.94V577.925C198.04 577.355 198.625 576.455 198.625 575.24C198.625 574.355 198.265 573.62 197.56 573.005C196.855 572.39 195.895 572.09 194.695 572.09C192.7 572.09 191.305 573.17 190.765 574.73L192.37 575.465C192.85 574.34 193.615 573.77 194.665 573.77C195.985 573.77 196.75 574.475 196.75 575.435C196.75 575.915 196.555 576.335 196.15 576.68C195.76 577.025 195.265 577.19 194.665 577.19H193.51V578.855H194.77C195.415 578.855 195.94 579.035 196.345 579.395C196.765 579.74 196.975 580.175 196.975 580.67C196.975 581.15 196.765 581.57 196.33 581.93C195.895 582.275 195.37 582.455 194.74 582.455C193.555 582.455 192.7 581.87 192.19 580.715L190.6 581.495C191.305 583.25 192.67 584.135 194.71 584.135C195.925 584.135 196.915 583.805 197.695 583.145C198.49 582.47 198.88 581.66 198.88 580.7ZM200.432 584H208.697V582.335H203.042L205.772 580.07C206.807 579.215 207.542 578.48 207.977 577.865C208.412 577.235 208.637 576.485 208.637 575.63C208.637 574.58 208.262 573.725 207.512 573.08C206.762 572.42 205.802 572.09 204.647 572.09C203.642 572.09 202.772 572.345 202.037 572.87C201.317 573.395 200.837 574.085 200.597 574.94L202.247 575.63C202.712 574.4 203.507 573.785 204.632 573.785C205.937 573.785 206.732 574.64 206.732 575.765C206.732 576.29 206.582 576.755 206.282 577.175C205.982 577.58 205.427 578.135 204.632 578.81L200.432 582.395V584ZM220.155 584.135C221.64 584.135 222.96 583.655 223.845 582.935C224.73 582.215 225.3 581.42 225.585 580.595L223.905 579.83C223.62 580.595 223.125 581.225 222.435 581.705C221.76 582.17 221.01 582.41 220.2 582.41C219.12 582.41 218.175 582.005 217.38 581.21C216.585 580.4 216.195 579.365 216.195 578.105C216.195 576.83 216.6 575.81 217.395 575.015C218.19 574.22 219.135 573.815 220.2 573.815C222.045 573.815 223.275 574.865 223.86 576.38L225.525 575.615C225.27 574.775 224.7 573.98 223.86 573.275C223.02 572.555 221.715 572.09 220.23 572.09C218.595 572.09 217.2 572.675 216.015 573.83C214.83 574.985 214.245 576.425 214.245 578.165C214.245 580.01 214.965 581.585 216.09 582.59C217.215 583.565 218.655 584.135 220.155 584.135ZM227.235 584H229.02V571.79H227.235V584ZM235.985 578.57C235.985 579.02 235.73 579.245 235.235 579.245H234.245C232.835 579.245 230.915 579.83 230.915 581.69V581.78C230.915 582.47 231.17 583.04 231.68 583.475C232.19 583.91 232.835 584.135 233.615 584.135C234.695 584.135 235.475 583.73 235.97 582.905V584H237.725V578.9C237.725 578.345 237.635 577.865 237.455 577.46C236.96 576.365 235.955 575.825 234.455 575.825C232.82 575.825 231.68 576.5 231.05 577.865L232.415 578.645C232.82 577.79 233.495 577.37 234.41 577.37C235.415 577.37 235.985 577.91 235.985 578.57ZM235.97 580.76C235.97 581.96 235.19 582.71 233.975 582.71C233.21 582.71 232.7 582.275 232.7 581.615C232.7 581.27 232.865 581 233.18 580.805C233.51 580.61 233.87 580.505 234.245 580.505H235.97V580.76ZM242.633 584.135C243.533 584.135 244.268 583.91 244.823 583.445C245.378 582.98 245.663 582.38 245.663 581.645C245.663 580.4 244.703 579.53 242.888 579.125C241.853 578.9 241.403 578.63 241.403 578.105C241.403 577.67 241.973 577.325 242.528 577.325C243.293 577.325 243.848 577.685 244.208 578.405L245.588 577.625C245.033 576.425 244.028 575.825 242.588 575.825C241.808 575.825 241.133 576.05 240.548 576.515C239.963 576.98 239.678 577.565 239.678 578.285C239.678 578.855 239.873 579.335 240.248 579.74C240.683 580.205 241.358 580.52 242.243 580.7C243.338 580.925 243.893 581.285 243.893 581.75C243.893 582.29 243.308 582.635 242.633 582.635C241.778 582.635 241.148 582.2 240.713 581.345L239.318 582.125C239.933 583.46 241.043 584.135 242.633 584.135ZM250.162 584.135C251.062 584.135 251.797 583.91 252.352 583.445C252.907 582.98 253.192 582.38 253.192 581.645C253.192 580.4 252.232 579.53 250.417 579.125C249.382 578.9 248.932 578.63 248.932 578.105C248.932 577.67 249.502 577.325 250.057 577.325C250.822 577.325 251.377 577.685 251.737 578.405L253.117 577.625C252.562 576.425 251.557 575.825 250.117 575.825C249.337 575.825 248.662 576.05 248.077 576.515C247.492 576.98 247.207 577.565 247.207 578.285C247.207 578.855 247.402 579.335 247.777 579.74C248.212 580.205 248.887 580.52 249.772 580.7C250.867 580.925 251.422 581.285 251.422 581.75C251.422 582.29 250.837 582.635 250.162 582.635C249.307 582.635 248.677 582.2 248.242 581.345L246.847 582.125C247.462 583.46 248.572 584.135 250.162 584.135ZM262.461 580.52C262.476 580.385 262.491 580.205 262.491 579.965C262.491 578.72 262.146 577.73 261.456 576.965C260.766 576.2 259.806 575.825 258.591 575.825C257.436 575.825 256.476 576.23 255.711 577.04C254.946 577.85 254.556 578.825 254.556 579.98C254.556 581.165 254.961 582.17 255.756 582.965C256.566 583.76 257.571 584.15 258.756 584.15C260.196 584.15 261.501 583.46 262.176 582.215L260.886 581.36C260.451 582.185 259.731 582.605 258.726 582.605C258.111 582.605 257.571 582.41 257.106 582.02C256.641 581.615 256.401 581.12 256.386 580.52H262.461ZM258.591 577.355C259.731 577.355 260.616 578.045 260.676 579.17H256.476C256.641 578.075 257.496 577.355 258.591 577.355ZM266.92 584.135C267.82 584.135 268.555 583.91 269.11 583.445C269.665 582.98 269.95 582.38 269.95 581.645C269.95 580.4 268.99 579.53 267.175 579.125C266.14 578.9 265.69 578.63 265.69 578.105C265.69 577.67 266.26 577.325 266.815 577.325C267.58 577.325 268.135 577.685 268.495 578.405L269.875 577.625C269.32 576.425 268.315 575.825 266.875 575.825C266.095 575.825 265.42 576.05 264.835 576.515C264.25 576.98 263.965 577.565 263.965 578.285C263.965 578.855 264.16 579.335 264.535 579.74C264.97 580.205 265.645 580.52 266.53 580.7C267.625 580.925 268.18 581.285 268.18 581.75C268.18 582.29 267.595 582.635 266.92 582.635C266.065 582.635 265.435 582.2 265 581.345L263.605 582.125C264.22 583.46 265.33 584.135 266.92 584.135Z" fill="black"/>
<path d="M174 579.87L177.47 583L183.778 575" stroke="black" stroke-width="2" stroke-linecap="round"/>
<path d="M93.345 583H95.175V571.255H92.76L88.845 580.24H88.83L84.855 571.255H82.5V583H84.315V574.48H84.345L88.14 583H89.505L93.315 574.435H93.345V583ZM97.9338 573.22C98.3988 573.685 99.1188 573.685 99.5838 573.22C100.049 572.755 100.049 572.035 99.5838 571.57C99.1188 571.09 98.3988 571.09 97.9338 571.57C97.4688 572.035 97.4688 572.755 97.9338 573.22ZM99.6588 574.99H97.8738V583H99.6588V574.99ZM101.494 578.98C101.494 580.09 101.869 581.065 102.619 581.89C103.369 582.715 104.314 583.12 105.439 583.12C105.859 583.12 106.339 583.015 106.879 582.79C107.434 582.565 107.839 582.22 108.124 581.755V583H109.864V570.79H108.079V576.13C107.809 575.695 107.419 575.38 106.894 575.17C106.384 574.945 105.919 574.84 105.484 574.84C104.299 574.84 103.324 575.26 102.589 576.1C101.854 576.94 101.494 577.9 101.494 578.98ZM105.709 576.445C106.414 576.445 106.984 576.685 107.434 577.18C107.884 577.675 108.109 578.275 108.109 578.98C108.109 579.685 107.884 580.285 107.434 580.78C106.999 581.26 106.414 581.5 105.709 581.5C105.004 581.5 104.419 581.26 103.969 580.78C103.534 580.285 103.309 579.685 103.309 578.98C103.309 578.275 103.534 577.675 103.969 577.18C104.419 576.685 105.004 576.445 105.709 576.445Z" fill="black"/>
<path d="M63 578.87L66.4695 582L72.7778 574" stroke="black" stroke-width="2" stroke-linecap="round"/>
<path d="M81.384 501.616C81.384 499.24 80.352 496.384 78.024 494.392C76.512 493.072 74.136 492.208 71.352 492.208H65.4V511H71.4C74.736 511 77.472 509.752 79.008 507.928C80.568 506.08 81.384 503.848 81.384 501.616ZM78.288 501.616C78.288 503.248 77.736 504.808 76.656 506.128C75.576 507.4 73.656 508.264 71.28 508.264H68.352V494.944H71.304C73.68 494.944 75.6 495.856 76.656 497.2C77.736 498.52 78.288 500.08 78.288 501.616ZM96.2274 505.432C96.2514 505.216 96.2754 504.928 96.2754 504.544C96.2754 502.552 95.7234 500.968 94.6194 499.744C93.5154 498.52 91.9794 497.92 90.0354 497.92C88.1874 497.92 86.6514 498.568 85.4274 499.864C84.2034 501.16 83.5794 502.72 83.5794 504.568C83.5794 506.464 84.2274 508.072 85.4994 509.344C86.7954 510.616 88.4034 511.24 90.2994 511.24C92.6034 511.24 94.6914 510.136 95.7714 508.144L93.7074 506.776C93.0114 508.096 91.8594 508.768 90.2514 508.768C89.2674 508.768 88.4034 508.456 87.6594 507.832C86.9154 507.184 86.5314 506.392 86.5074 505.432H96.2274ZM90.0354 500.368C91.8594 500.368 93.2754 501.472 93.3714 503.272H86.6514C86.9154 501.52 88.2834 500.368 90.0354 500.368ZM103.361 511.216C104.801 511.216 105.977 510.856 106.865 510.112C107.753 509.368 108.209 508.408 108.209 507.232C108.209 505.24 106.673 503.848 103.769 503.2C102.113 502.84 101.393 502.408 101.393 501.568C101.393 500.872 102.305 500.32 103.193 500.32C104.417 500.32 105.305 500.896 105.881 502.048L108.089 500.8C107.201 498.88 105.593 497.92 103.289 497.92C102.041 497.92 100.961 498.28 100.025 499.024C99.0891 499.768 98.6331 500.704 98.6331 501.856C98.6331 502.768 98.9451 503.536 99.5451 504.184C100.241 504.928 101.321 505.432 102.737 505.72C104.489 506.08 105.377 506.656 105.377 507.4C105.377 508.264 104.441 508.816 103.361 508.816C101.993 508.816 100.985 508.12 100.289 506.752L98.0571 508C99.0411 510.136 100.817 511.216 103.361 511.216ZM111.352 495.352C112.096 496.096 113.248 496.096 113.992 495.352C114.736 494.608 114.736 493.456 113.992 492.712C113.248 491.944 112.096 491.944 111.352 492.712C110.608 493.456 110.608 494.608 111.352 495.352ZM114.112 498.184H111.256V511H114.112V498.184ZM123.288 511.096C123.96 511.096 124.704 510.928 125.544 510.568C126.384 510.208 127.032 509.68 127.488 508.936V510.952C127.488 513.52 125.832 514.864 123.6 514.864C121.8 514.864 120.456 513.952 119.568 512.152L117.192 513.52C118.368 516.112 120.528 517.408 123.648 517.408C125.664 517.408 127.272 516.808 128.496 515.632C129.72 514.456 130.344 512.848 130.344 510.832V498.184H127.56V500.128C127.104 499.408 126.456 498.88 125.64 498.52C124.824 498.16 124.08 497.968 123.384 497.968C121.488 497.968 119.952 498.64 118.776 499.984C117.624 501.328 117.048 502.84 117.048 504.544C117.048 506.32 117.624 507.856 118.8 509.152C119.976 510.448 121.488 511.096 123.288 511.096ZM127.536 504.496C127.536 505.624 127.176 506.584 126.456 507.376C125.76 508.144 124.848 508.528 123.72 508.528C122.592 508.528 121.68 508.144 120.96 507.376C120.264 506.584 119.904 505.624 119.904 504.496C119.904 503.368 120.264 502.408 120.96 501.664C121.656 500.896 122.592 500.512 123.72 500.512C124.848 500.512 125.784 500.896 126.48 501.664C127.176 502.432 127.536 503.368 127.536 504.496ZM145.674 511V503.104C145.674 500.032 144.018 497.92 140.874 497.92C139.242 497.92 137.946 498.592 136.962 499.912V498.184H134.178V511H137.034V503.872C137.034 501.928 138.186 500.632 139.986 500.632C141.882 500.632 142.818 501.904 142.818 503.824V511H145.674ZM149.461 495.352C150.205 496.096 151.357 496.096 152.101 495.352C152.845 494.608 152.845 493.456 152.101 492.712C151.357 491.944 150.205 491.944 149.461 492.712C148.717 493.456 148.717 494.608 149.461 495.352ZM152.221 498.184H149.365V511H152.221V498.184ZM167.541 511V503.104C167.541 500.032 165.885 497.92 162.741 497.92C161.109 497.92 159.813 498.592 158.829 499.912V498.184H156.045V511H158.901V503.872C158.901 501.928 160.053 500.632 161.853 500.632C163.749 500.632 164.685 501.904 164.685 503.824V511H167.541ZM176.585 511.096C177.257 511.096 178.001 510.928 178.841 510.568C179.681 510.208 180.329 509.68 180.785 508.936V510.952C180.785 513.52 179.129 514.864 176.897 514.864C175.097 514.864 173.753 513.952 172.865 512.152L170.489 513.52C171.665 516.112 173.825 517.408 176.945 517.408C178.961 517.408 180.569 516.808 181.793 515.632C183.017 514.456 183.641 512.848 183.641 510.832V498.184H180.857V500.128C180.401 499.408 179.753 498.88 178.937 498.52C178.121 498.16 177.377 497.968 176.681 497.968C174.785 497.968 173.249 498.64 172.073 499.984C170.921 501.328 170.345 502.84 170.345 504.544C170.345 506.32 170.921 507.856 172.097 509.152C173.273 510.448 174.785 511.096 176.585 511.096ZM180.833 504.496C180.833 505.624 180.473 506.584 179.753 507.376C179.057 508.144 178.145 508.528 177.017 508.528C175.889 508.528 174.977 508.144 174.257 507.376C173.561 506.584 173.201 505.624 173.201 504.496C173.201 503.368 173.561 502.408 174.257 501.664C174.953 500.896 175.889 500.512 177.017 500.512C178.145 500.512 179.081 500.896 179.777 501.664C180.473 502.432 180.833 503.368 180.833 504.496ZM208.659 511L205.587 507.448C206.859 505.768 207.747 503.896 208.227 501.856L205.611 501.232C205.203 502.744 204.603 504.112 203.787 505.384L200.547 501.616L201.747 500.92C203.691 499.792 204.675 498.352 204.675 496.6C204.675 495.328 204.147 494.248 203.115 493.336C202.083 492.4 200.859 491.944 199.467 491.944C198.003 491.944 196.779 492.424 195.795 493.36C194.811 494.296 194.331 495.424 194.331 496.72C194.331 497.8 194.787 498.856 195.699 499.912L196.779 501.16C194.259 502.768 193.035 504.28 193.035 506.296C193.035 507.904 193.587 509.128 194.691 509.968C195.819 510.808 197.211 511.216 198.891 511.216C200.643 511.216 202.299 510.592 203.811 509.32L205.251 511H208.659ZM197.955 498.616C196.827 497.296 196.875 496.024 197.811 495.136C198.267 494.68 198.843 494.44 199.539 494.44C200.907 494.44 201.939 495.496 201.939 496.72C201.939 497.608 201.531 498.28 200.739 498.76L198.987 499.816L197.955 498.616ZM198.915 508.6C197.859 508.6 195.963 508.192 195.963 505.912C195.963 504.904 196.755 503.92 198.315 502.96L202.083 507.304C201.051 508.168 199.995 508.6 198.915 508.6ZM63 545H66.024L67.752 540.584H76.968L78.672 545H81.744L74.136 526.208H70.656L63 545ZM72.36 529.04L75.936 537.968H68.808L72.36 529.04ZM90.7249 532.136C90.5569 532.088 90.3409 532.064 90.0289 532.064C88.4689 532.064 87.2929 532.784 86.5009 534.224V532.184H83.7169V545H86.5729V538.496C86.5729 536.264 87.7249 534.992 89.9089 534.992C90.2209 534.992 90.4849 535.016 90.7249 535.064V532.136ZM100.123 534.752V532.184H96.9788V528.224H94.1228V532.184H91.7708V534.752H94.1228V540.872C94.1228 543.656 95.7548 545.144 98.5628 545.144C99.1148 545.144 99.6428 545.048 100.099 544.88V542.456C99.7868 542.528 99.4748 542.552 99.1868 542.552C97.7228 542.552 96.9788 541.952 96.9788 540.416V534.752H100.123ZM102.619 543.032C102.619 544.16 103.555 545.12 104.707 545.12C105.859 545.12 106.795 544.184 106.795 543.032C106.795 541.856 105.883 540.92 104.707 540.92C103.555 540.92 102.619 541.856 102.619 543.032Z" fill="black"/>
<rect x="63.5" y="437.5" width="44" height="21" fill="black" stroke="black"/>
<path d="M79.812 446.52C79.812 445.716 79.536 445.02 78.984 444.456C78.444 443.892 77.616 443.604 76.524 443.604H73.2V453H74.676V449.52H76.344C77.436 449.52 78.276 449.232 78.888 448.668C79.5 448.092 79.812 447.372 79.812 446.52ZM76.392 444.972C77.088 444.972 77.58 445.128 77.868 445.44C78.168 445.752 78.312 446.124 78.312 446.556C78.312 447.42 77.7 448.164 76.392 448.164H74.676V444.972H76.392ZM82.3914 453H83.8674V449.436H85.6554L87.6954 453H89.3634L87.1314 449.184C88.3914 448.764 89.1234 447.804 89.1234 446.496C89.1234 445.668 88.8594 444.984 88.3434 444.432C87.8274 443.88 87.0114 443.604 85.9194 443.604H82.3914V453ZM83.8674 444.972H85.7634C87.2994 444.972 87.6234 445.812 87.6234 446.532C87.6234 447.396 87.0714 448.104 85.7634 448.104H83.8674V444.972ZM91.3338 448.32C91.3338 449.7 91.8018 450.84 92.7258 451.752C93.6498 452.652 94.7898 453.108 96.1338 453.108C97.4778 453.108 98.6178 452.652 99.5658 451.728C100.514 450.804 100.982 449.652 100.982 448.284C100.982 446.916 100.514 445.776 99.5778 444.852C98.6538 443.928 97.5138 443.472 96.1698 443.472C94.8378 443.472 93.6978 443.94 92.7498 444.876C91.8018 445.812 91.3338 446.964 91.3338 448.32ZM96.1578 451.74C95.2338 451.74 94.4658 451.404 93.8298 450.732C93.1938 450.06 92.8818 449.244 92.8818 448.284C92.8818 447.324 93.1938 446.508 93.8298 445.848C94.4658 445.176 95.2338 444.84 96.1578 444.84C97.0698 444.84 97.8378 445.176 98.4738 445.848C99.1098 446.508 99.4338 447.324 99.4338 448.284C99.4338 449.244 99.1098 450.06 98.4738 450.732C97.8378 451.404 97.0698 451.74 96.1578 451.74Z" fill="white"/>
<rect x="45" y="131" width="259" height="259" rx="10" fill="black"/>
<rect x="37.5" y="122.5" width="258" height="258" rx="9.5" fill="white" stroke="black"/>
<rect x="63.5" y="333.5" width="94" height="21" stroke="black"/>
<path d="M78.84 345.052V343.696H74.676V340.972H79.188V339.604H73.2V349H74.676V345.052H78.84ZM87.9112 340.936V339.604H81.8992V349H87.9592V347.656H83.3752V344.884H87.5032V343.552H83.3752V340.936H87.9112ZM89.6562 349H91.1683L92.0323 346.792H96.6403L97.4923 349H99.0283L95.2243 339.604H93.4843L89.6562 349ZM94.3363 341.02L96.1243 345.484H92.5603L94.3363 341.02ZM99.4158 340.972H102.392V349H103.868V340.972H106.856V339.604H99.4158V340.972ZM115.022 339.604V345.412C115.022 346.792 114.206 347.728 112.85 347.728C111.554 347.728 110.666 346.816 110.666 345.364V339.604H109.19V345.424C109.19 346.516 109.502 347.416 110.114 348.1C110.726 348.784 111.638 349.12 112.826 349.12C114.014 349.12 114.926 348.784 115.55 348.1C116.186 347.416 116.498 346.492 116.498 345.352V339.604H115.022ZM119.79 349H121.266V345.436H123.054L125.094 349H126.762L124.53 345.184C125.79 344.764 126.522 343.804 126.522 342.496C126.522 341.668 126.258 340.984 125.742 340.432C125.226 339.88 124.41 339.604 123.318 339.604H119.79V349ZM121.266 340.972H123.162C124.698 340.972 125.022 341.812 125.022 342.532C125.022 343.396 124.47 344.104 123.162 344.104H121.266V340.972ZM135.427 340.936V339.604H129.415V349H135.475V347.656H130.891V344.884H135.019V343.552H130.891V340.936H135.427ZM146.364 344.308C146.364 343.12 145.848 341.692 144.684 340.696C143.928 340.036 142.74 339.604 141.348 339.604H138.372V349H141.372C143.04 349 144.408 348.376 145.176 347.464C145.956 346.54 146.364 345.424 146.364 344.308ZM144.816 344.308C144.816 345.124 144.54 345.904 144 346.564C143.46 347.2 142.5 347.632 141.312 347.632H139.848V340.972H141.324C142.512 340.972 143.472 341.428 144 342.1C144.54 342.76 144.816 343.54 144.816 344.308Z" fill="black"/>
<path d="M190.105 240.415L190.96 241.825L193.6 240.235V250H195.445V238.255H193.69L190.105 240.415ZM202.014 250.135C203.244 250.135 204.264 249.82 205.089 249.205C205.914 248.575 206.334 247.75 206.334 246.73C206.334 245.38 205.584 244.435 204.099 243.895V243.88C205.314 243.475 206.034 242.53 206.034 241.27C206.034 240.295 205.629 239.53 204.834 238.96C204.039 238.375 203.109 238.09 202.014 238.09C200.949 238.09 200.004 238.375 199.209 238.96C198.414 239.545 198.009 240.31 198.009 241.27C198.009 242.53 198.759 243.535 199.959 243.88V243.895C198.459 244.45 197.709 245.41 197.709 246.805C197.709 247.78 198.114 248.59 198.939 249.205C199.764 249.82 200.799 250.135 202.014 250.135ZM199.839 241.45C199.839 240.415 200.739 239.68 202.014 239.68C203.274 239.68 204.204 240.43 204.204 241.45C204.204 242.47 203.274 243.22 202.014 243.22C201.414 243.22 200.904 243.055 200.469 242.725C200.049 242.38 199.839 241.96 199.839 241.45ZM199.554 246.655C199.554 246.1 199.779 245.665 200.244 245.32C200.709 244.975 201.309 244.795 202.014 244.795C202.704 244.795 203.289 244.975 203.769 245.335C204.264 245.68 204.504 246.13 204.504 246.655C204.504 247.195 204.264 247.645 203.769 248.005C203.289 248.35 202.704 248.53 202.014 248.53C201.324 248.53 200.739 248.35 200.259 247.99C199.794 247.63 199.554 247.18 199.554 246.655ZM217.694 250.135C219.179 250.135 220.499 249.655 221.384 248.935C222.269 248.215 222.839 247.42 223.124 246.595L221.444 245.83C221.159 246.595 220.664 247.225 219.974 247.705C219.299 248.17 218.549 248.41 217.739 248.41C216.659 248.41 215.714 248.005 214.919 247.21C214.124 246.4 213.734 245.365 213.734 244.105C213.734 242.83 214.139 241.81 214.934 241.015C215.729 240.22 216.674 239.815 217.739 239.815C219.584 239.815 220.814 240.865 221.399 242.38L223.064 241.615C222.809 240.775 222.239 239.98 221.399 239.275C220.559 238.555 219.254 238.09 217.769 238.09C216.134 238.09 214.739 238.675 213.554 239.83C212.369 240.985 211.784 242.425 211.784 244.165C211.784 246.01 212.504 247.585 213.629 248.59C214.754 249.565 216.194 250.135 217.694 250.135ZM224.774 250H226.559V237.79H224.774V250ZM233.524 244.57C233.524 245.02 233.269 245.245 232.774 245.245H231.784C230.374 245.245 228.454 245.83 228.454 247.69V247.78C228.454 248.47 228.709 249.04 229.219 249.475C229.729 249.91 230.374 250.135 231.154 250.135C232.234 250.135 233.014 249.73 233.509 248.905V250H235.264V244.9C235.264 244.345 235.174 243.865 234.994 243.46C234.499 242.365 233.494 241.825 231.994 241.825C230.359 241.825 229.219 242.5 228.589 243.865L229.954 244.645C230.359 243.79 231.034 243.37 231.949 243.37C232.954 243.37 233.524 243.91 233.524 244.57ZM233.509 246.76C233.509 247.96 232.729 248.71 231.514 248.71C230.749 248.71 230.239 248.275 230.239 247.615C230.239 247.27 230.404 247 230.719 246.805C231.049 246.61 231.409 246.505 231.784 246.505H233.509V246.76ZM240.172 250.135C241.072 250.135 241.807 249.91 242.362 249.445C242.917 248.98 243.202 248.38 243.202 247.645C243.202 246.4 242.242 245.53 240.427 245.125C239.392 244.9 238.942 244.63 238.942 244.105C238.942 243.67 239.512 243.325 240.067 243.325C240.832 243.325 241.387 243.685 241.747 244.405L243.127 243.625C242.572 242.425 241.567 241.825 240.127 241.825C239.347 241.825 238.672 242.05 238.087 242.515C237.502 242.98 237.217 243.565 237.217 244.285C237.217 244.855 237.412 245.335 237.787 245.74C238.222 246.205 238.897 246.52 239.782 246.7C240.877 246.925 241.432 247.285 241.432 247.75C241.432 248.29 240.847 248.635 240.172 248.635C239.317 248.635 238.687 248.2 238.252 247.345L236.857 248.125C237.472 249.46 238.582 250.135 240.172 250.135ZM247.701 250.135C248.601 250.135 249.336 249.91 249.891 249.445C250.446 248.98 250.731 248.38 250.731 247.645C250.731 246.4 249.771 245.53 247.956 245.125C246.921 244.9 246.471 244.63 246.471 244.105C246.471 243.67 247.041 243.325 247.596 243.325C248.361 243.325 248.916 243.685 249.276 244.405L250.656 243.625C250.101 242.425 249.096 241.825 247.656 241.825C246.876 241.825 246.201 242.05 245.616 242.515C245.031 242.98 244.746 243.565 244.746 244.285C244.746 244.855 244.941 245.335 245.316 245.74C245.751 246.205 246.426 246.52 247.311 246.7C248.406 246.925 248.961 247.285 248.961 247.75C248.961 248.29 248.376 248.635 247.701 248.635C246.846 248.635 246.216 248.2 245.781 247.345L244.386 248.125C245.001 249.46 246.111 250.135 247.701 250.135ZM260.001 246.52C260.016 246.385 260.031 246.205 260.031 245.965C260.031 244.72 259.686 243.73 258.996 242.965C258.306 242.2 257.346 241.825 256.131 241.825C254.976 241.825 254.016 242.23 253.251 243.04C252.486 243.85 252.096 244.825 252.096 245.98C252.096 247.165 252.501 248.17 253.296 248.965C254.106 249.76 255.111 250.15 256.296 250.15C257.736 250.15 259.041 249.46 259.716 248.215L258.426 247.36C257.991 248.185 257.271 248.605 256.266 248.605C255.651 248.605 255.111 248.41 254.646 248.02C254.181 247.615 253.941 247.12 253.926 246.52H260.001ZM256.131 243.355C257.271 243.355 258.156 244.045 258.216 245.17H254.016C254.181 244.075 255.036 243.355 256.131 243.355ZM264.459 250.135C265.359 250.135 266.094 249.91 266.649 249.445C267.204 248.98 267.489 248.38 267.489 247.645C267.489 246.4 266.529 245.53 264.714 245.125C263.679 244.9 263.229 244.63 263.229 244.105C263.229 243.67 263.799 243.325 264.354 243.325C265.119 243.325 265.674 243.685 266.034 244.405L267.414 243.625C266.859 242.425 265.854 241.825 264.414 241.825C263.634 241.825 262.959 242.05 262.374 242.515C261.789 242.98 261.504 243.565 261.504 244.285C261.504 244.855 261.699 245.335 262.074 245.74C262.509 246.205 263.184 246.52 264.069 246.7C265.164 246.925 265.719 247.285 265.719 247.75C265.719 248.29 265.134 248.635 264.459 248.635C263.604 248.635 262.974 248.2 262.539 247.345L261.144 248.125C261.759 249.46 262.869 250.135 264.459 250.135Z" fill="black"/>
<path d="M174 245.87L177.47 249L183.778 241" stroke="black" stroke-width="2" stroke-linecap="round"/>
<path d="M82.5 249H87.135C89.85 249 91.305 247.695 91.305 245.715C91.305 245.145 91.14 244.59 90.795 244.065C90.45 243.54 89.88 243.135 89.07 242.88C89.925 242.505 90.48 241.695 90.645 241.155C90.72 240.87 90.765 240.6 90.765 240.345C90.765 239.385 90.42 238.635 89.73 238.08C89.04 237.525 88.125 237.255 86.985 237.255H82.5V249ZM84.33 238.92H86.745C88.245 238.92 88.92 239.565 88.92 240.54C88.92 241.515 88.155 242.22 86.64 242.22H84.33V238.92ZM84.33 243.84H87.045C88.665 243.84 89.46 244.545 89.46 245.565C89.46 246.63 88.65 247.335 87.165 247.335H84.33V243.84ZM100.581 245.52C100.596 245.385 100.611 245.205 100.611 244.965C100.611 243.72 100.266 242.73 99.5756 241.965C98.8856 241.2 97.9256 240.825 96.7106 240.825C95.5556 240.825 94.5956 241.23 93.8306 242.04C93.0656 242.85 92.6756 243.825 92.6756 244.98C92.6756 246.165 93.0806 247.17 93.8756 247.965C94.6856 248.76 95.6906 249.15 96.8756 249.15C98.3156 249.15 99.6206 248.46 100.296 247.215L99.0056 246.36C98.5706 247.185 97.8506 247.605 96.8456 247.605C96.2306 247.605 95.6906 247.41 95.2256 247.02C94.7606 246.615 94.5206 246.12 94.5056 245.52H100.581ZM96.7106 242.355C97.8506 242.355 98.7356 243.045 98.7956 244.17H94.5956C94.7606 243.075 95.6156 242.355 96.7106 242.355ZM105.789 249.06C106.209 249.06 106.674 248.955 107.199 248.73C107.724 248.505 108.129 248.175 108.414 247.71V248.97C108.414 250.575 107.379 251.415 105.984 251.415C104.859 251.415 104.019 250.845 103.464 249.72L101.979 250.575C102.714 252.195 104.064 253.005 106.014 253.005C107.274 253.005 108.279 252.63 109.044 251.895C109.809 251.16 110.199 250.155 110.199 248.895V240.99H108.459V242.205C108.174 241.755 107.769 241.425 107.259 241.2C106.749 240.975 106.284 240.855 105.849 240.855C104.664 240.855 103.704 241.275 102.969 242.115C102.249 242.955 101.889 243.9 101.889 244.965C101.889 246.075 102.249 247.035 102.984 247.845C103.719 248.655 104.664 249.06 105.789 249.06ZM108.444 244.935C108.444 245.64 108.219 246.24 107.769 246.735C107.334 247.215 106.764 247.455 106.059 247.455C105.354 247.455 104.784 247.215 104.334 246.735C103.899 246.24 103.674 245.64 103.674 244.935C103.674 244.23 103.899 243.63 104.334 243.165C104.769 242.685 105.354 242.445 106.059 242.445C106.764 242.445 107.349 242.685 107.784 243.165C108.219 243.645 108.444 244.23 108.444 244.935ZM117.171 243.57C117.171 244.02 116.916 244.245 116.421 244.245H115.431C114.021 244.245 112.101 244.83 112.101 246.69V246.78C112.101 247.47 112.356 248.04 112.866 248.475C113.376 248.91 114.021 249.135 114.801 249.135C115.881 249.135 116.661 248.73 117.156 247.905V249H118.911V243.9C118.911 243.345 118.821 242.865 118.641 242.46C118.146 241.365 117.141 240.825 115.641 240.825C114.006 240.825 112.866 241.5 112.236 242.865L113.601 243.645C114.006 242.79 114.681 242.37 115.596 242.37C116.601 242.37 117.171 242.91 117.171 243.57ZM117.156 245.76C117.156 246.96 116.376 247.71 115.161 247.71C114.396 247.71 113.886 247.275 113.886 246.615C113.886 246.27 114.051 246 114.366 245.805C114.696 245.61 115.056 245.505 115.431 245.505H117.156V245.76ZM121.283 239.22C121.748 239.685 122.468 239.685 122.933 239.22C123.398 238.755 123.398 238.035 122.933 237.57C122.468 237.09 121.748 237.09 121.283 237.57C120.818 238.035 120.818 238.755 121.283 239.22ZM123.008 240.99H121.223V249H123.008V240.99ZM132.583 249V244.065C132.583 242.145 131.548 240.825 129.583 240.825C128.563 240.825 127.753 241.245 127.138 242.07V240.99H125.398V249H127.183V244.545C127.183 243.33 127.903 242.52 129.028 242.52C130.213 242.52 130.798 243.315 130.798 244.515V249H132.583ZM142.075 249V244.065C142.075 242.145 141.04 240.825 139.075 240.825C138.055 240.825 137.245 241.245 136.63 242.07V240.99H134.89V249H136.675V244.545C136.675 243.33 137.395 242.52 138.52 242.52C139.705 242.52 140.29 243.315 140.29 244.515V249H142.075ZM151.748 245.52C151.763 245.385 151.778 245.205 151.778 244.965C151.778 243.72 151.433 242.73 150.743 241.965C150.053 241.2 149.093 240.825 147.878 240.825C146.723 240.825 145.763 241.23 144.998 242.04C144.233 242.85 143.843 243.825 143.843 244.98C143.843 246.165 144.248 247.17 145.043 247.965C145.853 248.76 146.858 249.15 148.043 249.15C149.483 249.15 150.788 248.46 151.463 247.215L150.173 246.36C149.738 247.185 149.018 247.605 148.013 247.605C147.398 247.605 146.858 247.41 146.393 247.02C145.928 246.615 145.688 246.12 145.673 245.52H151.748ZM147.878 242.355C149.018 242.355 149.903 243.045 149.963 244.17H145.763C145.928 243.075 146.783 242.355 147.878 242.355ZM157.991 240.96C157.886 240.93 157.751 240.915 157.556 240.915C156.581 240.915 155.846 241.365 155.351 242.265V240.99H153.611V249H155.396V244.935C155.396 243.54 156.116 242.745 157.481 242.745C157.676 242.745 157.841 242.76 157.991 242.79V240.96Z" fill="black"/>
<path d="M63 244.87L66.4695 248L72.7778 240" stroke="black" stroke-width="2" stroke-linecap="round"/>
<path d="M82.752 215H85.68V196.208H81.816L75.552 210.584H75.528L69.168 196.208H65.4V215H68.304V201.368H68.352L74.424 215H76.608L82.704 201.296H82.752V215ZM97.3181 206.312C97.3181 207.032 96.9101 207.392 96.1181 207.392H94.5341C92.2781 207.392 89.2061 208.328 89.2061 211.304V211.448C89.2061 212.552 89.6141 213.464 90.4301 214.16C91.2461 214.856 92.2781 215.216 93.5261 215.216C95.2541 215.216 96.5021 214.568 97.2941 213.248V215H100.102V206.84C100.102 205.952 99.9581 205.184 99.6701 204.536C98.8781 202.784 97.2701 201.92 94.8701 201.92C92.2541 201.92 90.4301 203 89.4221 205.184L91.6061 206.432C92.2541 205.064 93.3341 204.392 94.7981 204.392C96.4061 204.392 97.3181 205.256 97.3181 206.312ZM97.2941 209.816C97.2941 211.736 96.0461 212.936 94.1021 212.936C92.8781 212.936 92.0621 212.24 92.0621 211.184C92.0621 210.632 92.3261 210.2 92.8301 209.888C93.3581 209.576 93.9341 209.408 94.5341 209.408H97.2941V209.816ZM110.811 202.136C110.643 202.088 110.427 202.064 110.115 202.064C108.555 202.064 107.379 202.784 106.587 204.224V202.184H103.803V215H106.659V208.496C106.659 206.264 107.811 204.992 109.995 204.992C110.307 204.992 110.571 205.016 110.811 205.064V202.136ZM113.225 215H116.081V208.736H116.153L121.505 215H125.273L119.177 207.992L124.961 202.184H121.073L116.105 207.224H116.081V195.464H113.225V215ZM138.227 209.432C138.251 209.216 138.275 208.928 138.275 208.544C138.275 206.552 137.723 204.968 136.619 203.744C135.515 202.52 133.979 201.92 132.035 201.92C130.187 201.92 128.651 202.568 127.427 203.864C126.203 205.16 125.579 206.72 125.579 208.568C125.579 210.464 126.227 212.072 127.499 213.344C128.795 214.616 130.403 215.24 132.299 215.24C134.603 215.24 136.691 214.136 137.771 212.144L135.707 210.776C135.011 212.096 133.859 212.768 132.251 212.768C131.267 212.768 130.403 212.456 129.659 211.832C128.915 211.184 128.531 210.392 128.507 209.432H138.227ZM132.035 204.368C133.859 204.368 135.275 205.472 135.371 207.272H128.651C128.915 205.52 130.283 204.368 132.035 204.368ZM147.935 204.752V202.184H144.791V198.224H141.935V202.184H139.583V204.752H141.935V210.872C141.935 213.656 143.567 215.144 146.375 215.144C146.927 215.144 147.455 215.048 147.911 214.88V212.456C147.599 212.528 147.287 212.552 146.999 212.552C145.535 212.552 144.791 211.952 144.791 210.416V204.752H147.935ZM151.032 199.352C151.776 200.096 152.928 200.096 153.672 199.352C154.416 198.608 154.416 197.456 153.672 196.712C152.928 195.944 151.776 195.944 151.032 196.712C150.288 197.456 150.288 198.608 151.032 199.352ZM153.792 202.184H150.936V215H153.792V202.184ZM169.111 215V207.104C169.111 204.032 167.455 201.92 164.311 201.92C162.679 201.92 161.383 202.592 160.399 203.912V202.184H157.615V215H160.471V207.872C160.471 205.928 161.623 204.632 163.423 204.632C165.319 204.632 166.255 205.904 166.255 207.824V215H169.111ZM178.155 215.096C178.827 215.096 179.571 214.928 180.411 214.568C181.251 214.208 181.899 213.68 182.355 212.936V214.952C182.355 217.52 180.699 218.864 178.467 218.864C176.667 218.864 175.323 217.952 174.435 216.152L172.059 217.52C173.235 220.112 175.395 221.408 178.515 221.408C180.531 221.408 182.139 220.808 183.363 219.632C184.587 218.456 185.211 216.848 185.211 214.832V202.184H182.427V204.128C181.971 203.408 181.323 202.88 180.507 202.52C179.691 202.16 178.947 201.968 178.251 201.968C176.355 201.968 174.819 202.64 173.643 203.984C172.491 205.328 171.915 206.84 171.915 208.544C171.915 210.32 172.491 211.856 173.667 213.152C174.843 214.448 176.355 215.096 178.155 215.096ZM182.403 208.496C182.403 209.624 182.043 210.584 181.323 211.376C180.627 212.144 179.715 212.528 178.587 212.528C177.459 212.528 176.547 212.144 175.827 211.376C175.131 210.584 174.771 209.624 174.771 208.496C174.771 207.368 175.131 206.408 175.827 205.664C176.523 204.896 177.459 204.512 178.587 204.512C179.715 204.512 180.651 204.896 181.347 205.664C182.043 206.432 182.403 207.368 182.403 208.496ZM188.541 213.032C188.541 214.16 189.477 215.12 190.629 215.12C191.781 215.12 192.717 214.184 192.717 213.032C192.717 211.856 191.805 210.92 190.629 210.92C189.477 210.92 188.541 211.856 188.541 213.032Z" fill="black"/>
<rect x="63.5" y="141.5" width="54" height="21" fill="black" stroke="black"/>
<path d="M80.84 153.052V151.696H76.676V148.972H81.188V147.604H75.2V157H76.676V153.052H80.84ZM83.8992 157H85.3752V153.436H87.1632L89.2032 157H90.8712L88.6392 153.184C89.8992 152.764 90.6312 151.804 90.6312 150.496C90.6312 149.668 90.3672 148.984 89.8512 148.432C89.3352 147.88 88.5192 147.604 87.4272 147.604H83.8992V157ZM85.3752 148.972H87.2712C88.8072 148.972 89.1312 149.812 89.1312 150.532C89.1312 151.396 88.5792 152.104 87.2712 152.104H85.3752V148.972ZM99.5362 148.936V147.604H93.5242V157H99.5842V155.656H95.0002V152.884H99.1282V151.552H95.0002V148.936H99.5362ZM108.493 148.936V147.604H102.481V157H108.541V155.656H103.957V152.884H108.085V151.552H103.957V148.936H108.493Z" fill="white"/>
</svg>
