<svg width="100%" height="auto" viewBox="0 0 320 320" fill="none" xmlns="http://www.w3.org/2000/svg">
<mask id="mask0_169_1161" style="mask-type:alpha" maskUnits="userSpaceOnUse" x="0" y="0" width="320" height="320">
<path d="M160 320C248.366 320 320 248.366 320 160C320 71.6344 248.366 0 160 0C71.6344 0 0 71.6344 0 160C0 248.366 71.6344 320 160 320Z" fill="white"/>
</mask>
<g mask="url(#mask0_169_1161)">
<path d="M160 319.35C248.007 319.35 319.35 248.006 319.35 160C319.35 71.9933 248.007 0.649902 160 0.649902C71.9938 0.649902 0.650391 71.9933 0.650391 160C0.650391 248.006 71.9938 319.35 160 319.35Z" fill="#1C1C1C"/>
<path d="M87 260V134C87 128.477 91.4772 124 97 124H330C335.523 124 340 128.477 340 134V260C340 265.523 335.523 270 330 270H292H97C91.4772 270 87 265.523 87 260Z" stroke="#FFED4E" stroke-width="3"/>
<path fill-rule="evenodd" clip-rule="evenodd" d="M336.209 78H119.577C117.049 78 115 80.2386 115 83V236C115 238.761 117.049 241 119.577 241H342" fill="#FFED4E"/>
<path d="M250.468 125.5H287.996" stroke="black" stroke-width="4"/>
<path d="M250.468 157.5H338.339" stroke="black" stroke-width="4"/>
<path d="M250.468 191.5H338.339" stroke="black" stroke-width="4"/>
<path fill-rule="evenodd" clip-rule="evenodd" d="M213 197C213 177.67 197.33 162 178 162C158.67 162 143 177.67 143 197" fill="black"/>
<path d="M213 197C213 177.67 197.33 162 178 162C158.67 162 143 177.67 143 197" stroke="#FFED4E" stroke-width="4"/>
<path d="M178.5 155C188.165 155 196 147.165 196 137.5C196 127.835 188.165 120 178.5 120C168.835 120 161 127.835 161 137.5C161 147.165 168.835 155 178.5 155Z" fill="black" stroke="#FFED4E" stroke-width="4"/>
<path fill-rule="evenodd" clip-rule="evenodd" d="M160.769 12.4107C160.468 12.5497 159.993 12.7691 159.486 13.0032C159.422 12.8309 159.378 12.7121 159.306 12.5187C159.117 12.5319 158.899 12.5854 158.696 12.5514C158.495 12.5172 158.308 12.396 158.118 12.3139C157.998 12.3944 157.884 12.4712 157.779 12.5417L157.389 12.2443C157.424 12.0801 157.459 11.9132 157.503 11.7034C157.278 11.6602 157.074 11.6208 156.834 11.5752C156.856 11.3294 156.789 11.0222 156.914 10.8728C157.332 10.3691 157.562 9.69167 158.219 9.39763C158.312 9.35651 158.391 9.26822 158.457 9.18611C158.936 8.59081 159.398 7.99941 159.998 7.49105C160.743 6.85895 161.324 6.03463 161.996 5.31108C162.234 5.05393 162.534 4.85513 162.797 4.61948C163.033 4.40754 163.098 3.9943 163.532 4.00799C163.577 4.00954 163.631 3.90546 163.673 3.84568C164.202 3.10524 164.948 2.60221 165.612 2.00602C166.22 1.46062 166.812 0.896279 167.454 0.390936C168.775 -0.650163 170.039 -1.75985 171.431 -2.71832C171.969 -3.08861 172.53 -3.4732 173.03 -3.9193C173.163 -4.03819 173.392 -4.04905 173.796 -4.18125L173.137 -3.31908C173.172 -3.28822 173.206 -3.2571 173.241 -3.2254C173.581 -3.44025 173.92 -3.6542 174.306 -3.89741C174.376 -3.7336 174.443 -3.57794 174.502 -3.43958C174.64 -3.431 174.78 -3.42284 174.984 -3.41055C174.968 -2.91852 174.955 -2.47401 174.94 -2.02529C174.802 -2.06327 174.668 -2.10022 174.467 -2.15572C174.428 -1.98797 174.39 -1.82684 174.352 -1.66182C174.234 -1.59018 174.089 -1.50254 173.945 -1.41465C173.8 -1.32544 173.654 -1.23557 173.571 -1.18427C173.464 -0.92672 173.372 -0.705824 173.294 -0.516542C173.039 -0.48263 172.853 -0.457069 172.667 -0.432419C172.667 0.408198 171.809 0.514606 171.416 1.01945C171.336 1.12181 171.151 1.14216 171.071 1.24453C170.579 1.87005 169.936 2.31242 169.326 2.80636C168.768 3.25799 168.326 3.8523 167.818 4.36932C167.519 4.67326 167.194 4.95203 166.876 5.23558C166.556 5.52012 166.489 6.07219 165.938 6.11803C165.886 6.12231 165.844 6.22466 165.795 6.28057C165.024 7.16671 164.262 8.06137 163.477 8.93462C163.167 9.2784 162.783 9.55392 162.475 9.8987C162.149 10.2617 161.858 10.6587 161.583 11.062C161.323 11.4431 161.103 11.8517 160.769 12.4107Z" fill="white"/>
<path fill-rule="evenodd" clip-rule="evenodd" d="M136.901 40.5447C136.442 40.7257 136.114 40.8541 135.797 40.9791C135.256 40.1276 135.256 40.1276 134.131 40.6939C134.156 40.8805 134.181 41.0666 134.22 41.356C134.05 41.343 133.881 41.3296 133.639 41.311C133.587 40.8258 133.242 40.5745 132.68 40.6554C132.648 40.2144 132.621 39.8436 132.586 39.3626C132.652 39.2675 132.795 39.0585 132.945 38.8404C132.861 38.7412 132.792 38.6612 132.721 38.5782C132.732 38.5159 132.722 38.4303 132.76 38.3817C132.964 38.1228 133.012 37.7742 133.162 37.525C133.855 36.3807 134.234 35.0552 135.185 34.0551C135.415 33.8126 135.425 33.2365 135.66 33.15C136.065 33.001 135.938 32.6442 136.139 32.4411C136.401 32.176 136.629 31.8672 136.821 31.547C136.923 31.3782 136.92 31.1467 136.961 30.9598C137.114 30.9324 137.222 30.9135 137.242 30.9097C137.5 30.1549 137.922 29.6087 138.658 29.1177C138.661 29.0836 138.616 28.8624 138.706 28.7478C139.37 27.9031 140.08 27.0946 140.739 26.2457C141.148 25.718 141.483 25.1324 141.875 24.5905C141.99 24.4314 142.189 24.3332 142.392 24.1734C142.39 24.15 142.381 24.0436 142.373 23.9425C142.485 23.9204 142.592 23.8995 142.715 23.8756C142.82 23.0985 143.386 22.6306 143.826 22.0733C143.952 22.1696 144.012 22.2151 144.072 22.2609C144.035 22.468 143.998 22.6748 143.955 22.9068C143.894 22.9192 143.791 22.9394 143.68 22.9611C143.528 23.8653 142.734 24.3997 142.424 25.2444C142.58 25.0749 142.812 24.9285 142.872 24.7299C142.958 24.4456 143.429 24.6026 143.389 24.1745C143.374 24.0181 143.678 23.8319 143.937 23.5517C143.935 23.5647 143.955 23.3991 143.973 23.2504C144.14 23.2204 144.248 23.2012 144.355 23.1815C144.218 22.7729 144.569 22.5907 144.741 22.3301C144.898 22.3094 145.048 22.2894 145.257 22.2609C145.139 22.5005 145.036 22.7096 144.933 22.9182C144.967 22.9415 144.999 22.9645 145.033 22.9875C145.221 22.7759 145.408 22.5637 145.671 22.2663C145.9 22.5871 146.095 22.8617 146.341 23.2076C145.662 23.9342 144.973 24.6708 144.386 25.2988C144.436 25.7501 144.469 26.0425 144.497 26.3069C144.079 26.6426 143.628 26.5457 143.189 26.518C143.223 26.7526 143.249 26.9381 143.27 27.0807C143.004 27.3265 142.758 27.5534 142.559 27.7366C142.679 28.0541 142.766 28.2854 142.848 28.502L142.396 29.0939C142.432 29.2586 142.473 29.4406 142.516 29.6366L141.891 30.455C141.791 30.4228 141.66 30.3796 141.423 30.3026C141.255 30.7405 141.085 31.185 140.927 31.5989C140.707 31.8217 140.478 32.0306 140.275 32.2625C140.078 32.4884 139.773 32.7281 139.756 32.979C139.729 33.3564 139.525 33.5791 139.346 33.8466C139.162 34.1201 138.874 34.3833 138.836 34.6774C138.8 34.9531 138.436 34.929 138.489 35.2904C138.521 35.5145 138.138 35.799 138.065 36.1595C138.238 36.0051 138.413 35.8505 138.626 35.6618C138.621 36.3881 137.951 36.4306 137.629 36.7913C137.261 37.2026 137.369 37.7723 137.029 38.1819C137.168 38.1121 137.307 38.0421 137.435 37.978C137.446 38.0394 137.49 38.1314 137.464 38.1578C137.343 38.2849 137.2 38.3913 137.07 38.511C136.906 38.6615 136.747 38.8187 136.665 39.0552C136.809 38.9818 136.953 38.9084 137.238 38.7633L136.57 39.6373C136.685 39.9503 136.78 40.2115 136.901 40.5447Z" fill="white"/>
<path fill-rule="evenodd" clip-rule="evenodd" d="M88.8536 2.89832C89.0846 2.81358 89.3854 2.70352 89.7468 2.57144C89.6803 2.7692 89.6364 2.90037 89.5876 3.04551C89.6361 3.06589 89.7026 3.11874 89.7321 3.10267C89.9772 2.972 90.215 2.82784 90.4554 2.68776C90.5944 3.15611 91.2231 2.93266 91.3203 3.36436C91.3938 3.64824 91.467 3.93187 91.545 4.23376C90.5327 4.76572 89.9609 5.67213 89.4701 6.5476C89.0925 7.22232 88.6356 7.82611 88.2358 8.47455C88.0342 8.80269 88.045 9.25129 87.7068 9.51471C87.5763 9.61672 87.4233 9.69012 87.281 9.77687C87.6567 10.3734 87.3348 10.8113 86.8768 11.3027C86.6191 11.219 86.3553 11.1338 86.1622 11.0713C85.7903 11.1359 85.4631 11.1925 85.0583 11.2633C85.0963 11.3439 85.1858 11.5337 85.2027 11.5696C84.7652 12.4613 83.9767 12.9145 83.8727 13.8424C83.7598 13.8756 83.6251 13.9155 83.4799 13.9589C83.3341 14.2911 83.1782 14.6468 83.0251 14.9974C82.8023 14.9513 82.6439 14.9179 82.4366 14.8747C82.5401 15.0361 82.6148 15.1525 82.7397 15.348C82.4991 15.5259 82.2533 15.7078 81.9759 15.9128C82.0409 16.0427 82.1155 16.1914 82.2188 16.398C82.0663 16.4728 81.9153 16.5477 81.7559 16.6261C81.7902 17.2303 81.1975 17.5089 81.0085 17.9195C80.7848 18.0281 80.6327 18.1011 80.4551 18.187C80.5668 18.3593 80.6421 18.4757 80.6981 18.5628C80.2533 19.3227 79.8161 20.0693 79.3872 20.8023C79.4807 20.9487 79.5558 21.0655 79.6601 21.2285C79.4541 21.1869 79.2977 21.155 79.1267 21.1203C78.8171 21.5046 79.1812 21.9088 79.0751 22.3562C78.7885 22.4777 78.4666 22.6139 78.1367 22.7539C77.9635 22.6456 77.8116 22.551 77.6459 22.4479C77.3308 22.6013 77.1344 23.1554 76.639 22.7885C76.6551 22.5116 76.6709 22.2349 76.6908 21.8916C76.5253 22.0044 76.4143 22.0796 76.2963 22.1604C75.9336 21.8559 76.0102 21.4547 76.0956 21.003C76.2796 20.762 76.6847 20.4663 76.6891 20.1637C76.6943 19.8211 77.042 19.7786 77.0381 19.4431C77.0348 19.1315 77.5523 18.9451 77.4993 18.4904C77.4829 18.3522 77.662 18.0924 77.7976 18.0547C78.1717 17.9511 78.1375 17.6055 78.2976 17.3801C78.5154 17.0738 78.7512 16.7806 78.9795 16.4817C79.1849 16.2128 79.5394 15.9566 79.5631 15.6724C79.6069 15.1503 80.0798 14.9548 80.235 14.5168C80.3908 14.0786 80.8445 13.7554 81.0804 13.3331C81.314 12.9153 81.7836 12.7412 81.9692 12.2456C82.1465 11.7739 82.6021 11.4135 82.8902 10.9747C83.164 10.5568 83.389 10.1059 83.6161 9.65967C83.844 9.21304 84.4109 8.97364 84.3635 8.34172C84.3513 8.17402 84.615 7.98502 84.752 7.8056C85.6648 6.61028 86.5577 5.3993 87.4999 4.22751C87.8801 3.75487 88.3685 3.36849 88.8536 2.89832Z" fill="white"/>
<path fill-rule="evenodd" clip-rule="evenodd" d="M167.738 20.2459C167.694 20.6706 167.668 20.9161 167.642 21.158C167.906 21.0095 168.191 20.8489 168.522 20.6627C168.634 20.8519 168.705 20.9712 168.815 21.1563C169.629 21.0329 169.342 21.9234 169.752 22.3321C169.18 22.6046 168.629 22.8676 168.055 23.141C168.097 23.2029 168.17 23.3124 168.295 23.4995C166.929 24.6578 165.713 25.9842 164.551 27.3808C164.654 27.1723 164.757 26.9636 164.86 26.7554C164.831 26.7354 164.802 26.7159 164.773 26.6962L163.714 28.0824C163.785 28.1921 163.86 28.3085 163.942 28.4375L163.666 28.7999C163.187 29.4271 162.675 30.0329 162.238 30.6881C161.837 31.2882 161.516 31.9412 161.082 32.7083C160.984 33.1553 161.099 33.8396 160.472 34.4106C160.292 34.4176 160 34.4293 159.642 34.4432C159.612 34.3825 159.552 34.257 159.491 34.1295C158.9 34.0929 158.278 34.0543 157.716 34.0196C157.388 33.5477 157.097 33.131 156.73 32.6048C156.692 31.917 157.054 31.1971 157.5 30.5788C158.753 28.8417 160.076 27.1544 161.393 25.4649C161.628 25.1627 161.97 24.9442 162.259 24.6836C162.549 24.4219 162.626 23.9417 163.126 23.8807C163.232 23.8679 163.315 23.6656 163.409 23.5516C164.166 22.6349 166.067 21.2084 167.35 20.5861C167.441 20.5417 167.508 20.4499 167.738 20.2459Z" fill="white"/>
<path fill-rule="evenodd" clip-rule="evenodd" d="M140.243 9.16808L139.776 9.7794C139.291 9.56247 138.84 9.36057 138.351 9.14203L138.034 9.55748C137.306 9.47712 137.344 8.59235 136.767 8.46499C136.544 7.78682 136.81 7.24459 137.055 6.67749C137.547 5.53976 138.287 4.54665 138.873 3.47649C139.615 2.1208 140.557 0.937502 141.522 -0.2181C142.686 -1.61264 143.977 -2.91885 145.487 -3.96701C145.628 -4.06479 145.827 -4.07855 146.055 -4.14807C145.995 -3.97421 145.951 -3.84751 145.903 -3.70684C145.948 -3.68334 146.004 -3.6271 146.04 -3.63839C146.347 -3.73158 146.651 -3.8364 146.981 -3.94621C147.009 -3.82792 147.032 -3.73228 147.053 -3.64064C147.215 -3.61861 147.382 -3.59604 147.567 -3.57008C147.52 -3.3503 147.484 -3.18592 147.448 -3.02219C147.567 -3.02953 147.669 -3.03618 147.779 -3.04319C147.651 -2.52098 147.597 -2.07558 146.979 -1.75834C146.37 -1.44656 145.928 -0.775295 145.468 -0.21577C144.8 0.598428 144.19 1.46086 143.537 2.28861C143.273 2.62432 143.099 3.04184 142.603 3.18244C142.424 3.23301 142.325 3.56343 142.163 3.80526C142.358 3.79386 142.46 3.78754 142.694 3.77391C142.371 4.19792 142.126 4.56967 141.828 4.89242C141.577 5.16421 141.265 5.37955 140.851 5.72748C141.146 5.71487 141.246 5.71068 141.391 5.70456C141.255 6.27203 140.796 6.54102 140.186 6.88758C140.501 6.92212 140.615 6.93412 140.866 6.96189C140.524 7.25593 140.254 7.48961 139.897 7.79685C140.136 7.78525 140.236 7.7804 140.427 7.77129C140.277 8.01305 140.152 8.21543 139.997 8.46395C140.072 8.6785 140.163 8.93825 140.243 9.16808Z" fill="white"/>
<path fill-rule="evenodd" clip-rule="evenodd" d="M130.745 18.2427C130.538 18.2704 130.389 18.2904 130.117 18.3268C130.247 18.5091 130.378 18.6922 130.402 18.7257C129.879 19.232 129.531 19.5691 129.059 20.0262C129.352 20.0245 129.444 20.0242 129.609 20.0238C129.564 20.1467 129.527 20.2538 129.488 20.3618C129.288 20.3224 129.123 20.2904 128.844 20.2357C128.917 20.4833 128.969 20.6598 129.025 20.849C128.513 21.3963 127.977 21.97 127.476 22.5073C127.528 22.6422 127.533 22.6906 127.551 22.6964C127.584 22.7064 127.625 22.6862 127.662 22.6866C127.725 22.6867 127.788 22.6933 127.996 22.7056C127.505 23.1789 127.087 23.5816 126.56 24.0883C126.846 24.0737 126.947 24.0682 127.049 24.0631C127.085 24.6427 126.494 24.7048 126.094 25.0731C126.335 25.1008 126.446 25.1134 126.59 25.1302C126.485 25.7211 125.6 25.653 125.606 26.3353C125.748 26.2637 125.889 26.1934 126.101 26.0876C125.917 26.4798 125.759 26.8172 125.529 27.3096C125.027 27.5752 124.375 27.596 123.678 27.2252C123.566 27.3514 123.447 27.4846 123.265 27.6899C123.078 27.4998 122.896 27.3135 122.647 27.0596C122.653 27.0597 122.514 27.0595 122.399 27.0592C122.343 26.9501 122.292 26.8912 122.281 26.8262C122.133 25.9116 122.254 25.0914 122.741 24.2407C123.046 23.7066 123.459 23.2245 123.69 22.6699C124.215 21.409 125.169 20.4663 125.945 19.3932C126.715 18.3266 127.51 17.2759 128.342 16.2574C128.98 15.4778 129.8 14.9267 130.796 14.6579C130.821 14.7973 130.84 14.9052 130.861 15.0236C131.196 15.2761 131.464 15.0601 131.769 14.867C131.795 14.9672 131.819 15.0577 131.862 15.2228C132.049 15.1598 132.253 15.0914 132.409 15.0391C132.517 15.278 132.587 15.4352 132.685 15.6535C132.655 15.8156 132.611 16.0558 132.568 16.2936C131.677 16.67 131.433 17.63 130.745 18.2427Z" fill="white"/>
<path fill-rule="evenodd" clip-rule="evenodd" d="M69.8918 -0.523697C69.7762 0.00508609 69.6888 0.406865 69.6005 0.810542C69.4138 0.835271 69.2275 0.860252 68.9691 0.894882C69.0521 1.02028 69.1178 1.11993 69.216 1.2684L68.5963 2.07988C68.4865 2.03403 68.3894 1.99326 68.2198 1.92262C68.1421 2.1322 68.2512 2.33122 68.2475 2.57019L67.7965 3.16078C67.6773 3.12238 67.5448 3.08015 67.3 3.00156C67.407 3.1719 67.4662 3.26711 67.5394 3.38347C67.3883 3.98203 67.1085 4.55115 66.6813 5.06348C66.4864 5.29823 66.4099 5.63176 66.2777 5.92579C66.1836 5.94254 66.0777 5.96175 65.977 5.97968C65.985 6.09474 65.9935 6.20442 66.0048 6.35686C65.7278 6.48826 65.4444 6.62258 65.2271 6.72558C65.0686 7.03553 64.9272 7.31217 64.765 7.62822C64.6065 7.56969 64.4803 7.52336 64.3267 7.46653C63.9097 7.94441 63.3019 8.02854 62.7224 8.19426C62.7044 8.05957 62.6895 7.9481 62.6592 7.72433L63.2612 6.9359C63.2309 6.90598 63.2006 6.87606 63.1697 6.84621C62.8606 7.07351 62.551 7.30089 62.1709 7.58026C62.1257 7.31179 62.1029 7.17242 62.0713 6.98251C62.6421 6.2349 63.2447 5.47034 63.8184 4.68423C64.1137 4.27911 64.5472 3.95033 64.554 3.36874C64.5574 3.0654 65.1233 3.16921 65.0525 2.82381C64.9721 2.43151 65.5757 2.66886 65.5063 2.23905C65.4776 2.06234 65.8572 1.83623 66.0176 1.60906C66.2304 1.30926 66.3868 0.968557 66.6083 0.676462C68.086 -1.27364 69.6133 -3.18786 71.0423 -5.17252C71.7278 -6.12343 72.2389 -7.2002 73.0158 -8.09481C73.0401 -8.69853 73.4956 -9.03292 73.7978 -9.5031C74.2095 -8.93595 73.6002 -8.67579 73.4692 -8.03886C73.9045 -8.54815 74.1835 -8.87396 74.5857 -9.34393C74.5369 -9.02889 74.5114 -8.86176 74.4748 -8.62341C74.6753 -8.6225 74.8496 -8.63168 75.022 -8.61727C75.1816 -8.60379 75.3387 -8.56515 75.6773 -8.50564C75.3571 -8.3525 75.2163 -8.28545 74.9971 -8.18131C75.093 -8.01686 75.1736 -7.87873 75.2588 -7.73235C75.1379 -7.68187 75.0182 -7.63154 74.8472 -7.56045C74.8414 -7.44444 74.8348 -7.30408 74.8276 -7.15328C74.7443 -7.13768 74.6392 -7.11888 74.5343 -7.09949C74.5589 -6.91544 74.5837 -6.72875 74.6117 -6.51974C74.3772 -6.40852 74.1363 -6.29438 73.8729 -6.16924C73.9303 -6.05608 74.0021 -5.91322 74.0729 -5.7726C74.0264 -5.70548 73.9843 -5.64488 73.923 -5.55718C73.8019 -5.59708 73.6727 -5.63945 73.5054 -5.69475L73.1675 -5.25231C73.219 -5.1744 73.2957 -5.0585 73.4234 -4.86669C73.173 -4.66026 72.9152 -4.44751 72.6544 -4.23289C72.7283 -4.10922 72.8001 -3.98972 72.9133 -3.80011C72.6037 -3.82184 72.3405 -3.84035 72.0855 -3.85847C72.1738 -3.61588 72.2679 -3.35751 72.3427 -3.15182C72.0768 -2.6091 71.7049 -2.62781 71.2124 -2.85641C71.3013 -2.56544 71.3678 -2.3474 71.4625 -2.03741L70.9002 -1.30099C70.8246 -1.32691 70.6955 -1.37078 70.5352 -1.42493L70.2707 -1.07862C70.4431 -1.08723 70.5438 -1.09158 70.6465 -1.09707C70.7456 -0.811896 70.5111 -0.645422 69.8918 -0.523697Z" fill="white"/>
<path fill-rule="evenodd" clip-rule="evenodd" d="M160.868 0.0180259C160.991 0.262656 161.115 0.506455 161.291 0.853936C161.062 0.775982 160.963 0.742567 160.767 0.676589C160.531 0.772634 160.333 1.24453 159.939 1.09466C159.739 1.01862 159.607 0.762321 159.42 0.56105C159.23 0.663122 158.954 0.810929 158.602 0.999259C158.179 0.60424 157.734 0.190985 157.219 -0.288994C157.243 -0.290694 157.133 -0.282779 156.885 -0.264878C157.094 -0.454522 157.224 -0.572519 157.409 -0.740585C157.265 -0.879431 157.076 -1.06357 156.797 -1.33382C156.941 -1.90651 157.069 -2.55813 157.271 -3.18682C157.477 -3.82856 157.942 -4.39972 158.098 -5.01754C158.277 -5.72886 159.129 -6.02486 159.04 -6.82233C159.14 -6.83986 159.248 -6.85881 159.356 -6.87767C159.514 -7.77052 160.247 -8.29081 160.788 -9.1762C160.841 -8.90319 160.862 -8.79548 160.882 -8.68951C160.988 -8.69738 161.092 -8.70518 161.326 -8.72237C160.868 -8.19523 160.673 -7.56929 160 -7.35782C159.866 -6.64727 159.611 -5.99394 159.115 -5.43638C158.534 -4.78314 158.268 -3.97589 158.001 -3.01465C158.367 -3.11744 158.615 -3.18704 158.891 -3.26451C158.809 -3.38683 158.732 -3.50207 158.655 -3.61673C158.677 -3.68265 158.691 -3.75311 158.723 -3.81389C158.957 -4.25773 159.41 -4.53597 159.48 -5.12985C159.53 -5.55382 160.165 -5.802 160.103 -6.36372C160.1 -6.3905 160.147 -6.42166 160.168 -6.45312C160.752 -7.34162 161.322 -8.23926 161.927 -9.11291C162.105 -9.36902 162.22 -9.73759 162.651 -9.74007C162.723 -9.74053 162.836 -9.889 162.858 -9.98557C163.113 -11.0942 164.065 -11.739 164.617 -12.6483C164.675 -12.7448 164.753 -12.8288 164.824 -12.9219C165.007 -12.945 165.193 -12.9685 165.432 -12.9985L166.24 -14.0556C166.462 -14.0986 166.607 -14.1264 166.788 -14.1609C166.734 -13.9986 166.691 -13.8669 166.625 -13.6666C166.893 -13.7625 167.128 -13.8461 167.469 -13.9671C167.456 -13.4591 167.444 -13.0122 167.433 -12.5935C166.909 -12.2204 166.079 -12.2235 166.144 -11.3214C165.712 -11.4334 165.272 -11.5651 165.075 -10.9294C165.135 -10.8659 165.207 -10.7909 165.28 -10.7134C165.438 -10.7927 165.582 -10.8657 165.743 -10.9479C165.722 -10.847 165.714 -10.7769 165.692 -10.7113C165.557 -10.3045 164.829 -10.4614 164.895 -9.79795C164.935 -9.38612 164.48 -9.10077 164.348 -8.6587C164.179 -8.0965 163.638 -7.64662 163.1 -6.94246C163.197 -7.3845 163.232 -7.54674 163.302 -7.86607L162.557 -6.89C162.74 -6.83565 162.915 -6.78318 163.161 -6.70973L162.335 -5.62864C162.277 -5.3097 162.247 -5.14286 162.196 -4.86362C162.121 -5.0887 162.045 -5.70322 162.057 -5.7838C161.533 -5.63873 161.741 -5.1223 161.522 -4.77203C161.653 -4.77454 161.748 -4.77571 161.944 -4.77865C161.72 -4.32247 161.522 -3.89108 161.299 -3.47266C161.119 -3.13654 161.084 -2.80937 161.244 -2.39824C161.074 -2.27288 160.895 -2.14138 160.686 -1.98686C160.689 -1.33503 160.692 -0.686505 160.695 -0.0379815C160.752 -0.0188417 160.81 -0.000533633 160.868 0.0180259Z" fill="white"/>
<path fill-rule="evenodd" clip-rule="evenodd" d="M108.4 21.3373C108.528 21.2741 108.657 21.2114 108.785 21.1487C108.81 21.1908 108.837 21.233 108.863 21.2753C108.64 21.567 108.256 21.8469 108.233 22.1535C108.202 22.5832 107.816 22.556 107.691 22.8089C107.533 23.1283 107.22 23.3198 107.164 23.753C107.113 24.1502 106.795 24.5445 106.363 24.6192C106.202 24.9408 106.049 25.2181 105.921 25.5063C105.805 25.7665 105.963 26.2217 105.427 26.1672C105.588 26.5677 105.288 26.6439 105.021 26.7435C105.135 27.1544 104.76 27.3285 104.594 27.5993C104.437 27.8546 104.21 28.0671 104.057 28.324C103.839 28.6903 103.599 29.0618 103.481 29.4645C103.314 30.0311 102.971 30.4857 102.682 30.9885C103.245 30.6261 103.693 30.1011 103.898 29.5377C104.043 29.137 104.282 28.8482 104.478 28.5095C104.767 28.0116 104.932 27.4585 105.317 26.9944C105.655 26.5874 106.191 26.2572 106.159 25.61C106.47 25.5417 106.6 25.4229 106.605 25.0342C106.608 24.7855 106.962 24.469 107.233 24.3203C107.455 24.1984 107.38 23.831 107.737 23.8438C107.846 23.8475 108.031 23.583 108.067 23.4168C108.257 22.5397 108.859 21.9729 109.482 21.4068C109.581 21.3171 109.559 21.1002 109.653 20.9981C110.279 20.3205 110.619 19.4067 111.436 18.8823C111.568 18.7976 111.556 18.5175 111.663 18.364C111.943 17.9633 112.274 17.5974 112.543 17.1899C112.929 16.6042 113.424 16.1496 114.183 15.7273C113.895 16.1491 113.694 16.4447 113.492 16.7406L113.556 16.8352C113.64 16.7776 113.728 16.7266 113.805 16.6611C113.885 16.5922 113.952 16.5099 114.047 16.4109C114.162 16.6452 114.262 16.8467 114.361 17.0485C114.239 17.072 114.131 17.0923 113.976 17.1223C113.95 17.2781 113.924 17.4424 113.881 17.7116C113.654 17.4706 113.476 17.2803 113.253 17.0413C113.217 17.0461 113.068 17.0661 112.94 17.0832C112.718 17.5388 112.502 17.9826 112.274 18.45C112.429 18.4351 112.568 18.4214 112.699 18.4087C112.751 18.2238 112.801 18.0454 112.847 17.8802C113.481 17.9528 113.028 18.3353 113.098 18.5584C113.293 18.5983 113.452 18.6307 113.722 18.6858C113.56 18.8089 113.414 18.9724 113.366 18.9475C112.901 18.7078 112.6 18.8477 112.404 19.3021C112.478 19.4226 112.55 19.5408 112.706 19.7963C112.311 19.6982 112.032 19.629 111.686 19.5435C111.85 19.2497 111.952 19.0664 112.054 18.8837C112.018 18.8542 111.983 18.8244 111.948 18.7947C111.73 19.0485 111.512 19.3026 111.245 19.6154C111.368 19.6579 111.444 19.6842 111.606 19.7404C111.671 19.857 111.78 20.0519 111.908 20.2804C111.523 20.672 111.326 21.2477 110.647 21.55C110.921 21.6262 111.1 21.6756 111.312 21.7349L110.955 22.2024C110.626 22.0928 110.262 21.9717 109.877 21.8434L109.673 22.1094C109.885 22.1631 110.064 22.2088 110.252 22.2567C110.079 22.6596 109.928 23.0117 109.74 23.4492C109.584 23.4824 109.347 23.5334 109.107 23.5845C109.257 23.8744 109.402 24.1526 109.563 24.4628C109.386 24.4274 109.231 24.3962 109.072 24.3646C109.369 24.9997 109.173 25.4878 108.659 25.9226C108.579 25.7244 108.515 25.5692 108.407 25.3034C108.158 25.5938 107.976 25.8043 107.767 26.048L108.289 26.447C107.823 27.2468 107.371 28.0207 106.917 28.8003C106.984 28.8998 107.06 29.0153 107.174 29.1857C106.399 29.408 106.162 30.1328 105.681 30.6332C105.528 30.6022 105.372 30.5711 105.169 30.5304C105.272 30.6924 105.346 30.8098 105.421 30.928C105.275 31.0002 105.129 31.0721 104.894 31.1875C105.074 31.3803 105.211 31.5281 105.265 31.5861C105.371 32.1407 105.46 32.601 105.555 33.0983C105.372 33.0427 105.239 33.0024 105.086 32.956C105.172 33.2132 105.255 33.4629 105.342 33.7226C104.756 33.7062 104.23 33.6441 104.166 32.9367C103.952 32.96 103.805 32.9759 103.649 32.9932C103.632 33.1226 103.616 33.251 103.589 33.4584C103.444 33.4892 103.272 33.5255 103.041 33.5745C102.532 33.1144 101.815 32.8336 101.557 32.0879C101.621 31.0482 102.313 30.2714 102.673 29.3579C103.061 28.3714 103.768 27.6207 104.37 26.7894C104.521 26.5803 104.664 26.4037 104.639 26.0953C104.625 25.9278 104.859 25.7029 105.033 25.5715C105.15 25.4825 105.417 25.5734 105.307 25.2737C105.747 24.979 105.795 24.4182 106.154 24.0503C106.572 23.6223 106.897 23.1047 107.262 22.6264L108.29 21.2803C108.327 21.2996 108.364 21.318 108.4 21.3373Z" fill="white"/>
<path fill-rule="evenodd" clip-rule="evenodd" d="M99.9651 13.0754C99.9256 13.2084 99.8858 13.3417 99.8268 13.5405C100.025 13.5222 100.184 13.507 100.343 13.4925C100.322 13.3329 100.312 13.2585 100.297 13.1476C100.562 13.194 100.817 13.2387 101.053 13.2798C101.154 13.4917 101.244 13.6797 101.346 13.8912C101.236 14.1826 101.179 14.5619 100.975 14.826C100.437 15.5198 100.073 16.2743 99.791 17.1055C99.6365 17.5618 99.1362 17.8839 99.0945 18.4326C98.4383 19.0525 98.278 19.9844 97.694 20.6537C97.5511 20.8176 97.5477 21.1544 97.3882 21.2405C97.0877 21.4019 97.2527 21.7373 97.0208 21.9209C96.8385 22.0647 96.6052 22.2706 96.7268 22.5871C96.125 23.3179 95.9583 24.2657 95.4824 25.0692C95.0787 25.75 94.8811 26.5534 94.6292 27.2074C94.7387 27.563 94.8195 27.8243 94.9074 28.1098C94.7487 28.1737 94.6488 28.2527 94.5572 28.2442C94.1769 28.2086 93.8001 28.1466 93.415 28.0933L93.0869 28.5229C92.8898 28.3244 92.7064 28.1401 92.452 27.8843C92.4632 27.884 92.3256 27.8894 92.2257 27.8934C91.7732 27.2581 92.1025 26.6705 92.3401 26.2188C92.7545 25.4298 93.0192 24.5787 93.5128 23.8122C94.049 22.9776 94.4788 22.0572 94.9491 21.1744C95.224 20.6588 95.5025 20.1555 95.8645 19.7101C96.0672 19.461 96.052 19.1711 96.1767 18.9265C96.3278 18.6297 96.5754 18.382 96.7801 18.1125C96.9611 17.8734 97.3395 17.5526 97.2814 17.4082C97.1265 17.0221 97.7482 17.0924 97.5706 16.766C97.5448 16.7187 97.6737 16.5867 97.7316 16.4944C98.0189 16.0384 98.4139 15.6787 98.557 15.0948C98.6784 14.5986 99.2667 14.2917 99.3377 13.6814C99.3667 13.4325 99.667 13.2153 99.844 12.9835C99.8844 13.0138 99.9246 13.0445 99.9651 13.0754Z" fill="white"/>
<path fill-rule="evenodd" clip-rule="evenodd" d="M188.375 -8.39912C188.515 -8.31465 188.576 -8.27709 188.706 -8.19735C188.485 -7.6293 187.952 -7.23576 187.801 -6.60796C187.983 -6.82029 188.17 -7.02884 188.346 -7.24653C188.531 -7.47738 188.706 -7.71628 188.868 -7.92762C189.057 -7.94761 189.199 -7.96278 189.37 -7.98069C189.32 -7.82447 189.278 -7.69178 189.201 -7.45071C189.398 -7.56275 189.522 -7.63416 189.726 -7.74979C189.877 -7.5369 190.033 -7.31701 190.193 -7.09195C189.712 -6.27074 189.275 -5.52388 188.813 -4.73539C188.845 -4.69941 188.914 -4.62003 189.044 -4.47162C188.715 -4.14947 188.348 -3.83145 188.032 -3.4696C187.686 -3.07362 187.386 -2.63722 187.059 -2.20893C187.082 -1.99657 187.107 -1.77558 187.131 -1.55601C186.914 -1.22817 186.531 -1.07639 186.382 -0.638863C186.28 -0.339439 185.827 -0.159612 185.63 0.239476C185.77 0.173341 185.912 0.10738 186.192 -0.0235725L185.261 1.19545C185.292 1.51019 185.317 1.75893 185.348 2.08155C184.973 2.09495 184.68 2.10485 184.429 2.11402C184.147 2.0236 183.881 1.93871 183.613 1.85346C183.568 1.73568 183.522 1.61624 183.455 1.44028L182.979 2.06345C182.487 2.04901 182.403 1.74085 182.375 1.37875C182.515 1.14452 182.659 0.905355 182.803 0.66619L182.7 0.589328C182.511 0.799609 182.322 1.00964 182.107 1.24827C182.008 1.17286 181.87 1.12196 181.856 1.04735C181.754 0.522496 181.895 0.0708037 182.229 -0.363218C184.274 -3.01491 186.3 -5.68092 188.375 -8.39912Z" fill="white"/>
<path fill-rule="evenodd" clip-rule="evenodd" d="M123.618 6.69441C123.299 6.37271 123.051 6.12112 122.684 5.74979C122.685 5.69329 122.685 5.44112 122.687 5.03404C123.335 3.46306 124.688 2.15499 125.755 0.649427C125.983 0.328722 126.242 0.0610648 126.608 -0.158203C126.968 -0.373634 127.135 -0.887144 127.46 -1.18936C127.733 -1.44166 128.13 -1.55337 128.442 -1.77154C128.758 -1.99364 129.005 -2.32876 129.341 -2.50579C129.704 -2.6975 130.133 -2.76395 130.546 -2.88895C130.566 -2.73684 130.576 -2.66253 130.581 -2.62189C131.029 -2.53683 131.463 -2.45495 131.907 -2.37076C131.936 -2.12296 131.968 -1.86331 132.01 -1.52138C131.262 -0.970563 130.593 -0.22811 129.597 0.101605C129.475 0.495299 129.467 0.999989 128.845 1.11374C128.726 1.13591 128.631 1.45917 128.583 1.65774C128.504 1.98603 128.354 2.19498 127.962 2.15258C127.835 2.69716 127.636 3.10858 127.126 3.45733C126.601 3.81705 126.286 4.48478 125.867 5.03389C125.855 5.52364 125.843 6.0563 125.83 6.62159C125.349 6.70549 124.949 6.91195 124.538 6.51522C124.417 6.39812 124.133 6.42731 123.926 6.43413C123.845 6.43699 123.768 6.56192 123.618 6.69441Z" fill="white"/>
<path fill-rule="evenodd" clip-rule="evenodd" d="M113.766 4.37069C113.824 4.58419 113.883 4.7991 113.927 4.96019L112.935 6.25921C112.041 6.60869 111.295 5.91663 110.269 6.05364L110.897 5.23064C110.861 5.19271 110.824 5.15479 110.787 5.11694C110.651 5.23679 110.515 5.35665 110.316 5.53222C110.183 5.44665 110.012 5.33631 109.778 5.18592C110.558 4.16474 111.209 3.08902 112.083 2.24487C112.669 1.67965 113.118 1.01963 113.687 0.46345C114.289 -0.124585 114.972 -0.630401 115.623 -1.16722C116.183 -1.62755 116.752 -2.0747 117.454 -2.42502C117.533 -2.23263 117.586 -2.1041 117.641 -1.97107C117.865 -2.04485 118.118 -2.12775 118.374 -2.21235C118.4 -2.07751 118.42 -1.9727 118.437 -1.88507C118.581 -1.88217 118.721 -1.87848 118.938 -1.87394C118.936 -1.54325 118.933 -1.24951 118.931 -0.794644C118.707 -0.636112 118.337 -0.374707 117.968 -0.11305C117.163 0.470326 116.88 1.62089 115.802 1.8794C115.716 2.08394 115.68 2.31037 115.55 2.44486C115.353 2.64637 114.86 2.60052 115.051 3.09973C114.59 3.05805 114.729 3.44256 114.599 3.66329C114.431 3.94699 114.076 4.12046 113.766 4.37069Z" fill="white"/>
<path fill-rule="evenodd" clip-rule="evenodd" d="M120.285 38.1917C120.236 38.3431 120.193 38.4753 120.124 38.6908C120.796 38.1486 121.302 38.6921 121.862 38.7961C121.993 39.1687 122.109 39.4986 122.243 39.881C121.958 40.1607 121.585 40.2385 121.171 40.1722C121.179 40.2808 121.187 40.3904 121.193 40.4571C120.868 40.7223 120.567 40.9674 120.197 41.2699C120.039 41.2506 119.792 41.22 119.465 41.1799C119.293 41.679 119.101 42.2011 118.933 42.731C118.775 43.227 118.643 43.7306 118.499 44.2316L118.677 44.3673C118.827 44.2907 118.978 44.214 119.155 44.1238C119.216 44.233 119.325 44.39 119.308 44.4047C118.993 44.6834 119.426 44.8428 119.405 45.0705C119.331 45.0786 119.257 45.0871 119.143 45.0997C119.117 45.2442 119.089 45.3974 119.046 45.6363C118.862 45.5874 118.708 45.5463 118.522 45.4964C118.524 45.6008 118.526 45.696 118.53 45.9011C118.187 45.8103 117.867 45.6602 117.547 45.6579C117.209 45.6556 116.883 45.7418 116.687 45.3784C116.469 45.5781 116.314 45.7203 116.155 45.867C115.712 45.1997 115.712 45.1997 115.005 45.0335C115.067 44.5334 114.983 43.9248 115.235 43.5325C115.531 43.0718 115.48 42.3682 116.16 42.069C116.238 42.2767 116.298 42.4403 116.372 42.6384L115.78 43.4137C115.841 43.6543 115.892 43.8578 115.941 44.0508C116.077 44.0361 116.14 44.0295 116.202 44.0226C116.192 43.9482 116.147 43.8518 116.178 43.8022C116.722 42.9242 117.269 42.0477 117.836 41.1842C117.9 41.0858 118.082 41.0652 118.186 41.0194C118.222 40.8166 118.259 40.6095 118.298 40.3954C117.495 40.6649 117.054 41.2545 116.809 42.0582C116.661 41.9446 116.52 41.837 116.379 41.7294C116.374 41.6926 116.35 41.6414 116.366 41.6197C116.908 40.8987 117.336 40.016 118.035 39.5086C118.711 39.0185 119.28 38.2185 120.285 38.1917Z" fill="white"/>
<path fill-rule="evenodd" clip-rule="evenodd" d="M149.871 54.0329C149.705 54.1013 149.463 54.3006 149.265 54.264C148.62 54.1432 147.981 53.9647 147.362 53.7462C147.159 53.6748 147.023 53.412 146.793 53.1701C146.82 53.1682 146.716 53.176 146.571 53.1865C146.596 52.8687 146.621 52.5531 146.645 52.2416L151.469 45.9237C151.634 45.9078 151.773 45.8936 151.98 45.8733C151.852 46.1052 151.751 46.2887 151.599 46.5653C151.958 46.3564 152.235 46.1954 152.72 45.9136C152.514 46.3363 152.414 46.5399 152.315 46.7441C152.342 46.7656 152.369 46.7871 152.396 46.8081C152.542 46.6685 152.688 46.5289 152.835 46.3883C153.243 46.4506 153.368 46.725 153.363 47.0983C152.159 48.6382 151.322 50.4387 150.004 51.903C149.954 51.9585 149.913 52.0217 149.867 52.0813C149.869 52.6925 149.87 53.3037 149.871 54.0329Z" fill="white"/>
</g>
</svg>
