<svg width="169" height="55" viewBox="0 0 169 55" fill="none" xmlns="http://www.w3.org/2000/svg">
<path d="M44.976 44.8193C43.6908 45.5533 29.492 53.7757 29.492 53.7757C26.5512 55.3805 23.5587 55.4353 20.6282 53.776C15.1934 50.6985 9.7728 47.5942 4.39467 44.4195C1.51358 42.719 0.020097 40.1105 0.012627 36.7353C-0.00107304 30.5498 -0.00845292 24.364 0.0162271 18.1786C0.0297271 14.8023 1.5673 12.219 4.45032 10.5233C9.7881 7.38395 15.1617 4.30412 20.5485 1.24895C23.5295 -0.44168 26.5683 -0.40646 29.5475 1.297C34.7873 4.29312 40.0177 7.30602 45.242 10.3289C48.4192 12.1673 50.0213 14.8939 49.9928 18.6061C49.9483 24.4767 49.9305 30.3485 49.999 36.2188C50.0447 40.134 48.334 42.9123 44.976 44.8193ZM14.1745 9.2732C11.7203 10.6913 9.2807 12.1356 6.8073 13.5195C4.7877 14.6495 3.77485 16.2768 3.7956 18.6279C3.84282 23.9742 3.80763 29.3212 3.8142 34.668C3.81468 35.05 3.8825 35.4317 3.91903 35.8137C4.0338 35.8782 4.14857 35.943 4.26335 36.0078C4.6212 35.5635 4.94173 35.0823 5.3426 34.6808C10.6826 29.3333 16.0335 23.9965 21.3823 18.6577C24.374 15.6718 25.6105 15.6631 28.5573 18.6042C33.9433 23.98 39.3285 29.3567 44.7178 34.7295C45.1073 35.118 45.5268 35.4767 46.0108 35.9215C46.0983 35.6147 46.1718 35.477 46.1718 35.3393C46.175 29.5733 46.1783 23.8072 46.1653 18.0412C46.1608 16.0691 45.1653 14.6654 43.5038 13.7047C38.2788 10.6834 33.0427 7.681 27.817 4.6611C25.917 3.56315 24.0505 3.56525 22.1525 4.67995C19.5728 6.19505 16.9716 7.6737 14.1745 9.2732ZM17.6004 27.7947C14.0408 31.3495 10.4769 34.8998 6.9239 38.4608C5.4781 39.91 5.5774 40.753 7.3098 41.7555C11.4828 44.1702 15.6599 46.5783 19.8468 48.969C20.2935 49.2243 20.8163 49.347 21.3593 49.5525C21.4473 49.1602 21.5227 49.0068 21.5055 48.8643C21.462 48.5025 21.38 48.1447 21.308 47.7865C20.6175 44.3575 20.447 40.8898 21.418 37.5255C22.2845 34.5243 23.5385 31.6348 24.607 28.6908C25.363 26.6083 25.971 24.495 25.4052 22.2543C25.058 20.8782 24.6718 20.7677 23.6623 21.7588C21.6803 23.7043 19.7246 25.6765 17.6004 27.7947Z" fill="white"/>
<path d="M76.35 29.6C76.33 30.08 76.14 30.47 75.78 30.77C75.42 31.07 75 31.22 74.52 31.22H64.62C64.86 32.4 65.41 33.33 66.27 34.01C67.13 34.67 68.1 35 69.18 35C70 35 70.64 34.93 71.1 34.79C71.56 34.63 71.92 34.47 72.18 34.31C72.46 34.13 72.65 34.01 72.75 33.95C73.11 33.77 73.45 33.68 73.77 33.68C74.19 33.68 74.55 33.83 74.85 34.13C75.15 34.43 75.3 34.78 75.3 35.18C75.3 35.72 75.02 36.21 74.46 36.65C73.9 37.11 73.15 37.5 72.21 37.82C71.27 38.14 70.32 38.3 69.36 38.3C67.68 38.3 66.21 37.95 64.95 37.25C63.71 36.55 62.75 35.59 62.07 34.37C61.39 33.13 61.05 31.74 61.05 30.2C61.05 28.48 61.41 26.97 62.13 25.67C62.85 24.37 63.8 23.38 64.98 22.7C66.16 22 67.42 21.65 68.76 21.65C70.08 21.65 71.32 22.01 72.48 22.73C73.66 23.45 74.6 24.42 75.3 25.64C76 26.86 76.35 28.18 76.35 29.6ZM68.76 24.95C66.44 24.95 65.07 26.04 64.65 28.22H72.51V28.01C72.43 27.17 72.02 26.45 71.28 25.85C70.54 25.25 69.7 24.95 68.76 24.95ZM92.1047 17C92.6447 17 93.0847 17.16 93.4247 17.48C93.7647 17.8 93.9347 18.22 93.9347 18.74C93.9347 19.26 93.7647 19.68 93.4247 20C93.0847 20.3 92.6447 20.45 92.1047 20.45H87.3947V36.17C87.3947 36.69 87.2047 37.13 86.8247 37.49C86.4447 37.83 85.9747 38 85.4147 38C84.8547 38 84.3947 37.83 84.0347 37.49C83.6747 37.13 83.4947 36.69 83.4947 36.17V20.45H78.7847C78.2447 20.45 77.8047 20.29 77.4647 19.97C77.1247 19.65 76.9547 19.23 76.9547 18.71C76.9547 18.21 77.1247 17.8 77.4647 17.48C77.8247 17.16 78.2647 17 78.7847 17H92.1047ZM107.58 29.6C107.56 30.08 107.37 30.47 107.01 30.77C106.65 31.07 106.23 31.22 105.75 31.22H95.8505C96.0905 32.4 96.6405 33.33 97.5005 34.01C98.3605 34.67 99.3305 35 100.41 35C101.23 35 101.87 34.93 102.33 34.79C102.79 34.63 103.15 34.47 103.41 34.31C103.69 34.13 103.88 34.01 103.98 33.95C104.34 33.77 104.68 33.68 105 33.68C105.42 33.68 105.78 33.83 106.08 34.13C106.38 34.43 106.53 34.78 106.53 35.18C106.53 35.72 106.25 36.21 105.69 36.65C105.13 37.11 104.38 37.5 103.44 37.82C102.5 38.14 101.55 38.3 100.59 38.3C98.9105 38.3 97.4405 37.95 96.1805 37.25C94.9405 36.55 93.9805 35.59 93.3005 34.37C92.6205 33.13 92.2805 31.74 92.2805 30.2C92.2805 28.48 92.6405 26.97 93.3605 25.67C94.0805 24.37 95.0305 23.38 96.2105 22.7C97.3905 22 98.6505 21.65 99.9905 21.65C101.31 21.65 102.55 22.01 103.71 22.73C104.89 23.45 105.83 24.42 106.53 25.64C107.23 26.86 107.58 28.18 107.58 29.6ZM99.9905 24.95C97.6705 24.95 96.3005 26.04 95.8805 28.22H103.74V28.01C103.66 27.17 103.25 26.45 102.51 25.85C101.77 25.25 100.93 24.95 99.9905 24.95ZM114.483 36.17C114.483 36.69 114.303 37.13 113.943 37.49C113.603 37.83 113.173 38 112.653 38C112.153 38 111.733 37.83 111.393 37.49C111.053 37.13 110.883 36.69 110.883 36.17V17.63C110.883 17.11 111.053 16.68 111.393 16.34C111.753 15.98 112.193 15.8 112.713 15.8C113.213 15.8 113.633 15.98 113.973 16.34C114.313 16.68 114.483 17.11 114.483 17.63V36.17ZM122.569 36.17C122.569 36.69 122.389 37.13 122.029 37.49C121.689 37.83 121.259 38 120.739 38C120.239 38 119.819 37.83 119.479 37.49C119.139 37.13 118.969 36.69 118.969 36.17V17.63C118.969 17.11 119.139 16.68 119.479 16.34C119.839 15.98 120.279 15.8 120.799 15.8C121.299 15.8 121.719 15.98 122.059 16.34C122.399 16.68 122.569 17.11 122.569 17.63V36.17ZM130.145 36.17C130.145 36.69 129.975 37.13 129.635 37.49C129.295 37.83 128.865 38 128.345 38C127.825 38 127.395 37.83 127.055 37.49C126.715 37.13 126.545 36.69 126.545 36.17V23.78C126.545 23.26 126.715 22.83 127.055 22.49C127.395 22.13 127.825 21.95 128.345 21.95C128.865 21.95 129.295 22.13 129.635 22.49C129.975 22.83 130.145 23.26 130.145 23.78V36.17ZM128.315 20C127.635 20 127.155 19.89 126.875 19.67C126.595 19.45 126.455 19.06 126.455 18.5V17.93C126.455 17.37 126.605 16.98 126.905 16.76C127.205 16.54 127.685 16.43 128.345 16.43C129.045 16.43 129.535 16.54 129.815 16.76C130.095 16.98 130.235 17.37 130.235 17.93V18.5C130.235 19.08 130.085 19.48 129.785 19.7C129.505 19.9 129.015 20 128.315 20ZM142.425 21.65C144.465 21.65 145.875 22.26 146.655 23.48C147.435 24.68 147.825 26.35 147.825 28.49V36.17C147.825 36.69 147.655 37.13 147.315 37.49C146.975 37.83 146.545 38 146.025 38C145.505 38 145.075 37.83 144.735 37.49C144.395 37.13 144.225 36.69 144.225 36.17V28.49C144.225 27.39 143.995 26.53 143.535 25.91C143.075 25.27 142.285 24.95 141.165 24.95C140.005 24.95 139.095 25.29 138.435 25.97C137.775 26.63 137.445 27.47 137.445 28.49V36.17C137.445 36.69 137.275 37.13 136.935 37.49C136.595 37.83 136.165 38 135.645 38C135.125 38 134.695 37.83 134.355 37.49C134.015 37.13 133.845 36.69 133.845 36.17V23.78C133.845 23.26 134.015 22.83 134.355 22.49C134.695 22.13 135.125 21.95 135.645 21.95C136.165 21.95 136.595 22.13 136.935 22.49C137.275 22.83 137.445 23.26 137.445 23.78V24.29C137.985 23.57 138.685 22.95 139.545 22.43C140.425 21.91 141.385 21.65 142.425 21.65ZM165.006 21.65C165.526 21.65 165.956 21.82 166.296 22.16C166.636 22.5 166.806 22.94 166.806 23.48V36.83C166.806 39.27 166.046 41.07 164.526 42.23C163.026 43.41 161.116 44 158.796 44C158.196 44 157.366 43.9 156.306 43.7C155.266 43.5 154.526 43.3 154.086 43.1C153.106 42.68 152.616 42.1 152.616 41.36C152.616 41.22 152.646 41.06 152.706 40.88C152.826 40.44 153.026 40.1 153.306 39.86C153.606 39.64 153.926 39.53 154.266 39.53C154.466 39.53 154.656 39.56 154.836 39.62C154.916 39.64 155.406 39.82 156.306 40.16C157.226 40.52 158.056 40.7 158.796 40.7C160.276 40.7 161.376 40.4 162.096 39.8C162.836 39.22 163.206 38.39 163.206 37.31V35.87C162.766 36.49 162.096 37.05 161.196 37.55C160.316 38.05 159.366 38.3 158.346 38.3C156.946 38.3 155.666 37.95 154.506 37.25C153.366 36.53 152.466 35.54 151.806 34.28C151.146 33.02 150.816 31.59 150.816 29.99C150.816 28.39 151.136 26.96 151.776 25.7C152.436 24.42 153.326 23.43 154.446 22.73C155.586 22.01 156.846 21.65 158.226 21.65C159.246 21.65 160.196 21.86 161.076 22.28C161.956 22.7 162.666 23.21 163.206 23.81V23.48C163.206 22.96 163.376 22.53 163.716 22.19C164.056 21.83 164.486 21.65 165.006 21.65ZM158.796 35C160.136 35 161.226 34.53 162.066 33.59C162.926 32.63 163.356 31.43 163.356 29.99C163.356 28.55 162.926 27.35 162.066 26.39C161.226 25.43 160.136 24.95 158.796 24.95C157.456 24.95 156.366 25.43 155.526 26.39C154.686 27.35 154.266 28.55 154.266 29.99C154.266 31.43 154.686 32.63 155.526 33.59C156.366 34.53 157.456 35 158.796 35Z" fill="white"/>
</svg>
