<svg width="100%" height="38" viewBox="0 0 64 38" fill="none" xmlns="http://www.w3.org/2000/svg">
<path fill-rule="evenodd" clip-rule="evenodd" d="M63.4732 19.0211C63.477 15.4874 62.4782 12.0252 60.5929 9.03659C58.7075 6.04794 56.0129 3.65549 52.8222 2.13712C49.6314 0.61874 46.0753 0.0367453 42.5669 0.458733C39.0586 0.88072 35.7419 2.28937 33.0022 4.52107C35.4986 6.91485 37.3365 9.91101 38.3392 13.2211H36.7852C35.8175 10.2774 34.1314 7.62133 31.8792 5.49307C29.6418 7.62391 27.9672 10.2759 27.0052 13.2121H25.4512C26.4431 9.91774 28.2611 6.9318 30.7322 4.53807C27.9919 2.30209 24.6734 0.889326 21.1623 0.463845C17.6511 0.038363 14.0913 0.617616 10.8962 2.13434C7.70105 3.65107 5.00172 6.04304 3.11164 9.03249C1.22156 12.0219 0.218262 15.4862 0.218262 19.0231C0.218262 22.5599 1.22156 26.0242 3.11164 29.0137C5.00172 32.0031 7.70105 34.3951 10.8962 35.9118C14.0913 37.4285 17.6511 38.0078 21.1623 37.5823C24.6734 37.1568 27.9919 35.7441 30.7322 33.5081C28.2611 31.1147 26.4432 28.1291 25.4512 24.8351H27.0052C27.9672 27.7712 29.6418 30.4232 31.8792 32.5541C34.1316 30.4256 35.8178 27.7692 36.7852 24.8251H38.3382C37.3357 28.1352 35.4977 31.1314 33.0012 33.5251C35.7409 35.7568 39.0576 37.1654 42.5659 37.5874C46.0743 38.0094 49.6304 37.4274 52.8212 35.909C56.0119 34.3907 58.7065 31.9982 60.5919 29.0096C62.4772 26.0209 63.476 22.5587 63.4722 19.0251L63.4732 19.0211Z" fill="black"/>
<path fill-rule="evenodd" clip-rule="evenodd" d="M49.7342 23.4L51.0282 16.483H52.6602L52.8312 17.165C53.063 16.9265 53.3444 16.7418 53.6554 16.6239C53.9664 16.5061 54.2996 16.458 54.6312 16.483L54.1202 18.283C53.6572 18.283 52.7802 18.162 52.2202 20.232L51.6352 23.398H49.7352L49.7342 23.4ZM24.7202 14.725H26.6012L26.2152 16.558H27.2282L26.8912 18.053H25.9282L25.3972 20.853C25.2972 21.384 25.3492 21.866 26.4342 21.698L26.3132 23.098C25.8863 23.3369 25.402 23.4538 24.9132 23.436C24.4792 23.436 23.0562 23.17 23.4182 21.29L24.7182 14.731L24.7202 14.725ZM32.8712 20.32C33.0882 19.21 33.5952 16.462 30.2912 16.462C27.2522 16.462 26.8672 19.476 26.7912 19.91C26.7189 20.3547 26.7471 20.81 26.8738 21.2424C27.0005 21.6747 27.2224 22.0732 27.5233 22.4086C27.8242 22.7439 28.1964 23.0076 28.6126 23.1802C29.0288 23.3528 29.4783 23.43 29.9282 23.406C30.7449 23.456 31.5636 23.3494 32.3402 23.092L32.6282 21.672C31.926 21.7833 31.2162 21.8398 30.5052 21.841C29.7582 21.841 28.5522 21.89 28.7692 20.322H32.8692L32.8712 20.32ZM22.9362 18.102L23.3702 16.702C22.7768 16.4839 22.144 16.3936 21.5132 16.437C21.2472 16.437 18.9902 16.409 18.6432 18.077C18.3782 19.355 18.8432 19.884 19.2942 20.077C20.0182 20.391 20.4282 20.677 20.8142 20.877C20.9255 20.9311 21.015 21.0214 21.0683 21.1331C21.1215 21.2447 21.1352 21.3712 21.1072 21.4916C21.0792 21.6121 21.0112 21.7195 20.9141 21.7963C20.8171 21.873 20.6969 21.9145 20.5732 21.914C19.7416 21.9979 18.9018 21.9408 18.0892 21.745L17.8282 23.165C18.5521 23.3537 19.2997 23.4352 20.0472 23.407C20.5052 23.407 22.7472 23.528 23.0612 21.453C23.151 21.1393 23.136 20.8049 23.0185 20.5004C22.901 20.196 22.6875 19.9382 22.4102 19.766C21.9789 19.4843 21.5278 19.2343 21.0602 19.018C20.6742 18.849 20.3852 18.199 21.0842 18.006C21.7047 17.9451 22.3309 17.9788 22.9412 18.106L22.9362 18.102ZM10.7362 23.402L12.3032 15.059H9.21522L6.92822 20.127L6.56622 15.063H3.54822L1.92822 23.406H3.80922L4.96722 17.378L5.47422 23.406H7.25822L9.88722 17.522L8.77822 23.406H10.7322L10.7362 23.402ZM12.8092 16.675L12.5182 18.172C13.2931 18.0553 14.0741 17.9829 14.8572 17.955C15.5092 17.979 16.2322 17.883 16.0152 18.92C15.5332 18.969 12.1572 18.438 11.6272 21.331C11.5848 21.6059 11.6057 21.8867 11.6881 22.1523C11.7706 22.4179 11.9125 22.6611 12.1031 22.8636C12.2937 23.0661 12.528 23.2224 12.7881 23.3208C13.0482 23.4191 13.3273 23.4568 13.6042 23.431C14.1585 23.4769 14.7117 23.3319 15.1722 23.02L15.4132 23.406H17.1732L17.9212 19.644C18.1142 18.704 18.4272 16.437 15.2692 16.437C14.4427 16.438 13.6182 16.5187 12.8072 16.678L12.8092 16.675ZM43.2902 16.988C42.8559 16.725 42.3491 16.607 41.8432 16.651C41.258 16.7159 40.7123 16.9781 40.2961 17.3946C39.8798 17.811 39.6178 18.3568 39.5532 18.942C39.2392 20.942 40.6132 21.932 42.5432 21.281L43.0982 22.969C42.3791 23.2911 41.5943 23.4397 40.8072 23.403C38.8532 23.403 36.7322 21.667 37.6962 18.146C37.922 17.178 38.4598 16.3111 39.2266 15.6787C39.9935 15.0463 40.9469 14.6834 41.9402 14.646C42.427 14.6162 42.9141 14.701 43.3621 14.8936C43.8102 15.0863 44.2069 15.3813 44.5202 15.755L43.2902 16.984V16.988ZM59.3262 17.277C58.9642 17.012 58.7482 16.458 57.8552 16.458C56.8182 16.458 55.2032 16.265 54.2862 19.4C53.6732 21.5 54.9132 23.4 56.2632 23.4C56.8492 23.3641 57.415 23.1725 57.9022 22.845L58.1442 23.4H60.1682L61.8082 14.623H59.8282L59.3262 17.277ZM44.6402 16.677L44.3502 18.172C45.1251 18.0553 45.9061 17.9829 46.6892 17.955C47.3402 17.979 48.0642 17.883 47.8472 18.92C47.3652 18.969 43.9892 18.438 43.4592 21.331C43.4166 21.6059 43.4373 21.8869 43.5197 22.1525C43.6021 22.4182 43.744 22.6615 43.9347 22.864C44.1253 23.0666 44.3597 23.2229 44.6199 23.3212C44.8801 23.4194 45.1593 23.457 45.4362 23.431C45.9905 23.4768 46.5437 23.3318 47.0042 23.02L47.2452 23.406H49.0042L49.7522 19.644C49.9452 18.704 50.2582 16.437 47.0992 16.437C46.2737 16.4381 45.4502 16.5178 44.6402 16.677Z" fill="white"/>
<path fill-rule="evenodd" clip-rule="evenodd" d="M28.8914 19.065H31.2264C31.3474 18.39 31.1264 17.8111 30.3824 17.8111C30.0224 17.7969 29.67 17.9176 29.3943 18.1495C29.1185 18.3815 28.9392 18.7079 28.8914 19.065ZM15.7014 20.3191C15.4344 20.2385 15.1539 20.2119 14.8764 20.2409C14.599 20.2699 14.3301 20.354 14.0854 20.4881C13.4854 20.8981 13.3134 21.6211 13.9414 21.8631C14.2619 21.9691 14.6112 21.9446 14.9137 21.7948C15.2162 21.6451 15.4475 21.3822 15.5574 21.0631L15.7024 20.316L15.7014 20.3191ZM58.6484 20.0981C58.8259 19.541 58.7826 18.9371 58.5274 18.4111C57.9494 17.6391 56.6184 18.249 56.2124 19.762C55.9474 20.75 56.5264 21.498 57.1774 21.498C57.8774 21.498 58.3104 20.9431 58.6484 20.0981ZM47.5324 20.315C47.2654 20.2345 46.9849 20.2079 46.7074 20.2369C46.43 20.2659 46.1611 20.35 45.9164 20.484C45.3164 20.894 45.1444 21.617 45.7724 21.859C46.0927 21.965 46.4419 21.9405 46.7442 21.7907C47.0466 21.641 47.2777 21.3781 47.3874 21.0591L47.5324 20.315Z" fill="black"/>
<path fill-rule="evenodd" clip-rule="evenodd" d="M32.9243 23.4061L34.2023 16.5581H35.8183L35.9873 17.2331C36.2171 16.9968 36.496 16.8139 36.8042 16.6972C37.1125 16.5806 37.4427 16.5331 37.7713 16.5581L37.2893 18.3671C36.8323 18.3671 35.9383 18.2231 35.3893 20.2671L34.8113 23.4021H32.9243V23.4061Z" fill="white"/>
</svg>
