<svg width="100%" height="30px" viewBox="0 0 2500 2500" fill="none" xmlns="http://www.w3.org/2000/svg">
<path fill-rule="evenodd" clip-rule="evenodd" d="M1250.54 1725.51C1362.95 1829.09 1513.91 1891.91 1678.11 1891.91C2030.74 1891.91 2316.15 1604.3 2316.15 1250.54C2316.15 895.718 2030.74 608.087 1678.11 608.087C1513.91 608.087 1362.95 670.9 1250.54 774.49C1121.61 892.398 1040.06 1062.11 1040.06 1250.54C1040.07 1438.98 1121.61 1608.7 1250.54 1725.51Z" fill="#E9B040"/>
<path fill-rule="evenodd" clip-rule="evenodd" d="M2231.33 1607.59C2231.33 1596.57 2240.15 1587.76 2251.16 1587.76C2263.28 1587.76 2272.08 1596.58 2272.08 1607.59C2272.08 1619.73 2263.26 1628.54 2251.16 1628.54C2240.15 1628.54 2231.33 1619.73 2231.33 1607.59ZM2251.16 1624.14C2259.98 1624.14 2267.67 1616.41 2267.67 1607.6C2267.67 1598.8 2259.97 1592.18 2251.16 1592.18C2243.43 1592.18 2235.74 1598.8 2235.74 1607.6C2235.74 1616.41 2243.45 1624.14 2251.16 1624.14ZM2248.96 1617.52H2244.55V1598.78H2252.25C2253.37 1598.78 2255.57 1598.78 2256.66 1599.9C2258.87 1600.99 2258.87 1602.1 2258.87 1604.31C2258.87 1606.51 2257.78 1608.72 2255.57 1608.72L2259.98 1617.54H2254.46L2252.25 1609.81H2248.96V1617.52V1606.5H2253.37C2254.46 1606.5 2254.46 1605.38 2254.46 1604.3C2254.46 1603.18 2254.46 1603.18 2253.37 1602.09H2248.96V1617.52Z" fill="#E9B040"/>
<path fill-rule="evenodd" clip-rule="evenodd" d="M1456.62 1182.23C1454.42 1159.09 1450.01 1137.06 1445.6 1113.91H1055.49C1059.9 1090.77 1066.52 1068.73 1073.12 1046.69H1426.87C1419.19 1023.49 1410.36 1000.68 1400.42 978.361H1100.68C1111.7 955.019 1123.84 932.218 1137.05 910.037H1362.97C1348.43 886.501 1332.23 864.037 1314.49 842.814H1185.54C1205.49 818.456 1227.22 795.618 1250.56 774.49C1137.06 672.002 987.181 608.087 821.881 608.087C470.349 608.087 183.833 895.718 183.833 1250.54C183.833 1604.3 470.349 1891.91 821.881 1891.91C987.181 1891.91 1137.05 1829.09 1250.56 1725.51C1273.54 1704.75 1294.91 1682.27 1314.49 1658.28H1185.54C1167.9 1636.24 1152.48 1614.2 1137.05 1589.95H1362.97C1377.17 1568.16 1389.7 1545.32 1400.44 1521.63H1100.68C1090.76 1499.59 1080.85 1477.55 1073.12 1454.39H1426.87C1434.57 1432.35 1440.1 1409.23 1445.58 1386.07C1449.99 1364.03 1454.4 1340.91 1456.61 1317.74C1458.84 1295.4 1459.95 1272.96 1459.93 1250.51C1459.93 1227.41 1458.83 1204.27 1456.62 1182.23Z" fill="#CC2131"/>
<path fill-rule="evenodd" clip-rule="evenodd" d="M2231.33 1399.32C2231.33 1387.21 2240.15 1378.4 2251.16 1378.4C2263.28 1378.4 2272.08 1387.22 2272.08 1399.32C2272.08 1410.34 2263.26 1420.27 2251.16 1420.27C2240.15 1420.27 2231.33 1410.33 2231.33 1399.32ZM2251.16 1414.74C2259.98 1414.74 2267.67 1408.13 2267.67 1399.32C2267.67 1390.51 2259.97 1383.9 2251.16 1383.9C2243.43 1383.9 2235.74 1390.51 2235.74 1399.32C2235.74 1408.13 2243.45 1414.74 2251.16 1414.74ZM2248.96 1408.13H2244.55V1390.5H2256.66C2258.87 1391.62 2258.87 1393.82 2258.87 1396.03C2258.87 1397.12 2257.78 1399.32 2255.57 1400.44L2259.98 1408.14H2254.46L2252.25 1401.53H2248.96V1408.13V1398.22H2251.16C2252.25 1398.22 2253.37 1398.22 2253.37 1397.1C2254.46 1397.1 2254.46 1396.01 2254.46 1394.9C2254.46 1394.9 2254.46 1393.81 2253.37 1393.81C2253.37 1392.69 2252.25 1393.81 2251.16 1393.81H2248.96V1408.13Z" fill="white"/>
<path fill-rule="evenodd" clip-rule="evenodd" d="M1033.46 1435.69C1012.52 1441.19 997.09 1444.51 981.669 1444.51C948.609 1444.51 928.765 1423.56 928.765 1386.09C928.765 1378.39 929.867 1370.67 930.97 1361.85L935.379 1336.52L938.687 1315.58L968.439 1134.85H1034.56L1026.84 1174.53H1068.72L1058.8 1240.65H1016.92L999.294 1348.64C998.192 1354.16 998.192 1357.45 998.192 1359.66C998.192 1373.99 1004.81 1379.49 1021.33 1379.49C1029.05 1379.49 1035.65 1378.4 1042.26 1377.29L1033.46 1435.69ZM1247.25 1433.48C1223.01 1440.1 1200.97 1443.39 1176.72 1443.39C1101.78 1443.39 1058.8 1403.72 1058.8 1325.5C1058.8 1234.02 1109.5 1167.9 1180.02 1167.9C1236.21 1167.9 1272.58 1205.37 1272.58 1263.76C1272.58 1283.62 1270.38 1302.35 1264.88 1328.79H1127.12C1126.02 1333.2 1126.02 1335.41 1126.02 1337.61C1126.02 1368.47 1146.96 1383.89 1186.63 1383.89C1211.97 1383.89 1234.01 1378.39 1258.26 1367.38L1247.25 1433.48ZM1206.47 1275.9V1262.67C1206.47 1240.64 1194.35 1228.51 1173.41 1228.51C1151.36 1228.51 1135.94 1245.03 1129.33 1275.89L1206.47 1275.9ZM504.498 1438.98H436.173L475.848 1188.85L386.59 1438.98H339.211L333.699 1189.95L291.82 1438.98H224.597L278.591 1113.91H378.873L381.078 1314.49L448.3 1113.91H558.504L504.498 1438.98ZM670.913 1321.09C664.298 1319.97 662.093 1319.97 657.684 1319.97C618.009 1319.97 598.179 1335.39 598.179 1359.65C598.179 1376.18 608.1 1387.21 623.521 1387.21C656.581 1387.21 669.798 1359.65 670.913 1321.09ZM726.009 1438.98H666.503L667.606 1411.45C652.172 1432.37 631.238 1443.39 594.871 1443.39C561.811 1443.39 533.161 1413.65 533.161 1370.67C533.161 1358.56 535.366 1347.55 538.673 1336.52C549.685 1295.73 590.462 1270.4 653.274 1269.29C660.991 1269.29 673.105 1269.29 684.129 1270.4C686.321 1261.58 686.321 1258.26 686.321 1252.76C686.321 1235.12 672.002 1229.61 640.045 1229.61C620.214 1229.61 598.166 1232.92 582.744 1238.43L572.823 1240.64L568.413 1241.73L578.335 1182.22C610.292 1172.3 633.43 1167.9 658.786 1167.9C718.291 1167.9 750.249 1195.45 750.249 1246.13C750.249 1259.36 751.351 1269.29 746.942 1297.94L731.521 1392.71L729.316 1409.24L728.213 1422.47L727.111 1431.29L726.009 1438.98ZM1580.05 1176.72C1599.89 1176.72 1617.52 1182.23 1641.76 1194.35L1653.88 1123.82C1647.26 1120.51 1645.06 1120.51 1636.25 1117.2L1608.72 1109.49C1599.9 1107.28 1588.89 1106.18 1576.75 1106.18C1542.57 1106.18 1522.74 1107.28 1501.82 1119.41C1490.8 1127.12 1476.47 1137.05 1461.03 1154.67L1452.21 1152.47L1381.68 1202.05L1385 1174.5H1312.25L1269.3 1438.97H1338.74L1364.07 1296.83C1364.07 1296.83 1374 1276.98 1378.4 1270.39C1391.63 1253.85 1402.64 1253.85 1416.96 1253.85H1422.48C1420.17 1270.65 1419.06 1287.58 1419.16 1304.54C1419.16 1390.49 1467.65 1444.49 1542.58 1444.49C1561.33 1444.49 1577.88 1442.29 1603.21 1435.68L1615.35 1360.75C1593.31 1372.86 1573.47 1378.37 1556.93 1378.37C1516.17 1378.37 1491.9 1347.52 1491.9 1299.04C1491.87 1227.41 1528.25 1176.72 1580.05 1176.72ZM2165.19 1113.91L2149.78 1206.47C2133.24 1181.13 2113.4 1169 2086.95 1169C2050.57 1169 2016.42 1189.94 1995.48 1229.61V1228.52L1951.4 1202.06L1955.81 1174.52H1881.98L1840.1 1438.98H1908.42L1931.57 1296.85C1931.57 1296.85 1949.2 1276.99 1953.61 1270.4C1964.63 1257.17 1975.65 1254.95 1984.46 1253.86C1976.76 1275.9 1972.35 1302.35 1972.35 1332.11C1972.35 1398.23 2006.5 1442.3 2057.19 1442.3C2082.54 1442.3 2102.37 1433.48 2121.1 1412.54L2117.81 1438.98H2182.84L2235.73 1113.91H2165.19ZM2080.35 1376.18C2057.2 1376.18 2045.09 1358.56 2045.09 1324.38C2045.09 1272.58 2067.12 1235.12 2099.07 1235.12C2123.31 1235.12 2135.45 1253.86 2135.45 1286.92C2135.45 1339.82 2113.41 1376.18 2080.35 1376.18ZM1761.89 1321.09C1755.28 1319.97 1753.07 1319.97 1748.66 1319.97C1708.96 1319.97 1689.13 1335.39 1689.13 1359.65C1689.13 1376.18 1699.07 1387.21 1714.49 1387.21C1747.55 1387.21 1760.78 1359.65 1761.89 1321.09ZM1816.99 1438.98H1756.37L1758.57 1411.45C1743.15 1432.37 1722.19 1443.39 1685.85 1443.39C1651.67 1443.39 1621.93 1414.74 1621.93 1370.67C1621.93 1307.87 1669.3 1269.3 1744.24 1269.3C1751.97 1269.3 1764.07 1269.3 1774 1270.41C1776.21 1261.59 1777.32 1258.27 1777.32 1252.78C1777.32 1235.14 1762.99 1229.62 1729.93 1229.62C1711.19 1229.62 1688.05 1232.93 1672.63 1238.44L1663.81 1240.65L1659.4 1241.74L1669.31 1182.23C1701.28 1172.31 1724.43 1167.91 1749.76 1167.91C1809.27 1167.91 1840.12 1195.46 1840.12 1246.15C1840.12 1259.38 1842.33 1269.3 1836.83 1297.95L1822.5 1392.72L1820.29 1409.26L1818.09 1422.48L1817 1431.3V1438.98H1816.99ZM870.362 1230.71C883.591 1230.71 902.319 1231.82 922.163 1235.12L932.085 1173.41C912.241 1171.21 885.796 1167.9 870.362 1167.9C793.231 1167.9 767.888 1209.78 767.888 1258.26C767.888 1290.23 782.207 1313.36 819.676 1330.98C847.224 1344.21 851.634 1346.4 851.634 1358.54C851.634 1375.05 837.315 1384.99 810.857 1384.99C789.924 1384.99 770.08 1381.67 748.044 1373.96L740.327 1434.56L741.417 1435.68L754.646 1437.88C759.056 1438.97 764.568 1440.08 772.285 1441.17C788.808 1442.29 803.14 1443.38 811.959 1443.38C889.103 1443.38 921.061 1413.64 921.061 1355.22C921.061 1318.87 903.422 1296.83 869.26 1281.41C839.507 1268.17 836.2 1265.99 836.2 1253.85C836.2 1241.74 849.429 1230.71 870.362 1230.71Z" fill="#1B3771"/>
<path fill-rule="evenodd" clip-rule="evenodd" d="M1672.62 1102.88L1660.48 1173.41C1636.24 1161.29 1618.6 1155.79 1598.77 1155.79C1546.97 1155.79 1510.61 1206.47 1510.61 1278.11C1510.61 1327.7 1534.85 1357.44 1575.64 1357.44C1592.16 1357.44 1612 1351.94 1634.03 1340.93L1621.92 1414.74C1596.57 1421.36 1580.04 1424.68 1561.3 1424.68C1486.37 1424.68 1440.08 1370.67 1440.08 1283.63C1440.08 1167.91 1504 1086.36 1595.46 1086.36C1607.58 1086.36 1618.59 1087.46 1627.41 1089.67L1654.97 1096.28C1663.8 1099.59 1666.01 1100.69 1672.62 1102.88ZM1450.01 1151.38H1443.39C1420.27 1151.38 1407.04 1162.4 1386.09 1194.35L1392.71 1153.57H1329.88L1286.92 1418.05H1356.37C1381.7 1256.06 1388.31 1228.51 1421.37 1228.51H1425.78C1432.39 1196.55 1441.2 1173.4 1452.22 1152.47L1450.01 1151.38ZM1051.1 1414.74C1032.37 1421.36 1016.93 1423.56 1001.51 1423.56C966.247 1423.56 946.404 1403.73 946.404 1365.17C946.404 1358.56 947.506 1349.75 948.609 1342.02L953.018 1315.57L956.326 1294.65L986.078 1113.91H1054.4L1046.69 1153.58H1081.95L1073.13 1218.6H1037.87L1019.14 1328.8C1018.04 1333.21 1018.04 1336.53 1018.04 1339.83C1018.04 1353.06 1024.65 1358.57 1041.17 1358.57C1048.89 1358.57 1055.49 1358.57 1059.9 1356.36L1051.1 1414.74ZM785.514 1237.33C785.514 1270.4 800.935 1293.53 837.302 1311.17C865.952 1324.39 870.362 1328.79 870.362 1339.82C870.362 1356.35 858.235 1364.06 830.687 1364.06C809.754 1364.06 791.013 1360.76 768.977 1354.15L759.056 1414.74L762.363 1415.86L774.49 1418.06C778.886 1419.15 784.411 1420.27 793.218 1420.27C808.639 1422.47 821.868 1422.47 830.687 1422.47C903.409 1422.47 937.584 1394.91 937.584 1334.32C937.584 1297.94 923.266 1276.99 889.103 1260.48C859.351 1247.25 856.043 1243.96 856.043 1231.83C856.043 1217.51 868.17 1210.9 890.206 1210.9C903.435 1210.9 922.163 1212 939.802 1214.2L949.711 1153.6C932.085 1150.29 904.537 1148.08 889.103 1148.08C811.959 1148.07 784.411 1188.85 785.514 1237.33ZM2200.48 1418.06H2135.45L2138.77 1392.71C2120.02 1412.54 2100.18 1421.36 2074.83 1421.36C2024.14 1421.36 1991.08 1378.4 1991.08 1312.28C1991.08 1224.11 2042.88 1149.17 2103.48 1149.17C2131.04 1149.17 2150.87 1161.3 2169.62 1185.54L2185.04 1092.97H2253.37L2200.48 1418.06ZM2099.08 1356.35C2131.05 1356.35 2153.08 1318.88 2153.08 1267.08C2153.08 1232.92 2140.94 1215.28 2116.7 1215.28C2085.85 1215.28 2062.72 1251.65 2062.72 1303.45C2062.72 1338.73 2074.84 1356.35 2099.08 1356.35ZM1262.67 1412.54C1238.42 1420.27 1216.38 1423.56 1191.04 1423.56C1113.9 1423.56 1074.22 1382.8 1074.22 1304.55C1074.22 1214.19 1124.92 1146.97 1194.35 1146.97C1251.65 1146.97 1288 1184.44 1288 1242.84C1288 1262.68 1285.8 1281.43 1279.18 1308.96H1142.56C1141.46 1312.28 1141.46 1314.49 1141.46 1316.69C1141.46 1347.55 1162.4 1362.97 1202.06 1362.97C1227.41 1362.97 1249.44 1358.56 1273.7 1346.43L1262.67 1412.54ZM1224.1 1254.95V1241.74C1224.1 1219.7 1211.97 1207.58 1191.04 1207.58C1169 1207.58 1153.57 1224.11 1146.96 1254.95H1224.1ZM522.137 1418.06H453.812L493.487 1167.9L404.229 1418.06H356.837L351.325 1170.11L309.459 1418.06H245.544L299.537 1092.97H398.717L402.024 1294.64L468.131 1092.97H576.13L522.137 1418.06ZM692.949 1300.14C686.334 1300.14 683.027 1299.05 677.515 1299.05C638.942 1299.05 619.112 1313.37 619.112 1339.82C619.112 1356.35 627.931 1366.26 643.352 1366.26C672.002 1366.26 691.846 1339.82 692.949 1300.14ZM743.634 1418.06H686.321L687.423 1390.5C669.785 1412.54 646.647 1422.47 614.689 1422.47C577.219 1422.47 551.876 1393.82 551.876 1350.84C551.876 1285.84 595.948 1248.37 673.092 1248.37C680.809 1248.37 690.731 1249.47 701.742 1250.56C703.947 1241.75 703.947 1238.44 703.947 1234.03C703.947 1216.41 691.82 1209.79 659.863 1209.79C640.032 1209.79 617.983 1212 602.562 1216.41L592.64 1219.72L586.026 1220.82L595.948 1161.31C630.11 1151.39 653.248 1148.08 678.604 1148.08C738.109 1148.08 770.067 1174.53 770.067 1225.21C770.067 1238.44 768.964 1248.37 764.555 1278.12L749.121 1371.8L746.916 1388.31L745.813 1401.54L744.711 1411.47L743.634 1418.06ZM1783.93 1300.14C1776.2 1300.14 1772.9 1299.05 1768.51 1299.05C1728.83 1299.05 1708.97 1313.37 1708.97 1339.82C1708.97 1356.35 1718.91 1366.26 1734.33 1366.26C1761.89 1366.26 1782.81 1339.82 1783.93 1300.14ZM1834.61 1418.06H1777.31L1778.4 1390.5C1760.78 1412.54 1737.64 1422.47 1705.68 1422.47C1668.21 1422.47 1642.85 1393.82 1642.85 1350.84C1642.85 1285.84 1686.93 1248.37 1764.07 1248.37C1771.8 1248.37 1781.72 1249.47 1791.63 1250.56C1793.84 1241.75 1794.95 1238.44 1794.95 1234.03C1794.95 1216.41 1782.81 1209.79 1750.88 1209.79C1731.02 1209.79 1707.9 1212 1692.46 1216.41L1683.64 1219.72L1677.03 1220.82L1686.94 1161.31C1721.11 1151.39 1744.24 1148.08 1769.59 1148.08C1829.1 1148.08 1859.96 1174.53 1859.96 1225.21C1859.96 1238.44 1859.96 1248.37 1854.46 1278.12L1840.12 1371.8L1837.92 1388.31L1835.71 1401.54L1834.63 1411.47L1834.61 1418.06ZM2019.74 1151.38H2013.13C1990 1151.38 1976.77 1162.4 1955.83 1194.35L1962.44 1153.57H1899.62L1857.74 1418.05H1926.06C1951.42 1256.06 1958.03 1228.51 1991.09 1228.51H1995.5C2002.12 1196.55 2010.92 1173.4 2021.95 1152.47L2019.74 1151.38Z" fill="white"/>
</svg>
