<svg width="100%" height="auto" viewBox="0 0 320 320" fill="none" xmlns="http://www.w3.org/2000/svg">
<circle cx="159.998" cy="160" r="160" fill="#1C1C1C"/>
<mask id="mask0_169_1117" style="mask-type:luminance" maskUnits="userSpaceOnUse" x="-1" y="0" width="321" height="320">
<circle cx="159.998" cy="160" r="159.35" fill="white" stroke="white" stroke-width="1.3"/>
</mask>
<g mask="url(#mask0_169_1117)">
<mask id="path-3-inside-1_169_1117" fill="white">
<path fill-rule="evenodd" clip-rule="evenodd" d="M153.14 243.253C194.798 243.253 228.568 209.482 228.568 167.824C228.568 126.166 194.798 92.3958 153.14 92.3958C111.481 92.3958 77.7109 126.166 77.7109 167.824C77.7109 188.431 85.9742 207.108 99.368 220.721L95.9958 240.858L114.813 232.804C126.044 239.443 139.147 243.253 153.14 243.253Z"/>
</mask>
<path fill-rule="evenodd" clip-rule="evenodd" d="M153.14 243.253C194.798 243.253 228.568 209.482 228.568 167.824C228.568 126.166 194.798 92.3958 153.14 92.3958C111.481 92.3958 77.7109 126.166 77.7109 167.824C77.7109 188.431 85.9742 207.108 99.368 220.721L95.9958 240.858L114.813 232.804C126.044 239.443 139.147 243.253 153.14 243.253Z" fill="#FFED4E"/>
<path d="M99.368 220.721L101.341 221.052L101.509 220.046L100.794 219.319L99.368 220.721ZM95.9958 240.858L94.0233 240.528L93.4189 244.137L96.7829 242.697L95.9958 240.858ZM114.813 232.804L115.83 231.082L114.958 230.566L114.026 230.965L114.813 232.804ZM226.568 167.824C226.568 208.378 193.693 241.253 153.14 241.253V245.253C195.902 245.253 230.568 210.587 230.568 167.824H226.568ZM153.14 94.3958C193.693 94.3958 226.568 127.271 226.568 167.824H230.568C230.568 125.062 195.902 90.3958 153.14 90.3958V94.3958ZM79.7109 167.824C79.7109 127.271 112.586 94.3958 153.14 94.3958V90.3958C110.377 90.3958 75.7109 125.062 75.7109 167.824H79.7109ZM100.794 219.319C87.753 206.064 79.7109 187.885 79.7109 167.824H75.7109C75.7109 188.977 84.1955 208.151 97.9423 222.124L100.794 219.319ZM97.3955 220.391L94.0233 240.528L97.9684 241.189L101.341 221.052L97.3955 220.391ZM96.7829 242.697L115.6 234.642L114.026 230.965L95.2088 239.02L96.7829 242.697ZM153.14 241.253C139.515 241.253 126.762 237.544 115.83 231.082L113.795 234.525C125.326 241.342 138.779 245.253 153.14 245.253V241.253Z" fill="black" mask="url(#path-3-inside-1_169_1117)"/>
<path d="M122.283 140.396H148.568" stroke="black" stroke-width="4" stroke-linecap="round"/>
<path d="M122.283 164.396H190.854" stroke="black" stroke-width="4" stroke-linecap="round"/>
<path d="M122.283 187.253H190.854" stroke="black" stroke-width="4" stroke-linecap="round"/>
<circle cx="264.568" cy="56.3958" r="67.1429" stroke="#FFED4E" stroke-width="4"/>
<path d="M231.997 45.2886L258.031 77.5386L308.568 28.3958" stroke="#FFED4E" stroke-width="4" stroke-linecap="round"/>
<path fill-rule="evenodd" clip-rule="evenodd" d="M270.607 269.434C264.702 267.155 259.148 264.201 253.714 261.038C253.782 260.611 254.076 260.952 254.226 260.788C254.313 260.541 253.718 260.332 254.196 259.98C254.635 259.656 255 259.789 255.38 259.951C257.379 260.805 259.127 262.148 261.217 262.86C261.932 263.103 262.784 263.158 263.39 263.869C263.763 264.307 264.583 264.117 265.17 264.479C265.537 264.706 266.03 264.804 266.445 265.056C268.094 266.059 269.898 266.556 271.829 266.562C272.177 266.564 272.503 266.677 272.544 266.996C272.656 267.864 273.1 268.695 272.419 269.622C271.925 270.295 271.429 270.4 270.745 270.288C269.096 270.019 267.597 269.316 266.101 268.628C264.351 267.823 262.666 266.881 260.947 266.016C258.635 264.852 256.429 263.513 254.173 262.258C253.958 262.139 253.529 262.046 253.684 261.724C253.8 261.482 254.152 261.692 254.365 261.804C255.707 262.506 257.012 263.271 258.308 264.059C259.551 264.814 260.891 265.418 262.218 266.02C264.364 266.994 266.454 268.093 268.653 268.949C269.279 269.193 269.914 269.433 270.607 269.434Z" fill="white"/>
<path fill-rule="evenodd" clip-rule="evenodd" d="M295.357 271.564C295.833 272.053 295.207 272.499 295.089 272.679C294.769 273.166 295.211 273.84 294.798 274.057C294.172 274.387 293.675 275.017 292.78 274.861C291.047 274.559 289.391 274.01 287.717 273.511C286.503 273.15 285.28 272.813 284.146 272.224C283.641 271.962 283.187 271.648 282.898 271.148C282.601 270.636 282.538 270.167 282.931 269.609C283.221 269.196 283.389 268.683 283.739 268.293C284.072 267.922 284.429 267.618 284.964 267.968C285.34 268.213 285.793 268.119 286.204 268.221C287.857 268.632 289.6 268.683 291.165 269.446C292.326 270.012 293.554 270.396 294.775 270.801C295.124 270.917 295.543 271.022 295.357 271.564Z" fill="white"/>
<path fill-rule="evenodd" clip-rule="evenodd" d="M280.196 239.347C280.489 239.445 280.677 239.508 280.858 239.568C280.969 239.465 280.89 239.387 280.855 239.298C280.785 239.116 280.42 239.086 280.541 238.845C280.689 238.554 280.93 238.887 281.133 238.847C281.175 238.54 280.796 238.495 280.762 238.251C281.31 237.816 281.799 237.97 282.357 238.274C283.872 239.099 285.447 239.788 287.138 240.193C287.776 240.345 288.154 241.108 288.873 241.055C289.785 240.988 290.616 241.337 291.312 241.753C292.515 242.47 293.854 242.52 295.122 242.894C295.479 242.999 295.885 242.77 296.199 243.082C296.3 243.183 296.524 243.336 296.356 243.424C295.782 243.727 296.115 244.178 296.054 244.583C295.94 245.336 295.233 245.549 294.606 245.682C293.618 245.89 292.624 245.694 291.694 245.373C288.136 244.146 284.692 242.654 281.46 240.708C280.968 240.412 280.362 240.162 280.196 239.347Z" fill="white"/>
<path fill-rule="evenodd" clip-rule="evenodd" d="M267.635 250.923C268.182 251.043 268.753 251.154 269.318 251.293C272.897 252.176 276.349 253.434 279.756 254.828C281.062 255.363 282.327 256.002 283.701 256.37C284.095 256.475 284.419 256.7 284.058 257.193C283.973 257.308 283.945 257.471 283.908 257.617C283.665 258.59 282.979 259.026 281.973 258.824C280.94 258.618 280.008 258.142 279.075 257.684C275.129 255.747 271.126 253.952 266.901 252.694C266.366 252.534 266.361 252.474 266.718 252.071C266.757 252.027 266.78 251.943 266.77 251.886C266.643 251.209 267.138 251.099 267.635 250.923Z" fill="white"/>
<path fill-rule="evenodd" clip-rule="evenodd" d="M308.73 270.204C310.328 270.683 311.603 271.592 313.053 272.055C314.519 272.523 315.946 273.122 317.485 273.357C316.228 272.924 314.969 272.494 313.713 272.057C312.272 271.555 310.912 270.874 309.542 270.208C308.854 269.874 308.845 269.426 309.16 268.945C309.468 268.476 310.048 268.33 310.498 268.701C311.413 269.457 312.526 269.825 313.604 270.031C315.482 270.388 317.265 271.161 319.2 271.261C319.646 271.284 320.051 271.566 320.547 271.585C321.105 271.605 321.58 271.589 322.068 271.267C322.351 271.08 322.706 270.652 323.072 270.967C323.372 271.225 323.611 271.622 323.408 272.119C323.331 272.308 323.418 272.566 323.431 272.792C323.513 274.116 322.727 274.977 321.377 274.908C319.567 274.814 317.833 274.303 316.116 273.752C313.867 273.03 311.652 272.224 309.596 271.034C309.293 270.859 308.963 270.719 308.73 270.204Z" fill="white"/>
<path fill-rule="evenodd" clip-rule="evenodd" d="M322.134 232.61C322.301 234.398 321.569 235.011 320.029 234.547C318.825 234.185 317.793 233.472 316.762 232.786C314.356 231.187 312.006 229.507 309.751 227.695C309.199 227.252 308.962 226.673 308.716 226.078C308.63 225.87 308.456 225.406 308.644 225.407C309.029 225.408 309.338 224.993 309.778 225.298C311.745 226.661 313.823 227.846 315.868 229.085C316.77 229.631 317.63 230.248 318.545 230.769C319.164 231.122 319.831 231.479 320.572 230.991C320.661 230.932 320.908 230.935 320.926 230.977C321.229 231.661 322.022 232.016 322.134 232.61Z" fill="white"/>
<path fill-rule="evenodd" clip-rule="evenodd" d="M279.915 218.199C278.796 217.379 277.487 216.928 276.376 216.12C276.049 215.882 275.756 215.588 275.407 215.391C274.83 215.066 275.206 214.64 275.352 214.375C275.494 214.117 275.867 213.967 276.255 214.192C277.838 215.109 279.542 215.805 281.261 216.362C282.487 216.76 283.598 217.507 284.985 217.553C285.51 217.57 286.142 217.867 286.741 218.009C287.543 218.197 286.951 218.798 286.963 219.217C286.965 219.283 286.777 219.36 286.784 219.42C286.812 219.676 287.479 219.765 287.055 220.108C286.479 220.574 285.941 221.065 285.005 220.866C283.52 220.551 282.153 219.98 280.803 219.34C278.974 218.473 277.091 217.692 275.522 216.36C275.407 216.261 275.282 216.173 275.174 216.066C275.064 215.957 274.963 215.804 275.073 215.664C275.213 215.487 275.41 215.555 275.54 215.686C276.679 216.835 278.209 217.315 279.581 218.065C279.685 218.122 279.803 218.154 279.915 218.199Z" fill="white"/>
<path fill-rule="evenodd" clip-rule="evenodd" d="M308.464 246.481C308.065 246.131 307.7 245.728 307.259 245.446C306.743 245.116 306.598 244.709 306.757 244.16C306.851 243.834 307.187 243.869 307.4 243.88C307.949 243.906 308.396 244.187 308.638 244.691C308.696 244.812 308.62 245.009 308.846 244.987C309.949 244.879 310.63 245.791 311.554 246.123C311.837 246.225 312.117 246.438 312.411 246.579C313.27 246.991 314.19 247.307 314.6 248.315C314.696 248.549 314.948 248.912 315.303 248.746C316.385 248.241 317.208 248.954 318.08 249.32C319.514 249.921 320.856 250.73 322.318 251.275C322.483 251.336 322.712 251.362 322.678 251.587C322.636 251.868 322.357 251.528 322.232 251.732C322.447 252.057 322.968 252.311 322.432 252.843C322.241 253.034 322.616 253.25 322.848 253.352C323.024 253.429 323.191 253.516 323.088 253.738C322.963 254.007 322.787 253.802 322.644 253.748C320.036 252.764 317.575 251.475 315.143 250.125C313.001 248.937 310.859 247.749 308.718 246.561C308.634 246.535 308.549 246.508 308.464 246.481Z" fill="white"/>
<path fill-rule="evenodd" clip-rule="evenodd" d="M298.346 233.963C296.956 233.241 295.567 232.513 294.229 231.691C295.137 232.688 297.13 233.805 298.346 233.963ZM300.176 232.117C300.278 232.373 299.299 231.789 299.929 232.453C299.946 232.47 299.973 232.506 299.967 232.515C299.645 233.023 299.705 233.438 300.195 233.828C300.324 233.93 299.42 234.905 299.13 234.952C298.693 235.023 298.265 234.951 297.861 234.794C295.579 233.908 293.624 232.543 291.975 230.739C291.166 229.856 291.149 228.849 291.588 227.802C291.824 227.239 292.169 227.209 292.641 227.613C293.138 228.038 293.659 228.438 294.197 228.81C294.817 229.239 295.487 229.584 296.084 230.065C296.868 230.696 297.908 230.84 298.808 231.268C299.305 231.504 299.806 231.707 300.176 232.117Z" fill="white"/>
<path fill-rule="evenodd" clip-rule="evenodd" d="M299.368 209.814C299.759 209.889 299.994 209.935 300.352 210.004C300.205 209.846 300.155 209.747 300.08 209.722C299.477 209.524 299.583 209.045 299.735 208.66C299.898 208.249 300.341 208.103 300.746 208.223C301.407 208.419 302.066 208.655 302.683 208.96C303.535 209.382 304.365 209.872 305.276 210.128C306.226 210.395 307.168 210.827 308.225 210.503C308.724 210.35 309.063 210.747 308.899 211.231C308.81 211.495 308.844 211.721 308.88 211.969C309.11 213.544 308.066 214.468 306.497 213.997C304.285 213.334 302.352 212.107 300.463 210.818C300.102 210.571 299.638 210.422 299.368 209.814Z" fill="white"/>
<path fill-rule="evenodd" clip-rule="evenodd" d="M298.199 255.915C298.099 256.09 298.086 256.184 298.266 256.239C298.925 256.439 299.606 256.593 300.227 256.877C300.603 257.049 301.332 256.935 301.193 257.743C301.171 257.871 301.327 257.831 301.411 257.765C301.607 257.613 301.768 257.68 301.957 257.808C302.28 258.025 302.618 258.061 303.022 257.958C303.769 257.767 304.188 258.259 303.944 258.982C303.914 259.069 303.802 259.228 303.855 259.231C305.106 259.29 303.533 260.115 304.157 260.331C304.006 260.553 303.799 260.67 303.533 260.719C302.924 260.831 302.381 260.629 301.845 260.393C299.811 259.498 298.122 258.1 296.471 256.658C296.073 256.311 295.999 255.738 295.806 255.257C295.693 254.975 295.917 254.781 296.136 254.649C296.437 254.468 296.486 254.631 296.426 254.897C296.995 254.877 297.421 255.209 297.88 255.472C298.081 255.587 298.318 255.652 298.199 255.915Z" fill="white"/>
<path fill-rule="evenodd" clip-rule="evenodd" d="M265.009 236.313C264.969 236.38 264.929 236.446 264.889 236.513C265.49 236.817 266.089 237.124 266.695 237.419C266.765 237.453 266.893 237.521 266.955 237.393C266.997 237.305 266.998 237.159 266.889 237.14C266.194 237.023 265.702 236.428 265.009 236.313ZM272.143 238.295C272.484 238.486 273.016 238.276 273.126 238.969C273.207 239.47 272.954 239.402 272.695 239.427C272.775 239.857 273.274 239.634 273.412 240.008C272.731 240.233 272.039 240.039 271.373 240.134C271.353 240.132 271.331 240.131 271.307 240.131C270.794 239.637 270.09 239.579 269.468 239.337C269.211 239.237 268.914 239.222 268.677 239.092C266.772 238.046 264.745 237.241 262.886 236.096C261.429 235.199 259.896 234.428 258.482 233.456C258.157 233.232 257.806 233.041 257.439 232.53C258.235 232.875 258.84 233.138 259.445 233.401C259.422 233.395 259.398 233.391 259.373 233.387C260.116 234.161 261.171 234.404 262.004 235.048C262.188 234.783 261.964 234.73 261.929 234.615C261.868 234.417 261.982 234.281 262.148 234.186C262.23 234.14 262.347 234.051 262.395 234.184C262.607 234.77 263.092 234.578 263.489 234.558C263.928 234.536 264.191 234.751 264.419 235.074C264.77 235.572 265.227 235.844 265.859 235.727C266.004 235.806 266.15 235.885 266.295 235.965C266.633 236.513 268.086 237.206 268.661 237.092C268.709 237.419 269.344 237.489 269.046 237.968C268.69 238.136 268.523 238.228 269.014 238.528C269.634 238.908 270.415 238.763 270.982 239.238C271.066 239.308 271.179 239.292 271.234 239.179C271.306 239.032 271.231 238.909 271.093 238.901C270.494 238.865 270.035 238.434 269.46 238.345C269.218 238.307 269.005 238.263 269.022 237.949C270.097 237.657 270.923 238.427 271.883 238.627C272.011 238.653 271.722 239.148 272.122 238.94C272.317 238.839 272.388 238.521 272.143 238.295Z" fill="white"/>
<path fill-rule="evenodd" clip-rule="evenodd" d="M320.963 216.265C321.402 216.379 321.774 216.223 322.129 216.052C322.316 215.962 322.458 215.894 322.561 216.118C322.654 216.323 322.518 216.467 322.363 216.558C321.97 216.789 321.506 216.785 321.102 216.709C319.562 216.418 318.183 215.728 316.901 214.838C316.52 214.574 316.168 214.251 315.755 214.055C315.005 213.699 314.734 212.997 314.444 212.331C314.308 212.019 314.733 211.917 314.959 211.829C315.088 211.779 315.355 211.852 315.443 211.963C316.3 213.034 317.711 213.085 318.787 213.765C319.141 213.989 319.799 213.808 320.269 214.097C320.64 214.324 321.086 214.424 321.298 214.893C321.419 215.164 321.759 214.917 321.985 215.023C322.101 215.078 322.237 215.105 322.268 215.241C322.299 215.377 322.198 215.562 322.108 215.545C321.501 215.435 321.417 216.147 320.963 216.265Z" fill="white"/>
<path fill-rule="evenodd" clip-rule="evenodd" d="M308.464 246.48C308.549 246.507 308.634 246.534 308.718 246.561C309.698 247.48 310.843 248.188 311.979 248.873C313.543 249.815 315.179 250.646 316.826 251.439C318.219 252.11 319.5 253.014 321.021 253.433C321.638 253.603 322.218 253.927 322.687 254.545C321.805 254.786 321.176 254.269 320.512 254C318.764 253.292 317.133 252.342 315.498 251.411C312.549 249.73 309.517 248.177 306.891 245.982C306.741 245.857 306.542 245.764 306.612 245.421C307.358 245.569 307.805 246.229 308.464 246.48Z" fill="white"/>
<path fill-rule="evenodd" clip-rule="evenodd" d="M295.076 218.069C295.322 218.346 295.879 217.938 295.827 218.404C295.782 218.801 295.294 218.706 294.983 218.637C293.06 218.208 291.566 217.144 290.497 215.499C290.335 215.25 290.09 214.89 290.455 214.61C290.778 214.362 291.019 214.675 291.252 214.845C292.231 215.556 293.225 216.224 294.488 216.304C294.806 216.324 294.943 216.567 295.073 216.815C295.119 216.902 295.188 216.987 295.267 217.044C295.89 217.495 295.987 217.87 295.076 218.069Z" fill="white"/>
<path fill-rule="evenodd" clip-rule="evenodd" d="M263.101 236.867C264.038 236.862 264.626 237.607 265.391 237.97C265.957 238.239 266.589 238.442 267.063 238.912C267.181 239.029 267.419 239.058 267.321 239.279C267.243 239.455 267.056 239.507 266.866 239.412C265.725 238.835 264.573 238.279 263.51 237.562C263.259 237.393 263.236 237.09 263.117 236.844L263.101 236.867Z" fill="white"/>
<path fill-rule="evenodd" clip-rule="evenodd" d="M263.118 236.844C262.921 236.958 262.74 237.087 262.489 236.937C261.065 236.086 259.627 235.257 258.312 234.239C258.21 234.16 257.984 234.133 258.103 233.921C258.179 233.787 258.318 233.805 258.435 233.881C259.942 234.855 261.469 235.795 263.042 236.66C263.086 236.685 263.082 236.796 263.101 236.867L263.118 236.844Z" fill="white"/>
<path fill-rule="evenodd" clip-rule="evenodd" d="M271.307 240.131C271.331 240.131 271.353 240.132 271.373 240.134C271.725 240.236 272.027 240.502 272.429 240.438C272.572 240.416 272.775 240.377 272.777 240.598C272.779 240.796 272.594 240.787 272.437 240.785C271.042 240.763 269.706 240.416 268.384 240.015C268.157 239.946 267.898 239.705 267.987 239.454C268.092 239.157 268.394 239.345 268.568 239.43C269.436 239.853 270.372 239.984 271.307 240.131Z" fill="white"/>
<path fill-rule="evenodd" clip-rule="evenodd" d="M259.373 233.387C259.397 233.391 259.422 233.396 259.445 233.402C259.089 233.113 258.94 232.565 258.334 232.568C258.235 232.569 257.848 232.351 258.047 232.075C258.237 231.812 258.486 232.049 258.632 232.177C259.293 232.754 260.019 233.192 260.957 233.394C260.696 233.664 260.545 234.046 260.153 233.594C259.943 233.352 259.625 233.487 259.373 233.387Z" fill="white"/>
<path fill-rule="evenodd" clip-rule="evenodd" d="M266.295 235.965C266.15 235.886 266.004 235.806 265.859 235.727C265.761 235.624 265.663 235.522 265.565 235.419C265.588 235.377 265.612 235.336 265.635 235.295C266.115 235.506 266.595 235.718 267.075 235.93C267.062 235.986 267.049 236.043 267.036 236.099C266.79 236.054 266.542 236.01 266.295 235.965Z" fill="white"/>
<path fill-rule="evenodd" clip-rule="evenodd" d="M271.722 238.038C271.213 238.236 270.83 237.888 270.407 237.727C269.993 237.569 269.592 237.377 269.184 237.199C269.374 237.105 269.55 237.106 269.753 237.197C270.404 237.49 271.065 237.759 271.722 238.038Z" fill="white"/>
</g>
</svg>
