<svg width="100%" height="30" viewBox="0 0 44 30" fill="none" xmlns="http://www.w3.org/2000/svg">
<path d="M31.5289 0.481079C27.9439 0.481079 25.1409 3.18108 22.6049 6.61108C19.1189 2.17208 16.2049 0.481079 12.7139 0.481079C5.5999 0.481079 0.149902 9.73808 0.149902 19.5371C0.149902 25.6681 3.1159 29.5371 8.0849 29.5371C11.6609 29.5371 14.2329 27.8511 18.8049 19.8591C18.8049 19.8591 20.7109 16.4931 22.0219 14.1751C22.4812 14.9171 22.9652 15.7171 23.4739 16.5751L25.6179 20.1821C29.7939 27.1711 32.1179 29.5391 36.3379 29.5391C41.1779 29.5391 43.8719 25.6191 43.8719 19.3601C43.8719 9.10108 38.2989 0.485085 31.5289 0.485085V0.481079ZM15.3189 17.6931C11.6119 23.5041 10.3299 24.8061 8.2659 24.8061C6.1419 24.8061 4.8799 22.9411 4.8799 19.6161C4.8789 12.5001 8.4259 5.23008 12.6499 5.23008C14.9389 5.23008 16.8499 6.55208 19.7829 10.7481C16.9999 15.0161 15.3149 17.6941 15.3149 17.6941L15.3189 17.6931ZM29.3089 16.9611L26.7499 12.6861C26.0559 11.5581 25.3892 10.5194 24.7499 9.57008C27.0599 6.00408 28.9659 4.22708 31.2329 4.22708C35.9419 4.22708 39.7089 11.1601 39.7089 19.6761C39.7089 22.9221 38.6459 24.8061 36.4429 24.8061C34.3259 24.8061 33.3179 23.4111 29.3089 16.9611Z" fill="black"/>
</svg>
