<svg width="100%" height="19" viewBox="0 0 92 19" fill="none" xmlns="http://www.w3.org/2000/svg">
<path d="M82.3608 0.469971C79.9351 0.422005 77.5896 1.33898 75.8396 3.01942C74.0895 4.69986 73.0782 7.0063 73.0278 9.43197C73.1245 11.8439 74.1507 14.1249 75.8914 15.7973C77.6321 17.4697 79.9524 18.4036 82.3663 18.4036C84.7802 18.4036 87.1005 17.4697 88.8412 15.7973C90.582 14.1249 91.6081 11.8439 91.7048 9.43197C91.6536 7.00462 90.6406 4.69695 88.8883 3.01637C87.1361 1.33578 84.7882 0.419851 82.3608 0.469971ZM82.3608 13.256C81.3292 13.2737 80.3325 12.8818 79.5892 12.1662C78.8458 11.4506 78.4164 10.4696 78.3948 9.43797C78.4483 8.42237 78.8895 7.46601 79.6273 6.76606C80.3651 6.0661 81.3433 5.6759 82.3603 5.6759C83.3773 5.6759 84.3556 6.0661 85.0934 6.76606C85.8312 7.46601 86.2723 8.42237 86.3258 9.43797C86.3043 10.4696 85.8748 11.4506 85.1315 12.1662C84.3881 12.8818 83.3925 13.2737 82.3608 13.256ZM70.3608 7.20097V18.432H64.9748V7.14597C64.9748 6.7264 64.8082 6.32401 64.5115 6.02733C64.2148 5.73065 63.8124 5.56397 63.3928 5.56397C62.9733 5.56397 62.5709 5.73065 62.2742 6.02733C61.9775 6.32401 61.8108 6.7264 61.8108 7.14597V18.432H56.4408V7.14597C56.4408 6.7264 56.2741 6.32401 55.9775 6.02733C55.6808 5.73065 55.2784 5.56397 54.8588 5.56397C54.4393 5.56397 54.0369 5.73065 53.7402 6.02733C53.4435 6.32401 53.2768 6.7264 53.2768 7.14597V18.432H47.9258V7.20097C47.966 5.38002 48.7262 3.64921 50.0399 2.38761C51.3536 1.12601 53.1137 0.436455 54.9348 0.469971C56.4424 0.466959 57.9125 0.940511 59.1348 1.82297C60.3563 0.942498 61.8241 0.469102 63.3298 0.469971C65.1543 0.431885 66.9193 1.11926 68.2375 2.38121C69.5557 3.64316 70.3194 5.37657 70.3608 7.20097ZM35.3798 0.716971C33.6215 0.786758 31.9224 1.37179 30.4939 2.39935C29.0653 3.42691 27.9703 4.85167 27.3449 6.49651C26.7195 8.14135 26.5913 9.93372 26.9763 11.6508C27.3613 13.3679 28.2424 14.934 29.5102 16.1544C30.778 17.3748 32.3765 18.1956 34.107 18.5149C35.8375 18.8342 37.6237 18.6378 39.2436 17.9502C40.8634 17.2626 42.2454 16.1141 43.2178 14.6475C44.1902 13.1808 44.7101 11.4607 44.7128 9.70097C44.6911 8.4979 44.4323 7.31092 43.9513 6.20797C43.4703 5.10503 42.7765 4.10778 41.9096 3.2733C41.0427 2.43883 40.0198 1.78351 38.8993 1.34486C37.7788 0.906212 36.5829 0.692844 35.3798 0.716971ZM35.3798 13.503C34.6317 13.4739 33.9086 13.2256 33.3005 12.7888C32.6924 12.352 32.2261 11.7461 31.9597 11.0464C31.6933 10.3467 31.6385 9.58413 31.8021 8.85352C31.9657 8.12291 32.3405 7.45653 32.8799 6.93727C33.4193 6.41802 34.0994 6.06881 34.8357 5.93309C35.572 5.79738 36.332 5.88113 37.0211 6.17395C37.7101 6.46677 38.2979 6.95573 38.7112 7.57999C39.1246 8.20425 39.3453 8.93627 39.3458 9.68497C39.3387 10.1979 39.2303 10.7043 39.0269 11.1752C38.8235 11.646 38.5291 12.0721 38.1606 12.4289C37.7921 12.7857 37.3567 13.0662 36.8795 13.2543C36.4023 13.4424 35.8927 13.5344 35.3798 13.525V13.503ZM23.3798 7.46997V18.679H17.9908V7.40997C17.9908 6.9904 17.8241 6.58801 17.5275 6.29133C17.2308 5.99465 16.8284 5.82797 16.4088 5.82797C15.9893 5.82797 15.5869 5.99465 15.2902 6.29133C14.9935 6.58801 14.8268 6.9904 14.8268 7.40997V18.679H9.45982V7.40997C9.45982 6.9904 9.29315 6.58801 8.99647 6.29133C8.69979 5.99465 8.2974 5.82797 7.87782 5.82797C7.45825 5.82797 7.05586 5.99465 6.75918 6.29133C6.4625 6.58801 6.29582 6.9904 6.29582 7.40997V18.679H0.944824V7.46997C0.961086 6.56618 1.15534 5.67446 1.51648 4.8458C1.87763 4.01714 2.39857 3.26779 3.04953 2.64061C3.70048 2.01343 4.46869 1.52071 5.31021 1.19064C6.15172 0.860565 7.05005 0.699608 7.95382 0.716971C9.46043 0.714456 10.9297 1.18567 12.1538 2.06397C13.3755 1.18465 14.8436 0.713266 16.3488 0.716971C17.2538 0.698139 18.1536 0.857968 18.9967 1.18731C19.8399 1.51665 20.6098 2.00904 21.2624 2.63629C21.915 3.26354 22.4375 4.01334 22.8 4.84276C23.1624 5.67219 23.3578 6.56496 23.3748 7.46997H23.3798Z" fill="black"/>
</svg>
