<svg width="100%" height="44" viewBox="0 0 144 44" fill="none" xmlns="http://www.w3.org/2000/svg">
<path d="M10.5183 0.120117L11.6784 2.29813C11.93 2.6913 12.2229 3.05639 12.5523 3.38713C13.5273 4.34994 14.4358 5.37798 15.2712 6.46413C17.1836 9.03439 18.6178 11.9278 19.5053 15.0061C20.0746 16.8879 20.3775 18.8403 20.4053 20.8061C20.4928 23.5973 20.0081 26.3769 18.9811 28.9738C17.954 31.5707 16.4064 33.9299 14.4334 35.9061C13.7743 36.5708 13.0611 37.1796 12.3013 37.7261C11.9013 37.7261 11.7093 37.4191 11.5443 37.1341C11.2428 36.6093 11.042 36.0327 10.9523 35.4341C10.7942 34.7287 10.7304 34.0054 10.7623 33.2831V32.9521C10.7303 32.8671 10.3763 0.288117 10.5183 0.120117Z" fill="black"/>
<path d="M10.5181 0.049089C10.4721 -0.050911 10.4181 0.0250911 10.3741 0.0730911C10.3825 0.537945 10.2423 0.993353 9.97406 1.37309C9.66904 1.76094 9.31888 2.11108 8.93103 2.41609C6.85401 4.2485 5.13057 6.44615 3.84607 8.90009C2.12386 12.1838 1.12445 15.7981 0.915039 19.5001C0.931749 22.0151 1.21774 24.521 1.76807 26.9751C2.94351 30.5346 4.98461 33.7464 7.70807 36.3221C8.37638 36.9581 9.0773 37.5589 9.80804 38.1221C10.023 38.1221 10.0441 37.9321 10.0931 37.7911C10.1873 37.4899 10.2588 37.182 10.3071 36.8701L10.782 33.3221L10.5181 0.049089Z" fill="black"/>
<path d="M11.6772 39.1541C11.7531 38.6318 11.9564 38.1362 12.2692 37.7111C11.99 37.5799 11.7583 37.3654 11.6061 37.097C11.4626 36.8487 11.344 36.5868 11.2521 36.3151C10.9696 35.3208 10.8018 34.2976 10.7521 33.2651V32.6511C10.6456 32.9796 10.597 33.324 10.6082 33.6691C10.5395 34.7426 10.3971 35.8101 10.1822 36.8641C10.1518 37.2979 10.0218 37.7188 9.80217 38.0941C9.79976 38.1505 9.80795 38.2068 9.82622 38.2601C10.2074 39.5039 10.414 40.7945 10.4402 42.0951V42.5701C10.4402 43.1381 10.4162 43.0191 10.8882 43.2091C11.0965 43.2568 11.2961 43.3364 11.4801 43.4451C11.6241 43.4451 11.6462 43.3281 11.6462 43.2311L11.5762 42.4491V40.2711C11.5738 39.8964 11.6076 39.5223 11.6772 39.1541Z" fill="black"/>
<path d="M36.0201 21.7952V24.6951C36.0166 24.8099 36.0237 24.9247 36.0411 25.0382C36.0534 25.1915 36.1138 25.3371 36.2136 25.4542C36.3134 25.5712 36.4476 25.6539 36.5971 25.6903C36.8862 25.7646 37.1794 25.8219 37.4751 25.8621C37.6471 25.8821 37.7011 25.9621 37.7221 26.1431C37.7431 26.7951 37.6881 26.8712 37.0561 26.8292C35.5867 26.7439 34.1136 26.7439 32.6441 26.8292H32.5071C32.0471 26.8502 32.0131 26.8092 32.0131 26.3502C32.0131 26.2742 32.0341 26.1771 32.0341 26.1031C32.033 26.0736 32.0382 26.0442 32.0494 26.0169C32.0605 25.9896 32.0775 25.9651 32.099 25.9449C32.1206 25.9247 32.1462 25.9094 32.1741 25.9C32.2021 25.8905 32.2318 25.8872 32.2611 25.8902C32.5701 25.8562 32.8511 25.7731 33.1391 25.7181C33.3195 25.6896 33.4844 25.5996 33.6058 25.4632C33.7272 25.3268 33.7977 25.1527 33.8052 24.9703C33.8509 24.5255 33.8692 24.0782 33.8601 23.6312L33.8811 18.5123C33.887 18.3639 33.8508 18.2168 33.7766 18.0882C33.7025 17.9596 33.5934 17.8545 33.4621 17.7852C33.1157 17.5938 32.75 17.4396 32.3711 17.3253C32.2586 17.3023 32.1502 17.2627 32.0491 17.2081C31.7681 17.0711 31.7611 16.8242 32.0281 16.6732C32.1286 16.6173 32.2373 16.5778 32.3501 16.5562C33.5094 16.3855 34.6485 16.0984 35.7501 15.6993C35.9761 15.6243 36.0381 15.6442 36.0591 15.8702C36.0729 16.0168 36.0658 16.1645 36.0382 16.3091C36.01 16.5507 35.9986 16.794 36.0041 17.0372C35.9985 17.0852 36.0066 17.1339 36.0273 17.1776C36.0479 17.2212 36.0805 17.2582 36.1211 17.2842C36.2211 17.3392 36.3131 17.2841 36.4021 17.2291C36.795 16.92 37.2102 16.6403 37.6441 16.3922C38.2671 16.0205 38.9532 15.7669 39.6681 15.6441C40.0804 15.5816 40.5013 15.6108 40.9011 15.7293C41.3009 15.8479 41.6696 16.053 41.9811 16.3301C42.2575 16.578 42.5017 16.8597 42.7081 17.1683C42.9001 17.4493 42.9211 17.4561 43.1681 17.2681C43.8836 16.7268 44.6598 16.2712 45.4811 15.9102C46.3059 15.5402 47.2406 15.4984 48.0951 15.7933C48.519 15.9431 48.9056 16.1822 49.2288 16.4947C49.552 16.8072 49.8042 17.1855 49.9681 17.6041C50.2663 18.278 50.416 19.0083 50.4071 19.7452V24.8653C50.3993 25.0219 50.4416 25.1768 50.5279 25.3077C50.6143 25.4386 50.7401 25.5386 50.8872 25.5931C51.2606 25.7204 51.6439 25.8168 52.0331 25.8812C52.2801 25.9352 52.2801 25.9353 52.2801 26.1893C52.2461 26.8213 52.1801 26.8561 51.5731 26.8211C50.0411 26.7321 48.5052 26.7321 46.9732 26.8211C46.6642 26.8411 46.6642 26.8413 46.6502 26.5333V26.4332C46.6302 25.9182 46.6301 25.9181 47.1301 25.8021L47.6242 25.6651C47.7922 25.6247 47.9417 25.529 48.0487 25.3934C48.1557 25.2577 48.214 25.0901 48.2141 24.9173L48.2691 23.4832L48.2351 19.7442C48.2234 19.409 48.1512 19.0787 48.0221 18.7691C47.8298 18.2715 47.4732 17.8546 47.0114 17.5875C46.5496 17.3203 46.0104 17.2189 45.4831 17.3001C44.7349 17.3908 44.0232 17.6748 43.4181 18.1241C43.3481 18.1634 43.2908 18.2221 43.2531 18.293C43.2153 18.3639 43.1987 18.4442 43.2051 18.5242C43.3055 19.7432 43.3306 20.9672 43.2801 22.1893V24.8453C43.2682 24.9422 43.2756 25.0405 43.302 25.1346C43.3284 25.2287 43.3732 25.3165 43.4339 25.3931C43.4946 25.4697 43.5699 25.5334 43.6554 25.5806C43.7409 25.6279 43.835 25.6577 43.9321 25.6683L44.8101 25.8611C44.9471 25.8811 45.0231 25.9362 45.0231 26.0882V26.2242C45.0021 26.7602 44.9681 26.7801 44.4331 26.7801C42.9031 26.7041 41.3792 26.7251 39.8702 26.7801C39.3552 26.8011 39.3142 26.7462 39.3352 26.2242C39.3562 25.9152 39.3901 25.9012 39.6781 25.8402L40.3091 25.7232C40.4232 25.7186 40.5351 25.6906 40.638 25.6412C40.7409 25.5918 40.8327 25.522 40.9076 25.4359C40.9825 25.3497 41.039 25.249 41.0737 25.1402C41.1083 25.0314 41.1204 24.9169 41.1091 24.8033L41.1641 23.5201L41.1301 19.6851C41.1089 19.202 40.9717 18.731 40.7301 18.3121C40.562 17.9796 40.3044 17.7007 39.9865 17.5064C39.6685 17.3121 39.3028 17.2102 38.9302 17.2122C38.1386 17.1978 37.3604 17.4171 36.6932 17.8431C36.4745 17.9429 36.2933 18.11 36.1761 18.3199C36.0588 18.5298 36.0115 18.7715 36.0411 19.0101V21.7962L36.0201 21.7952ZM71.9981 21.9112V24.6021C71.999 24.7923 72.0103 24.9823 72.0321 25.1712C72.0398 25.2985 72.0888 25.4199 72.1719 25.5167C72.255 25.6135 72.3674 25.6802 72.4921 25.7071C72.8209 25.8023 73.1594 25.8601 73.5011 25.8792C73.6931 25.8992 73.7271 25.9793 73.7481 26.1263V26.2632C73.7271 26.9282 73.6481 27.0113 73.0001 26.9703C71.5511 26.884 70.0982 26.884 68.6491 26.9703L68.0931 26.9903C67.9761 26.9903 67.9562 26.9351 67.9212 26.8531C67.8667 26.5892 67.8667 26.3172 67.9212 26.0533C67.9422 25.9363 68.0211 25.9162 68.1341 25.8812C68.4151 25.8472 68.6491 25.7812 68.9161 25.7442C69.0134 25.738 69.1083 25.7119 69.1951 25.6678C69.2819 25.6236 69.3589 25.5622 69.4212 25.4874C69.4835 25.4125 69.5299 25.3259 69.5576 25.2325C69.5853 25.1391 69.5936 25.0409 69.5821 24.9442L69.6372 23.3382V18.6382C69.6472 18.4894 69.6101 18.3411 69.5314 18.2144C69.4526 18.0877 69.336 17.9891 69.1981 17.9322C68.8481 17.7487 68.4831 17.5951 68.1072 17.4732C67.9939 17.4429 67.8855 17.3968 67.7851 17.3362C67.7276 17.3102 67.6784 17.2689 67.6427 17.2169C67.607 17.1648 67.5863 17.1041 67.5828 17.0411C67.5793 16.9781 67.5932 16.9154 67.6228 16.8597C67.6525 16.804 67.6969 16.7574 67.7511 16.7252C67.8594 16.6345 67.9942 16.5816 68.1351 16.5743C69.3511 16.4034 70.5437 16.0949 71.6901 15.6551C71.8271 15.6001 71.8821 15.6352 71.9371 15.7552C71.9934 15.8752 72.0126 16.0093 71.9921 16.1402L71.9371 17.0401C71.9371 17.1561 71.8821 17.3211 71.9711 17.3621C72.0881 17.4381 72.1631 17.2622 72.2591 17.2252C72.8218 16.7518 73.445 16.3554 74.1121 16.0462C74.6941 15.7451 75.3444 15.6007 75.9992 15.6273C76.5893 15.649 77.1619 15.8334 77.6536 16.1605C78.1453 16.4875 78.537 16.9444 78.7851 17.4803C79.0761 18.0764 79.2442 18.7249 79.2792 19.3873L79.3341 20.7872L79.3551 25.0071C79.3483 25.1515 79.3898 25.2941 79.4731 25.4122C79.5564 25.5303 79.6768 25.6173 79.8151 25.6592C80.1509 25.7691 80.4951 25.8516 80.8442 25.9061C81.1532 25.9401 81.1671 26.0061 81.1871 26.2901V26.3902C81.1531 27.0422 81.1122 27.0553 80.4602 27.0213C79.0362 26.9449 77.6091 26.9449 76.1851 27.0213C75.9931 27.0423 75.8011 27.0213 75.6291 27.0423C75.5121 27.0423 75.4371 27.0211 75.4161 26.9041C75.3644 26.6537 75.3573 26.3961 75.3951 26.1431C75.4161 26.0261 75.4701 25.9713 75.6081 25.9503L76.4862 25.8133C76.6206 25.7893 76.7436 25.722 76.8365 25.6219C76.9294 25.5218 76.9872 25.394 77.0011 25.2581L77.0351 24.7232L77.0141 20.7291C77.0232 20.2686 76.984 19.8086 76.8971 19.3563C76.8017 18.8862 76.5572 18.4593 76.2 18.1392C75.8427 17.8191 75.3918 17.6227 74.9141 17.5792C74.0642 17.4918 73.2107 17.7084 72.5051 18.1903C72.3406 18.2874 72.2057 18.4274 72.115 18.5955C72.0242 18.7636 71.9811 18.9533 71.9902 19.1441V22.0262C71.9902 21.9722 71.9901 21.9722 72.0111 21.9722L71.9981 21.9112Z" fill="black"/>
<path d="M127.92 16.5111C127.732 15.1429 127.17 13.8533 126.294 12.7851C125.512 11.823 124.499 11.0744 123.35 10.609C122.142 10.1515 120.861 9.91917 119.569 9.92324C119.034 9.90224 111.74 10.0232 111.204 9.92324C111.145 9.91028 111.083 9.91643 111.027 9.94107C110.972 9.9657 110.925 10.0075 110.895 10.0602C110.794 10.1954 110.712 10.3429 110.648 10.4992C110.421 11.0142 110.421 10.9801 110.97 11.0551C111.421 11.109 111.868 11.1916 112.308 11.3021C112.5 11.3494 112.675 11.4494 112.813 11.5907C112.951 11.7321 113.047 11.9092 113.09 12.1022C113.124 12.3152 113.166 19.0333 113.166 22.1623L113.091 24.3991C113.08 24.5674 113.046 24.7336 112.991 24.8932C112.96 25.0059 112.905 25.1104 112.829 25.1994C112.753 25.2883 112.659 25.3596 112.552 25.4081C112.301 25.5265 112.03 25.5988 111.752 25.6212C111.237 25.6762 111.162 25.6961 110.99 26.2731L110.935 26.4853C110.901 26.7333 110.914 26.7741 111.162 26.7741L116.871 26.8292L119.108 26.7951L120.652 26.6032C122.379 26.3038 123.99 25.5373 125.311 24.3871C126.075 23.7136 126.698 22.8952 127.143 21.9792C127.651 20.9092 127.931 19.7458 127.966 18.5622C128.061 17.8804 128.045 17.188 127.92 16.5111ZM125.155 19.2211C125.121 20.4385 124.794 21.6299 124.202 22.6942C123.845 23.3753 123.344 23.9704 122.734 24.4384C122.123 24.9063 121.419 25.2359 120.668 25.4042C119.982 25.5602 119.275 25.5997 118.575 25.5211C118.069 25.485 117.569 25.3882 117.086 25.2331C116.724 25.1373 116.407 24.9171 116.192 24.611C115.976 24.3048 115.875 23.9325 115.906 23.5592L115.885 12.0441C115.885 11.3581 116.193 11.2072 116.685 11.1862C117.435 11.1359 118.188 11.1472 118.936 11.2201C119.729 11.2979 120.508 11.4849 121.249 11.776C121.799 12.0039 122.309 12.319 122.759 12.7091C123.768 13.5699 124.497 14.7124 124.852 15.9901C125.136 17.0282 125.24 18.1069 125.161 19.1801L125.155 19.2211ZM143.793 21.0951C143.797 20.987 143.79 20.8788 143.772 20.7721C143.692 20.2747 143.509 19.7992 143.237 19.3754C142.964 18.9516 142.607 18.5887 142.187 18.3092C141.629 17.9223 141.01 17.632 140.355 17.4511C140.239 17.4171 140.142 17.3752 140.033 17.3512C140.039 17.3169 140.055 17.2852 140.08 17.2606C140.104 17.2361 140.136 17.2199 140.17 17.2143C140.556 17.0345 140.917 16.8038 141.241 16.5282C141.821 16.0515 142.235 15.4025 142.421 14.6752C142.525 14.2766 142.551 13.8614 142.497 13.453C142.465 12.9614 142.323 12.4833 142.082 12.0536C141.841 11.624 141.507 11.2538 141.104 10.9701C140.237 10.3484 139.193 10.0209 138.126 10.036C136.061 10.002 133.982 10.036 131.926 10.036C131.326 10.0616 130.724 10.0433 130.126 9.9811C130.009 9.9601 129.844 9.92606 129.762 10.0561C129.6 10.2956 129.477 10.5596 129.398 10.838C129.377 10.977 129.418 11.0511 129.57 11.0651L130.888 11.2572C131.114 11.2632 131.331 11.3492 131.499 11.4999C131.668 11.6506 131.777 11.8563 131.808 12.0802C131.843 12.3974 131.862 12.716 131.863 13.0351L131.829 16.6032L131.808 23.6642C131.803 24.0817 131.757 24.4976 131.671 24.9062C131.652 25.0384 131.595 25.1623 131.508 25.2633C131.42 25.3643 131.305 25.4383 131.177 25.4762C130.809 25.6084 130.422 25.6844 130.031 25.7021C129.925 25.6926 129.818 25.7194 129.728 25.778C129.638 25.8366 129.571 25.9235 129.536 26.025C129.461 26.197 129.404 26.3764 129.365 26.5602C129.33 26.7872 129.385 26.8692 129.612 26.8422C129.784 26.8212 136.083 26.9792 137.27 26.8622C137.981 26.8015 138.684 26.6729 139.37 26.4782C140.578 26.1407 141.678 25.4949 142.561 24.6042C143.289 23.8697 143.711 22.8866 143.742 21.8532C143.785 21.6039 143.801 21.3507 143.789 21.098L143.793 21.0951ZM134.529 13.265L134.583 11.7353C134.576 11.6771 134.58 11.618 134.597 11.5617C134.613 11.5053 134.641 11.4529 134.679 11.4079C134.716 11.3628 134.762 11.326 134.815 11.2997C134.867 11.2734 134.925 11.2581 134.983 11.255C135.437 11.185 135.898 11.1733 136.355 11.2201C136.815 11.2492 137.27 11.3253 137.714 11.4472C138.119 11.5496 138.497 11.7397 138.821 12.0041C139.144 12.2684 139.406 12.6006 139.587 12.9772C139.762 13.3417 139.853 13.7402 139.855 14.1442C139.893 14.6758 139.815 15.2092 139.628 15.7082C139.498 16.0431 139.284 16.3388 139.007 16.5666C138.729 16.7943 138.397 16.9465 138.043 17.0082C136.982 17.0983 135.916 17.1236 134.852 17.0841C134.564 17.0841 134.544 17.0491 134.544 16.7611V14.9611C134.5 14.4019 134.493 13.8403 134.523 13.2802L134.529 13.265ZM140.729 23.5373C140.585 23.9442 140.352 24.3144 140.049 24.6215C139.745 24.9286 139.378 25.165 138.972 25.3141C138.529 25.497 138.051 25.5813 137.572 25.5612C136.977 25.5701 136.383 25.5313 135.794 25.4452C135.461 25.3559 135.163 25.1642 134.944 24.8971C134.725 24.63 134.595 24.301 134.572 23.9562C134.472 22.9812 134.538 21.9873 134.517 21.2663V18.7472C134.517 18.4382 134.552 18.3471 134.881 18.3471L136.681 18.3681L137.902 18.505C138.758 18.6522 139.546 19.0656 140.153 19.6862C140.633 20.2041 140.923 20.8692 140.977 21.5731C141.054 22.2315 140.977 22.8987 140.751 23.5221L140.729 23.5373Z" fill="black"/>
<path d="M92.2132 17.7882L92.7072 17.8632C93.0071 17.9031 93.3113 17.8314 93.5618 17.6618C93.8124 17.4922 93.9919 17.2366 94.0662 16.9433C94.1692 16.5869 94.1692 16.2086 94.0662 15.8522C93.9492 15.8522 93.8952 15.9522 93.8402 15.9892C93.5673 16.2115 93.2361 16.3503 92.8862 16.3891C92.1973 16.4787 91.4969 16.4059 90.8412 16.1762L89.9083 15.8532C89.2556 15.6409 88.5695 15.5503 87.8842 15.5861C86.9174 15.678 85.9803 15.97 85.1322 16.4433C84.6843 16.6727 84.2875 16.9903 83.9656 17.3771C83.6437 17.764 83.4034 18.2121 83.2592 18.6943C83.097 19.2839 83.0571 19.9006 83.1422 20.5063C83.1996 21.1474 83.4386 21.759 83.831 22.2692C84.2235 22.7794 84.7532 23.1671 85.3582 23.3871C85.4342 23.4081 85.4952 23.4423 85.5712 23.4633C85.7432 23.5633 85.7632 23.6553 85.6052 23.7863L85.1252 24.1093L83.9792 24.8161C83.9207 24.8369 83.8674 24.8704 83.8231 24.914C83.7788 24.9576 83.7447 25.0105 83.7231 25.0688C83.7014 25.127 83.6928 25.1892 83.6979 25.2511C83.7029 25.3131 83.7215 25.3732 83.7522 25.4272C83.8674 25.7839 84.0788 26.1019 84.3632 26.3461C84.6241 26.5721 84.9208 26.753 85.2412 26.8813C85.4542 26.9813 85.4543 27.0181 85.2623 27.1901L84.1713 27.9721C83.7952 28.2392 83.45 28.5476 83.1422 28.8913C82.9298 29.1171 82.7766 29.3919 82.6963 29.6913C82.6161 29.9908 82.6112 30.3053 82.6822 30.6071C82.8232 31.27 83.1718 31.8708 83.6772 32.3222C84.1726 32.7833 84.7767 33.1117 85.4332 33.2763C86.7175 33.6122 88.068 33.6005 89.3462 33.2423C90.6245 32.8842 91.7844 32.1925 92.7072 31.2382C93.4528 30.4951 93.8891 29.4971 93.9282 28.4452C93.97 27.8113 93.7853 27.1832 93.4072 26.6728C93.029 26.1623 92.4818 25.8027 91.8632 25.6581L90.8342 25.4662L87.6843 25.1852C87.3445 25.1816 87.0106 25.0969 86.7103 24.9381C86.6279 24.8951 86.5557 24.8348 86.4986 24.7614C86.4416 24.688 86.401 24.6033 86.3796 24.5129C86.3581 24.4224 86.3564 24.3282 86.3744 24.237C86.3925 24.1458 86.43 24.0598 86.4842 23.9843C86.5609 23.8809 86.6587 23.7948 86.7711 23.7321C86.8835 23.6693 87.008 23.6313 87.1362 23.6203L87.7472 23.5651C88.9542 23.442 90.0872 22.9259 90.9722 22.0961C91.4444 21.6574 91.7822 21.0935 91.9462 20.4701C92.1668 19.6487 92.1785 18.7852 91.9802 17.9582C91.9252 17.7462 91.9462 17.7323 92.2072 17.7663L92.2132 17.7882ZM87.5333 27.2992C87.6474 27.3094 87.7621 27.3094 87.8762 27.2992C88.6882 27.3127 89.4961 27.4162 90.2852 27.6081C90.5419 27.6839 90.792 27.7803 91.0333 27.8962C91.3751 28.076 91.6515 28.3592 91.8228 28.7055C91.9941 29.0517 92.0517 29.4432 91.9872 29.8241C91.9373 30.2229 91.7888 30.6029 91.5552 30.9298C91.3216 31.2568 91.0102 31.5206 90.6492 31.6972C90.145 31.9618 89.5913 32.1184 89.0232 32.1571C88.8197 32.1674 88.6158 32.1674 88.4122 32.1571C87.7467 32.194 87.0813 32.0838 86.4632 31.8341C86.0349 31.6695 85.65 31.4089 85.3382 31.0722C85.1413 30.8867 84.9848 30.6627 84.8784 30.414C84.772 30.1652 84.7182 29.8971 84.7201 29.6266C84.7221 29.3561 84.7798 29.0889 84.8898 28.8417C84.9998 28.5946 85.1596 28.3727 85.3592 28.1901C85.6341 27.8915 85.9711 27.6571 86.3466 27.5031C86.7221 27.3491 87.1269 27.2795 87.5322 27.2992H87.5333ZM89.7152 21.3432C89.5606 21.7681 89.2568 22.1224 88.8602 22.3398C88.4637 22.5571 88.0016 22.6225 87.5602 22.5241C87.1806 22.4749 86.8192 22.3318 86.5089 22.1076C86.1986 21.8834 85.9492 21.5852 85.7833 21.2402C85.2828 20.311 85.1599 19.2247 85.4402 18.2072C85.5101 17.8292 85.6942 17.4816 85.9678 17.2116C86.2414 16.9416 86.5913 16.762 86.9702 16.6972C87.4876 16.5773 88.0303 16.6371 88.5092 16.8666C88.9881 17.0962 89.3746 17.4817 89.6052 17.9601C89.9103 18.597 90.048 19.3014 90.0052 20.0063C89.9795 20.4651 89.8816 20.9168 89.7152 21.3451V21.3432ZM65.6572 20.0431C65.5132 19.0224 65.0742 18.0659 64.3942 17.2912C63.9052 16.7446 63.303 16.311 62.6295 16.0207C61.956 15.7304 61.2274 15.5905 60.4943 15.6103C59.197 15.5982 57.9242 15.9627 56.8302 16.6601C55.739 17.3134 54.9387 18.3591 54.5932 19.5832C54.2869 20.6809 54.268 21.839 54.5383 22.9462C55.2033 25.9662 57.5382 27.2622 60.3232 27.0702C61.1429 26.9967 61.9403 26.7633 62.6702 26.3832C63.7446 25.8817 64.6143 25.0267 65.1342 23.9611C65.5744 23.0441 65.7842 22.0337 65.7452 21.0173L65.6572 20.0431ZM62.9473 24.2841C62.8106 24.714 62.5515 25.095 62.2018 25.38C61.8521 25.6651 61.4269 25.8419 60.9782 25.8891C60.1556 26.0032 59.321 25.7916 58.6522 25.2992C58.1441 24.9232 57.7328 24.4316 57.4522 23.8652C56.6932 22.3122 56.5107 20.5402 56.9372 18.8652C57.0638 18.333 57.3416 17.8488 57.7372 17.4711C58.0594 17.1708 58.4526 16.9574 58.8799 16.8507C59.3072 16.744 59.7547 16.7477 60.1802 16.8612C61.0274 17.0478 61.7741 17.5446 62.2732 18.2541C62.7847 18.979 63.1121 19.8175 63.2272 20.6972C63.2817 21.0884 63.3151 21.4823 63.3272 21.8771C63.3619 22.6961 63.2384 23.5142 62.9632 24.2863L62.9473 24.2841ZM107.379 20.2011C107.263 19.0971 106.794 18.0604 106.041 17.2443C105.55 16.7157 104.952 16.2972 104.287 16.0168C103.622 15.7363 102.906 15.6 102.184 15.6171C100.932 15.6082 99.7023 15.9457 98.6302 16.5922C98.0339 16.9206 97.5132 17.3705 97.1019 17.913C96.6905 18.4555 96.3976 19.0783 96.2422 19.7411C95.8556 21.2624 96.0185 22.8712 96.7022 24.2841C96.9938 24.921 97.4255 25.4838 97.9651 25.9306C98.5046 26.3773 99.1381 26.6965 99.8182 26.8642C101.328 27.2718 102.936 27.1007 104.326 26.3842C105.554 25.8108 106.512 24.7854 107.002 23.5221C107.304 22.71 107.452 21.8492 107.441 20.9831C107.44 20.7195 107.419 20.4566 107.378 20.1962L107.379 20.2011ZM104.744 24.0373C104.638 24.5205 104.385 24.9586 104.018 25.2907C103.651 25.6228 103.19 25.8325 102.699 25.8903C101.908 26.0044 101.103 25.8129 100.448 25.3551C99.8774 24.9609 99.4226 24.4208 99.1312 23.7912C98.7978 23.1356 98.5905 22.4232 98.5203 21.6911C98.3888 20.8005 98.4227 19.8936 98.6202 19.0153C98.6594 18.8382 98.7167 18.6655 98.7912 18.5002C99.0043 17.8817 99.4451 17.3679 100.024 17.0631C100.603 16.7584 101.276 16.6859 101.906 16.8603C102.801 17.0584 103.583 17.6008 104.081 18.3703C104.569 19.1255 104.87 19.9863 104.959 20.8813C105.014 21.2354 105.033 21.5941 105.014 21.9521C105.038 22.6628 104.943 23.3726 104.733 24.0522L104.744 24.0373Z" fill="black"/>
</svg>
