<svg width="100%" height="20px" viewBox="0 0 2500 665" fill="none" xmlns="http://www.w3.org/2000/svg">
<path d="M934.99 163.85H796.697C792.118 163.847 787.69 165.479 784.208 168.453C780.727 171.426 778.422 175.545 777.709 180.067L721.777 534.689C721.519 536.334 721.622 538.016 722.077 539.618C722.532 541.22 723.329 542.705 724.413 543.969C725.497 545.234 726.842 546.249 728.356 546.943C729.87 547.638 731.516 547.997 733.181 547.994H799.204C803.785 547.996 808.216 546.361 811.698 543.384C815.18 540.406 817.483 536.283 818.192 531.757L833.277 436.11C833.985 431.587 836.286 427.466 839.763 424.489C843.241 421.512 847.667 419.875 852.245 419.872H896.024C987.121 419.872 1039.7 375.79 1053.43 288.433C1059.61 250.215 1053.69 220.186 1035.79 199.156C1016.14 176.063 981.277 163.85 934.99 163.85ZM950.945 293.367C943.382 342.991 905.467 342.991 868.806 342.991H847.937L862.578 250.316C863.006 247.605 864.388 245.136 866.475 243.352C868.562 241.569 871.217 240.59 873.962 240.59H883.527C908.5 240.59 932.058 240.59 944.231 254.826C951.491 263.318 953.715 275.937 950.945 293.367ZM1348.37 291.77H1282.15C1279.41 291.77 1276.75 292.75 1274.66 294.533C1272.58 296.316 1271.19 298.785 1270.77 301.496L1267.83 320.019L1263.2 313.306C1248.87 292.498 1216.9 285.542 1184.99 285.542C1111.81 285.542 1049.3 340.968 1037.13 418.719C1030.8 457.504 1039.8 494.59 1061.8 520.453C1081.98 544.233 1110.86 554.142 1145.21 554.142C1204.18 554.142 1236.87 516.227 1236.87 516.227L1233.92 534.628C1233.66 536.273 1233.76 537.956 1234.21 539.56C1234.66 541.164 1235.45 542.652 1236.53 543.921C1237.61 545.189 1238.95 546.208 1240.46 546.908C1241.97 547.608 1243.62 547.972 1245.29 547.974H1304.94C1309.52 547.976 1313.95 546.341 1317.43 543.364C1320.92 540.386 1323.22 536.262 1323.93 531.736L1359.72 305.076C1359.98 303.434 1359.89 301.755 1359.44 300.154C1358.99 298.553 1358.2 297.069 1357.12 295.804C1356.04 294.539 1354.7 293.523 1353.19 292.826C1351.68 292.13 1350.04 291.769 1348.37 291.77ZM1256.06 420.661C1249.67 458.495 1219.65 483.893 1181.35 483.893C1162.12 483.893 1146.75 477.725 1136.88 466.037C1127.09 454.43 1123.37 437.909 1126.49 419.508C1132.45 381.997 1162.99 355.77 1200.7 355.77C1219.5 355.77 1234.79 362.019 1244.86 373.808C1254.95 385.718 1258.96 402.34 1256.06 420.661ZM1701.08 291.77H1634.53C1631.39 291.775 1628.3 292.545 1625.53 294.015C1622.75 295.484 1620.38 297.608 1618.61 300.202L1526.83 435.402L1487.92 305.48C1486.73 301.517 1484.29 298.045 1480.97 295.575C1477.65 293.106 1473.62 291.772 1469.48 291.77H1404.08C1402.25 291.765 1400.44 292.199 1398.8 293.035C1397.17 293.871 1395.76 295.085 1394.69 296.577C1393.62 298.068 1392.92 299.794 1392.65 301.61C1392.38 303.426 1392.55 305.279 1393.14 307.017L1466.45 522.131L1397.53 619.416C1396.31 621.141 1395.58 623.17 1395.43 625.28C1395.28 627.39 1395.72 629.5 1396.69 631.38C1397.66 633.259 1399.13 634.835 1400.94 635.935C1402.75 637.035 1404.82 637.616 1406.94 637.615H1473.4C1476.51 637.62 1479.56 636.871 1482.32 635.434C1485.07 633.997 1487.43 631.915 1489.2 629.365L1710.54 309.868C1711.74 308.139 1712.44 306.115 1712.57 304.015C1712.7 301.916 1712.26 299.82 1711.28 297.955C1710.31 296.091 1708.84 294.528 1707.04 293.438C1705.24 292.348 1703.18 291.771 1701.08 291.77Z" fill="#253B80"/>
<path d="M1921.41 163.85H1783.09C1778.52 163.852 1774.09 165.486 1770.62 168.459C1767.14 171.432 1764.84 175.548 1764.13 180.067L1708.19 534.689C1707.93 536.331 1708.03 538.011 1708.48 539.612C1708.94 541.213 1709.73 542.696 1710.81 543.961C1711.89 545.226 1713.23 546.241 1714.74 546.938C1716.25 547.634 1717.89 547.994 1719.56 547.994H1790.53C1793.74 547.99 1796.83 546.843 1799.26 544.759C1801.7 542.676 1803.3 539.793 1803.8 536.63L1819.67 436.11C1820.38 431.587 1822.68 427.466 1826.16 424.489C1829.64 421.512 1834.06 419.875 1838.64 419.872H1882.4C1973.52 419.872 2026.07 375.79 2039.82 288.433C2046.03 250.215 2040.07 220.186 2022.17 199.156C2002.53 176.063 1967.69 163.85 1921.41 163.85ZM1937.36 293.367C1929.82 342.991 1891.9 342.991 1855.22 342.991H1834.37L1849.03 250.316C1849.46 247.605 1850.83 245.133 1852.92 243.349C1855 241.565 1857.66 240.586 1860.4 240.59H1869.96C1894.92 240.59 1918.5 240.59 1930.67 254.826C1937.93 263.318 1940.13 275.937 1937.36 293.367ZM2334.77 291.77H2268.59C2265.84 291.762 2263.19 292.74 2261.1 294.525C2259.01 296.309 2257.64 298.783 2257.22 301.496L2254.29 320.019L2249.64 313.306C2235.3 292.498 2203.35 285.542 2171.44 285.542C2098.26 285.542 2035.78 340.968 2023.61 418.719C2017.3 457.504 2026.25 494.59 2048.26 520.453C2068.48 544.233 2097.31 554.142 2131.67 554.142C2190.63 554.142 2223.33 516.227 2223.33 516.227L2220.38 534.628C2220.12 536.277 2220.21 537.963 2220.67 539.57C2221.12 541.177 2221.91 542.667 2223 543.936C2224.08 545.205 2225.43 546.224 2226.95 546.921C2228.46 547.618 2230.11 547.978 2231.78 547.974H2291.42C2295.99 547.971 2300.42 546.334 2303.9 543.357C2307.38 540.38 2309.68 536.259 2310.38 531.736L2346.2 305.076C2346.45 303.429 2346.34 301.747 2345.89 300.145C2345.43 298.542 2344.63 297.058 2343.54 295.794C2342.46 294.53 2341.11 293.516 2339.6 292.821C2338.08 292.127 2336.44 291.768 2334.77 291.77ZM2242.46 420.661C2236.11 458.495 2206.04 483.893 2167.74 483.893C2148.55 483.893 2133.14 477.725 2123.28 466.037C2113.49 454.43 2109.81 437.909 2112.88 419.508C2118.89 381.997 2149.38 355.77 2187.09 355.77C2205.9 355.77 2221.19 362.019 2231.26 373.808C2241.39 385.718 2245.39 402.34 2242.46 420.661ZM2412.85 173.576L2356.08 534.689C2355.82 536.331 2355.92 538.011 2356.38 539.612C2356.83 541.213 2357.62 542.696 2358.7 543.961C2359.78 545.226 2361.12 546.241 2362.63 546.938C2364.14 547.634 2365.79 547.994 2367.45 547.994H2424.51C2434 547.994 2442.05 541.119 2443.5 531.757L2499.47 177.155C2499.73 175.512 2499.63 173.831 2499.18 172.229C2498.73 170.628 2497.94 169.143 2496.86 167.877C2495.78 166.61 2494.44 165.593 2492.93 164.894C2491.42 164.196 2489.77 163.833 2488.11 163.83H2424.21C2421.47 163.839 2418.82 164.825 2416.73 166.611C2414.65 168.397 2413.27 170.866 2412.85 173.576Z" fill="#179BD7"/>
<path d="M147.471 616.909L158.046 549.733L134.489 549.187H21.9973L100.173 53.502C100.406 51.9874 101.175 50.607 102.34 49.6122C103.506 48.6174 104.99 48.0746 106.522 48.0827H296.199C359.168 48.0827 402.623 61.1861 425.312 87.0492C435.948 99.182 442.722 111.861 445.998 125.813C449.436 140.454 449.496 157.945 446.14 179.279L445.897 180.836V194.505L456.533 200.531C464.653 204.645 471.952 210.21 478.069 216.951C487.169 227.325 493.053 240.509 495.54 256.14C498.108 272.216 497.259 291.345 493.053 313.002C488.2 337.915 480.354 359.612 469.758 377.367C460.409 393.272 447.839 407.047 432.854 417.809C418.78 427.799 402.057 435.382 383.15 440.235C364.83 445.007 343.941 447.413 321.03 447.413H306.269C295.713 447.413 285.461 451.215 277.413 458.03C269.376 464.917 264.045 474.433 262.368 484.884L261.256 490.93L242.572 609.326L241.722 613.673C241.5 615.048 241.116 615.736 240.549 616.201C240.001 616.649 239.317 616.899 238.608 616.909H147.471Z" fill="#253B80"/>
<path d="M466.604 182.413C466.037 186.033 465.39 189.733 464.662 193.535C439.649 321.96 354.072 366.326 244.776 366.326H189.127C175.76 366.326 164.497 376.032 162.414 389.216L133.922 569.914L125.854 621.135C125.533 623.167 125.655 625.244 126.214 627.224C126.772 629.203 127.753 631.039 129.089 632.603C130.424 634.167 132.083 635.424 133.951 636.285C135.819 637.147 137.851 637.594 139.908 637.595H238.608C250.296 637.595 260.225 629.102 262.065 617.576L263.036 612.561L281.619 494.63L282.812 488.159C284.632 476.593 294.581 468.1 306.269 468.1H321.03C416.657 468.1 491.516 429.275 513.396 316.925C522.536 269.992 517.804 230.803 493.619 203.241C485.954 194.715 476.799 187.657 466.604 182.413Z" fill="#179BD7"/>
<path d="M440.437 171.979C432.45 169.668 424.326 167.865 416.111 166.58C399.88 164.085 383.476 162.888 367.054 163H218.387C212.729 162.996 207.256 165.016 202.958 168.695C198.66 172.374 195.819 177.469 194.95 183.06L163.324 383.373L162.414 389.216C163.4 382.84 166.635 377.026 171.534 372.828C176.434 368.629 182.674 366.323 189.127 366.326H244.776C354.072 366.326 439.649 321.94 464.662 193.535C465.411 189.733 466.038 186.033 466.604 182.413C460.003 178.952 453.124 176.05 446.039 173.738C444.181 173.122 442.314 172.535 440.437 171.979Z" fill="#222D65"/>
<path d="M194.949 183.06C195.81 177.468 198.649 172.37 202.949 168.693C207.25 165.016 212.727 163.003 218.385 163.021H367.052C384.665 163.021 401.105 164.173 416.109 166.6C426.262 168.196 436.276 170.582 446.057 173.738C453.438 176.185 460.293 179.076 466.622 182.413C474.064 134.953 466.561 102.64 440.901 73.3796C412.611 41.167 361.552 27.376 296.217 27.376H106.541C93.1948 27.376 81.8102 37.0823 79.7476 50.2868L0.742868 551.068C0.374877 553.393 0.514885 555.77 1.15326 558.036C1.79164 560.302 2.91323 562.402 4.44089 564.193C5.96855 565.984 7.86602 567.423 10.0028 568.41C12.1395 569.398 14.4649 569.911 16.8188 569.914H133.921L163.322 383.373L194.949 183.06Z" fill="#253B80"/>
</svg>
