<svg width="100%" height="auto" viewBox="0 0 320 320" fill="none" xmlns="http://www.w3.org/2000/svg">
<circle cx="160" cy="160" r="159.35" fill="#1C1C1C" stroke="#ECF0F2" stroke-width="1.3"/>
<mask id="mask0_169_1203" style="mask-type:luminance" maskUnits="userSpaceOnUse" x="0" y="0" width="320" height="320">
<circle cx="160" cy="160" r="159.35" fill="white" stroke="white" stroke-width="1.3"/>
</mask>
<g mask="url(#mask0_169_1203)">
</g>
<mask id="mask1_169_1203" style="mask-type:luminance" maskUnits="userSpaceOnUse" x="0" y="0" width="320" height="320">
<circle cx="160" cy="160" r="159.35" fill="white" stroke="white" stroke-width="1.3"/>
</mask>
<g mask="url(#mask1_169_1203)">
<path fill-rule="evenodd" clip-rule="evenodd" d="M31.3444 131.671C38.3493 134.576 44.914 138.278 51.3276 142.228C51.2342 142.738 50.8915 142.32 50.7073 142.512C50.5962 142.805 51.3022 143.073 50.7197 143.481C50.1846 143.856 49.7506 143.686 49.3006 143.481C46.9317 142.398 44.8784 140.738 42.3961 139.824C41.5473 139.511 40.5284 139.42 39.8231 138.55C39.3891 138.015 38.4013 138.218 37.7096 137.767C37.2764 137.484 36.6887 137.352 36.2002 137.038C34.255 135.787 32.1088 135.139 29.7955 135.074C29.379 135.062 28.9922 134.916 28.9525 134.533C28.8437 133.49 28.3371 132.482 29.1802 131.392C29.7924 130.601 30.3893 130.489 31.2055 130.643C33.1717 131.015 34.9461 131.902 36.7179 132.77C38.7903 133.786 40.7797 134.965 42.8128 136.052C45.5473 137.514 48.1499 139.183 50.815 140.753C51.0683 140.902 51.5791 141.027 51.385 141.407C51.2389 141.693 50.8229 141.432 50.5712 141.292C48.9845 140.41 47.4444 139.455 45.9151 138.474C44.4495 137.533 42.8627 136.77 41.2905 136.009C38.7491 134.779 36.2795 133.401 33.6712 132.31C32.9276 131.999 32.175 131.692 31.3444 131.671Z" fill="white"/>
<path fill-rule="evenodd" clip-rule="evenodd" d="M1.76577 128.385C1.21043 127.786 1.97269 127.27 2.11994 127.058C2.51807 126.484 2.00796 125.664 2.50962 125.415C3.26926 125.039 3.88243 124.3 4.95059 124.513C7.01672 124.926 8.98405 125.633 10.9743 126.279C12.4171 126.748 13.8716 127.189 15.2125 127.927C15.8103 128.257 16.3445 128.646 16.676 129.253C17.0164 129.875 17.0772 130.438 16.5906 131.095C16.2305 131.581 16.0146 132.191 15.5833 132.648C15.1734 133.082 14.7372 133.435 14.1061 133.001C13.6635 132.696 13.1184 132.795 12.6287 132.661C10.661 132.119 8.57504 132.007 6.72315 131.046C5.34951 130.333 3.89042 129.838 2.44055 129.316C2.02537 129.167 1.52671 129.029 1.76577 128.385Z" fill="white"/>
<path fill-rule="evenodd" clip-rule="evenodd" d="M18.967 167.421C18.6197 167.295 18.3964 167.214 18.1806 167.136C18.0444 167.257 18.1374 167.353 18.1759 167.46C18.2552 167.68 18.6914 167.727 18.5385 168.012C18.3535 168.356 18.0744 167.95 17.8296 167.992C17.7711 168.359 18.2233 168.423 18.2564 168.717C17.5874 169.222 17.0062 169.022 16.3474 168.642C14.5573 167.609 12.6908 166.736 10.6778 166.202C9.91778 166 9.48825 165.075 8.6255 165.117C7.53116 165.171 6.54656 164.728 5.72493 164.21C4.30588 163.315 2.7034 163.215 1.19528 162.73C0.770917 162.593 0.278671 162.856 -0.0882153 162.472C-0.20676 162.348 -0.470279 162.159 -0.266478 162.058C0.429863 161.713 0.0438804 161.163 0.129344 160.679C0.288053 159.781 1.14128 159.546 1.89642 159.406C3.08649 159.186 4.27107 159.451 5.37467 159.862C9.60036 161.437 13.681 163.327 17.4932 165.753C18.074 166.123 18.7925 166.44 18.967 167.421Z" fill="white"/>
<path fill-rule="evenodd" clip-rule="evenodd" d="M34.3549 153.929C33.7033 153.77 33.0224 153.619 32.3502 153.435C28.0894 152.272 23.9929 150.663 19.9539 148.892C18.4056 148.212 16.9091 147.41 15.274 146.928C14.8056 146.791 14.4239 146.511 14.8711 145.932C14.9766 145.796 15.015 145.602 15.0632 145.428C15.3833 144.271 16.2177 143.769 17.4172 144.04C18.6478 144.318 19.7503 144.915 20.8541 145.491C25.5227 147.929 30.264 150.197 35.286 151.83C35.9225 152.037 35.9269 152.109 35.4867 152.582C35.439 152.633 35.4087 152.733 35.42 152.802C35.5509 153.616 34.9553 153.733 34.3549 153.929Z" fill="white"/>
<path fill-rule="evenodd" clip-rule="evenodd" d="M18.6768 192.759C19.9925 193.773 21.5465 194.353 22.8534 195.353C23.2382 195.648 23.5797 196.009 23.9919 196.255C24.673 196.661 24.2109 197.161 24.0274 197.474C23.8497 197.778 23.3988 197.946 22.9412 197.666C21.0723 196.521 19.0525 195.636 17.0098 194.918C15.5536 194.406 14.2443 193.478 12.585 193.382C11.9568 193.345 11.2084 192.97 10.4947 192.784C9.54056 192.534 10.2665 191.832 10.2654 191.329C10.2651 191.25 10.4921 191.164 10.4857 191.092C10.4597 190.784 9.66333 190.658 10.1816 190.26C10.885 189.718 11.5442 189.147 12.659 189.412C14.4286 189.834 16.0493 190.559 17.6464 191.365C19.8118 192.458 22.0437 193.449 23.8828 195.092C24.0182 195.213 24.1653 195.322 24.2907 195.453C24.4201 195.588 24.5356 195.774 24.3998 195.938C24.2267 196.146 23.9935 196.059 23.8411 195.897C22.5114 194.488 20.693 193.868 19.0727 192.929C18.9494 192.858 18.8091 192.815 18.6768 192.759Z" fill="white"/>
<path fill-rule="evenodd" clip-rule="evenodd" d="M-2.93098 173.333C-1.28754 174.238 0.354429 175.151 1.93243 176.176C0.874535 174.954 -1.47917 173.558 -2.93098 173.333ZM-5.17717 175.488C-5.29166 175.179 -4.13618 175.907 -4.87153 175.094C-4.8912 175.072 -4.92213 175.028 -4.91484 175.017C-4.51408 174.419 -4.57402 173.92 -5.14929 173.439C-5.30024 173.312 -4.18918 172.171 -3.84058 172.123C-3.31434 172.052 -2.80436 172.151 -2.32517 172.351C0.381077 173.479 2.68285 175.173 4.60453 177.382C5.54616 178.464 5.53672 179.67 4.97977 180.911C4.68052 181.578 4.26629 181.604 3.71304 181.106C3.13109 180.582 2.51832 180.088 1.88537 179.626C1.15507 179.094 0.363925 178.66 -0.337081 178.067C-1.25738 177.288 -2.49912 177.084 -3.56467 176.546C-4.15286 176.247 -4.74655 175.99 -5.17717 175.488Z" fill="white"/>
<path fill-rule="evenodd" clip-rule="evenodd" d="M-2.10361 147.043C-1.97811 146.836 -1.95914 146.724 -2.17404 146.653C-2.95695 146.394 -3.76827 146.189 -4.50378 145.831C-4.94823 145.614 -5.82532 145.729 -5.63497 144.765C-5.6048 144.612 -5.7921 144.656 -5.89456 144.732C-6.13395 144.909 -6.32471 144.823 -6.54773 144.665C-6.92771 144.395 -7.33208 144.342 -7.81924 144.454C-8.71881 144.66 -9.20682 144.058 -8.89218 143.2C-8.85411 143.097 -8.7149 142.908 -8.77836 142.904C-10.2757 142.796 -8.36673 141.854 -9.10792 141.577C-8.92074 141.316 -8.66858 141.182 -8.3491 141.132C-7.6168 141.016 -6.97236 141.273 -6.33644 141.572C-3.92715 142.704 -1.94623 144.429 -0.0114166 146.205C0.454927 146.632 0.52695 147.321 0.743545 147.902C0.870683 148.244 0.596447 148.469 0.329731 148.621C-0.0358006 148.828 -0.0892607 148.632 -0.0101426 148.315C-0.691712 148.322 -1.1928 147.911 -1.73373 147.583C-1.97192 147.439 -2.25358 147.354 -2.10361 147.043Z" fill="white"/>
<path fill-rule="evenodd" clip-rule="evenodd" d="M37.0662 171.504C37.1164 171.425 37.1666 171.347 37.2168 171.269C36.5058 170.887 35.7973 170.501 35.0807 170.13C34.9971 170.087 34.8457 170.001 34.7683 170.152C34.7146 170.258 34.7094 170.432 34.8395 170.457C35.6686 170.618 36.2399 171.345 37.0662 171.504ZM28.5808 168.92C28.1781 168.681 27.5352 168.917 27.4234 168.083C27.3424 167.481 27.6424 167.57 27.9539 167.547C27.8704 167.03 27.2669 167.282 27.1118 166.83C27.9348 166.581 28.7572 166.833 29.5582 166.739C29.5823 166.743 29.6087 166.745 29.6369 166.745C30.2371 167.353 31.0777 167.443 31.816 167.751C32.1211 167.878 32.4763 167.905 32.7561 168.068C35.0072 169.377 37.4107 170.402 39.6029 171.828C41.3211 172.946 43.135 173.915 44.7993 175.121C45.1818 175.398 45.5967 175.638 46.021 176.261C45.0781 175.823 44.3609 175.49 43.6437 175.158C43.6717 175.165 43.7004 175.172 43.73 175.177C42.8636 174.228 41.6064 173.905 40.6288 173.11C40.4006 173.421 40.6664 173.491 40.7058 173.63C40.7726 173.869 40.6315 174.029 40.4299 174.137C40.3312 174.19 40.1873 174.293 40.1341 174.133C39.8978 173.424 39.3111 173.64 38.8348 173.652C38.3082 173.666 37.9997 173.4 37.7362 173.007C37.3305 172.4 36.7917 172.06 36.0316 172.182C35.8597 172.082 35.6875 171.983 35.5157 171.884C35.1281 171.217 33.4081 170.345 32.7157 170.464C32.6675 170.071 31.9094 169.968 32.2812 169.402C32.7118 169.212 32.9146 169.107 32.3355 168.733C31.6043 168.26 30.6646 168.41 29.9997 167.825C29.9012 167.738 29.766 167.753 29.6965 167.887C29.606 168.061 29.6918 168.211 29.8573 168.225C30.5728 168.286 31.1102 168.816 31.7956 168.939C32.0847 168.992 32.3387 169.051 32.3088 169.426C31.0131 169.744 30.0461 168.797 28.9019 168.53C28.7503 168.495 29.1108 167.91 28.6258 168.147C28.3891 168.263 28.2942 168.642 28.5808 168.92Z" fill="white"/>
<path fill-rule="evenodd" clip-rule="evenodd" d="M0.514162 192.465C0.226638 192.126 -0.45207 192.598 -0.37539 192.041C-0.309722 191.567 0.271904 191.696 0.641726 191.788C2.93187 192.358 4.68973 193.677 5.92113 195.678C6.10771 195.982 6.39084 196.421 5.94586 196.744C5.5514 197.032 5.27227 196.65 4.99789 196.44C3.84649 195.56 2.67582 194.73 1.16497 194.596C0.785502 194.563 0.628723 194.268 0.479899 193.967C0.427829 193.862 0.347643 193.758 0.255013 193.687C-0.478128 193.129 -0.583246 192.676 0.514162 192.465Z" fill="white"/>
<path fill-rule="evenodd" clip-rule="evenodd" d="M39.368 170.899C38.2459 170.877 37.5632 169.967 36.6586 169.51C35.9886 169.171 35.2371 168.909 34.6833 168.332C34.5455 168.188 34.2612 168.147 34.3851 167.885C34.4839 167.676 34.7096 167.619 34.934 167.74C36.2836 168.464 37.6474 169.164 38.8992 170.054C39.1948 170.265 39.2126 170.628 39.3478 170.926L39.368 170.899Z" fill="white"/>
<path fill-rule="evenodd" clip-rule="evenodd" d="M39.3476 170.926C39.5865 170.795 39.8068 170.646 40.103 170.834C41.7833 171.895 43.4806 172.931 45.0264 174.189C45.1461 174.287 45.4162 174.326 45.2665 174.576C45.1716 174.734 45.0055 174.708 44.8676 174.614C43.0921 173.402 41.2906 172.232 39.4331 171.148C39.3809 171.118 39.3883 170.984 39.3678 170.899L39.3476 170.926Z" fill="white"/>
<path fill-rule="evenodd" clip-rule="evenodd" d="M29.6369 166.745C29.6087 166.745 29.582 166.743 29.5579 166.739C29.1399 166.607 28.7861 166.28 28.3023 166.344C28.13 166.367 27.8856 166.407 27.8898 166.142C27.8936 165.905 28.1147 165.921 28.3026 165.929C29.9734 165.997 31.5632 166.451 33.1342 166.971C33.4038 167.061 33.7074 167.357 33.5934 167.655C33.4584 168.007 33.1027 167.773 32.8964 167.666C31.8699 167.134 30.7524 166.949 29.6369 166.745Z" fill="white"/>
<path fill-rule="evenodd" clip-rule="evenodd" d="M43.7299 175.177C43.7006 175.172 43.6719 175.166 43.6439 175.158C44.0616 175.515 44.2243 176.175 44.9493 176.189C45.069 176.192 45.5254 176.464 45.2786 176.789C45.0442 177.098 44.753 176.806 44.5817 176.649C43.8073 175.938 42.9504 175.391 41.8327 175.123C42.1536 174.806 42.3457 174.354 42.8014 174.906C43.0462 175.203 43.4307 175.05 43.7299 175.177Z" fill="white"/>
<path fill-rule="evenodd" clip-rule="evenodd" d="M35.5153 171.884C35.6872 171.983 35.8595 172.083 36.0313 172.182C36.1456 172.308 36.2596 172.434 36.3739 172.559C36.3448 172.609 36.3157 172.657 36.2866 172.706C35.718 172.439 35.1497 172.17 34.5811 171.902C34.5978 171.835 34.6149 171.768 34.632 171.701C34.9261 171.762 35.2209 171.823 35.5153 171.884Z" fill="white"/>
<path fill-rule="evenodd" clip-rule="evenodd" d="M29.0775 169.242C29.6928 169.019 30.1417 169.447 30.6428 169.653C31.1342 169.855 31.6093 170.097 32.0919 170.321C31.8621 170.429 31.6514 170.422 31.4109 170.307C30.64 169.937 29.8563 169.594 29.0775 169.242Z" fill="white"/>
<path fill-rule="evenodd" clip-rule="evenodd" d="M324.92 69.4661H130.335C127.574 69.4661 125.335 71.7046 125.335 74.4661V238.749C125.335 242.615 128.469 245.749 132.335 245.749H324.92" fill="#FFED4E"/>
<path d="M125.335 105.938L300.605 106.952" stroke="black" stroke-width="3"/>
<path d="M95.6587 107.707V264.872C95.6587 270.395 100.136 274.872 105.659 274.872H273.31" stroke="#FFED4E" stroke-width="4"/>
<circle cx="179.03" cy="86.8448" r="3.03937" fill="black"/>
<circle cx="160.793" cy="86.8448" r="3.03937" fill="black"/>
<circle cx="145.596" cy="86.8448" r="3.03937" fill="black"/>
<path d="M251.184 169.201C251.184 185.341 238.295 198.388 222.442 198.388C206.589 198.388 193.7 185.341 193.7 169.201C193.7 153.061 206.589 140.014 222.442 140.014C238.295 140.014 251.184 153.061 251.184 169.201Z" stroke="black" stroke-width="3"/>
<path d="M245.568 186.546L271.363 205.225" stroke="black" stroke-width="3" stroke-linecap="round"/>
</g>
</svg>
