<svg width="100%" height="37" viewBox="0 0 129 37" fill="none" xmlns="http://www.w3.org/2000/svg">
<path d="M15.0582 1.48202C15.3142 1.48202 15.4432 1.61002 15.6992 1.73802C14.1612 2.37902 12.6232 4.04502 11.8542 7.63802L9.03424 8.40702C9.93024 5.84002 11.7252 1.48202 15.0582 1.48202ZM16.4682 2.76402C16.8182 3.75137 16.9918 4.79255 16.9812 5.84002V6.09602L13.2632 7.12202C14.0322 4.42802 15.3142 3.27702 16.4682 2.76402ZM19.8012 5.07102L18.1352 5.58402V5.19902C18.1606 4.24437 18.0306 3.29194 17.7502 2.37902C18.2739 2.64259 18.7307 3.02199 19.0859 3.48842C19.4411 3.95486 19.6854 4.49609 19.8002 5.07102H19.8012ZM28.1332 7.12202C28.1286 7.05567 28.1001 6.99322 28.0531 6.94618C28.006 6.89915 27.9436 6.87068 27.8772 6.86602C27.6212 6.86602 24.9292 6.61002 24.9292 6.61002C24.9292 6.61002 23.0052 4.68702 22.7492 4.55802C22.4932 4.30202 22.1082 4.43002 21.9802 4.43002C21.9802 4.43002 21.5952 4.55802 20.9552 4.81502C20.3142 3.02002 19.1602 1.35402 17.2382 1.35402H17.1102C16.9016 1.03506 16.616 0.773845 16.2797 0.594514C15.9434 0.415183 15.5673 0.323528 15.1862 0.328023C10.5732 0.200023 8.39224 5.96802 7.62324 8.91702C6.59824 9.17302 5.57224 9.55802 4.42324 9.94202C3.39324 10.198 3.39324 10.328 3.26524 11.228C3.13724 11.865 0.573242 32.117 0.573242 32.117L20.9542 35.962L31.9732 33.528C31.9732 33.528 28.1332 7.37802 28.1332 7.12202Z" fill="black"/>
<path d="M27.7481 6.86505C27.6201 6.86505 24.9281 6.60905 24.9281 6.60905C24.9281 6.60905 23.0051 4.68605 22.7491 4.55805C22.6211 4.43005 22.6211 4.43005 22.4931 4.43005L20.9541 35.9621L31.9781 33.5301C31.9781 33.5301 28.1321 7.37805 28.1321 7.12205C28.1321 6.99405 27.8761 6.86605 27.7471 6.86605" fill="#222222"/>
<path d="M17.2374 13.0181L15.8274 17.1181C14.9913 16.7002 14.0701 16.4809 13.1354 16.4771C10.9564 16.4771 10.8284 17.7591 10.8284 18.1431C10.8284 19.9381 15.6994 20.7071 15.6994 25.0651C15.6994 28.5261 13.5204 30.7051 10.5724 30.7051C9.59311 30.7275 8.61989 30.5455 7.71489 30.1707C6.80989 29.7959 5.99301 29.2364 5.31641 28.5281L6.21641 25.4521C7.15703 26.2718 8.31245 26.8054 9.54641 26.9901C9.7343 27.0005 9.92228 26.9711 10.0981 26.904C10.2739 26.8368 10.4335 26.7333 10.5666 26.6002C10.6996 26.4672 10.8031 26.3075 10.8703 26.1317C10.9375 25.9559 10.9668 25.768 10.9564 25.5801C10.9564 23.1451 6.98241 23.0161 6.98241 19.0431C6.98241 15.7101 9.41641 12.5021 14.1614 12.5021C15.2152 12.3471 16.291 12.5265 17.2374 13.0151" fill="white"/>
<path d="M44.9245 20.581C43.7705 19.94 43.2585 19.427 43.2585 18.786C43.2585 17.886 44.0275 17.376 45.3095 17.376C46.2412 17.4033 47.1574 17.6215 48.0015 18.017L49.0265 14.941C49.0265 14.941 48.1265 14.172 45.4375 14.172C41.5925 14.172 39.0285 16.351 39.0285 19.427C39.0285 21.222 40.3105 22.503 41.8485 23.401C43.1305 24.17 43.6435 24.683 43.6435 25.452C43.6435 26.221 43.0055 26.99 41.7205 26.99C40.4759 26.9339 39.2553 26.6278 38.1315 26.09L37.1055 29.169C38.3958 29.8896 39.8584 30.244 41.3355 30.194C45.1805 30.194 48.0005 28.271 48.0005 24.81C48.0005 22.887 46.5905 21.478 44.9245 20.581ZM60.4345 14.043C59.5399 14.0476 58.6584 14.2581 57.8583 14.6582C57.0582 15.0583 56.3609 15.6371 55.8205 16.35L57.4865 7.63399H53.1285L48.8985 29.81H53.2565L54.6665 22.247C55.1795 19.427 56.7175 17.632 58.1275 17.632C59.1525 17.632 59.5375 18.273 59.5375 19.298C59.5587 19.9417 59.5159 20.5858 59.4095 21.221L57.7435 29.937H62.1055L63.7715 20.964C63.9146 20.0301 64.0001 19.0884 64.0275 18.144C64.0275 15.58 62.7455 14.044 60.4385 14.044M71.5905 26.734C70.0525 26.734 69.5395 25.452 69.5395 23.914C69.5395 21.479 70.8215 17.377 73.1285 17.377C74.6665 17.377 75.1795 18.659 75.1795 19.941C75.1755 22.76 73.8935 26.733 71.5865 26.733L71.5905 26.734ZM73.7695 14.044C68.5135 14.044 65.0535 18.787 65.0535 24.044C64.9976 24.8496 65.1152 25.6577 65.3982 26.414C65.6813 27.1702 66.1232 27.857 66.6942 28.4279C67.2653 28.9989 67.9521 29.4407 68.7084 29.7236C69.4647 30.0066 70.2729 30.124 71.0785 30.068C76.2055 30.068 79.6665 25.453 79.6665 20.068C79.6625 16.992 77.8675 14.044 73.7655 14.044H73.7695ZM86.5845 26.862C85.9274 26.8781 85.2877 26.6496 84.7895 26.221L85.5585 22.121C86.0715 19.429 87.4815 17.635 89.0195 17.635C90.3015 17.635 90.8145 18.917 90.8145 20.07C90.6855 22.888 89.0195 26.862 86.5845 26.862ZM90.8145 14.044C89.9 14.0886 89.0082 14.343 88.2079 14.7876C87.4076 15.2323 86.7204 15.8551 86.1995 16.608L86.4555 14.301H82.6055C82.4115 16.2387 82.1111 18.1643 81.7055 20.069L78.6365 35.962H82.9945L84.1485 29.55H84.2765C85.0779 29.9233 85.9571 30.0992 86.8405 30.063C91.9675 30.063 95.3005 24.808 95.3005 19.552C95.3005 16.735 94.0185 14.044 90.8145 14.044ZM101.453 7.89099C101.124 7.89449 100.799 7.96399 100.497 8.09538C100.195 8.22677 99.9221 8.41739 99.695 8.65596C99.4678 8.89454 99.2909 9.17622 99.1745 9.48436C99.0582 9.79251 99.0048 10.1209 99.0175 10.45C98.9899 10.7321 99.023 11.0168 99.1145 11.285C99.206 11.5533 99.3539 11.7988 99.5482 12.0052C99.7424 12.2116 99.9786 12.3741 100.241 12.4816C100.503 12.5892 100.785 12.6395 101.068 12.629C101.41 12.65 101.753 12.5982 102.073 12.4771C102.393 12.356 102.684 12.1683 102.926 11.9264C103.169 11.6845 103.357 11.394 103.479 11.074C103.6 10.754 103.653 10.4118 103.632 10.07C103.646 9.78033 103.598 9.49109 103.494 9.22073C103.389 8.95037 103.229 8.70484 103.024 8.4998C102.819 8.29476 102.573 8.13472 102.303 8.0299C102.032 7.92507 101.743 7.87776 101.453 7.89099ZM95.4285 29.81H99.7865L102.735 14.428H98.3765L95.4285 29.81ZM113.758 14.428H110.682L110.81 13.659C111.066 12.121 111.964 10.839 113.374 10.839C113.856 10.8435 114.332 10.9301 114.784 11.095L115.684 7.63399C114.951 7.34418 114.165 7.21297 113.377 7.24899C111.842 7.18389 110.337 7.68575 109.147 8.65899C107.76 9.94134 106.855 11.6607 106.583 13.53L106.455 14.299H104.405L103.764 17.632H105.815L103.505 29.81H107.863L110.17 17.633H113.118L113.758 14.428ZM124.141 14.428C124.141 14.428 121.449 21.222 120.167 24.939C120.039 23.785 119.141 14.428 119.141 14.428H114.526L117.09 28.528C117.111 28.7909 117.067 29.0548 116.962 29.297C116.406 30.3214 115.616 31.2 114.655 31.861C113.914 32.4107 113.093 32.8431 112.22 33.143L113.374 36.86C114.963 36.4752 116.423 35.6785 117.605 34.55C119.993 32.0545 121.904 29.1441 123.245 25.962L128.5 14.554L124.141 14.428Z" fill="black"/>
</svg>
