<svg width="100%" height="23" viewBox="0 0 67 23" fill="none" xmlns="http://www.w3.org/2000/svg">
<path d="M25.7439 1.18106L17.0789 21.858H11.4239L7.16286 5.35805C7.12287 4.97149 6.98499 4.60152 6.76225 4.28307C6.53951 3.96461 6.23926 3.7082 5.88986 3.53806C4.20915 2.73779 2.43559 2.14929 0.609863 1.78606L0.740863 1.18605H9.84086C10.4352 1.18434 11.0105 1.395 11.4632 1.78004C11.9159 2.16509 12.2162 2.69919 12.3099 3.28606L14.5629 15.2531L20.1249 1.18605H25.7449L25.7439 1.18106ZM47.8969 15.104C47.9219 9.65005 40.3499 9.35306 40.4039 6.91306C40.4189 6.16806 41.1249 5.38006 42.6709 5.18106C44.4801 5.00818 46.3025 5.3267 47.9459 6.10306L48.8849 1.72005C47.2858 1.12048 45.5926 0.810646 43.8849 0.805054C38.5979 0.805054 34.8769 3.61706 34.8449 7.64006C34.8099 10.6151 37.4999 12.2761 39.5289 13.2661C41.6119 14.2801 42.3089 14.9271 42.3019 15.8371C42.2879 17.2251 40.6399 17.8311 39.1019 17.8591C37.1869 17.9011 35.2932 17.4511 33.6019 16.552L32.6339 21.0851C34.5313 21.8195 36.5493 22.1926 38.5839 22.1851C44.2029 22.1851 47.8799 19.403 47.8969 15.104ZM61.8569 21.858H66.8099L62.4889 1.18605H57.9209C57.4333 1.18232 56.9558 1.32474 56.5499 1.59496C56.1441 1.86517 55.8285 2.25078 55.6439 2.70206L47.6229 21.8631H53.2369L54.3509 18.7751H61.2099L61.8569 21.858ZM55.8879 14.5321L58.7049 6.76805L60.3249 14.5321H55.8879ZM33.3879 1.18106L28.9619 21.858H23.6099L28.0369 1.18106H33.3879Z" fill="black"/>
</svg>
