<svg width="100%" height="10px" viewBox="0 0 2500 812" fill="none" xmlns="http://www.w3.org/2000/svg">
<g clip-path="url(#clip0_25_19)">
<path d="M1628.34 0.98999C1450.83 0.98999 1292.2 92.997 1292.2 262.987C1292.2 457.932 1573.54 471.395 1573.54 569.331C1573.54 610.567 1526.28 647.481 1445.57 647.481C1331.02 647.481 1245.41 595.902 1245.41 595.902L1208.78 767.441C1208.78 767.441 1307.4 811.01 1438.34 811.01C1632.41 811.01 1785.13 714.483 1785.13 541.591C1785.13 335.595 1502.62 322.529 1502.62 231.631C1502.62 199.323 1541.41 163.93 1621.89 163.93C1712.7 163.93 1786.79 201.443 1786.79 201.443L1822.64 35.7673C1822.64 35.7673 1742.03 0.98999 1628.34 0.98999ZM4.2993 13.495L0 38.5025C0 38.5025 74.6797 52.1687 141.939 79.4334C228.541 110.695 234.712 128.895 249.297 185.422L408.231 798.115H621.289L949.517 13.495H736.949L526.044 546.961L439.982 94.7688C432.09 43.017 392.11 13.495 343.173 13.495H4.2993ZM1034.99 13.495L868.241 798.112H1070.94L1237.11 13.4925H1034.99V13.495ZM2165.52 13.495C2116.64 13.495 2090.75 39.6637 2071.74 85.3919L1774.77 798.112H1987.34L2028.47 679.323H2287.43L2312.44 798.112H2500L2336.37 13.495H2165.52ZM2193.17 225.474L2256.17 519.901H2087.37L2193.17 225.474Z" fill="#1434CB"/>
</g>
<defs>
<clipPath id="clip0_25_19">
<rect width="2500" height="812" fill="white"/>
</clipPath>
</defs>
</svg>
