<svg width="100%" height="20" viewBox="0 0 83 20" fill="none" xmlns="http://www.w3.org/2000/svg">
<path fill-rule="evenodd" clip-rule="evenodd" d="M67.5979 6.05407C67.8985 6.63075 68.0546 7.27176 68.0529 7.92207L68.0979 8.85407V15.3661L68.1439 16.2991C68.1724 17.0191 68.4715 17.7019 68.9815 18.211C69.4915 18.72 70.1748 19.0179 70.8949 19.0451L71.8229 19.0911V8.85407L71.8689 7.92207C71.8708 7.26868 72.0296 6.62531 72.3319 6.04607C72.6598 5.48126 73.1305 5.01265 73.6967 4.6873C74.263 4.36195 74.9048 4.19131 75.5579 4.19253C76.211 4.19374 76.8522 4.36677 77.4172 4.69422C77.9823 5.02168 78.4512 5.49204 78.7769 6.05807C79.0735 6.63475 79.2291 7.27357 79.2309 7.92207L79.2769 8.85107V15.3661L79.3229 16.2991C79.3486 17.02 79.6468 17.7044 80.1574 18.2141C80.668 18.7237 81.3529 19.0207 82.0739 19.0451L83.0019 19.0911V7.92207C83.0031 6.40798 82.5429 4.92948 81.6825 3.68357C80.8222 2.43767 79.6026 1.48353 78.1862 0.948275C76.7699 0.413025 75.2241 0.322088 73.7548 0.687579C72.2855 1.05307 70.9624 1.85764 69.9619 2.99407C68.765 1.63446 67.1133 0.757949 65.3165 0.528762C63.5196 0.299575 61.7008 0.733441 60.2009 1.74907C59.2926 0.948181 58.1306 0.493797 56.9199 0.466068V19.0961L57.8519 19.0501C58.5754 19.0348 59.265 18.7405 59.7767 18.2288C60.2884 17.7171 60.5826 17.0276 60.5979 16.3041L60.6479 15.3711V8.85407L60.6939 7.92207C60.6941 7.27071 60.8502 6.62886 61.1489 6.05007C61.4765 5.48521 61.9468 5.01635 62.5126 4.69041C63.0784 4.36448 63.72 4.19292 64.3729 4.19292C65.0259 4.19292 65.6674 4.36448 66.2333 4.69041C66.7991 5.01635 67.2693 5.48521 67.5969 6.05007L67.5979 6.05407ZM3.83193 19.0541L4.76393 19.0991H18.7339L18.6879 18.1701C18.6555 17.4517 18.3558 16.7713 17.8476 16.2625C17.3393 15.7537 16.6593 15.4533 15.9409 15.4201L15.0069 15.3661H6.62793L17.8069 4.19307L17.7559 3.26607C17.7392 2.54207 17.4442 1.85234 16.9323 1.34007C16.4204 0.827803 15.7309 0.532356 15.0069 0.515068L14.0769 0.473068L0.106934 0.466068L0.152934 1.39807C0.186442 2.11593 0.486392 2.79552 0.994182 3.30405C1.50197 3.81258 2.18112 4.11351 2.89893 4.14807L3.83193 4.19407H12.2129L1.03893 15.3721L1.08493 16.3041C1.10914 17.0248 1.40636 17.7095 1.91639 18.2193C2.42643 18.7292 3.11116 19.0261 3.83193 19.0501V19.0541ZM53.2639 3.19507C54.7884 4.71935 55.7373 6.72504 55.9489 8.87045C56.1605 11.0159 55.6217 13.1683 54.4243 14.961C53.2269 16.7537 51.445 18.0758 49.3822 18.7021C47.3194 19.3284 45.1032 19.2202 43.1112 18.3958C41.1193 17.5714 39.4748 16.0819 38.4578 14.181C37.4409 12.2801 37.1145 10.0854 37.5342 7.97082C37.9539 5.85625 39.0937 3.9526 40.7596 2.58418C42.4254 1.21576 44.5141 0.467212 46.6699 0.466068C47.8942 0.464961 49.1066 0.705244 50.2379 1.17317C51.3692 1.6411 52.3972 2.32749 53.2629 3.19307L53.2639 3.19507ZM50.6279 5.83307C51.4101 6.61448 51.943 7.61033 52.1591 8.69465C52.3752 9.77896 52.2649 10.903 51.842 11.9246C51.4192 12.9462 50.7028 13.8194 49.7836 14.4338C48.8644 15.0482 47.7836 15.3761 46.6779 15.3761C45.5723 15.3761 44.4915 15.0482 43.5723 14.4338C42.653 13.8194 41.9367 12.9462 41.5138 11.9246C41.091 10.903 40.9806 9.77896 41.1967 8.69465C41.4129 7.61033 41.9457 6.61448 42.7279 5.83307C43.7762 4.78665 45.1968 4.19893 46.6779 4.19893C48.1591 4.19893 49.5797 4.78665 50.6279 5.83307ZM27.1229 0.466068C29.5946 0.468189 31.9642 1.45181 33.7108 3.20066C35.4574 4.94951 36.438 7.32041 36.4369 9.79206C36.4359 12.2637 35.4533 14.6338 33.7052 16.3811C31.9571 18.1285 29.5866 19.1101 27.1149 19.1101C24.6433 19.1101 22.2728 18.1285 20.5247 16.3811C18.7766 14.6338 17.794 12.2637 17.7929 9.79206C17.7919 7.32041 18.7724 4.94951 20.519 3.20066C22.2656 1.45181 24.6353 0.468189 27.1069 0.466068H27.1189H27.1229ZM31.0689 5.82907C31.8511 6.61048 32.384 7.60633 32.6001 8.69065C32.8162 9.77496 32.7059 10.899 32.283 11.9206C31.8602 12.9422 31.1438 13.8154 30.2246 14.4298C29.3054 15.0442 28.2246 15.3721 27.1189 15.3721C26.0133 15.3721 24.9325 15.0442 24.0133 14.4298C23.094 13.8154 22.3777 12.9422 21.9548 11.9206C21.532 10.899 21.4216 9.77496 21.6377 8.69065C21.8539 7.60633 22.3867 6.61048 23.1689 5.82907C24.2172 4.78265 25.6378 4.19493 27.1189 4.19493C28.6001 4.19493 30.0207 4.78265 31.0689 5.82907Z" fill="black"/>
</svg>
