<svg xmlns="http://www.w3.org/2000/svg" xmlns:xlink="http://www.w3.org/1999/xlink" width="31" height="31" viewBox="0 0 31 31">
  <defs>
    <linearGradient id="linear-gradient" x1="1.02" y1="0.344" x2="-0.174" y2="0.424" gradientUnits="objectBoundingBox">
      <stop offset="0" stop-color="#2fbc18"/>
      <stop offset="1" stop-color="#185e0c"/>
    </linearGradient>
  </defs>
  <g id="Group_605" data-name="Group 605" transform="translate(-1986 1200)">
    <g id="Group_604" data-name="Group 604">
      <rect id="Rectangle_150609" data-name="Rectangle 150609" width="31" height="31" rx="4" transform="translate(1986 -1200)" fill="rgba(255,255,255,0.14)"/>
      <g id="Group_603" data-name="Group 603" transform="translate(-2.777 1.494)">
        <g id="Group_602" data-name="Group 602" transform="translate(1990.777 -1193.494)">
          <g id="Group_337" data-name="Group 337" transform="translate(0)">
            <path id="Path_146685" data-name="Path 146685" d="M13.972,11.157a9.061,9.061,0,0,1-3.456,2.761,7.658,7.658,0,0,1-5.234.311,7.45,7.45,0,0,1-4.155-3.115A7.116,7.116,0,0,1,.1,6.108,7.231,7.231,0,0,1,2.7,1.676a7.629,7.629,0,0,1,9.537,0c.044.034.164.134.281.239a6.707,6.707,0,0,1,.9.908c-.03-.04.519.512.552.558a8.523,8.523,0,0,1,.67,1.065L13.424,5.485l-.273.23-.164-.153L11.614,4.027s-.4-.434-.553-.568a5.424,5.424,0,0,0-6.984-.166A5.142,5.142,0,0,0,2.226,6.445a5.059,5.059,0,0,0,.732,3.561,5.3,5.3,0,0,0,2.955,2.216A5.449,5.449,0,0,0,9.637,12,10.732,10.732,0,0,0,12,10.115c.515-.5.918-.919.918-.919s.341-.6.83-.382.224,2.344.224,2.344Z" transform="translate(26.649 14.894) rotate(180)" fill="url(#linear-gradient)"/>
            <path id="Path_146685-2" data-name="Path 146685" d="M1682.791,5992.495a9.155,9.155,0,0,1-2.853,1.717,7.657,7.657,0,0,1-5.234.312,7.452,7.452,0,0,1-4.155-3.115,7.115,7.115,0,0,1-1.029-5.006,7.228,7.228,0,0,1,2.6-4.431,7.628,7.628,0,0,1,9.537-.005c.044.033.164.134.281.238a5.983,5.983,0,0,1,1.453,1.725l.634,1.2-1.581,1.677s-.531-1.222-.9-1.823a3.623,3.623,0,0,0-1.445-1.574,4.859,4.859,0,0,0-3.082-1.017,5.4,5.4,0,0,0-3.524,1.191,5.143,5.143,0,0,0-1.852,3.152,5.058,5.058,0,0,0,.732,3.561,5.3,5.3,0,0,0,2.956,2.216,5.448,5.448,0,0,0,3.723-.221,11.013,11.013,0,0,0,2.392-1.584l.464.728.876,1.057Z" transform="translate(-1669.423 -5980.294)" fill="#62d84e"/>
            <ellipse id="Ellipse_2" data-name="Ellipse 2" cx="0.975" cy="1.034" rx="0.975" ry="1.034" transform="translate(10.945 7.338)" fill="#2db017"/>
            <ellipse id="Ellipse_5" data-name="Ellipse 5" cx="0.975" cy="1.034" rx="0.975" ry="1.034" transform="translate(13.545 5.959)" fill="#62d84e"/>
          </g>
        </g>
      </g>
    </g>
  </g>
</svg>
